<?xml version="1.0" encoding="UTF-8" standalone="no"?>
<svg
   xmlns:dc="http://purl.org/dc/elements/1.1/"
   xmlns:cc="http://creativecommons.org/ns#"
   xmlns:rdf="http://www.w3.org/1999/02/22-rdf-syntax-ns#"
   xmlns:svg="http://www.w3.org/2000/svg"
   xmlns="http://www.w3.org/2000/svg"
   xmlns:sodipodi="http://sodipodi.sourceforge.net/DTD/sodipodi-0.dtd"
   xmlns:inkscape="http://www.inkscape.org/namespaces/inkscape"
   width="1000"
   height="296.07275"
   viewBox="0 0 800.00004 236.85818"
   id="svg2"
   version="1.1"
   inkscape:version="1.0.1 (3bc2e813f5, 2020-09-07)"
   sodipodi:docname="Fiscalía_General_de_la_Nación_(Colombia)_logo.svg"
   style="fill-rule:evenodd">
  <title
     id="title3023">Fiscalía General de la Nación (Colombia)  logo</title>
  <metadata
     id="metadata42">
    <rdf:RDF>
      <cc:Work
         rdf:about="">
        <dc:format>image/svg+xml</dc:format>
        <dc:type
           rdf:resource="http://purl.org/dc/dcmitype/StillImage" />
        <dc:title>Fiscalía General de la Nación (Colombia)  logo</dc:title>
      </cc:Work>
    </rdf:RDF>
  </metadata>
  <defs
     id="defs40" />
  <sodipodi:namedview
     pagecolor="#ffffff"
     bordercolor="#666666"
     borderopacity="1"
     objecttolerance="10"
     gridtolerance="10"
     guidetolerance="10"
     inkscape:pageopacity="0"
     inkscape:pageshadow="2"
     inkscape:window-width="1920"
     inkscape:window-height="1001"
     id="namedview38"
     showgrid="false"
     inkscape:zoom="0.48294118"
     inkscape:cx="1200.518"
     inkscape:cy="14.061958"
     inkscape:window-x="-9"
     inkscape:window-y="-9"
     inkscape:window-maximized="1"
     inkscape:current-layer="g4"
     inkscape:showpageshadow="false"
     showguides="false"
     inkscape:document-rotation="0"
     fit-margin-top="0"
     fit-margin-left="0"
     fit-margin-right="0"
     fit-margin-bottom="0">
    <inkscape:grid
       type="xygrid"
       id="grid3405"
       originx="4.2100053e-07"
       originy="-2.3559679e-07" />
  </sodipodi:namedview>
  <g
     id="g4"
     transform="matrix(0.15104175,0,0,0.15111328,0.67510806,-46.414075)">
    <g
       id="g6"
       transform="matrix(8.1285302,0,0,8.1285302,111.58785,-2208.6924)">
      <g
         id="g8">
        <path
           style="fill:#e20025;stroke:none;fill-opacity:1"
           d="m 179.209,423.871 h 447.069 v 66.267 H 179.209 Z"
           id="path30"
           inkscape:connector-curvature="0" />
        <path
           style="fill:#e20025;stroke:none;fill-opacity:1"
           d="m 196.277,391.811 c 0,1.314 0.149,2.206 0.464,2.673 0.298,0.491 0.977,0.87 2.004,1.182 v 1.76 h -16.378 v -1.76 c 1.027,-0.357 1.705,-0.78 2.003,-1.271 0.315,-0.512 0.464,-1.359 0.464,-2.584 v -58.939 c 0,-1.315 -0.165,-2.207 -0.48,-2.719 -0.331,-0.49 -0.994,-0.891 -1.987,-1.203 v -1.694 h 46.816 c 1.01,0 1.672,-0.223 2.02,-0.646 0.331,-0.446 0.613,-1.337 0.844,-2.674 h 1.309 v 19.074 h -1.309 c -0.231,-1.314 -0.529,-2.161 -0.927,-2.585 -0.38,-0.423 -1.027,-0.623 -1.937,-0.623 H 196.277 V 355.2 h 20.966 c 1.043,0 1.722,-0.201 2.036,-0.58 0.332,-0.401 0.613,-1.27 0.878,-2.629 h 1.259 v 17.781 h -1.259 c -0.198,-1.27 -0.48,-2.116 -0.844,-2.562 -0.381,-0.423 -1.06,-0.646 -2.07,-0.646 h -20.966 z m 62.882,0 c 0,1.359 0.149,2.25 0.463,2.718 0.315,0.446 0.944,0.847 1.921,1.204 v 1.693 h -16.312 v -1.76 c 1.01,-0.312 1.656,-0.713 1.954,-1.203 0.282,-0.513 0.431,-1.382 0.431,-2.652 v -58.939 c 0,-1.359 -0.149,-2.273 -0.464,-2.786 -0.315,-0.49 -0.944,-0.869 -1.921,-1.136 v -1.694 h 16.312 v 1.694 c -0.944,0.267 -1.573,0.646 -1.904,1.136 -0.315,0.513 -0.48,1.427 -0.48,2.786 z m 16.545,0.133 5.581,-16.712 1.606,0.914 c -0.033,0.089 -0.066,0.222 -0.099,0.401 -0.067,0.379 -0.116,0.713 -0.149,0.98 0,1.738 2.136,3.632 6.392,5.705 4.239,2.072 8.628,3.097 13.116,3.097 4.04,0 7.352,-0.914 9.952,-2.718 2.584,-1.805 3.876,-4.056 3.876,-6.753 0,-4.434 -4.372,-6.907 -13.1,-7.442 -3.229,-0.156 -5.746,-0.356 -7.568,-0.579 -6.276,-0.736 -10.946,-2.719 -13.993,-5.95 -3.063,-3.209 -4.587,-7.687 -4.587,-13.437 0,-6.93 2.219,-12.523 6.64,-16.779 4.439,-4.256 10.284,-6.395 17.571,-6.395 5.978,0 12.569,2.117 19.74,6.328 1.788,1.048 2.848,1.582 3.213,1.582 0.215,0 0.463,-0.089 0.728,-0.267 0.249,-0.178 0.646,-0.535 1.159,-1.047 l 1.209,0.78 -6.342,16.578 -1.656,-1.181 c 0,-0.134 0,-0.223 0.016,-0.289 0.017,-0.067 0.033,-0.201 0.033,-0.424 0,-2.095 -1.987,-4.301 -5.945,-6.618 -3.958,-2.339 -8.115,-3.498 -12.437,-3.498 -3.825,0 -6.889,0.802 -9.224,2.406 -2.335,1.627 -3.494,3.699 -3.494,6.262 0,3.743 3.743,5.927 11.211,6.529 3.876,0.356 6.956,0.713 9.257,1.114 6.277,1.047 11.08,3.342 14.392,6.93 3.312,3.565 4.968,8.2 4.968,13.905 0,6.707 -2.418,12.256 -7.27,16.645 -4.853,4.39 -11.096,6.596 -18.73,6.596 -7.287,0 -14.242,-2.094 -20.866,-6.284 -1.259,-0.78 -2.02,-1.159 -2.285,-1.159 -0.348,0 -0.613,0.09 -0.796,0.29 -0.181,0.2 -0.347,0.58 -0.513,1.137 z m 112.96,-18.74 1.059,-0.913 7.287,15.085 -1.126,0.981 c -0.381,-0.424 -0.679,-0.735 -0.861,-0.869 -0.199,-0.156 -0.398,-0.245 -0.58,-0.245 -0.397,0 -1.441,0.713 -3.163,2.094 -7.949,6.262 -15.649,9.404 -23.085,9.404 -8.661,0 -15.865,-3.477 -21.611,-10.407 -5.747,-6.952 -8.611,-15.642 -8.611,-26.093 0,-10.674 2.914,-19.409 8.76,-26.25 5.829,-6.841 13.43,-10.25 22.771,-10.25 4.785,0 9.604,1.047 14.473,3.164 4.868,2.117 7.452,3.187 7.75,3.187 0.381,-0.045 0.795,-0.112 1.226,-0.178 0.447,-0.067 0.927,-0.134 1.49,-0.224 l 1.06,0.914 -7.319,15.866 -1.226,-0.914 c 0.033,-0.089 0.049,-0.178 0.066,-0.267 0.017,-0.089 0.033,-0.223 0.033,-0.379 0,-1.961 -1.921,-3.989 -5.746,-6.083 -3.826,-2.095 -7.866,-3.142 -12.106,-3.142 -5.812,0 -10.598,2.25 -14.341,6.751 -3.759,4.524 -5.631,10.184 -5.631,17.025 0,7.265 1.872,13.147 5.598,17.626 3.742,4.479 8.628,6.73 14.673,6.73 4.438,0 8.793,-1.293 13.098,-3.878 4.306,-2.607 6.442,-4.702 6.442,-6.306 0,-0.312 -0.032,-0.668 -0.083,-1.092 -0.065,-0.401 -0.165,-0.847 -0.297,-1.337 z m 15.683,24.222 v -1.76 c 1.806,-0.647 3.28,-2.652 4.422,-5.994 0.083,-0.313 0.183,-0.602 0.281,-0.847 l 19.36,-54.527 c 0.232,-0.602 0.364,-1.025 0.414,-1.27 0.05,-0.245 0.082,-0.468 0.082,-0.691 0,-0.78 -0.248,-1.448 -0.712,-2.006 -0.463,-0.579 -1.159,-1.025 -2.053,-1.381 v -1.694 h 17.654 v 1.694 c -0.978,0.445 -1.624,0.869 -1.971,1.314 -0.331,0.424 -0.497,0.981 -0.497,1.627 0,0.312 0.033,0.647 0.116,1.048 0.082,0.378 0.199,0.846 0.364,1.359 l 19.988,54.594 c 0.878,2.339 1.657,3.988 2.352,4.924 0.696,0.936 1.524,1.538 2.501,1.85 v 1.76 h -18.78 v -1.76 c 0.911,-0.402 1.54,-0.825 1.921,-1.271 0.364,-0.467 0.563,-1.047 0.563,-1.804 0,-0.29 -0.033,-0.624 -0.099,-0.981 -0.066,-0.334 -0.199,-0.824 -0.398,-1.426 l -3.775,-10.763 h -23.93 l -3.593,10.763 c -0.183,0.602 -0.315,1.092 -0.381,1.426 -0.067,0.357 -0.1,0.691 -0.1,0.981 0,0.757 0.182,1.337 0.563,1.804 0.365,0.446 1.011,0.869 1.921,1.271 v 1.76 z m 30.124,-52.276 -8.877,24.734 h 17.323 z m 87.242,39.686 c 1.042,0 1.721,-0.2 2.036,-0.579 0.331,-0.401 0.596,-1.248 0.828,-2.563 l 1.309,-0.067 v 19.119 h -1.309 c -0.198,-1.292 -0.48,-2.183 -0.878,-2.629 -0.38,-0.468 -1.042,-0.691 -1.986,-0.691 h -46.618 v -1.76 c 1.027,-0.357 1.706,-0.78 2.003,-1.271 0.315,-0.512 0.464,-1.359 0.464,-2.584 v -58.939 c 0,-1.315 -0.165,-2.207 -0.48,-2.719 -0.331,-0.49 -0.994,-0.891 -1.987,-1.203 v -1.694 h 16.378 v 1.694 c -0.96,0.312 -1.623,0.713 -1.954,1.203 -0.348,0.512 -0.514,1.404 -0.514,2.719 v 51.964 z m 30.753,6.975 c 0,1.359 0.149,2.25 0.464,2.718 0.315,0.446 0.944,0.847 1.921,1.204 v 1.693 h -16.312 v -1.76 c 1.01,-0.312 1.656,-0.713 1.954,-1.203 0.282,-0.513 0.431,-1.382 0.431,-2.652 v -58.939 c 0,-1.359 -0.149,-2.273 -0.464,-2.786 -0.314,-0.49 -0.944,-0.869 -1.921,-1.136 v -1.694 h 16.312 v 1.694 c -0.944,0.267 -1.573,0.646 -1.904,1.136 -0.315,0.513 -0.481,1.427 -0.481,2.786 z m 10.402,5.615 v -1.76 c 1.805,-0.647 3.279,-2.652 4.422,-5.994 0.082,-0.313 0.182,-0.602 0.281,-0.847 l 19.359,-54.527 c 0.232,-0.602 0.364,-1.025 0.414,-1.27 0.05,-0.245 0.083,-0.468 0.083,-0.691 0,-0.78 -0.248,-1.448 -0.712,-2.006 -0.464,-0.579 -1.159,-1.025 -2.054,-1.381 v -1.694 h 17.654 v 1.694 c -0.977,0.445 -1.623,0.869 -1.971,1.314 -0.331,0.424 -0.497,0.981 -0.497,1.627 0,0.312 0.033,0.647 0.116,1.048 0.083,0.378 0.199,0.846 0.364,1.359 l 19.989,54.594 c 0.877,2.339 1.656,3.988 2.351,4.924 0.696,0.936 1.524,1.538 2.501,1.85 v 1.76 h -18.779 v -1.76 c 0.91,-0.402 1.539,-0.825 1.921,-1.271 0.364,-0.467 0.563,-1.047 0.563,-1.804 0,-0.29 -0.033,-0.624 -0.1,-0.981 -0.066,-0.334 -0.198,-0.824 -0.397,-1.426 L 604.6,379.421 h -23.93 l -3.593,10.763 c -0.182,0.602 -0.315,1.092 -0.381,1.426 -0.066,0.357 -0.1,0.691 -0.1,0.981 0,0.757 0.183,1.337 0.564,1.804 0.364,0.446 1.01,0.869 1.92,1.271 v 1.76 z m 30.123,-52.276 -8.876,24.734 h 17.322 z"
           id="path32"
           inkscape:connector-curvature="0" />
        <path
           style="fill:#fefefd;stroke:none;fill-opacity:1"
           d="m 201.729,461.892 v -3.457 l 10.895,-0.02 v 10.947 c -1.671,1.532 -3.396,2.68 -5.175,3.457 -1.779,0.769 -3.605,1.154 -5.474,1.154 -2.528,0 -4.828,-0.618 -6.888,-1.862 -2.066,-1.237 -3.624,-3.038 -4.678,-5.381 -1.054,-2.35 -1.581,-4.975 -1.581,-7.875 0,-2.873 0.527,-5.553 1.575,-8.041 1.042,-2.494 2.552,-4.343 4.516,-5.552 1.965,-1.203 4.229,-1.807 6.792,-1.807 1.857,0 3.54,0.343 5.043,1.037 1.504,0.687 2.684,1.649 3.534,2.886 0.857,1.237 1.503,2.845 1.952,4.831 l -3.072,0.969 c -0.389,-1.505 -0.868,-2.687 -1.438,-3.546 -0.574,-0.859 -1.395,-1.546 -2.461,-2.061 -1.06,-0.516 -2.246,-0.777 -3.54,-0.777 -1.557,0 -2.905,0.275 -4.037,0.818 -1.138,0.543 -2.048,1.258 -2.749,2.144 -0.695,0.887 -1.234,1.856 -1.623,2.921 -0.653,1.821 -0.982,3.8 -0.982,5.937 0,2.632 0.395,4.831 1.186,6.604 0.79,1.773 1.94,3.086 3.45,3.945 1.509,0.859 3.108,1.292 4.803,1.292 1.48,0 2.917,-0.33 4.318,-0.983 1.408,-0.646 2.468,-1.34 3.193,-2.082 v -5.498 z m 15.986,11.579 v -29.515 h 18.597 v 3.484 h -15.195 v 9.037 h 14.231 v 3.464 h -14.231 v 10.046 h 15.794 v 3.484 z m 23.861,0 v -29.515 h 3.492 l 13.512,23.173 v -23.173 h 3.264 v 29.515 h -3.491 l -13.512,-23.193 v 23.193 z m 26.06,0 v -29.515 h 18.597 v 3.484 h -15.195 v 9.037 h 14.231 v 3.464 h -14.231 v 10.046 h 15.794 v 3.484 z m 23.952,0 v -29.515 h 11.404 c 2.294,0 4.036,0.268 5.229,0.797 1.191,0.529 2.144,1.464 2.862,2.804 0.713,1.347 1.066,2.831 1.066,4.453 0,2.096 -0.587,3.855 -1.772,5.291 -1.18,1.437 -3.007,2.351 -5.475,2.742 0.905,0.495 1.588,0.983 2.055,1.471 0.994,1.045 1.934,2.357 2.827,3.924 l 4.474,8.033 h -4.283 l -3.402,-6.143 c -0.994,-1.766 -1.814,-3.127 -2.461,-4.062 -0.641,-0.941 -1.216,-1.601 -1.725,-1.972 -0.509,-0.378 -1.024,-0.639 -1.551,-0.79 -0.39,-0.09 -1.019,-0.137 -1.899,-0.137 h -3.947 v 13.104 z m 3.402,-16.486 h 7.319 c 1.551,0 2.773,-0.185 3.648,-0.556 0.88,-0.371 1.545,-0.962 2,-1.773 0.455,-0.811 0.683,-1.691 0.683,-2.646 0,-1.395 -0.437,-2.543 -1.324,-3.443 -0.88,-0.9 -2.276,-1.347 -4.186,-1.347 h -8.14 z m 19.669,16.486 9.883,-29.515 h 3.665 l 10.529,29.515 h -3.881 l -3,-8.94 h -10.757 l -2.821,8.94 z m 7.421,-12.122 h 8.727 l -2.69,-8.171 c -0.814,-2.48 -1.425,-4.521 -1.82,-6.123 -0.33,1.897 -0.791,3.773 -1.39,5.642 z m 19.232,12.122 v -29.515 h 3.408 v 26.031 h 12.667 v 3.484 z m 28.779,0 v -29.515 h 8.858 c 2.001,0 3.528,0.144 4.582,0.426 1.474,0.385 2.731,1.093 3.773,2.11 1.354,1.319 2.372,2.996 3.043,5.044 0.677,2.048 1.012,4.384 1.012,7.016 0,2.241 -0.227,4.227 -0.689,5.958 -0.455,1.732 -1.036,3.168 -1.754,4.302 -0.713,1.134 -1.492,2.027 -2.342,2.673 -0.845,0.653 -1.869,1.148 -3.067,1.485 -1.204,0.336 -2.581,0.501 -4.132,0.501 z m 3.402,-3.484 h 5.492 c 1.695,0 3.031,-0.178 3.995,-0.542 0.965,-0.365 1.731,-0.873 2.306,-1.533 0.809,-0.921 1.437,-2.171 1.887,-3.732 0.449,-1.566 0.677,-3.456 0.677,-5.69 0,-3.085 -0.444,-5.456 -1.324,-7.112 -0.887,-1.663 -1.959,-2.77 -3.222,-3.333 -0.911,-0.405 -2.384,-0.605 -4.403,-0.605 h -5.408 z m 22.622,3.484 v -29.515 h 18.597 v 3.484 h -15.195 v 9.037 h 14.231 v 3.464 h -14.231 v 10.046 h 15.794 v 3.484 z m 33.738,0 v -29.515 h 3.408 v 26.031 h 12.668 v 3.484 z m 17.304,0 9.882,-29.515 h 3.665 l 10.53,29.515 h -3.881 l -3.001,-8.94 h -10.757 l -2.821,8.94 z m 7.42,-12.122 h 8.727 l -2.689,-8.171 c -0.815,-2.48 -1.426,-4.521 -1.821,-6.123 -0.329,1.897 -0.791,3.773 -1.39,5.642 z m 27.342,12.122 v -29.515 h 3.492 l 13.512,23.173 v -23.173 h 3.264 v 29.515 h -3.492 l -13.512,-23.193 v 23.193 z m 23.161,0 9.882,-29.515 h 3.666 l 10.529,29.515 h -3.881 l -3,-8.94 h -10.757 l -2.821,8.94 z m 7.421,-12.122 h 8.726 l -2.689,-8.171 c -0.814,-2.48 -1.425,-4.521 -1.821,-6.123 -0.329,1.897 -0.79,3.773 -1.389,5.642 z m 37.727,1.773 3.408,0.99 c -0.713,3.202 -2.001,5.649 -3.851,7.339 -1.857,1.684 -4.121,2.522 -6.804,2.522 -2.773,0 -5.025,-0.646 -6.762,-1.938 -1.737,-1.299 -3.061,-3.175 -3.965,-5.628 -0.905,-2.46 -1.36,-5.099 -1.36,-7.917 0,-3.071 0.509,-5.751 1.534,-8.04 1.023,-2.288 2.479,-4.027 4.372,-5.216 1.886,-1.189 3.965,-1.779 6.234,-1.779 2.576,0 4.738,0.748 6.493,2.253 1.755,1.506 2.977,3.615 3.666,6.343 l -3.348,0.908 c -0.6,-2.151 -1.462,-3.712 -2.6,-4.694 -1.132,-0.983 -2.557,-1.471 -4.282,-1.471 -1.977,0 -3.624,0.543 -4.953,1.629 -1.33,1.093 -2.265,2.549 -2.797,4.384 -0.54,1.828 -0.809,3.718 -0.809,5.663 0,2.515 0.317,4.7 0.952,6.576 0.641,1.869 1.629,3.271 2.977,4.199 1.348,0.928 2.803,1.388 4.372,1.388 1.905,0 3.516,-0.632 4.84,-1.889 1.323,-1.265 2.216,-3.141 2.683,-5.622 z m 8.181,10.349 v -29.515 h 3.402 v 29.515 z m 8.368,-14.376 c 0,-4.9 1.144,-8.734 3.437,-11.504 2.295,-2.769 5.253,-4.157 8.883,-4.157 2.372,0 4.516,0.653 6.421,1.951 1.904,1.306 3.36,3.12 4.36,5.45 1,2.323 1.497,4.968 1.497,7.916 0,2.997 -0.521,5.677 -1.575,8.034 -1.054,2.364 -2.546,4.151 -4.474,5.367 -1.935,1.216 -4.013,1.821 -6.247,1.821 -2.426,0 -4.588,-0.667 -6.493,-2.013 -1.91,-1.34 -3.354,-3.175 -4.336,-5.498 -0.982,-2.316 -1.473,-4.776 -1.473,-7.367 z m 3.509,0.062 c 0,3.56 0.833,6.357 2.498,8.404 1.671,2.048 3.761,3.072 6.277,3.072 2.564,0 4.672,-1.031 6.324,-3.099 1.654,-2.068 2.486,-5.003 2.486,-8.803 0,-2.398 -0.359,-4.494 -1.066,-6.288 -0.707,-1.794 -1.743,-3.182 -3.102,-4.171 -1.366,-0.983 -2.893,-1.478 -4.588,-1.478 -2.414,0 -4.486,0.948 -6.223,2.852 -1.737,1.897 -2.606,5.072 -2.606,9.511 z m 25.443,14.314 v -29.515 h 3.492 l 13.512,23.173 v -23.173 h 3.264 v 29.515 h -3.491 l -13.512,-23.193 v 23.193 z"
           id="path34"
           inkscape:connector-curvature="0" />
        <path
           style="fill:none;stroke:none"
           d="M -14.2778,315.815 H 637.322 V 502.337 H -14.2778 Z"
           id="path36"
           inkscape:connector-curvature="0" />
      </g>
    </g>
    <path
       style="fill:#e21c2a;fill-opacity:1;fill-rule:evenodd;stroke:none;stroke-width:8.12853"
       inkscape:connector-curvature="0"
       d="m 4539.437,357.96128 c -48.9818,78.04063 -47.0624,70.56873 7.5278,70.37567 29.4262,-1.19017 31.2931,-0.50559 70.1181,-46.54185 63.9118,-74.48383 64.4115,-74.64754 6.5035,-74.64754 h -50.5892 z"
       id="path8-4"
       sodipodi:nodetypes="cccscc" />
    <rect
       style="fill:#fdc500;fill-opacity:1;fill-rule:evenodd;stroke-width:8.12853"
       id="rect4353-6"
       width="784.53973"
       height="1259.7739"
       x="358.01141"
       y="487.46725" />
    <path
       inkscape:connector-curvature="0"
       d="m 80.28558,1103.4918 v 677.467 H 759.58204 1438.8785 L 1437.9514,1104.4196 1436.56,428.34443 758.65452,426.9525 80.28558,426.02455 Z M 823.57033,552.70152 c 56.1058,32.94534 69.08909,93.7317 29.67605,140.59764 -22.72071,26.44918 -27.35757,36.19358 -21.79318,50.11418 2.31848,6.49599 8.34642,13.92059 13.44688,16.24031 5.5639,3.24849 54.25079,5.10456 132.14942,5.10456 h 123.3399 v 128.53295 c 0,70.99507 -1.8543,131.31724 -3.7094,134.10164 -5.1004,7.8883 -22.2567,15.7766 -34.7759,15.7766 -6.492,0 -19.9389,-7.8883 -31.5308,-17.6327 -35.70359,-30.62558 -63.5247,-36.19354 -100.15576,-19.9528 -71.4071,32.481 -75.58013,152.1978 -6.95493,195.8158 35.70343,22.7367 64.91566,18.0968 112.21119,-18.0969 23.1841,-17.1686 35.7037,-18.5605 52.8599,-5.104 l 12.0557,9.2802 v 129.9254 129.4608 H 973.34053 c -109.42969,0 -128.44045,0.9282 -134.46843,7.4245 -13.91081,13.9207 -11.12835,30.6251 9.27346,55.2185 18.08378,22.7366 29.67604,47.7936 29.67604,65.8904 0,22.7367 -20.86618,59.8581 -40.80443,73.3147 -21.32929,13.9206 -56.1054,25.521 -77.43513,25.521 -49.61393,0 -100.61924,-35.2654 -111.28414,-76.5627 -7.88247,-31.5532 -1.85455,-53.8262 23.64827,-87.6997 16.69221,-21.809 20.40166,-30.161 18.0832,-39.4417 -5.56392,-23.2009 -9.27336,-23.665 -144.66925,-23.665 H 418.7746 V 1317.4044 1187.479 l 12.0559,-9.2802 c 6.95535,-5.5683 16.22874,-9.7445 21.32921,-9.7445 11.12836,0 32.45809,11.1364 40.80446,20.8808 10.66438,12.9924 40.34056,25.521 60.27886,25.521 51.46884,0 92.73633,-48.7219 92.73633,-109.0442 0,-60.7864 -41.26749,-109.04471 -92.73633,-109.04471 -21.79329,0 -41.26803,8.81671 -66.77076,30.62561 -21.32921,18.0963 -38.02203,19.9524 -55.64177,6.0322 l -12.0559,-9.2806 V 894.68317 765.22226 l 127.97653,-1.39233 127.97696,-1.39201 9.2733,-11.13625 c 11.12889,-14.38482 8.34644,-28.76939 -10.20084,-50.1141 -32.45757,-36.65747 -38.02203,-73.77893 -16.6923,-109.97267 22.25683,-38.51338 56.56931,-54.28997 109.89272,-52.4339 28.28469,1.39193 39.41306,4.1762 56.56936,13.92052 z"
       id="path8"
       style="fill:#00529e;fill-opacity:1;stroke-width:8.12853" />
  </g>
</svg>
