<?xml version="1.0" encoding="utf-8"?>
<!-- Generator: Adobe Illustrator 27.7.0, SVG Export Plug-In . SVG Version: 6.00 Build 0)  -->
<svg version="1.1" id="Capa_1" xmlns="http://www.w3.org/2000/svg" xmlns:xlink="http://www.w3.org/1999/xlink" x="0px" y="0px"
	 viewBox="0 0 100 100" style="enable-background:new 0 0 100 100;" xml:space="preserve">
<style type="text/css">
	.st0{fill:#10101F;}
	.st1{fill:#84BC26;}
</style>
<circle class="st0" cx="50.02" cy="50.05" r="50"/>
<g>
	<path class="st1" d="M38.29,78.08"/>
	<path class="st1" d="M50.27,77.15C49.32,79.96,48.94,83,48.94,83c-0.07,0.47-0.29,2.74-0.08,5.92c0.22,3.42,0.69,3.81,0.35,4.2
		c-2.06,2.38-24.5-6.06-28.49-22.63c-1.41-5.87-0.27-11.73-0.13-12.38c0.2-0.97,1.22-5.72,4.66-10.91
		c3.26-4.93,5.42-5.31,11.3-12.84c1.47-1.89,2.31-2.93,3.35-4.59c2.76-4.41,6.63-10.79,5.27-17.87c-0.17-0.89-0.39-1.61-0.62-2.21
		c-0.95-2.47-1.18-2.96-1.05-3.08c0.88-0.84,25.61,14.96,23.96,31.95c-0.06,0.64-0.21,1.81-0.24,1.98
		c-0.16,1.22-1.3,9.33-4.29,16.26C58.78,66.36,52.72,69.91,50.27,77.15z"/>
	<path class="st1" d="M79,70.49c4.34-15.8-6.51-32.11-7.58-31.82c-0.36,0.1,0.38,2.13,0.13,6.39c-0.35,6.12-2.39,10.71-3.33,12.77
		c-2.01,4.42-4.49,7.68-6.66,10.53c-2.75,3.62-4.13,4.72-5.59,7.99c-1.34,2.99-1.96,6.04-2.13,6.89c-0.24,1.18-0.47,2.39-0.51,4.03
		c-0.05,2.18-0.13,5.18,0.87,5.96C56.93,95.37,74.67,86.25,79,70.49z"/>
	<path class="st1" d="M70.24,37.74"/>
</g>
</svg>
