<svg xmlns="http://www.w3.org/2000/svg" height="48" viewBox="0 -960 960 960" width="48">
  <path d="M341-60.522q-49.239 0-87.239-27.88-38-27.881-54-74.12-16.761 31.479-42.62 47.479-25.858 16-60.858 16-50.24 0-83.36-34.62-33.119-34.62-33.119-82.859 0-54.239 34.74-85.478 34.739-31.239 87.217-29-18.24-21-27.74-47.5t-9.5-54.5q0-41.478 21.12-76.598 21.12-35.119 62.359-56.119 5.239 16.478 15.098 34.478 9.859 18 18.38 32.239-21.239 12-32.119 29.88-10.881 17.881-10.881 39.12 0 57.761 47.881 71.261 47.88 13.5 90.88 22.261L291.478-312q-9.761 29.283-18.38 52.902-8.62 23.62-8.62 45.098 0 31.522 22.761 55.522t54.761 24q37.761 0 62.761-32.381 25-32.38 41.119-77.021 16.12-44.642 25-91.381 8.881-46.739 13.642-72.5l71.717 19.478q-10 44-22.5 100.881-12.5 56.88-35.38 107.5-22.881 50.619-60.739 85-37.859 34.38-96.62 34.38Zm47.804-315.195Q359.522-402 327-431.641q-32.522-29.642-60.261-62.022-27.739-32.38-45.478-68.859Q203.522-599 203.522-639q0-63.239 43.619-107.359 43.62-44.119 106.859-44.119 8.239 0 16 .619 7.761.62 14.761 2.381-12.239-17.761-16.739-32.5t-4.5-29.979q0-49.239 33.619-83.358 33.62-34.12 82.859-34.12t83.359 34.12q34.119 34.119 34.119 83.358 0 14.24-4.5 28.859-4.5 14.62-16.739 33.62 6-.761 13.761-1.881 7.761-1.119 16-1.119 61.239 0 103.359 40.119 42.119 40.12 46.119 99.598-17.239-2-36.978-1.38-19.739.619-35.739 2.38-5-28.761-25.62-47.761-20.619-19-51.141-19-37.478 0-60.739 24.62-23.261 24.619-52.022 58.38H466q-28.522-34.761-52.261-58.88Q390-716.522 354-716.522q-34 0-55.261 21.761Q277.478-673 277.478-639q0 26.239 16.739 54.359 16.74 28.119 41.62 56.119t53.022 53.642q28.141 25.641 52.184 46.684l-52.239 52.479ZM618-59.522q-24.239 0-47.739-7.5-23.5-7.5-45.739-24.739 8.761-14.239 19.619-32.478Q555-142.478 561-158.717q12.761 13.239 27.88 19.239 15.12 6 31.12 6 31.761 0 54.261-24.261 22.5-24.261 22.5-56.261 0-22.239-9.239-45.739-9.239-23.5-17.761-52.261l14-24.239q43-7.239 91.38-21.12 48.381-13.88 48.381-71.641 0-42-30.761-61.261Q762-509.522 726-509.522q-50.717 0-111.217 19.12-60.5 19.119-109.066 34.641l-19.239-70.956Q543.522-545 605.402-564.239q61.881-19.239 119.359-19.239 67.239 0 119.978 40 52.739 40 52.739 113.478 0 27-10 53t-28 47q51.239-2 87.098 30.239 35.859 32.239 35.859 84.239 0 48.239-33.62 82.859-33.619 34.62-82.858 34.62-34.24 0-61.598-16.5-27.359-16.5-42.12-48.218-16.761 47.478-55.38 75.359-38.62 27.88-88.859 27.88Z"
    fill="#3B9D81" />
</svg>
