<?xml version="1.0" encoding="utf-8"?>
<!-- Generator: Adobe Illustrator 27.7.0, SVG Export Plug-In . SVG Version: 6.00 Build 0)  -->
<svg version="1.1" id="Capa_1" xmlns="http://www.w3.org/2000/svg" xmlns:xlink="http://www.w3.org/1999/xlink" x="0px" y="0px"
	 viewBox="0 0 129 146" style="enable-background:new 0 0 129 146;" xml:space="preserve">
<style type="text/css">
	.st0{fill:#FFFFFF;}
	.st1{fill:#11111F;}
	.st2{fill:#EFAD1F;}
	.st3{fill:#11111F;}
	.st4{fill:#3B9D81;}
	.st5{opacity:0.55;fill:#6D6595;enable-background:new    ;}
	.st6{fill:#84BC26;}
	.st7{fill:#16162B;}
</style>
<g>
	<g>
		<g>
			<g>
				<g>
					<rect x="77.1" y="85.4" class="st0" width="34" height="59.4"/>
					<path class="st1" d="M110.8,85.7v58.9H77.4V85.7H110.8L110.8,85.7z M111.3,85.2H76.9v59.9h34.5V85.2L111.3,85.2z"/>
				</g>
				<g>
					<polygon class="st0" points="28.5,144.9 28.5,89.4 19.8,89.4 50.1,44.2 51.1,44.2 79.8,85.4 81.8,85.4 81.8,88.2 82.6,89.4 
						81.8,89.4 81.8,144.9 					"/>
					<path class="st1" d="M50.9,44.5l28.6,41l0.2,0.2H80h1.6v2.4v0.2l0.1,0.1l0.5,0.8H82h-0.5v0.5v54.9H28.8V89.7v-0.5h-0.5h-8.1
						l30-44.7L50.9,44.5L50.9,44.5z M51.2,44H50L19.3,89.7h9v55.4H82V89.7h1.1L82,88.1v-2.9h-2.1L51.2,44L51.2,44z"/>
				</g>
				<polygon class="st2" points="50,44 95,44 128.1,91.4 82.3,91.6 				"/>
			</g>
			<g>
				<g>
					<polygon class="st3" points="64,47.1 76.4,65.1 103.1,65.1 90.6,47.1 					"/>
					<g>
						<g>
							<polygon class="st4" points="70.7,56 64.7,47.4 70.9,47.3 76.9,56 							"/>
							<path class="st3" d="M70.9,47.4l6,8.6h-6.2l-6-8.6H70.9L70.9,47.4z M70.9,47.3L70.9,47.3h-6.2h-0.2l0.1,0.2l6,8.6l0,0h0.1
								h6.2H77l-0.1-0.2L70.9,47.3L70.9,47.3L70.9,47.3z"/>
						</g>
						<g>
							<polygon class="st4" points="77.1,56 71.1,47.4 77.3,47.3 83.4,56 							"/>
							<path class="st3" d="M77.3,47.4l6,8.6h-6.2l-6-8.6H77.3L77.3,47.4z M77.4,47.3L77.4,47.3h-6.2H71l0.1,0.2l6,8.6l0,0h0.1h6.2
								h0.2l-0.1-0.2L77.4,47.3L77.4,47.3L77.4,47.3z"/>
						</g>
						<g>
							<polygon class="st4" points="83.6,56 77.6,47.4 83.8,47.3 89.9,56 							"/>
							<path class="st3" d="M83.8,47.4l6,8.6h-6.2l-6-8.6H83.8L83.8,47.4z M83.9,47.3L83.9,47.3h-6.2h-0.2l0.1,0.2l6,8.6l0,0h0.1
								h6.2H90l-0.1-0.2L83.9,47.3L83.9,47.3L83.9,47.3z"/>
						</g>
						<g>
							<polygon class="st4" points="90,56 84,47.4 90.3,47.3 96.3,56 							"/>
							<path class="st3" d="M90.3,47.4l6,8.6H90l-6-8.6H90.3L90.3,47.4z M90.3,47.3L90.3,47.3h-6.2h-0.2l0.1,0.2l6,8.6l0,0H90h6.2
								h0.2l-0.1-0.2L90.3,47.3L90.3,47.3L90.3,47.3z"/>
						</g>
					</g>
					<g>
						<g>
							<polygon class="st4" points="76.7,64.8 70.7,56.2 77,56.2 83,64.8 							"/>
							<path class="st3" d="M77,56.2l6,8.6h-6.2l-6-8.6L77,56.2L77,56.2z M77,56.1L77,56.1h-6.2h-0.2l0.1,0.2l6,8.6l0,0h0.1h6.2h0.2
								L83,64.7L77,56.1L77,56.1L77,56.1z"/>
						</g>
						<g>
							<polygon class="st4" points="83.2,64.8 77.2,56.2 83.4,56.2 89.5,64.8 							"/>
							<path class="st3" d="M83.4,56.2l6,8.6h-6.2l-6-8.6L83.4,56.2L83.4,56.2z M83.5,56.1L83.5,56.1h-6.2H77l0.1,0.2l6,8.6l0,0h0.1
								h6.2h0.2l-0.1-0.2L83.5,56.1L83.5,56.1L83.5,56.1z"/>
						</g>
						<g>
							<polygon class="st4" points="89.7,64.8 83.7,56.2 89.9,56.2 95.9,64.8 							"/>
							<path class="st3" d="M89.9,56.2l6,8.6h-6.2l-6-8.6L89.9,56.2L89.9,56.2z M89.9,56.1L89.9,56.1h-6.2h-0.2l0.1,0.2l6,8.6l0,0
								h0.1h6.2H96l-0.1-0.2L89.9,56.1L89.9,56.1L89.9,56.1z"/>
						</g>
						<g>
							<polygon class="st4" points="96.1,64.8 90.1,56.2 96.3,56.2 102.4,64.8 							"/>
							<path class="st3" d="M96.3,56.2l6,8.6h-6.2l-6-8.6L96.3,56.2L96.3,56.2z M96.4,56.1L96.4,56.1h-6.2H90l0.1,0.2l6,8.6l0,0h0.1
								h6.2h0.2l-0.1-0.2L96.4,56.1L96.4,56.1L96.4,56.1z"/>
						</g>
					</g>
				</g>
				<g>
					<polygon class="st3" points="77.9,68.6 90.3,86.6 117,86.6 104.5,68.6 					"/>
					<g>
						<g>
							<polygon class="st4" points="84.6,77.6 78.6,68.9 84.8,68.9 90.8,77.6 							"/>
							<path class="st3" d="M84.8,68.9l6,8.6h-6.2l-6-8.6H84.8L84.8,68.9z M84.8,68.8L84.8,68.8h-6.2h-0.2l0.1,0.2l6,8.6l0,0h0.1
								h6.2h0.2l-0.1-0.2L84.8,68.8L84.8,68.8L84.8,68.8z"/>
						</g>
						<g>
							<polygon class="st4" points="91,77.6 85,68.9 91.2,68.9 97.3,77.6 							"/>
							<path class="st3" d="M91.2,68.9l6,8.6H91l-6-8.6H91.2L91.2,68.9z M91.3,68.8L91.3,68.8h-6.2h-0.2L85,69l6,8.6l0,0H91h6.2h0.2
								l-0.1-0.2L91.3,68.8L91.3,68.8L91.3,68.8z"/>
						</g>
						<g>
							<polygon class="st4" points="97.5,77.6 91.5,68.9 97.7,68.9 103.8,77.6 							"/>
							<path class="st3" d="M97.7,68.9l6,8.6h-6.2l-6-8.6H97.7L97.7,68.9z M97.8,68.8L97.8,68.8h-6.2h-0.2l0.1,0.2l6,8.6l0,0h0.1
								h6.2h0.2l-0.1-0.2L97.8,68.8L97.8,68.8L97.8,68.8z"/>
						</g>
						<g>
							<polygon class="st4" points="103.9,77.6 97.9,68.9 104.2,68.9 110.2,77.6 							"/>
							<path class="st3" d="M104.2,68.9l6,8.6h-6.2l-6-8.6H104.2L104.2,68.9z M104.2,68.8L104.2,68.8H98h-0.2l0.1,0.2l6,8.6l0,0h0.1
								h6.2h0.2l-0.1-0.2L104.2,68.8L104.2,68.8L104.2,68.8z"/>
						</g>
					</g>
					<g>
						<g>
							<polygon class="st4" points="90.6,86.4 84.6,77.8 90.9,77.7 96.9,86.4 							"/>
							<path class="st3" d="M90.9,77.7l6,8.6h-6.2l-6-8.6L90.9,77.7L90.9,77.7z M90.9,77.6L90.9,77.6h-6.2h-0.2l0.1,0.2l6,8.6l0,0
								h0.1h6.2H97l-0.1-0.2L90.9,77.6L90.9,77.6L90.9,77.6z"/>
						</g>
						<g>
							<polygon class="st4" points="97.1,86.4 91.1,77.8 97.3,77.7 103.4,86.4 							"/>
							<path class="st3" d="M97.3,77.7l6,8.6h-6.2l-6-8.6L97.3,77.7L97.3,77.7z M97.4,77.6L97.4,77.6h-6.2h-0.2l0.1,0.2l6,8.6l0,0
								h0.1h6.2h0.2l-0.1-0.2L97.4,77.6L97.4,77.6L97.4,77.6z"/>
						</g>
						<g>
							<polygon class="st4" points="103.6,86.4 97.6,77.8 103.8,77.7 109.8,86.4 							"/>
							<path class="st3" d="M103.8,77.7l6,8.6h-6.2l-6-8.6L103.8,77.7L103.8,77.7z M103.8,77.6L103.8,77.6h-6.2h-0.2l0.1,0.2l6,8.6
								l0,0h0.1h6.2h0.2l-0.1-0.2L103.8,77.6L103.8,77.6L103.8,77.6z"/>
						</g>
						<g>
							<polygon class="st4" points="110,86.4 104,77.8 110.2,77.7 116.3,86.4 							"/>
							<path class="st3" d="M110.2,77.7l6,8.6H110l-6-8.6L110.2,77.7L110.2,77.7z M110.3,77.6L110.3,77.6H104h-0.2l0.1,0.2l6,8.6
								l0,0h0.1h6.2h0.2l-0.1-0.2L110.3,77.6L110.3,77.6L110.3,77.6z"/>
						</g>
					</g>
				</g>
			</g>
		</g>
		<g>
			<g>
				<g>
					<g>
						<path class="st0" d="M36.2,118.2c0.1,0,0.3,0,0.4-0.1C36.5,118.1,36.3,118.2,36.2,118.2z"/>
						<path class="st3" d="M36.6,118.2c-0.1,0-0.2,0-0.3,0.1C36.4,118.2,36.5,118.2,36.6,118.2C36.6,118.2,36.6,118.2,36.6,118.2
							L36.6,118.2z"/>
					</g>
					<g>
						<path class="st0" d="M38,120.2c-0.1,0-0.2,0-0.3,0c-0.7-0.1-2-0.5-2.1-1c0-0.2,0-0.3,0.3-0.6c0.1-0.1,0.2-0.2,0.3-0.2l0.4,0
							c0.2,0,0.3,0.1,0.5,0.1c0.1,0.1,0.3,0.1,0.4,0.1c0.2,0,0.3-0.1,0.4-0.3c0-0.1,0-0.3-0.1-0.4l-0.1-0.1l-0.2,0h-0.1l-0.1,0
							c-0.3,0-0.6,0.1-0.9,0.1c0,0,0,0,0,0c-0.2,0-0.3,0-0.4,0.1c-1,0.1-2,0.2-2.8,0.2c-3,0-4.9-0.7-5.6-2.1l0-0.1l-0.1,0
							c-1.3-0.3-2.9-0.7-4.7-1.1c-7.5-1.7-18.9-4.2-20-6.6c-1.9-4.2,6.3-16.8,7.4-18.4l12.2,5.8l-5.6,8.4l0.3,0.1
							c1.3,0.6,12.8,6.2,14.1,6.2l0,0c0.6-0.1,2.2-0.8,4-1.7c1.8-0.9,3.9-1.9,4.8-2.1c0.2,0,0.3-0.1,0.5-0.1c1.1,0,1.6,1.2,2.2,2.5
							c0.2,0.6,0.5,1.2,0.8,1.6c0.4,0.5,0.9,1,1.3,1.5c0.6,0.6,1.2,1.2,1,1.4c-0.2,0.3-0.5,0.5-0.9,0.5l0,0c-1.1,0-2.6-1.5-3.4-2.9
							c-0.6-1.1-1.2-1.6-1.7-1.6c-0.4,0-0.5,0.3-0.6,0.3L39,110l0.2,0.1c0,0,1,0.7,1.7,1.7c0.9,1.2,1.1,2.2,0.6,2.9l-0.1,0.1l0,0.1
							c0,0.1,0.2,1.8-1.1,2.4l-0.1,0.1l0,0.2C40.1,117.6,39.9,120.2,38,120.2z"/>
						<path class="st1" d="M10.3,90.1L22,95.8l-5.3,7.9l-0.3,0.5l0.5,0.2c2.1,1,12.9,6.2,14.2,6.2h0.1l0,0c0.5-0.1,1.8-0.7,3.9-1.7
							c1.8-0.9,3.9-1.9,4.8-2.1c0.2,0,0.3-0.1,0.4-0.1c0.9,0,1.3,0.9,2,2.3c0.2,0.6,0.5,1.2,0.8,1.7c0.4,0.6,0.9,1.1,1.3,1.5
							c0.3,0.3,0.9,0.9,0.9,1.1c-0.2,0.2-0.4,0.4-0.7,0.4c-0.9,0-2.3-1.2-3.2-2.8c-0.7-1.2-1.3-1.7-1.9-1.7c-0.4,0-0.7,0.2-0.8,0.4
							l-0.2,0.4l0.4,0.3c0.6,0.5,2.3,2,2.5,3.3c0,0.4,0,0.7-0.2,0.9l-0.1,0.2l0,0.2c0,0.1,0.2,1.7-1,2.2l-0.3,0.1l0,0.3
							c0,0-0.2,2.5-1.8,2.5c-0.1,0-0.2,0-0.2,0c-0.7-0.1-1.8-0.5-1.9-0.8c0,0,0.1-0.2,0.2-0.3c0.1-0.1,0.2-0.1,0.2-0.1l0.1,0l0.2,0
							c0.2,0,0.3,0.1,0.5,0.1c0.2,0.1,0.3,0.1,0.5,0.1c0.3,0,0.6-0.2,0.6-0.5c0-0.2,0-0.4-0.1-0.6c-0.1-0.1-0.3-0.2-0.4-0.2h-0.1
							l0,0c-0.3,0.1-0.6,0.1-0.9,0.1h0c-0.2,0-0.3,0-0.4,0.1c-1,0.1-2,0.2-2.8,0.2c-2.8,0-4.7-0.7-5.4-1.9l-0.1-0.2l-0.2-0.1
							c-1.3-0.3-2.9-0.7-4.7-1.1c-7-1.6-18.8-4.1-19.8-6.5C1.5,104.7,7.5,94.3,10.3,90.1L10.3,90.1z M10.1,89.5
							c0,0-9.6,14.3-7.5,18.9c1.5,3.2,18.2,6.2,24.9,7.8c0.7,1.2,2.4,2.2,5.9,2.2c0.8,0,1.8-0.1,2.9-0.2c0.1,0,0.2-0.1,0.3-0.1
							c0,0,0,0,0.1,0c0.3,0,0.6-0.1,1-0.1c0,0,0,0,0,0c0,0,0.1,0,0,0.2c0,0.1-0.1,0.1-0.1,0.1c-0.2,0-0.5-0.2-0.9-0.2
							c-0.1,0-0.3,0-0.4,0.1c-0.2,0-0.3,0.1-0.4,0.2c-1.3,1.2,1.2,1.9,2,2c0.1,0,0.2,0,0.3,0c2.1,0,2.3-2.9,2.3-2.9
							c1.5-0.7,1.3-2.7,1.3-2.7c1.5-2-2.3-5-2.3-5s0.1-0.2,0.3-0.2c0.3,0,0.8,0.3,1.5,1.5c0.9,1.5,2.4,3,3.6,3
							c0.4,0,0.8-0.2,1.1-0.6c0.5-0.7-1.4-1.8-2.3-3.2c-1-1.5-1.4-4.2-3.2-4.2c-0.2,0-0.3,0-0.5,0.1c-1.7,0.4-7.7,3.7-8.6,3.8
							c0,0,0,0,0,0c-1.3,0-13.9-6.2-13.9-6.2l5.6-8.4L10.1,89.5L10.1,89.5z"/>
					</g>
				</g>
			</g>
			<g>
				<g>
					<path class="st0" d="M17.4,131.3c0,0.1,0.1,0.1,0.1,0.1C17.5,131.5,17.5,131.4,17.4,131.3z"/>
					<path class="st3" d="M17.4,131.3c0,0.1,0.1,0.1,0.1,0.1C17.5,131.5,17.5,131.4,17.4,131.3L17.4,131.3z"/>
				</g>
				<path class="st1" d="M22,107.7c-2.7,0.1-11.2,15-4.6,23.7c0.1,0,0.1,0.1,0.1,0.1c0-0.1-0.1-0.1-0.1-0.1
					c-0.3-0.2-1.2,0.6-3.4,13.4h33.3c0.3-22.9,3.8-37,3.1-38.2C48.7,103.7,24.5,107.6,22,107.7z"/>
			</g>
			<g>
				<path class="st1" d="M28.5,106.6c-9.4,12.1-1.9,25.9-1.9,32.3c0,4.8-0.2,2.1-0.3,5.9h32.5c-1.3-18.9-1.9-33.9-4.3-36.8
					C51.9,104.9,30.6,103.9,28.5,106.6z"/>
			</g>
			<path class="st5" d="M17.4,131.3c0,0.1,0.1,0.1,0.1,0.1C17.5,131.5,17.5,131.4,17.4,131.3z"/>
			<g>
				<g>
					<g>
						<path class="st0" d="M27.1,69.4c0.4-1.2,1.5-5.7,1.5-11.8v-0.2l-0.1-0.1c-0.1,0-1.7-0.7-2-3.2c-0.1-0.8,0.1-1.6,0.6-2.1
							c0.5-0.5,1.3-0.9,2.2-0.9h0.3l0-0.3c0-0.1-0.5-6.9,2.8-8.9c0.8-0.5,1.8-0.7,3-0.7c3.5,0,8.6,2.3,8.9,5.9l0,0.6
							c0.1,1.4,0.2,2.7,0.9,5.4c0.4,1.6,0.1,5.1-1.8,7.6c-1.4,1.8-3.3,2.7-5.7,2.7h-0.3l0.1,0.3c0,0.1,0.5,2.5,2.2,5.6H27.1z"/>
						<path class="st1" d="M35.3,41.5c3.9,0,8.4,2.4,8.7,5.7l0,0.6c0.1,1.5,0.2,2.7,0.9,5.4c0.5,1.8-0.1,5.2-1.8,7.4
							c-1.3,1.7-3.2,2.6-5.5,2.6H37l0.1,0.6c0,0.1,0.5,2.4,2,5.3H27.5c0.4-1.6,1.4-5.8,1.4-11.6v-0.3l-0.3-0.1c-0.1,0-1.5-0.7-1.8-3
							c-0.1-0.8,0.1-1.4,0.5-1.9c0.4-0.5,1.2-0.8,2-0.8h0.5l0-0.5c0-0.1-0.5-6.7,2.7-8.7C33.2,41.8,34.1,41.5,35.3,41.5L35.3,41.5z
							 M35.3,41c-1.2,0-2.3,0.2-3.1,0.7c-3.5,2.1-2.9,9.1-2.9,9.1c-2,0-3.2,1.3-3,3.2c0.3,2.7,2.1,3.4,2.1,3.4
							c0,7.2-1.6,12.1-1.6,12.1H40c-1.9-3.2-2.4-5.9-2.4-5.9c6.8,0,8.5-7.6,7.7-10.6c-0.8-3-0.8-4.2-0.9-5.9
							C44.2,43.5,39.2,41,35.3,41L35.3,41z"/>
					</g>
				</g>
				<g>
					<path class="st3" d="M35.6,50l0.4,0.2c1.1-1.8,3-2.3,3.1-2.3l-0.1-0.5C38.8,47.5,36.8,48,35.6,50z"/>
				</g>
				<g>
					<path class="st3" d="M41.6,49l-0.2,0.4c0.1,0,1.4,0.8,3,0.8c0.1,0,0.1,0,0.2,0l0-0.5C43,49.8,41.6,49,41.6,49z"/>
				</g>
				<g>
					<path class="st3" d="M42.9,54.1c-0.4,0-0.8,0.3-1.2,0.8l0.4,0.3c0.3-0.4,0.6-0.7,0.8-0.6c0.2,0,0.4,0.3,0.4,0.3l0.2-0.1
						l-0.2,0.1l0.2-0.1l0.2-0.1C43.7,54.6,43.4,54.1,42.9,54.1z"/>
				</g>
				<g>
					<path class="st3" d="M37.4,50.8c-0.3,0.2-0.4,0.5-0.2,0.8c0.2,0.2,0.5,0.3,0.8,0.1c0.3-0.2,0.4-0.5,0.2-0.8
						C38,50.7,37.6,50.7,37.4,50.8z"/>
				</g>
				<g>
					<path class="st3" d="M43.3,50.8c-0.3,0.2-0.4,0.5-0.2,0.8c0.2,0.2,0.5,0.3,0.8,0.1c0.3-0.2,0.4-0.5,0.2-0.8
						C44,50.7,43.6,50.7,43.3,50.8z"/>
				</g>
				<g>
					<path class="st1" d="M35,34.1c-3.4-1.4-2.8-6.6-6.5-3.8c-3.7,2.8-7.9-0.8-7.7,4.2c0.2,5-3.9,2.5-2,7.7c1.7,4.8,6.6,4.6,8.2,3.1
						s4.1-5.2,7.4-4.1C37.5,42.3,38.4,35.5,35,34.1z"/>
				</g>
				<g>
					<path class="st4" d="M29.9,36.7c-2.3,0.9-3.7,2.9-3,4.6c0.6,1.6,3,2.2,5.3,1.3c2.3-0.9,3.7-2.9,3-4.5
						C34.6,36.4,32.2,35.8,29.9,36.7z"/>
				</g>
				<g>
					<path class="st3" d="M40,58.1c-1.2-0.1-2.3-1.9-2.3-1.9l-0.4,0.2c0,0.1,1.2,2,2.7,2.1c0,0,0.1,0,0.2,0c0.6,0,1.1-0.3,1.6-0.8
						l-0.3-0.3C40.9,57.9,40.4,58.1,40,58.1z"/>
				</g>
				<g>
					<path class="st1" d="M41.9,41.4c0,0-1.8-4.9-9.9-3c-9.4,2.2-7.4,12.6-5.7,15.8c0,0,0.1-3.4,2.2-3.2c0.7,0.1,0.7,3.7,2.5,4.2
						c0,0-0.9-4.5,1.7-6.6c2.6-2.1,3.3-4,2.4-6.4c0,0,1.4,2.3,5.7,2.3c3.6,0,4.4,6.3,4.4,6.3S48,44,41.9,41.4z"/>
				</g>
				<g>
					<path class="st4" d="M28.4,56.5c-0.6,0-1,0.5-1,1c0,0.6,0.5,1,1,1s1-0.5,1-1C29.4,57,29,56.5,28.4,56.5z"/>
				</g>
			</g>
			<g>
				<g>
					<g>
						<path class="st6" d="M42,68.1c-0.3-0.6-0.7-2.1-1.8-2.7c-3-1.7-6.3-2-13.5-2c-1.1,0-1.4,2.3-1.6,3c-0.7,1.7-2.3,2.7-3.3,2.7
							c-5.8,0-8.8,10.1-18.3,25c0,0,1.3,6.5,14.9,8.7c1.3-1.4,2-3,2-3c0.2,6.4,0.8,8.6,0.8,8.6c22.3,1.7,33.5-1.5,33.5-1.5
							c2.9-6,3.1-19.8-0.1-24.6C50.3,75.8,45.5,75.5,42,68.1z"/>
						<path class="st1" d="M33.7,109.1c-3.7,0-7.9-0.1-12.5-0.5l-0.2,0l-0.1-0.2c0-0.1-0.6-2.1-0.8-7.7c-0.4,0.6-0.9,1.5-1.6,2.2
							l-0.1,0.1l-0.1,0c-13.6-2.2-15-8.6-15.1-8.9l0-0.1l0-0.1c3-4.7,5.3-8.8,7.3-12.5c4.4-7.8,7-12.6,11.2-12.6
							c0.9,0,2.4-0.9,3-2.6c0.1-0.2,0.1-0.4,0.2-0.6c0.3-1,0.6-2.5,1.7-2.5c7.6,0,10.7,0.5,13.6,2.1c1,0.5,1.4,1.7,1.7,2.4
							c0.1,0.1,0.1,0.3,0.2,0.4l0,0c1.9,4.1,4.2,5.9,6.6,7.9c2,1.6,4,3.3,6,6.2c3.5,5.1,3,18.9,0.2,24.8l0,0.1l-0.1,0
							C54.8,107.1,47.6,109.1,33.7,109.1z M21.4,108.1c20.7,1.6,32-1.2,33.2-1.5c3-6.2,2.9-19.7-0.2-24.2c-1.9-2.8-3.9-4.5-5.9-6.1
							c-2.5-2-4.8-3.9-6.8-8.1l0,0c0-0.1-0.1-0.2-0.2-0.4c-0.3-0.7-0.7-1.7-1.5-2.2c-2.8-1.6-5.9-2-13.3-2c-0.6,0-1,1.3-1.2,2.1
							c-0.1,0.3-0.1,0.5-0.2,0.7c-0.7,1.9-2.5,2.9-3.5,2.9c-3.8,0-6.4,4.6-10.7,12.3c-2,3.6-4.3,7.8-7.3,12.4
							c0.2,0.8,2.3,6.3,14.5,8.4c1.2-1.3,1.9-2.8,1.9-2.9l0.5-1l0,1.1C20.8,105.1,21.3,107.5,21.4,108.1z"/>
					</g>
				</g>
				<g>
					<path class="st1" d="M18.2,85.8c-0.2,0.1-0.8,0.3,0.3,7l0.5-0.1c-0.5-2.7-0.8-5.7-0.6-6.4c0.1,0.1,0.2,0.2,0.3,0.5
						c1.6,3.3,1.5,12.9,1.5,13l0.5,0c0-0.4,0.1-9.8-1.6-13.2C18.8,86,18.5,85.7,18.2,85.8z"/>
				</g>
			</g>
			<g>
				<g>
					<g>
						<g>
							<path class="st0" d="M80.8,68.9c0-0.1,0-0.3,0-0.4C80.8,68.6,80.8,68.8,80.8,68.9z"/>
							<path class="st3" d="M80.8,68.5c0,0.1,0,0.3,0,0.4C80.8,68.8,80.8,68.6,80.8,68.5L80.8,68.5z"/>
						</g>
						<g>
							<path class="st0" d="M67.1,101.6c-5,0-15.2-7.8-16.7-9l8-12.7l6.7,7.3l0.2-0.3c1.2-2.1,7.4-12.6,7.3-13.6
								c0-0.5-0.7-2.1-1.4-4c-0.7-1.9-1.6-4.1-1.7-5c-0.3-1.5,1.1-2,2.6-2.5c0.6-0.2,1.2-0.4,1.7-0.7c0.6-0.3,1.1-0.8,1.6-1.2
								c0.5-0.5,1-0.9,1.3-0.9c0.1,0,0.1,0,0.2,0.1c0.3,0.3,0.4,0.6,0.4,1c-0.2,1.1-1.7,2.4-3.1,3.1c-1.1,0.5-1.7,1-1.7,1.5
								c0,0.4,0.2,0.6,0.2,0.6l0.2,0.1l0.2-0.2c0,0,2.1-2.3,3.8-2.3c0.4,0,0.7,0.1,1,0.4l0.1,0.1c0,0,0.1,0,0.1,0
								c0.3,0,1.9,0.1,2.3,1.3l0.1,0.1l0.2,0c0,0,1.6,0.3,2.3,1.2c0.3,0.4,0.3,0.8,0.2,1.3c-0.2,0.7-0.7,2-1.2,2l0,0
								c-0.2,0-0.3-0.2-0.5-0.3c-0.1-0.1-0.1-0.2-0.2-0.3l0-0.3c0-0.2,0.1-0.4,0.2-0.5c0.1-0.2,0.2-0.4,0.1-0.6
								c0-0.1-0.1-0.2-0.3-0.2c-0.1,0-0.1,0-0.2,0h-0.1l-0.2,0.1l-0.1,0.1l0,0.2c0,0.3,0,0.6,0,0.9c0,0.1,0,0.3,0,0.4
								c0.2,4.6-0.7,7.4-2.6,8.3l-0.1,0.1l0,0.1c-0.4,1.2-0.9,2.8-1.4,4.6c-2.2,7.4-5.7,18.5-8.2,19.4
								C67.9,101.5,67.5,101.6,67.1,101.6z"/>
							<path class="st1" d="M76.7,59.3c0.2,0.2,0.3,0.5,0.3,0.8c-0.1,0.9-1.4,2.1-3,2.9c-1.2,0.6-1.8,1.1-1.8,1.7
								c0,0.4,0.2,0.7,0.3,0.8l0.4,0.3l0.3-0.3c0.6-0.6,2.3-2.2,3.6-2.2c0.3,0,0.6,0.1,0.8,0.3l0.2,0.1h0.2c0.3,0,1.7,0.1,2.1,1.2
								l0.1,0.3l0.3,0.1c0,0,1.5,0.3,2.1,1.1c0.2,0.3,0.3,0.7,0.2,1.1c-0.2,0.8-0.7,1.8-1,1.8c0,0-0.1,0-0.3-0.2
								c-0.1-0.1-0.1-0.2-0.1-0.2l0-0.3c0-0.2,0.1-0.3,0.1-0.4c0.1-0.2,0.2-0.5,0.1-0.8c-0.1-0.2-0.2-0.3-0.4-0.3
								c-0.1,0-0.2,0-0.3,0c-0.3,0-0.4,0.2-0.5,0.2l-0.2,0.3l0.1,0.2c0,0.3,0,0.6,0.1,0.9c0,0.2,0,0.3,0,0.5c0.2,4.4-0.7,7.2-2.4,8
								l-0.2,0.1l-0.1,0.2c-0.4,1.2-0.9,2.8-1.4,4.6c-2.1,6.9-5.6,18.4-8,19.3c-0.3,0.1-0.7,0.2-1,0.2c-4.7,0-14.4-7.3-16.3-8.8
								l7.7-12.3l6.3,6.8l0.5,0.5l0.3-0.6c2.2-3.8,7.4-12.7,7.3-13.8c0-0.5-0.6-1.9-1.4-4.1c-0.7-1.9-1.6-4-1.7-4.9
								c-0.2-1.2,0.6-1.6,2.5-2.2c0.6-0.2,1.2-0.4,1.7-0.7c0.6-0.3,1.1-0.8,1.6-1.2C75.9,59.8,76.4,59.4,76.7,59.3L76.7,59.3z
								 M76.7,58.8c-0.7,0-1.8,1.4-3,2.1c-1.7,1-4.8,1.1-4.4,3.4c0.3,1.8,3,7.9,3.1,8.9c0.1,1-7.3,13.5-7.3,13.5l-6.7-7.3l-8.2,13.2
								c0,0,11.5,9.2,17,9.2c0.4,0,0.9-0.1,1.2-0.2c3.3-1.2,7.6-17.7,9.8-24.2c1.6-0.7,2.9-3,2.7-8.6c0-0.1,0-0.3,0-0.4
								c0-0.3,0-0.7-0.1-1c0,0,0-0.1,0.1-0.1c0,0,0.1,0,0.1,0c0.3,0.1-0.1,0.5-0.2,1.1c0,0.1,0,0.3,0,0.4c0,0.2,0.1,0.3,0.2,0.5
								c0.2,0.3,0.5,0.4,0.7,0.4c0.8,0,1.4-1.6,1.5-2.2c0.5-2.3-2.7-2.9-2.7-2.9c-0.5-1.4-2.2-1.5-2.5-1.5c0,0-0.1,0-0.1,0
								c-0.3-0.3-0.8-0.5-1.2-0.5c-1.8,0-4,2.4-4,2.4s-0.8-0.6,1.4-1.7c2.1-1,4.3-3.2,2.8-4.5C76.9,58.9,76.8,58.8,76.7,58.8
								L76.7,58.8z"/>
						</g>
					</g>
				</g>
				<g>
					<path class="st6" d="M39.2,89.4c3.6,4.4,8.6,7.5,16.7,11.6c-2.5-1,5.5-15.5,9.1-15.9c0,0-9.5-9.6-15.3-12.3
						c-2.1-1-4.2-1.4-6.2-1.3C41.3,71.5,38.3,88.2,39.2,89.4z"/>
					<path class="st1" d="M55.9,101.2c0,0-0.1,0-0.1-0.1c-7.8-3.9-13-7.1-16.7-11.6l0.4-0.3c3.5,4.3,8.5,7.4,15.8,11.1
						c0-0.3,0-0.6,0-0.9c0.5-3.9,6-13.3,9.3-14.5c-1.7-1.7-9.8-9.6-14.9-12c-2-0.9-4.1-1.4-6.1-1.3l0-0.5c2.1-0.1,4.2,0.4,6.3,1.4
						c5.8,2.7,15,12,15.4,12.4l0.4,0.4l-0.5,0.1c-2.8,0.3-8.8,10-9.4,14.1c-0.1,0.5-0.1,1.1,0.2,1.3c0,0,0.1,0,0.1,0L55.9,101.2z"/>
				</g>
			</g>
		</g>
		<g>
			<g>
				<path class="st6" d="M51,5.2l-3.1-3.5l-0.5,9.4l9.3,0.5l-3-3.4c3.3-1.7,7.1-1.9,10.7-0.7l1.8,0.7l1.3-3.7l-1.8-0.7
					C60.8,2.1,55.5,2.6,51,5.2z"/>
				<path class="st6" d="M67.7,4.2l-1.8-0.7C61,1.8,55.6,2.2,51.1,4.8l-3-3.3c-0.1-0.1-0.2-0.1-0.4-0.1s-0.2,0.2-0.2,0.3L47,11
					c0,0.2,0.1,0.4,0.3,0.4l9.3,0.5c0,0,0,0,0,0c0.1,0,0.3-0.1,0.3-0.2s0-0.3-0.1-0.4l-2.7-3c3.1-1.4,6.7-1.6,10-0.4l1.8,0.7
					c0.2,0.1,0.4,0,0.5-0.2l1.3-3.7C67.9,4.5,67.8,4.3,67.7,4.2z M66,7.7l-1.5-0.5c-3.6-1.3-7.6-1.1-11,0.7
					c-0.1,0.1-0.2,0.1-0.2,0.3c0,0.1,0,0.2,0.1,0.3l2.4,2.7l-8.1-0.4l0.4-8.1l2.5,2.8c0.1,0.1,0.3,0.2,0.5,0.1
					c4.3-2.5,9.6-3,14.4-1.3l1.5,0.5L66,7.7z"/>
			</g>
			<g>
				<path class="st6" d="M47.2,15.5l0.7-1.8l-3.7-1.3l-0.7,1.8c-1.6,4.3-1.3,9.1,0.6,13.3l-3.8,2.8l9.3,1.4l1.4-9.3l-3.7,2.7
					C46.1,22.1,46,18.6,47.2,15.5z"/>
				<path class="st6" d="M50.8,22.1l-3.3,2.4c-1-2.9-1-6,0-8.9l0.7-1.8c0.1-0.2,0-0.4-0.2-0.5L44.3,12c-0.2-0.1-0.4,0-0.5,0.2
					l-0.7,1.8c-1.6,4.3-1.4,9.1,0.5,13.3L40.1,30C40,30.1,40,30.2,40,30.4c0,0.1,0.2,0.2,0.3,0.3l9.3,1.4c0,0,0,0,0,0
					c0.2,0,0.3-0.1,0.4-0.3l1.4-9.3c0-0.1,0-0.3-0.2-0.4C51.1,22,50.9,22,50.8,22.1z M49.3,31.2l-8-1.2l3.1-2.3
					c0.1-0.1,0.2-0.3,0.1-0.5c-1.9-4.1-2.1-8.8-0.6-13l0.5-1.5l3,1.1l-0.5,1.5c-1.2,3.2-1.1,6.7,0.2,9.9c0,0.1,0.1,0.2,0.2,0.2
					c0.1,0,0.2,0,0.3-0.1l3-2.2L49.3,31.2z"/>
			</g>
			<g>
				<path class="st6" d="M65.6,32.2c-3.2,1.6-7,1.8-10.4,0.5L53.3,32L52,35.7l1.8,0.7c1.9,0.7,4,1.1,6,1.1c2.9,0,5.8-0.7,8.4-2.2
					l3,3.6l0.8-9.3l-9.3-0.8L65.6,32.2z"/>
				<path class="st6" d="M72,29.1l-9.3-0.8c-0.1,0-0.3,0.1-0.3,0.2c-0.1,0.1,0,0.3,0,0.4l2.6,3.1c-3.1,1.3-6.5,1.5-9.7,0.3l-1.8-0.7
					c-0.2-0.1-0.4,0-0.5,0.2l-1.3,3.7c-0.1,0.2,0,0.4,0.2,0.5l1.8,0.7c4.7,1.7,9.9,1.3,14.4-1l2.8,3.3c0.1,0.1,0.2,0.1,0.3,0.1
					c0,0,0.1,0,0.1,0c0.1,0,0.2-0.2,0.2-0.3l0.8-9.3C72.3,29.3,72.2,29.1,72,29.1z M70.9,37.9L68.4,35c-0.1-0.1-0.2-0.1-0.3-0.1
					c-0.1,0-0.1,0-0.2,0c-4.3,2.4-9.5,2.8-14,1.1l-1.5-0.5l1.1-3l1.5,0.5c3.5,1.3,7.4,1.1,10.7-0.5c0.1,0,0.2-0.1,0.2-0.2
					s0-0.2-0.1-0.3l-2.4-2.8l8.1,0.7L70.9,37.9z"/>
			</g>
			<g>
				<path class="st6" d="M69.3,8.1l-0.9,9.3l3.6-2.9c1.5,3.2,1.6,6.8,0.4,10.2l-0.7,1.8l3.7,1.3l0.6-1.8c1.7-4.6,1.3-9.7-1-14l3.6-3
					L69.3,8.1z"/>
				<path class="st6" d="M78.7,8.7l-9.3-0.9c-0.2,0-0.4,0.1-0.4,0.3L68,17.4c0,0.1,0.1,0.3,0.2,0.4c0.1,0.1,0.3,0,0.4,0l3.2-2.6
					c1.3,3,1.3,6.4,0.2,9.5l-0.7,1.8c0,0.1,0,0.2,0,0.3s0.1,0.2,0.2,0.2l3.7,1.3c0,0,0.1,0,0.1,0c0.1,0,0.1,0,0.2,0
					c0.1,0,0.2-0.1,0.2-0.2l0.7-1.8c1.7-4.6,1.4-9.7-0.9-14.1l3.4-2.8C79,9.3,79,9.1,79,9C79,8.8,78.8,8.7,78.7,8.7z M74.8,11.8
					c-0.1,0.1-0.2,0.3-0.1,0.4c2.2,4.2,2.6,9.2,1,13.7l-0.5,1.5l-3-1.1l0.5-1.5c1.2-3.4,1.1-7.1-0.4-10.4c-0.1-0.1-0.1-0.2-0.2-0.2
					c-0.1,0-0.2,0-0.3,0.1l-2.9,2.3l0.8-8.1l8.1,0.8L74.8,11.8z"/>
			</g>
		</g>
		<polygon class="st2" points="53.7,21.8 63.1,8.5 59.8,19.4 64.8,18 56.5,30.4 59,20 		"/>
	</g>
	<g>
		<rect x="1.1" y="144.1" class="st7" width="115.4" height="1.1"/>
	</g>
</g>
</svg>
