<?xml version="1.0" encoding="utf-8"?>
<!-- Generator: Adobe Illustrator 27.7.0, SVG Export Plug-In . SVG Version: 6.00 Build 0)  -->
<svg version="1.1" id="Capa_1" xmlns="http://www.w3.org/2000/svg" xmlns:xlink="http://www.w3.org/1999/xlink" x="0px" y="0px"
	 viewBox="0 0 500 550" style="enable-background:new 0 0 500 550;" xml:space="preserve">
<style type="text/css">
	.st0{fill:#FFFFFF;}
	.st1{fill:#11111F;}
	.st2{fill:#EFAD1F;}
	.st3{fill:#FAB903;}
	.st4{fill:#34BE81;}
	.st5{fill:#3B9D81;}
	.st6{fill:#315480;}
	.st7{fill:#16162B;}
	.st8{fill:#FFAA21;}
	.st9{fill:#84BC26;}
	.st10{fill:#231D24;}
	.st11{fill:#5B45C7;}
</style>
<g>
	<g>
		<g>
			<g>
				<ellipse class="st0" cx="419.3" cy="68.5" rx="60.2" ry="58.9"/>
				<path class="st1" d="M419.3,10.6c32.6,0,59.2,26,59.2,57.9s-26.6,57.9-59.2,57.9s-59.2-26-59.2-57.9S386.6,10.6,419.3,10.6
					L419.3,10.6z M419.3,8.6c-33.8,0-61.2,26.8-61.2,59.9s27.4,59.9,61.2,59.9s61.2-26.8,61.2-59.9S453.1,8.6,419.3,8.6L419.3,8.6z"
					/>
			</g>
			<g>
				<path class="st2" d="M452.3,68c0,17.8-14.8,32.3-33,32.3s-33-14.5-33-32.3s14.8-32.3,33-32.3S452.3,50.2,452.3,68z"/>
				<polygon class="st3" points="425.8,32.3 412.8,32.3 419.3,19.5 419.3,19.5 				"/>
				<polygon class="st2" points="425.8,32.3 412.8,32.3 419.3,19.5 419.3,19.5 				"/>
				<polygon class="st2" points="412.8,103.7 425.8,103.7 419.3,116.4 419.3,116.4 				"/>
				<polygon class="st2" points="455.7,74.4 455.7,61.6 468.8,68 468.8,68 				"/>
				<polygon class="st2" points="382.9,61.6 382.9,74.4 369.8,68 369.8,68 				"/>
				<polygon class="st2" points="449.7,47.3 440.4,38.2 454.3,33.7 454.3,33.7 				"/>
				<polygon class="st2" points="388.9,88.7 398.1,97.7 384.3,102.3 384.3,102.3 				"/>
				<polygon class="st2" points="440.4,97.7 450.1,89.4 454.7,103 454.3,102.3 				"/>
				<polygon class="st2" points="398.1,38.2 388.9,47.3 384.3,33.7 384.3,33.7 				"/>
			</g>
		</g>
		<g>
			<g>
				<ellipse class="st0" cx="398.1" cy="287.8" rx="60.2" ry="58.9"/>
				<path class="st1" d="M398.1,229.8c32.6,0,59.2,26,59.2,57.9s-26.6,57.9-59.2,57.9s-59.2-26-59.2-57.9S365.5,229.8,398.1,229.8
					L398.1,229.8z M398.1,227.9c-33.8,0-61.2,26.8-61.2,59.9s27.4,59.9,61.2,59.9s61.2-26.8,61.2-59.9S432,227.9,398.1,227.9
					L398.1,227.9z"/>
			</g>
			<g>
				<path class="st4" d="M398.1,330.2c-14.9,0-27-14.1-27-31.5c0-16.2,23.6-48.5,27-53c3.4,4.5,27,36.8,27,53
					C425.1,316,413,330.2,398.1,330.2z"/>
				<path class="st1" d="M398.1,246.5c4.5,6.1,26.5,36.7,26.5,52.2c0,17.1-11.9,31-26.5,31s-26.5-13.9-26.5-31
					C371.7,283.2,393.6,252.6,398.1,246.5 M398.1,244.8c0,0-27.5,36.2-27.5,53.9s12.3,32,27.5,32s27.5-14.4,27.5-32
					S398.1,244.8,398.1,244.8L398.1,244.8z"/>
			</g>
		</g>
		<g>
			<g>
				<ellipse class="st0" cx="224.1" cy="91.4" rx="60.2" ry="58.9"/>
				<path class="st1" d="M224.1,33.4c32.7,0,59.2,26,59.2,57.9s-26.6,57.9-59.2,57.9s-59.2-26-59.2-57.9
					C164.9,59.4,191.4,33.4,224.1,33.4L224.1,33.4z M224.1,31.5c-33.8,0-61.2,26.8-61.2,59.9s27.4,59.9,61.2,59.9
					s61.2-26.8,61.2-59.9S257.9,31.5,224.1,31.5L224.1,31.5z"/>
			</g>
			<g>
				<g>
					<path class="st5" d="M184.4,86.1l-1.1-1c0.1-0.1,14-14.3,42.8-8c27.7,6.1,34.1-8.3,34.3-8.9l1.4,0.6c-0.1,0.2-7,16.1-36,9.8
						C197.9,72.4,184.5,85.9,184.4,86.1z"/>
				</g>
				<g>
					<path class="st5" d="M184.4,101.2l-1.1-1c0.1-0.2,14-14.3,42.8-8c27.7,6.1,34.1-8.3,34.3-8.9l1.4,0.6c-0.1,0.2-7,16.1-36,9.8
						C197.8,87.5,184.5,101.1,184.4,101.2z"/>
				</g>
				<g>
					<path class="st5" d="M184.4,116.3l-1.1-1c0.1-0.2,14-14.3,42.8-8c27.7,6.1,34.1-8.3,34.3-8.9l1.4,0.6c-0.1,0.2-7,16.1-36,9.8
						C197.9,102.6,184.5,116.1,184.4,116.3z"/>
				</g>
			</g>
		</g>
		<g>
			<polygon class="st2" points="314,181.7 342.7,141.8 332.7,174.4 348.1,170.3 322.4,207.3 330.1,176.4 			"/>
			<g>
				<g>
					<path class="st5" d="M305.3,130.5l-9.3-10.1l-1.5,27l27.6,1.5l-9-9.8c9.8-4.9,21.1-5.6,31.5-1.9l5.4,1.9l4-10.6l-5.4-1.9
						C334.3,121.5,318.6,122.9,305.3,130.5z"/>
				</g>
				<g>
					<path class="st5" d="M294,160.3l2-5.3l-10.8-3.9l-2,5.3c-4.7,12.5-4,26.4,1.8,38.5l-11.2,8.1l27.4,4l4.1-26.8l-10.8,7.9
						C290.8,179.2,290.6,169.3,294,160.3z"/>
				</g>
				<g>
					<path class="st5" d="M348.3,208.6c-9.6,4.5-20.6,5.1-30.8,1.5l-5.4-1.9l-4,10.6l5.4,1.9c5.7,2.1,11.7,3.1,17.6,3.1
						c8.5,0,17-2.1,24.7-6.3l8.9,10.3l2.3-27l-27.6-2.3L348.3,208.6z"/>
				</g>
				<g>
					<path class="st5" d="M359.5,139l-2.8,26.9l10.5-8.4c4.3,9.2,4.8,19.8,1.2,29.4l-2,5.3l10.8,3.9l2-5.3c5-13.4,3.9-28-2.9-40.6
						l10.7-8.6L359.5,139z"/>
				</g>
			</g>
		</g>
	</g>
	<g>
		<g>
			<g>
				<g>
					<path class="st0" d="M252,370.4c2.9-11.1,1.7-24.6,0.8-35.6c-0.7-7.6-1.3-14.1-0.3-17.8c1.2-4.6,5.9-20.4,17.4-28.6
						c0.9-0.6,1.9-1.5,3.1-2.5c2.5-2.1,6.4-5.3,8.1-5.3c0.2,0,0.3,0.1,0.4,0.2c2.5,4.6-4.2,12.4-9.9,15.8c-6.3,3.8-7.3,14.5-7.4,15
						l-0.4,4.1l2.2-3.5c0,0,2.7-4.3,8.7-7.3c5.4-2.7,7.9-3.6,9.6-3.6c1.1,0,2,0.4,3.4,1.6c1.3,1.1,1.9,2.2,2.6,3.7
						c0.9,1.7,1.9,3.9,4.6,6.4c3.3,3.1,4,5.7,4.7,8c0.3,1,0.5,1.9,0.9,2.7c0.4,1,2.2,7.6,1.6,11.6s-7.3,7.7-10.4,8
						c-0.2,0-1,0.1-1.4,0.8c-0.4,0.7-0.1,1.5,0.2,2.5c0.5,1.2,1.2,3,1,5.5c-0.2,4.1-1.6,7.1-3.6,11.3c-2.2,4.8-5,10.6-7.1,20.7
						L252,370.4z"/>
					<path class="st1" d="M280.6,281.5c1.6,4-4.5,11.1-9.7,14.2c-6.8,4-7.8,15.2-7.9,15.7l-0.7,8.3l4.5-7.1c0,0,2.6-4,8.3-6.9
						c4.4-2.2,7.4-3.5,9.2-3.5c0.9,0,1.5,0.3,2.7,1.3c1.1,1,1.7,2,2.4,3.4c0.9,1.8,2,4,4.9,6.7c3.1,2.9,3.7,5.3,4.4,7.6
						c0.3,0.9,0.5,1.9,1,2.9c0.4,0.9,2.1,7.3,1.5,11c-0.5,3.3-6.7,6.9-9.5,7.2c-1.2,0.1-1.9,0.8-2.1,1.2c-0.7,1.1-0.2,2.2,0.2,3.3
						c0.5,1.2,1.1,2.8,1,5.1c-0.2,3.9-1.5,6.9-3.5,10.9c-2.2,4.6-4.8,10.2-6.9,19.7l-27.1-12.7c2.7-11.1,1.5-24.4,0.6-35.1
						c-0.7-7.5-1.2-14-0.3-17.5c1.2-4.6,5.8-20.1,17-28.1c0.9-0.6,2-1.6,3.2-2.6C275.4,285,279.1,281.9,280.6,281.5L280.6,281.5z
						 M281,279.5c-2.9,0-8.8,5.9-11.8,8c-9.7,7-15.3,19.8-17.7,29.2c-2.4,9.4,4.7,35.6-0.6,54.2l31,14.5c3.9-19.9,10.5-24,10.9-33.4
						c0.2-5.4-2.9-7.6-0.8-7.8c3.4-0.4,10.6-4.3,11.3-8.8c0.6-4.2-1.2-11.1-1.7-12.1c-1.3-3-1-6.6-5.8-11.1s-4.1-7.4-7.3-10.1
						c-1.4-1.2-2.5-1.8-4-1.8c-2.1,0-4.9,1.1-10.1,3.8c-6.4,3.2-9.1,7.6-9.1,7.6s0.9-10.6,6.9-14.2c5.5-3.2,13.2-11.6,10.3-17.1
						C282,279.8,281.5,279.5,281,279.5L281,279.5z"/>
				</g>
			</g>
			<g>
				<path class="st1" d="M293.1,309.3c-0.5,0.2-0.8,0.7-0.6,1.2c0.1,0.3,2.4,7.7-9.4,13.6c-3.8,1.9-6.6,2.2-7.8,0.9
					c-1.4-1.5-0.9-5.5,1.2-8.6c0.6-0.9,2.8-3.9,5.4-3.1c0.5,0.1,1-0.1,1.2-0.6s-0.1-1-0.6-1.2c-2.6-0.8-5.5,0.6-7.6,3.8
					c-2.2,3.4-3.3,8.4-1,10.9c0.7,0.8,1.8,1.4,3.6,1.4c1.6,0,3.7-0.5,6.4-1.9c13.2-6.6,10.4-15.5,10.3-15.8
					C294.1,309.4,293.6,309.1,293.1,309.3z"/>
			</g>
			<g>
				<path class="st1" d="M300.3,319.7c-0.5,0.2-0.8,0.7-0.6,1.2c0.1,0.3,2.4,7.7-9.4,13.6c-4.6,2.3-7.9,2.9-9.5,1.6
					c-2.2-1.8-1.2-6.8-0.7-8.5c0.1-0.5-0.1-1-0.6-1.1s-1,0.1-1.2,0.6c-0.1,0.3-2.3,7.6,1.3,10.5c0.9,0.8,2.1,1.1,3.5,1.1
					c2.1,0,4.8-0.8,8.1-2.5c13.2-6.6,10.4-15.5,10.3-15.8C301.3,319.8,300.8,319.6,300.3,319.7z"/>
			</g>
		</g>
		<g>
			<g>
				<path class="st1" d="M213.6,422.8c0,0-11.6-48.9-47.8-83.5L135.4,462c0,0,28.2,15.9,62,25.8c25,7.3,57.8,14.4,79.5-36.8
					c8-19,20.4-60.2,20.4-60.2c-7.4-0.3-50.2-20.3-50.2-20.3L213.6,422.8z"/>
			</g>
			<g>
				<g>
					<path class="st0" d="M305.3,411.9c-2.2,0-6.8-0.2-10.2-0.9l-4-18.2l-3.1,17.7c-6.6-1.1-45.1-8.5-60.4-27l23-27.2
						c4,2,24.1,11.8,46.2,16.4L305.3,411.9z"/>
					<path class="st1" d="M250.9,357.6c5.3,2.6,24.2,11.5,45.1,16l8.1,37.4c-2.2-0.1-5.5-0.3-8.1-0.7l-2.8-12.6l-2.2-9.9l-1.7,10
						l-2,11.7c-8.6-1.6-43.5-8.8-58.2-25.9L250.9,357.6L250.9,357.6z M250.4,355.1l-24,28.4c16.7,21.3,62.5,28.2,62.5,28.2l2.4-13.7
						l3.1,13.8c4.4,1.1,11.6,1.1,12.2,1.1l0,0l-8.9-41C272.6,366.8,250.4,355.1,250.4,355.1L250.4,355.1z"/>
				</g>
			</g>
			<g>
				<path class="st6" d="M291.2,388.2c-1.5-0.1-2.8,0.9-2.9,2.4s1,2.7,2.4,2.9c1.5,0.1,2.8-0.9,2.9-2.4
					C293.8,389.6,292.7,388.3,291.2,388.2z"/>
				<path class="st7" d="M291.3,387.3c-2-0.2-3.8,1.3-4,3.2c-0.2,2,1.3,3.7,3.3,3.9c0.1,0,0.2,0,0.3,0c1.9,0,3.5-1.4,3.6-3.2
					c0.1-1-0.2-1.9-0.8-2.6C293.2,387.8,292.3,387.4,291.3,387.3z M291,392.6h-0.2c-1-0.1-1.7-0.9-1.6-1.9c0.1-0.9,0.8-1.6,1.9-1.6
					l0,0c0.5,0,0.9,0.3,1.2,0.6c0.3,0.4,0.4,0.8,0.4,1.3C292.7,391.9,291.9,392.6,291,392.6z"/>
			</g>
		</g>
		<g>
			<g>
				<g>
					<polygon class="st0" points="282.8,285 284.9,283.8 302.4,280.5 290.8,294.3 289,295.2 					"/>
					<g>
						<path class="st1" d="M299.8,282l-9.5,11.4l-0.9,0.5l-5.2-8.6l0.9-0.5L299.8,282L299.8,282z M304.9,279l-20.6,4l-2.9,1.7
							l7.2,11.9l3-1.6L304.9,279L304.9,279z"/>
					</g>
				</g>
			</g>
			<g>
				<path class="st8" d="M291.5,294.9L291.5,294.9L291.5,294.9C291.6,294.9,291.5,294.9,291.5,294.9z"/>
			</g>
			<g>
				<g>
					<path class="st9" d="M244.8,306.5l38.1-22.1c0,0.4,0.1,0.9,0.3,1.2c0.4,0.6,1,1,1.6,1.1c-0.2,0.6-0.2,1.3,0.2,1.9
						c0.4,0.6,1,1,1.6,1.1c-0.2,0.6-0.2,1.3,0.2,1.9c0.4,0.6,1,1,1.6,1.1c-0.2,0.6-0.2,1.3,0.2,1.9c0.2,0.4,0.6,0.7,1,0.9
						l-38.1,22.1L244.8,306.5z"/>
					<path class="st1" d="M282.5,285.2c0.1,0.2,0.2,0.5,0.3,0.7c0.3,0.5,0.9,1,1.5,1.2c-0.1,0.6,0,1.2,0.4,1.8
						c0.3,0.5,0.9,1,1.5,1.2c-0.1,0.6,0,1.2,0.4,1.8c0.3,0.5,0.9,1,1.5,1.2c-0.1,0.6,0,1.2,0.4,1.8c0.1,0.2,0.3,0.4,0.5,0.6L252,317
						l-6.2-10.2L282.5,285.2L282.5,285.2z M284.2,283l-40.1,23.3l7.2,11.9l40.1-23.3l0,0c-0.3,0.1-0.5,0.2-0.8,0.2
						c-0.6,0-1.2-0.3-1.5-0.8c-0.5-0.8-0.2-1.8,0.5-2.3l0,0c-0.3,0.1-0.5,0.2-0.8,0.2c-0.6,0-1.2-0.3-1.5-0.8
						c-0.5-0.8-0.2-1.8,0.5-2.3l0,0c-0.3,0.1-0.5,0.2-0.8,0.2c-0.6,0-1.2-0.3-1.5-0.8c-0.5-0.8-0.2-1.8,0.5-2.3l0,0
						c-0.3,0.1-0.5,0.2-0.8,0.2c-0.6,0-1.2-0.3-1.5-0.8C283.2,284.5,283.4,283.5,284.2,283L284.2,283L284.2,283z"/>
				</g>
			</g>
			<g>
				<path class="st8" d="M284.3,283L284.3,283L284.3,283L284.3,283z"/>
			</g>
			<g>
				<g>
					<path class="st9" d="M241.6,322.4c-2.1,0-4.1-1.1-5.2-2.9l-0.6-1c-1.7-2.8-0.8-6.4,2.1-8l2.6-1.5l6.7,11.1l-2.6,1.5
						C243.7,322.1,242.7,322.4,241.6,322.4L241.6,322.4z"/>
					<path class="st1" d="M240.4,309.6l6.2,10.2l-2.2,1.3c-0.9,0.5-1.8,0.8-2.8,0.8c-1.9,0-3.7-1-4.7-2.6l-0.6-1
						c-0.8-1.2-1-2.7-0.6-4.1s1.2-2.5,2.5-3.3L240.4,309.6L240.4,309.6z M240.8,308.3l-3.1,1.8c-3.1,1.8-4.1,5.7-2.3,8.7l0.6,1
						c1.2,2,3.4,3.1,5.6,3.1c1.1,0,2.3-0.3,3.3-0.9l3.1-1.8L240.8,308.3L240.8,308.3z"/>
				</g>
				<path class="st10" d="M237.6,309.9c-3.2,1.8-4.2,5.8-2.3,8.9l0.6,1c0.5,0.8,1.2,1.5,2,2.1l0,0c2.1,1.4,4.9,1.5,7.1,0.2l3.2-1.9
					l-7.4-12.2L237.6,309.9z M247.8,320.1l-2.9,1.7c-2.1,1.2-4.7,1.1-6.7-0.2l0,0c-0.8-0.5-1.4-1.2-1.9-2l-0.6-1
					c-1.8-2.9-0.8-6.7,2.2-8.5l2.9-1.7L247.8,320.1z"/>
			</g>
			<g>
				<g>
					<polygon class="st0" points="242.1,308.6 243.8,307.7 250,317.9 248.3,318.9 					"/>
					<polygon class="st1" points="244.1,306.3 240.7,308.3 247.9,320.2 251.4,318.2 					"/>
				</g>
			</g>
		</g>
		<g>
			<g>
				<path class="st0" d="M264.9,324.7c0.3-2.4,2.2-17.2,3.1-20.4c0.5-2-0.5-5-1.4-7.8c-0.6-1.6-1.4-4.1-1.1-4.7
					c1.5,0.1,5.2,1.5,7.8,4.5c1.9,2.2,2.7,4.6,2.3,7.2c-1.3,7.9,1.2,13.9,3.6,19.8c3.2,7.7,6.2,15,0.6,26.3L264.9,324.7z"/>
				<path class="st1" d="M266.5,293.1c1.5,0.5,4,1.8,5.9,3.9c1.7,2,2.4,4.2,2.1,6.5c-1.3,8.2,1.2,14.3,3.7,20.3
					c2.9,7.1,5.7,13.8,1.4,23.8l-13.6-23c0.7-5.2,2.3-17.3,3-19.9c0.6-2.3-0.4-5.4-1.5-8.4C267.1,295.2,266.7,294,266.5,293.1
					L266.5,293.1z M265.5,290.9c-0.3,0-0.6,0-0.7,0.2c-1.8,1.1,3.2,9.5,2.2,13s-3.2,20.8-3.2,20.8l15.9,26.8
					c11.9-21.6-6.2-29.6-3.3-48C277.7,295.8,268.6,290.9,265.5,290.9L265.5,290.9z"/>
			</g>
		</g>
		<g>
			<g>
				<path class="st9" d="M168.7,296.4c-13.7-2-32.2-2.4-45.7-0.2c-25.5,4.1-56.6,17.8-70.5,39C14,393.7,19.1,479.6,16.9,544.8H259
					c-1.8-74.7-1.9-128.5-26-188.9C223.4,331.9,202.7,301.2,168.7,296.4z"/>
				<path class="st1" d="M260,545.8H15.9v-1c0.3-9.5,0.5-19.3,0.6-29.6c1-61,2.1-130.2,35.1-180.4c14.2-21.7,46-35.5,71.2-39.5
					c12.6-2,31.1-1.9,46,0.2l0,0c39.4,5.6,58.6,43.9,65.1,60.1c23,57.7,24.2,108.5,25.8,178.8L260,545.8z M18,543.8h240l-0.2-9.3
					c-1.6-70.1-2.8-120.8-25.7-178.2c-6.3-15.9-25.2-53.4-63.5-58.9c-14.8-2.1-33-2.2-45.4-0.2c-24.7,3.9-55.9,17.4-69.8,38.6
					c-32.7,49.7-33.8,118.6-34.7,179.4C18.4,525.1,18.2,534.6,18,543.8z"/>
			</g>
		</g>
		<g>
			<g>
				<path class="st0" d="M165.7,391.4c-9.5-19.9-36.5-85.8-40.1-94.6c4.8-1.4,10.7-2.1,17.8-2.1c10.9,0,21,1.7,23.6,2.2
					C170.5,311.9,166.7,375.3,165.7,391.4z"/>
				<path class="st1" d="M143.4,295.6c10,0,19.4,1.5,22.8,2c3,14.9,0,69.5-1.2,89.7c-10.3-22.4-33.3-78.7-38-90
					C131.4,296.2,137,295.6,143.4,295.6L143.4,295.6z M143.4,293.7c-6.6,0-13.4,0.6-19.1,2.5c0,0,34.2,83.8,42.2,99
					c0,0,5.8-83,1.4-99.2C167.8,296,156.1,293.7,143.4,293.7L143.4,293.7z"/>
			</g>
		</g>
		<g>
			<g>
				<path class="st0" d="M146.9,300.8c-7.1,0-14.4-1.8-21.7-5.3c-0.2-3.5-1.3-22.8,0.2-40.8c0.2-2.6-0.9-8.7-2.1-15.2
					c-1.3-6.8-2.7-14.5-2.1-16.5c5.1-18.9,21-28.8,46-28.8h2.2c12.4,0,23.5,3.8,29.6,10.2c4.4,4.6,6.4,10.6,6,17.8
					c-0.1,2.2-0.2,5.1-0.2,8.3c-0.1,12.8-0.3,32.1-8.4,44.4c-3.7,5.8-11.4,11.5-20.1,11.5l0,0c-3.4,0-6.8-0.9-10-2.8l-1.9-1.1
					l0.3,2.1c0.1,0.3,1.2,7.2,2,10.7C164.8,296.8,157.6,300.8,146.9,300.8z"/>
				<path class="st1" d="M167.1,195.2h1.4h0.9c12.1,0,22.9,3.7,28.9,9.9c4.2,4.4,6.2,10.2,5.7,17.1c-0.1,2.3-0.2,5.1-0.2,8.4
					c-0.1,12.7-0.3,31.9-8.2,43.9c-3.5,5.3-11,11.1-19.3,11.1c-3.3,0-6.5-0.9-9.5-2.6l-3.7-2.1l0.7,4.1c0.1,0.3,1.1,6.5,1.8,10.1
					c-2.5,1.5-9.1,4.8-18.6,4.8c-6.8,0-13.8-1.7-20.7-5c-0.3-4.6-1.2-22.9,0.2-40.1c0.2-2.7-0.9-8.6-2.1-15.4
					c-1.1-6-2.6-14.3-2.2-16.1C127.1,205,142.6,195.2,167.1,195.2L167.1,195.2z M167.1,193.3c-10.1,0-39.2,1.2-46.9,29.6
					c-1.1,4.1,4.7,26.5,4.2,31.8c-1.6,20.1-0.1,41.5-0.1,41.5c8.6,4.2,16.2,5.7,22.7,5.7c13,0,20.9-5.8,20.9-5.8
					c-0.7-3.1-2.1-11.3-2.1-11.3c3.6,2,7.1,2.9,10.5,2.9c9.1,0,17.1-6.1,21-12c10.2-15.6,8-42,8.7-53.2
					c1.5-22.4-20.6-29.1-36.6-29.1C168.8,193.3,168,193.3,167.1,193.3L167.1,193.3z"/>
			</g>
		</g>
		<g>
			<path class="st1" d="M175.2,171.8c-49.6-16.4-55.8,20.5-55.8,20.5c-32.3,28.4,4.7,75.6,4.7,75.6c2.1-4,5.3-12.2,4.9-15.3
				c-0.3-2.7-13.5-24.7,2.6-30.1c4.6-1.5,9.6-1,13.3,3.1c2.5-10.2,2.8-18.7,2.8-18.7c27.2,19.1,79.4,4.6,79.4,4.6
				C223.6,150.9,175.2,171.8,175.2,171.8z"/>
		</g>
		<g>
			<g>
				<path class="st1" d="M164.1,218.9h-0.4c-7,0-12.7,6.4-12.9,14.5c-0.1,3.9,1.1,7.7,3.4,10.6c2.3,2.9,5.5,4.6,9,4.7h0.4
					c7,0,12.7-6.4,12.9-14.5c0.1-3.9-1.1-7.7-3.4-10.6C170.8,220.7,167.6,219,164.1,218.9z M163.5,246.9h-0.3
					c-2.9-0.1-5.6-1.5-7.6-4s-3.1-5.9-2.9-9.4c0.2-7,5.2-12.7,11.1-12.7h0.3c2.9,0.1,5.6,1.5,7.5,4c2,2.5,3.1,5.9,3,9.4
					C174.3,241.2,169.4,246.9,163.5,246.9z"/>
			</g>
			<g>
				<path class="st1" d="M199.4,220H199c-7,0-12.7,6.4-12.9,14.5c-0.1,3.9,1.1,7.7,3.4,10.6c2.3,2.9,5.5,4.6,9,4.7h0.4
					c7,0,12.7-6.4,12.9-14.5C212,227.1,206.4,220.2,199.4,220z M198.8,248h-0.3c-2.9-0.1-5.6-1.5-7.6-4s-3.1-5.9-3-9.4
					c0.2-7,5.2-12.7,11.1-12.7h0.3c6,0.2,10.7,6.2,10.5,13.4C209.6,242.3,204.6,248,198.8,248z"/>
			</g>
			<g>
				<path class="st1" d="M174.9,229.9c-0.4,0.3-0.5,0.9-0.1,1.3c0.3,0.4,0.9,0.5,1.3,0.1c6-4.7,10.7,0.1,10.9,0.3s0.4,0.3,0.7,0.3
					c0.2,0,0.5-0.1,0.6-0.2c0.4-0.3,0.4-0.9,0.1-1.3C188.3,230.3,182.3,224.1,174.9,229.9z"/>
			</g>
		</g>
		<g>
			<path class="st1" d="M189.1,264c-0.1,0-5.6,4.8-19.3-0.7c-0.5-0.2-1,0-1.2,0.5s0,1,0.5,1.2c5.2,2.1,9.4,2.8,12.6,2.8
				c5.9,0,8.5-2.3,8.7-2.5c0.4-0.4,0.4-0.9,0.1-1.3C190.1,263.7,189.5,263.7,189.1,264z"/>
		</g>
		<g>
			<path class="st1" d="M168.9,227.2c-0.3-0.1-6.8-2.2-11.3,1.8c-0.4,0.3-0.4,0.9-0.1,1.3c0.2,0.2,0.4,0.3,0.7,0.3
				c0.2,0,0.4-0.1,0.6-0.2c3.7-3.2,9.4-1.4,9.5-1.4c0.5,0.2,1-0.1,1.2-0.6C169.7,227.9,169.4,227.4,168.9,227.2z"/>
		</g>
		<g>
			<path class="st1" d="M191.6,227.2c-0.5,0.2-0.8,0.7-0.6,1.2s0.7,0.8,1.2,0.6c0.1,0,5.8-1.8,9.5,1.4c0.2,0.1,0.4,0.2,0.6,0.2
				c0.3,0,0.5-0.1,0.7-0.3c0.4-0.4,0.3-1-0.1-1.3C198.4,225.1,191.8,227.1,191.6,227.2z"/>
		</g>
		<g>
			<path class="st1" d="M195.2,233.9c-1.1,0-2.1,1.2-2.1,2.7s0.9,2.6,2.1,2.6c1.1,0,2.1-1.2,2.1-2.6
				C197.2,235.1,196.3,233.9,195.2,233.9z"/>
		</g>
		<g>
			<path class="st1" d="M162.5,233.9c-1.1,0-2.1,1.2-2.1,2.7s0.9,2.6,2.1,2.6c1.1,0,2.1-1.2,2.1-2.6
				C164.6,235.1,163.7,233.9,162.5,233.9z"/>
		</g>
		<g>
			<path class="st1" d="M183.9,245c-1.9-0.4-4,0.5-6.3,2.8c-0.4,0.4-0.4,0.9,0,1.3c0.2,0.2,0.4,0.3,0.7,0.3s0.5-0.1,0.7-0.3
				c1.8-1.8,3.4-2.6,4.6-2.3c1.3,0.3,1.9,1.9,1.9,1.9c0.2,0.5,0.7,0.8,1.2,0.6s0.8-0.7,0.6-1.2C187.1,248.1,186.2,245.6,183.9,245z"
				/>
		</g>
		<g>
			<path class="st1" d="M163.8,281.3c-0.2-0.1-22.2-9.6-22.2-22.2c0-0.5-0.4-0.8-0.8-0.8s-0.8,0.4-0.8,0.8
				c0,13.7,22.3,23.3,23.2,23.7c0.1,0,0.2,0.1,0.3,0.1c0.3,0,0.6-0.2,0.7-0.5C164.4,281.9,164.2,281.4,163.8,281.3z"/>
		</g>
		<g>
			<g>
				<path class="st11" d="M164.6,445.5c-2.7,0-5,2.2-5,4.9s2.2,4.9,5,4.9s5-2.2,5-4.9S167.4,445.5,164.6,445.5z"/>
			</g>
			<g>
				<path class="st11" d="M164.6,502.2c-2.7,0-5,2.2-5,4.9s2.2,4.9,5,4.9s5-2.2,5-4.9C169.6,504.4,167.4,502.2,164.6,502.2z"/>
			</g>
		</g>
		<g>
			<g>
				<g>
					<path class="st0" d="M138.6,455c-2-3.6-4.3-5-5.6-5.5c24.1-56.5,29.4-94.4,30.2-102.1c8,4.1,9.2,6.9,9.2,8.3
						c0,1.7-1.8,2.6-1.9,2.6l-0.4,0.2L138.6,455z"/>
					<path class="st1" d="M164,349c6.8,3.7,7.4,6,7.4,6.7c0,1.1-1.3,1.8-1.3,1.8l0,0l-0.8,0.4l-0.3,0.8l-30.8,94.1
						c-1.4-2-2.9-3.1-4.1-3.7C156.8,395.8,162.7,359.2,164,349L164,349z M162.3,345.9c0,0-3.1,39.8-30.8,104.2c0,0,4.2,0.4,7.2,7.6
						l32.3-98.5C171,359.2,180.3,354.6,162.3,345.9L162.3,345.9z"/>
				</g>
			</g>
			<g>
				<g>
					<path class="st0" d="M173.2,358.6c0.2-0.4,0.2-0.7,0.3-1.1c0.1-2.6-2.9-6-5.8-8.5c3.1,0.6,7.2,0.9,12.4,0.9l0,0
						c5.1,0,10.7-0.3,16.6-0.6c5.9-0.3,12-0.6,17.5-0.6c4.5,0,8.2,0.2,11.3,0.6c24.9,3.2,34.3,15.1,34.4,15.2l2,2.5l-0.1-3.2
						c-0.1-2.6,0.8-4.9,2.7-6.8c5-5.2,17.3-8.3,32.9-8.3c5.7,0,11.3,0.5,15.7,1.3c4.7,0.9,10.1,1.3,16.2,1.3
						c6.6,0,12.2-0.5,14.5-0.8c0.4,3.8,2.6,7.9,3.9,9.9l-88.8,13.4L173.2,358.6z"/>
					<path class="st1" d="M214.1,349.6c4.4,0,8.1,0.2,11.1,0.6c24.4,3.2,33.6,14.7,33.7,14.8l3.9,5.1l-0.3-6.4
						c-0.1-2.3,0.7-4.3,2.4-6.1c4.9-5,16.9-8,32.1-8c5.6,0,11.1,0.5,15.5,1.2c4.7,0.9,10.2,1.3,16.4,1.3c5.9,0,11-0.4,13.6-0.7
						c0.5,3,2,6,3.1,8.1l-87.1,13.2l-84.3-15.1c0-0.1,0-0.2,0-0.3c0.1-2.2-1.7-4.8-3.9-7.1c2.6,0.3,5.8,0.5,9.4,0.5
						c5.2,0,10.7-0.3,16.7-0.6C202.5,350,208.6,349.6,214.1,349.6L214.1,349.6z M162.3,345.9c0,0,14.3,10.2,8.9,13.3l87.4,15.6
						l90.5-13.7c0,0-4.6-6.5-4.6-11.8c0,0-6.8,0.9-15.5,0.9c-5,0-10.7-0.3-16-1.3c-4.3-0.8-9.9-1.3-15.9-1.3
						c-17.2,0-37.2,4-36.6,16.1c0,0-9.4-12.2-35.1-15.6c-3.4-0.5-7.3-0.6-11.4-0.6c-11.1,0-23.8,1.2-34.2,1.2
						C172.2,348.9,165.8,348.2,162.3,345.9L162.3,345.9z"/>
				</g>
			</g>
			<g>
				<g>
					<polygon class="st5" points="135.2,462 166.3,356.4 253.4,365 224.8,472.4 					"/>
					<path class="st1" d="M167,357.5l85.1,8.3L224,471.3l-87.6-10.2L167,357.5L167,357.5z M165.6,355.4l-0.5,1.6l-30.5,103.7
						l-0.7,2.2l2.4,0.3l87.6,10.2l1.7,0.2l0.4-1.7l28.1-105.5l0.6-2.2l-2.3-0.2l-85.1-8.3L165.6,355.4L165.6,355.4z"/>
				</g>
			</g>
			<g>
				<g>
					<polygon class="st5" points="263.7,364.9 355.4,356.4 324.3,462.1 234.6,472.5 					"/>
					<path class="st1" d="M354,357.5l-30.5,103.7l-87.6,10.2l28.6-105.5L354,357.5L354,357.5z M356.8,355.3l-2.9,0.3l-89.5,8.3
						L263,364l-0.4,1.3L234,470.8l-0.8,2.8l2.9-0.3l87.6-10.2l1.3-0.1l0.4-1.3L356,358.1L356.8,355.3L356.8,355.3z"/>
				</g>
			</g>
			<g>
				<g>
					<polygon class="st0" points="276,392.6 331,387.5 325.9,404.5 270.9,408.8 					"/>
					<path class="st1" d="M329.6,388.6l-4.5,15l-52.8,4.1l4.4-14.1L329.6,388.6L329.6,388.6z M332.4,386.3l-57.2,5.3l-5.7,18.2
						l57.1-4.5L332.4,386.3L332.4,386.3z"/>
				</g>
			</g>
			<g>
				<path class="st1" d="M264.5,365.8l-28.6,105.5H224l28.1-105.5C252.1,365.8,255.2,372,264.5,365.8z"/>
			</g>
		</g>
		<g>
			<g>
				<g>
					<path class="st0" d="M125.8,455.4c4.6,0.5,23.9,2.4,38.3,2.4c12.9,0,15.9-1.5,17-2.6c6.3-6.5,9.3-11,13.2-16.7l0.7-1
						c3.5-5.1,13.1-13.7,18.2-18.2l2-1.8c0.6-0.5,0.9-0.6,1.1-0.6c0.4,0,0.7,0.5,0.8,0.8c1,2.1,0.5,7.4-3.6,12.1
						c-7.2,8.2-3.1,14.4-2.9,14.7l0.3,0.5h0.6c0.4,0,42.6-2.9,56.4-2.9c2.6,0,3.5,0.1,3.8,0.2c1.4,0.3,2.5,1.3,2.7,2.3
						c0.2,1.1-0.7,2.2-2.4,3.2c-3.2,1.8-12.2,4.1-18.6,4.7l-5.5,0.5l5.4,1.4c0,0,0.9,0.3,1.2,1.2c0.3,1,0.1,3.4-4.2,8.4l-0.3,0.3
						l0.1,0.4c0,0.3,0.7,6.6-5.2,9.4l-0.9,0.4l0.4,0.9c0.1,0.2,2.1,4.6-5.8,8.4c-1.3,0.6-2.6,1.3-3.8,1.9
						c-5.7,2.9-10.2,5.2-15.5,5.2l0,0c-1,0-2-0.1-3.1-0.2c-1.2-0.2-2.9-0.3-5.1-0.3c-17.6,0-78.8,7.9-90.6,10.8L125.8,455.4z"/>
					<path class="st1" d="M216.2,417.9c0.7,1.2,0.8,6.4-3.4,11.1c-7.6,8.7-3.2,15.6-3,15.9l0.6,1l1.2-0.1c0.4,0,42.6-2.9,56.3-2.9
						c2.7,0,3.4,0.1,3.6,0.1c0.9,0.2,1.8,0.9,1.9,1.5s-0.6,1.4-1.9,2.2c-3,1.7-12.1,4-18.2,4.6l-8.9,0.9l8.5,3
						c0.1,0,0.4,0.2,0.5,0.6c0.1,0.5,0.3,2.6-4,7.5l-0.6,0.7l0.1,0.9c0,0.2,0.6,5.9-4.7,8.4l-1.7,0.9l0.8,1.7
						c0.2,0.4,1.5,3.8-5.3,7.1c-1.3,0.6-2.6,1.3-3.8,1.9c-5.6,2.8-10,5.1-15.1,5.1c-1,0-2-0.1-3-0.2c-1.3-0.2-3-0.3-5.3-0.3
						c-15.6,0-73.8,7.1-89.5,10.6l5.3-43.3c5.9,0.6,23.8,2.3,37.4,2.3c13.2,0,16.4-1.6,17.7-3c6.3-6.6,9.4-11.1,13.3-16.8l0.7-1
						c3.4-5,13-13.5,18.1-18.1l2-1.8C216,418,216.1,418,216.2,417.9L216.2,417.9z M216.3,415.9c-0.5,0-1.1,0.3-1.8,0.9
						c-4.2,3.8-16.3,14.2-20.4,20.2c-4.3,6.3-7.2,10.8-13.8,17.6c-1.7,1.8-8.2,2.3-16.3,2.3c-16.4,0-39.1-2.5-39.1-2.5l-5.9,48
						c0.9-1,69.4-11.1,91.8-11.1c2.1,0,3.8,0.1,5,0.3c1.1,0.2,2.2,0.3,3.3,0.3c6.7,0,12-3.4,19.8-7.2c9-4.4,6.2-9.7,6.2-9.7
						c6.7-3.2,5.8-10.4,5.8-10.4c8.5-9.7,2.6-11.2,2.6-11.2c6.5-0.6,15.7-2.9,19-4.8c5.2-3,2.5-6.7-0.5-7.3c-0.6-0.1-2-0.2-4-0.2
						c-13.9,0-56.4,2.9-56.4,2.9s-3.9-5.8,2.8-13.5C220,423.8,219.2,415.9,216.3,415.9L216.3,415.9z"/>
				</g>
			</g>
			<g>
				<path class="st1" d="M251.3,462.5c-0.1,0-6.2,4.3-21.1,0.2c-0.5-0.1-1,0.1-1.2,0.6s0.1,1,0.6,1.1c5.1,1.4,9.2,1.9,12.4,1.9
					c7,0,10.1-2.2,10.3-2.4c0.4-0.3,0.5-0.9,0.2-1.3C252.3,462.3,251.7,462.2,251.3,462.5z"/>
			</g>
			<g>
				<path class="st1" d="M253.6,452.3c-0.1,0-5.5,1-21.9,0.6c-0.5,0-0.9,0.4-1,0.9c0,0.5,0.4,0.9,0.9,1c3,0.1,5.7,0.1,8,0.1
					c10.5,0,14.1-0.7,14.3-0.7c0.5-0.1,0.8-0.6,0.7-1.1C254.6,452.6,254.1,452.2,253.6,452.3z"/>
			</g>
			<g>
				<path class="st1" d="M246.5,473c-0.1,0-7.4,3.7-21.4,3c-0.6,0-1,0.4-1,0.9s0.4,0.9,0.9,1c1.2,0,2.3,0.1,3.4,0.1
					c12.4,0,18.7-3.2,19-3.3c0.5-0.2,0.6-0.8,0.4-1.2C247.5,472.9,247,472.8,246.5,473z"/>
			</g>
		</g>
		<g>
			<g>
				<path class="st9" d="M101.9,443.8c0,0,14.8-48.9,8.5-99.5l-75.1,43.4c0,0-4.4,31.5-1,66c2.5,25.4,8.2,57.8,64.9,58.1
					c21,0.1,64.7-4.3,64.7-4.3c-2.5-6.8,0.3-53.1,0.3-53.1L101.9,443.8z"/>
			</g>
			<g>
				<g>
					<path class="st0" d="M146.8,522.8c-0.8-2-2.4-6.3-3-9.6l15.7-10.5l-17.9,3.9c-1.4-6.4-9-44,2.8-64.9l34.4,10.6
						c-0.4,4.4-2,26.3,1.9,48L146.8,522.8z"/>
					<path class="st1" d="M144.9,442.9l32.8,10.1c-0.5,5.8-1.8,26.3,1.9,46.9l-32.3,21.4c-0.8-2-1.8-5-2.4-7.6l10.8-7.3l8.6-5.7
						l-10.1,2.2l-11.9,2.6C140.6,497.1,134.2,462.7,144.9,442.9L144.9,442.9z M143.9,440.6c-13.9,23.1-3.1,67.2-3.1,67.2l13.8-3
						l-11.9,8c0.7,4.6,3.6,11.5,3.6,11.5l35.5-23.5c-4.6-24.6-2-49.2-2-49.2L143.9,440.6L143.9,440.6z"/>
				</g>
			</g>
			<g>
				<g>
					<path class="st5" d="M161.4,505.5c-1.6,0-3.1-1-3.6-2.6c-0.3-0.9-0.2-1.9,0.3-2.8s1.2-1.5,2.2-1.8c0.4-0.1,0.7-0.2,1.1-0.2
						c1.6,0,3.1,1,3.5,2.6c0.6,1.9-0.5,3.9-2.5,4.5C162.1,505.5,161.7,505.5,161.4,505.5L161.4,505.5z"/>
					<path class="st1" d="M161.4,499.3c1.2,0,2.2,0.7,2.6,1.9c0.4,1.4-0.4,2.9-1.8,3.3c-0.3,0.1-0.5,0.1-0.8,0.1
						c-1.2,0-2.2-0.7-2.6-1.9c-0.4-1.4,0.4-2.9,1.8-3.3C160.8,499.3,161.1,499.3,161.4,499.3L161.4,499.3z M161.4,497.3
						c-0.5,0-0.9,0.1-1.4,0.2c-1.2,0.4-2.2,1.1-2.8,2.2s-0.7,2.3-0.4,3.5c0.6,2,2.4,3.3,4.5,3.3c0.5,0,0.9-0.1,1.4-0.2
						c2.5-0.8,3.9-3.3,3.1-5.8C165.2,498.6,163.4,497.3,161.4,497.3L161.4,497.3z"/>
				</g>
			</g>
		</g>
		<g>
			<g>
				<path class="st1" d="M137.9,226.3c-3-1.2-6-0.5-8.2,1.9c-4.3,4.6-1.6,10.6,0.4,13.1c0.2,0.2,0.5,0.4,0.7,0.4s0.4-0.1,0.6-0.2
					c0.4-0.3,0.5-0.9,0.2-1.3c-0.1-0.1-4.7-6.2-0.5-10.8c2.3-2.4,4.8-1.9,6.1-1.4c2.7,1.1,4.7,3.8,4.7,6.4c0,0.5,0.4,0.9,0.9,0.9
					l0,0c0.5,0,0.9-0.4,0.9-0.9C143.8,231.1,141.4,227.7,137.9,226.3z"/>
			</g>
			<g>
				<path class="st1" d="M138.4,227c-2.1,0.7-3.4,1.9-4,3.4c-0.9,2.5,0.5,5,0.6,5.1c0.2,0.3,0.5,0.5,0.8,0.5c0.2,0,0.3,0,0.5-0.1
					c0.4-0.2,0.6-0.8,0.4-1.2c0,0-1.1-1.9-0.5-3.6c0.4-1,1.3-1.8,2.8-2.3c0.5-0.2,0.7-0.7,0.6-1.2
					C139.4,227.1,138.9,226.8,138.4,227z"/>
			</g>
		</g>
		<g>
			<path class="st1" d="M129.1,449.5l-29-5l1-1.3c14.8-19.7,8.6-96.5,8.5-97.2l2-0.2c0.3,3.1,6.1,75.3-8,97.3l25.9,4.4L129.1,449.5z
				"/>
		</g>
		<polygon class="st0" points="260.5,325.4 271.3,323.5 279.5,347 278,349.6 256,325.6 		"/>
	</g>
</g>
<g>
	<rect x="22" y="539" class="st7" width="463.9" height="4.5"/>
</g>
<rect x="16" y="539.8" class="st1" width="471" height="6.5"/>
</svg>
