<?xml version="1.0" encoding="utf-8"?>
<!-- Generator: Adobe Illustrator 27.7.0, SVG Export Plug-In . SVG Version: 6.00 Build 0)  -->
<svg version="1.1" id="Capa_1" xmlns="http://www.w3.org/2000/svg" xmlns:xlink="http://www.w3.org/1999/xlink" x="0px" y="0px"
	 viewBox="0 0 97 107" style="enable-background:new 0 0 97 107;" xml:space="preserve">
<style type="text/css">
	.st0{fill:#3B9D81;}
	.st1{fill:#11111F;}
	.st2{fill:#FFFFFF;}
	.st3{fill:#11111F;}
	.st4{fill:#84BC26;}
	.st5{fill:#11111F;}
</style>
<path class="st0" d="M72.5,20.3c3.3-7.1,20.8-16.5,20.8-16.5s4,19.5,0.7,26.5s-10.8,10.5-16.7,7.8"/>
<path class="st0" d="M77.3,38.2c-5.9-2.8-8.1-10.8-4.7-17.8"/>
<g>
	<path class="st1" d="M47.7,6.2c0,0-0.7-6.1-11.3-3.6c-7.6,1.8-9,1.2-9,1.2s0.9,2.8,4,3.5c0,0-5.5-0.7-5.2,4.9s3.8,6.4,3.8,9
		c0,2.6-4.7,5.4,0.3,9.1s15.9,10.2,23.2-0.5C60.6,19.3,54.2,1.5,47.7,6.2z"/>
	<path class="st1" d="M49.9,5.2c-0.7,0-1.4,0.2-2.1,0.6c-0.3-1-1.6-4.1-6.9-4.1c-1.4,0-2.9,0.2-4.6,0.6c-4.5,1-6.8,1.3-8,1.3
		c-0.7,0-0.9-0.1-0.9-0.1c-0.1,0-0.2,0-0.2,0c-0.1,0.1-0.1,0.2-0.1,0.2c0,0.1,0.7,2.2,3,3.2c-0.9,0.1-2.1,0.4-3,1.4
		c-0.8,0.9-1.2,2.2-1.1,3.8c0.2,3.4,1.5,5,2.5,6.4c0.7,0.9,1.3,1.6,1.3,2.6c0,0.8-0.4,1.6-0.9,2.4c-1,1.9-2.3,4.2,1.2,6.8
		c4.8,3.6,9.3,5.4,13.3,5.4l0,0c4.1,0,7.6-2,10.3-6c4.2-6.2,3.8-15.5,1-20.8C53.3,6.6,51.6,5.2,49.9,5.2z M53.3,29.6
		c-2.6,3.9-5.9,5.8-9.9,5.8l0,0c-3.8,0-8.3-1.8-13-5.3c-3.2-2.4-2.2-4.4-1.1-6.2c0.5-0.9,1-1.8,1-2.6c0-1.1-0.6-2-1.4-2.9
		c-1-1.3-2.3-2.9-2.4-6.1c-0.1-1.5,0.2-2.7,1-3.5c1-1.1,2.6-1.2,3.4-1.2c0.3,0,0.5,0,0.5,0c0.1,0,0.2-0.1,0.2-0.2
		c0-0.1,0-0.2-0.2-0.2c-2.3-0.6-3.4-2.2-3.7-3c0.8,0.1,3.1,0.1,8.7-1.2c1.7-0.4,3.2-0.6,4.5-0.6c6,0,6.5,3.8,6.5,4
		c0,0.1,0.1,0.1,0.1,0.2c0.1,0,0.2,0,0.2,0c2.2-1.6,4.7-0.5,6.5,2.9C57,14.5,57.4,23.5,53.3,29.6z"/>
</g>
<g>
	<path class="st2" d="M52.5,20l1,7.2c0,0,2.5-1.8,1.8-5.5C54.9,19.5,52.5,20,52.5,20z"/>
	<path class="st3" d="M52.5,19.8c-0.1,0-0.2,0.1-0.2,0.3s0.1,0.2,0.3,0.2c0.1,0,2.2-0.4,2.6,1.5c0.7,3.5-1.7,5.2-1.7,5.3
		c-0.1,0.1-0.1,0.2,0,0.3c0,0.1,0.1,0.1,0.2,0.1c0,0,0.1,0,0.1,0c0,0,2.6-2,1.9-5.8C55.2,19.8,53.4,19.6,52.5,19.8z"/>
</g>
<g>
	<path class="st4" d="M53.2,42.8c-3.2-1.5-12.6-1.3-17.8,1.1c-5.1,2.4-4,7.5-2.5,14c1.6,6.6,8.8,16.3,9.1,29.2s-0.4,18.8-0.4,18.8
		h24.5c0,0,3.1-35.1-6.6-54.9C57.7,47.1,55.1,43.7,53.2,42.8z"/>
	<path class="st5" d="M53.3,42.6c-1.3-0.6-3.7-1-6.6-1c-4.3,0-8.6,0.8-11.4,2.1c-5.4,2.5-4.1,7.9-2.6,14.2c0.5,2.2,1.7,4.8,3,7.8
		c2.6,5.8,5.9,12.9,6,21.4c0.3,12.7-0.4,18.7-0.4,18.8c0,0.1,0,0.1,0,0.2c0,0.1,0.1,0.1,0.2,0.1h24.5c0.1,0,0.2-0.1,0.2-0.2
		c0-0.3,3-35.4-6.6-55C57.9,46.9,55.2,43.5,53.3,42.6z M65.9,105.7h-24c0.1-1.2,0.6-7.3,0.4-18.6c-0.2-8.6-3.5-15.8-6.1-21.6
		c-1.3-2.9-2.5-5.5-3-7.7c-1.5-6.1-2.7-11.4,2.3-13.7c2.7-1.2,7-2,11.2-2c2.8,0,5.1,0.3,6.4,0.9c1.8,0.8,4.4,4.2,6.3,8.1
		C68.5,69.8,66.2,102.8,65.9,105.7z"/>
</g>
<g>
	<path class="st2" d="M30.6,25c0.1,3.8,3,5,3,5L33,22.8C33,22.8,30.6,22.9,30.6,25z"/>
	<path class="st3" d="M33.7,29.8c-0.1,0-2.7-1.2-2.9-4.8c-0.1-1.9,2.1-2,2.2-2c0.1,0,0.2-0.1,0.2-0.2c0-0.1-0.1-0.2-0.2-0.2
		c-0.9,0-2.7,0.6-2.6,2.5c0.1,3.9,3.1,5.2,3.1,5.2c0,0,0.1,0,0.1,0c0.1,0,0.2,0,0.2-0.1C33.9,30,33.8,29.9,33.7,29.8z"/>
</g>
<g>
	<path class="st2" d="M49.8,36.2l-10.7,1.4c0,0,0.2,2.4-0.5,5.2c0,0,4.7,1.7,7.5,1.4c1.1-0.1,2.5-0.5,4-2
		C50.2,42.2,49.7,37.9,49.8,36.2z"/>
	<path class="st1" d="M50,36.2c0-0.1,0-0.1-0.1-0.2S49.9,36,49.8,36l-10.7,1.4c-0.1,0-0.2,0.1-0.2,0.2c0,0,0.2,2.4-0.5,5.1
		c0,0.1,0,0.2,0.1,0.3c0.2,0.1,4,1.4,6.9,1.4c0.3,0,0.5,0,0.8,0c1.5-0.2,2.9-0.8,4.2-2c0,0,0.1-0.1,0.1-0.2
		C50.5,42.1,49.9,37.9,50,36.2z M46.2,43.9c-0.2,0-0.5,0-0.7,0c-2.4,0-5.7-1-6.5-1.3c0.5-2.3,0.5-4.2,0.5-4.8l10.2-1.3
		c-0.1,1.7,0.3,5,0.4,5.6C48.8,43.2,47.5,43.8,46.2,43.9z"/>
</g>
<g>
	<path class="st2" d="M52.1,15.5c-1.4-6.7-7.7-4.9-7.7-4.9c-6.6-1.7-11.1,2.7-11.4,5s-0.2,8.8,0.3,11.6c0.6,3.1,0.7,8.3,3.9,11.2
		c1.6,1.5,5-0.4,6,2.4c3.8-0.2,7.2-1.2,9.7-4.1c1.8-2.2,1.2-6.5,1-9.5C53.6,24.2,52.7,18.4,52.1,15.5z"/>
	<path class="st1" d="M54,27.2c-0.2-3.1-1.1-9-1.7-11.7c-1-4.6-4.3-5.3-6.1-5.3c-0.9,0-1.6,0.2-1.8,0.2c-1-0.2-2-0.4-2.9-0.4
		c-5.2,0-8.5,3.6-8.7,5.6c-0.3,2.3-0.2,8.8,0.3,11.7c0.1,0.6,0.2,1.3,0.3,2c0.5,3.1,1,7,3.6,9.3c0.7,0.7,1.8,0.7,2.8,0.7
		c1.3,0,2.6,0.1,3.2,1.6c0,0.1,0.1,0.1,0.2,0.1h0c4.5-0.2,7.6-1.5,9.8-4.2c1.7-2,1.4-5.6,1.1-8.5C54.1,28,54.1,27.6,54,27.2z
		 M52.7,36.6c-2.1,2.5-5.1,3.8-9.4,4c-0.7-1.6-2.2-1.7-3.5-1.8c-1,0-1.9-0.1-2.5-0.6c-2.5-2.2-3-6-3.5-9c-0.1-0.7-0.2-1.4-0.3-2
		c-0.5-2.8-0.6-9.4-0.3-11.6c0.2-1.8,3.3-5.2,8.3-5.2c0.9,0,1.9,0.1,2.9,0.4c0,0,0.1,0,0.1,0c0,0,0.7-0.2,1.7-0.2
		c2.1,0,4.8,0.9,5.7,5c0.6,2.8,1.5,8.6,1.7,11.7c0,0.4,0.1,0.8,0.1,1.2C53.9,31.3,54.2,34.8,52.7,36.6z"/>
</g>
<g>
	<path class="st1" d="M53.7,25.8c-0.9,0.6-2.1,0.9-3.4,0.9c-1.7,0-2.7-0.7-4-0.9c-1.7-0.3-3.4,0.2-4.6,1c-1.4,1-2.7,2.1-5,2.1
		c-1.3,0-2.3-0.3-3.2-0.8c0.5,3.1,0.8,7.7,3.7,10.3c1.6,1.5,5-0.4,6,2.4c3.8-0.2,7.2-1.2,9.7-4.1c1.8-2.2,1.2-6.5,1-9.5
		C53.8,26.8,53.7,26.3,53.7,25.8z M48.4,30.1c-0.9,0.5-1.8,1-2.8,1.3c-1,0.3-2,0.4-3,0.4c-0.8,0-1.3-0.6-1.3-1.3
		c0-0.7,0.6-1.4,1.3-1.3c0.2,0,0.5,0,0.7,0c0.1,0,0.2,0,0.3,0c0,0,0.1,0,0.2,0s0.2,0,0.2,0c0.1,0,0.2,0,0.3-0.1
		c0.2,0,0.4-0.1,0.6-0.2s0.4-0.1,0.6-0.2c0,0,0.1,0,0.1,0c0.1,0,0.2-0.1,0.3-0.1c0.4-0.2,0.8-0.4,1.2-0.7c0.6-0.4,1.5-0.1,1.8,0.5
		C49.3,28.9,49,29.7,48.4,30.1z"/>
	<path class="st3" d="M47,27.6c-0.4,0.3-0.8,0.5-1.2,0.7c-0.1,0-0.2,0.1-0.3,0.1l-0.3,0.1c-0.1,0-0.2,0.1-0.3,0.1
		c-0.2,0.1-0.4,0.1-0.6,0.2c-0.1,0-0.2,0-0.3,0.1l-0.1,0l0,0.2l-0.1-0.2l-0.1,0c-0.1,0-0.2,0-0.3,0c-0.2,0-0.5,0-0.7,0h0
		c-0.4,0-0.8,0.2-1.1,0.5c-0.3,0.3-0.5,0.7-0.4,1.1c0,0.9,0.7,1.5,1.6,1.6c0.1,0,0.2,0,0.3,0c1,0,2-0.1,2.8-0.4
		c0.9-0.3,1.8-0.7,2.8-1.4c0.4-0.2,0.6-0.6,0.7-1c0.1-0.4,0-0.8-0.2-1.1C48.6,27.4,47.7,27.2,47,27.6z M48.8,29.1
		c-0.1,0.3-0.3,0.6-0.5,0.8c-1,0.6-1.8,1-2.7,1.3c-0.9,0.3-1.9,0.4-2.9,0.4c-0.6,0-1.1-0.5-1.1-1.1c0-0.3,0.1-0.5,0.3-0.8
		c0.2-0.2,0.5-0.4,0.8-0.4v-0.2l0,0.2c0.2,0,0.5,0,0.8,0c0.1,0,0.2,0,0.3,0l0.1,0c0,0,0.1,0,0.1,0l0.2,0c0.1,0,0.2,0,0.3-0.1
		c0.2,0,0.4-0.1,0.6-0.2c0.1,0,0.2-0.1,0.4-0.1l0.3-0.1c0.1,0,0.2-0.1,0.3-0.1c0.4-0.2,0.8-0.4,1.2-0.7c0.5-0.3,1.2-0.1,1.5,0.4
		C48.9,28.6,48.9,28.9,48.8,29.1z"/>
	<path class="st1" d="M54,27.2c0-0.4-0.1-0.9-0.1-1.4c0-0.1-0.1-0.1-0.1-0.2c-0.1,0-0.2,0-0.2,0c-1,0.6-2.1,0.9-3.3,0.9
		c-1,0-1.7-0.3-2.4-0.5c-0.5-0.2-1-0.3-1.5-0.4c-1.7-0.3-3.5,0.1-4.7,1l-0.2,0.2c-1.3,1-2.6,1.9-4.7,1.9c-1.2,0-2.2-0.3-3.1-0.8
		c-0.1,0-0.2,0-0.2,0c-0.1,0-0.1,0.1-0.1,0.2c0.1,0.4,0.1,0.8,0.2,1.1c0.5,3.1,1,7,3.6,9.3c0.7,0.7,1.8,0.7,2.8,0.7
		c1.3,0,2.6,0.1,3.2,1.6c0,0.1,0.1,0.1,0.2,0.1h0c4.5-0.2,7.6-1.5,9.9-4.2c1.7-2,1.4-5.6,1.1-8.5C54.1,28,54.1,27.6,54,27.2z
		 M52.7,36.6c-2.1,2.5-5.1,3.8-9.4,4c-0.7-1.6-2.2-1.7-3.5-1.8c-1,0-1.9-0.1-2.5-0.6c-2.5-2.2-3-6-3.5-9c0-0.2-0.1-0.5-0.1-0.7
		c0.9,0.4,1.9,0.6,2.9,0.6c2.3,0,3.6-0.9,5-1.9l0.2-0.2c1.2-0.8,2.8-1.2,4.4-1c0.5,0.1,0.9,0.2,1.4,0.4c0.8,0.3,1.5,0.5,2.6,0.5
		c1.2,0,2.3-0.3,3.3-0.8c0,0.4,0.1,0.8,0.1,1.1c0,0.4,0.1,0.8,0.1,1.2C53.9,31.3,54.2,34.8,52.7,36.6z"/>
</g>
<g>
	<path class="st3" d="M47.3,27.9c-1.8,2-4.3,2.2-4.3,2.2c-0.1,0-0.2,0.1-0.2,0.2c0,0.1,0.1,0.2,0.2,0.2h0c0.1,0,2.7-0.1,4.6-2.3
		c0.1-0.1,0.1-0.2,0-0.3C47.5,27.8,47.4,27.8,47.3,27.9z"/>
</g>
<g>
	<path class="st3" d="M49.1,15.8c-2.7-0.9-4.3-0.4-4.4-0.3c-0.1,0-0.2,0.2-0.1,0.3c0,0.1,0.2,0.2,0.3,0.1c0,0,1.5-0.5,4.1,0.3
		c0,0,0,0,0.1,0c0.1,0,0.2-0.1,0.2-0.1C49.3,15.9,49.2,15.8,49.1,15.8z"/>
</g>
<g>
	<path class="st3" d="M39.8,14.9c-0.1,0-1.7-0.2-4.2,1.3c-0.1,0.1-0.1,0.2-0.1,0.3c0,0.1,0.1,0.1,0.2,0.1c0,0,0.1,0,0.1,0
		c2.3-1.4,3.9-1.2,3.9-1.2c0.1,0,0.2-0.1,0.2-0.2C40,15,39.9,14.9,39.8,14.9z"/>
</g>
<g>
	<path class="st3" d="M38.1,20.7c-0.4,0-0.7,0.3-0.7,0.6c0,0.4,0.3,0.6,0.7,0.6s0.7-0.3,0.7-0.6C38.7,21,38.4,20.7,38.1,20.7z"/>
	<path class="st3" d="M38.1,20.5c-0.5,0-0.9,0.4-0.9,0.9c0,0.5,0.4,0.9,0.9,0.9s0.9-0.4,0.9-0.9S38.5,20.5,38.1,20.5z M38.1,21.8
		c-0.2,0-0.4-0.2-0.4-0.4s0.2-0.4,0.4-0.4s0.4,0.2,0.4,0.4C38.5,21.6,38.3,21.8,38.1,21.8z"/>
</g>
<g>
	<path class="st3" d="M47.7,19.6c-0.4,0-0.7,0.3-0.7,0.6c0,0.4,0.3,0.6,0.7,0.6s0.7-0.3,0.7-0.6C48.3,19.9,48,19.6,47.7,19.6z"/>
	<path class="st3" d="M47.7,19.4c-0.5,0-0.9,0.4-0.9,0.9c0,0.5,0.4,0.9,0.9,0.9s0.9-0.4,0.9-0.9C48.6,19.8,48.2,19.4,47.7,19.4z
		 M47.7,20.7c-0.2,0-0.4-0.2-0.4-0.4s0.2-0.4,0.4-0.4s0.4,0.2,0.4,0.4S47.9,20.7,47.7,20.7z"/>
</g>
<g>
	<path class="st2" d="M35.7,43.6c0,0-6,1.4-11.1,3.8c-5.1,2.4-10,4-8.4,10.5c1.6,6.6,8.8,16.3,9.1,29.2s-0.4,18.8-0.4,18.8h24.5
		c0,0-0.6-34.4-10.2-54.2C37.2,47.7,35.7,43.6,35.7,43.6z"/>
	<path class="st1" d="M35.9,43.5c0-0.1-0.2-0.2-0.3-0.1c-0.1,0-6,1.4-11.2,3.8c-0.4,0.2-0.7,0.3-1.1,0.5c-4.8,2.2-8.9,4-7.4,10.2
		c0.5,2.2,1.7,4.8,3,7.8c2.6,5.8,5.9,12.9,6.1,21.4c0.3,12.7-0.4,18.7-0.4,18.8c0,0.1,0,0.1,0,0.2c0,0.1,0.1,0.1,0.2,0.1h24.5
		c0.1,0,0.1,0,0.2-0.1c0,0,0.1-0.1,0.1-0.2c0-0.3-0.7-34.7-10.3-54.3C37.4,47.7,35.9,43.6,35.9,43.5z M25.1,105.7
		c0.1-1.2,0.6-7.3,0.4-18.6c-0.2-8.6-3.5-15.8-6.1-21.6c-1.3-2.9-2.5-5.5-3-7.7c-1.4-5.8,2.4-7.5,7.2-9.7c0.4-0.2,0.7-0.3,1.1-0.5
		c4.6-2.1,9.8-3.5,10.9-3.7c0.3,0.8,1.7,4.5,3.3,7.9C48,70.5,49,102.6,49.1,105.7H25.1z"/>
</g>
<g>
	<path class="st2" d="M61.3,42.9l5.1,30.5c1.3,2,5.5,9.4,7.3,12.4c3.8,6.6,17.3,6.9,19-1.4c1.7-7.9-10-24.2-15.8-31.4
		C69.8,44.3,61.3,42.9,61.3,42.9z"/>
	<path class="st1" d="M61.3,42.7c-0.1,0-0.2,0.1-0.2,0.2c0,0.1,0.1,0.2,0.2,0.2c0.1,0,8.6,1.5,15.5,10.1
		c2.9,3.7,17.6,22.5,15.7,31.2c-0.7,3.2-3.2,5.3-7,5.9c-4.7,0.8-9.7-1.2-11.7-4.6c-0.4-0.7-0.8-1.5-1.4-2.4c-2-3.6-4.8-8.4-5.9-10
		c-0.1-0.1-0.2-0.1-0.3-0.1c-0.1,0.1-0.1,0.2-0.1,0.3c1,1.6,3.8,6.5,5.9,10c0.5,0.9,1,1.8,1.4,2.4c2,3.4,6.2,5,10.1,5
		c0.7,0,1.4-0.1,2.1-0.2c4-0.6,6.6-2.9,7.3-6.3c1.9-8.9-12.9-27.9-15.8-31.6C70.1,44.2,61.4,42.7,61.3,42.7z"/>
</g>
<g>
	<path class="st2" d="M52.4,42.4c0,0,7.9,15.5,7.9,42.8c0,13.1,0.4,20.7,0.4,20.7h16c0,0-2.1-44.1-5.8-54.8
		C67.3,40.4,52.4,42.4,52.4,42.4z"/>
	<path class="st1" d="M71.2,51c-2.7-7.8-11.3-9-16.1-9c-1.6,0-2.7,0.1-2.7,0.1c-0.1,0-0.1,0-0.2,0.1c0,0.1,0,0.1,0,0.2
		c0.1,0.2,7.9,15.8,7.9,42.7c0,13,0.4,20.7,0.4,20.7c0,0.1,0.1,0.2,0.2,0.2h16h0c0.1,0,0.2-0.1,0.2-0.2c0,0,0-0.1,0-0.1
		C76.9,103.8,74.8,61.4,71.2,51z M61,105.7c-0.1-1.3-0.4-8.7-0.4-20.5c0-25-6.7-40.3-7.8-42.6c0.4,0,1.2-0.1,2.3-0.1
		c4.7,0,13.1,1.1,15.7,8.7c3.5,10.2,5.6,51.1,5.8,54.5L61,105.7L61,105.7z"/>
</g>
<g>
	<path class="st3" d="M42.4,24.8c-0.2-0.2,0-0.6,0-0.7L42,23.9c0,0.1-0.3,0.7,0,1.2c0.2,0.2,0.5,0.4,0.8,0.4c0.1,0,0.1,0,0.2,0
		l0-0.4C42.8,25,42.5,25,42.4,24.8z"/>
</g>
<g>
	<g>
		<path class="st2" d="M15.7,51.7c1.4-2.1,2.1-3.5,3.7-5.8C21.9,42.4,16,38,16,38s-1.5-13.1-2.1-14.4c-0.4-0.8-2.1-1.1-2.5,0.5
			c-0.3,1,0.1,10.4,0.4,12.2c0,0-2.9-3.3-5.1,0.5c0,0-2.2,0.2-2.2,2.2c0,0-1.6,0.4-2.2,2.4c-0.7,2.6,1.4,4.3,1.4,4.3S2.6,49,4,51.1
			c2.6,3.7,3.6,16.8,3.6,16.8l12.4-4.6C20.1,63.3,14.6,53.4,15.7,51.7z"/>
		<path class="st1" d="M17.4,49.6c0.7-1.1,1.3-2.1,2.3-3.5c2.4-3.5-2.7-7.6-3.5-8.2C16,36.6,14.6,24.7,14,23.5
			c-0.2-0.4-0.8-0.8-1.4-0.8c-0.8,0-1.3,0.5-1.6,1.2c-0.3,1,0.1,9,0.3,11.7c-0.5-0.4-1.3-1-2.3-1c-1,0-1.9,0.6-2.7,1.8
			c-0.8,0.1-2.2,0.7-2.2,2.3c-0.5,0.2-1.7,0.8-2.1,2.5c-0.6,2.4,0.9,4,1.3,4.4c-0.2,0.7-0.8,3.5,0.5,5.4c2.5,3.6,3.6,16.5,3.6,16.7
			c0,0.1,0,0.1,0.1,0.2c0,0,0.1,0,0.1,0c0,0,0.1,0,0.1,0l12.4-4.6c0.1,0,0.1-0.1,0.1-0.1c0-0.1,0-0.1,0-0.2
			c-2.2-3.9-5.1-10.1-4.3-11.3C16.5,51,16.9,50.3,17.4,49.6z M19.8,63.2L7.9,67.5c-0.2-2-1.2-13.1-3.6-16.6
			c-1.4-1.9-0.4-5.2-0.4-5.2c0-0.1,0-0.2-0.1-0.2c-0.1-0.1-1.9-1.6-1.3-4c0.5-1.8,1.9-2.2,2-2.3c0.1,0,0.2-0.1,0.2-0.2
			c-0.1-1.8,1.9-2,1.9-2c0.1,0,0.1,0,0.2-0.1c0.7-1.1,1.5-1.7,2.3-1.7c1.3,0,2.4,1.2,2.4,1.3c0.1,0.1,0.2,0.1,0.3,0.1
			c0.1,0,0.1-0.1,0.1-0.2c-0.2-1.8-0.7-11.2-0.4-12.1c0.3-0.9,0.9-0.9,1.1-0.9c0.4,0,0.8,0.2,1,0.5c0.5,1,1.6,9.8,2.1,14.3
			c0,0.1,0,0.1,0.1,0.2c0.1,0,5.8,4.3,3.4,7.6c-1,1.4-1.6,2.4-2.3,3.5c-0.4,0.7-0.9,1.4-1.4,2.3C14.5,53.3,18.8,61.4,19.8,63.2z"/>
	</g>
	<g>
		<path class="st1" d="M8.6,51.9c0-0.1-0.1-0.2-0.3-0.2c-0.1,0-0.2,0.2-0.2,0.3l1.6,6c0,0.1,0.1,0.2,0.2,0.2c0,0,0,0,0.1,0
			c0.1,0,0.2-0.2,0.1-0.3L8.6,51.9z"/>
	</g>
	<g>
		<path class="st1" d="M12.1,37.8c-1.1-0.6-2.6,0.5-2.7,0.5c-0.1,0.1-0.1,0.2-0.1,0.3c0.1,0.1,0.2,0.1,0.3,0.1c0,0,1.4-0.9,2.3-0.5
			c0.5,0.2,0.8,0.9,0.8,1.9c0,1.4-0.6,2.4-1.8,2.6c-1.3,0.3-3.2-0.4-3.9-2c-0.8-1.7-0.2-3.9-0.2-3.9c0-0.1,0-0.2-0.2-0.3
			s-0.2,0-0.3,0.2c0,0.1-0.6,2.4,0.2,4.2c0.7,1.6,2.3,2.4,3.7,2.4c0.2,0,0.5,0,0.7-0.1c1.4-0.3,2.2-1.5,2.1-3.1
			C13.1,38.9,12.8,38.2,12.1,37.8z"/>
	</g>
	<g>
		<path class="st1" d="M10.6,42.8c-0.1,0-0.2,0.1-0.2,0.2c0,1-0.9,1.3-1.2,1.4c-1.3,0.3-3.2-0.4-4-2.1C4.4,40.6,4.6,39,4.6,39
			c0-0.1-0.1-0.2-0.2-0.2S4.2,38.8,4.2,39c0,0.1-0.2,1.7,0.6,3.5C5.5,44.2,7.2,45,8.5,45c0.2,0,0.5,0,0.7-0.1c1-0.2,1.6-0.9,1.6-1.9
			C10.8,42.9,10.7,42.8,10.6,42.8z"/>
	</g>
	<g>
		<path class="st1" d="M5.6,45.6c-1.1,0.8-1.8,0-1.8-0.1c-0.1-0.1-0.2-0.1-0.3,0s-0.1,0.2,0,0.3c0,0,0.5,0.6,1.2,0.6
			c0.3,0,0.8-0.1,1.2-0.5C6,45.9,6,45.7,5.9,45.6C5.9,45.5,5.7,45.5,5.6,45.6z"/>
	</g>
	<g>
		<path class="st2" d="M7.8,47.6l7.3-5.2C15.1,42.4,9.5,43,7.8,47.6z"/>
		<path class="st1" d="M15.1,42.2c-0.1,0-5.7,0.7-7.5,5.3c0,0.1,0,0.2,0.1,0.3c0,0,0.1,0,0.1,0c0.1,0,0.2,0,0.2-0.1
			c1.7-4.3,7.1-5,7.1-5c0.1,0,0.2-0.1,0.2-0.2C15.3,42.3,15.2,42.2,15.1,42.2z"/>
	</g>
	<g>
		<path class="st2" d="M22.3,67.5l-4.4-15.1L4.3,59.7c0,0,0.2,25.6,11.6,34c7.2,5.3,16.6-0.1,14.7-17.6L22.3,67.5z"/>
		<path class="st1" d="M30.7,75.8c-0.1,0-0.2,0.1-0.2,0.2c1,9-1.1,15.9-5.5,18.4c-2.7,1.6-6,1.2-8.9-1C5.3,85.6,4.6,61.8,4.6,59.8
			l13.2-7.1l4.3,14.8c0,0.1,0.2,0.2,0.3,0.2c0.1,0,0.2-0.2,0.1-0.3l-4.4-15.1c0-0.1-0.1-0.1-0.1-0.1c-0.1,0-0.1,0-0.2,0L4.2,59.5
			c-0.1,0-0.1,0.1-0.1,0.2c0,0.3,0.3,25.8,11.7,34.2c1.8,1.3,3.7,2,5.6,2c1.3,0,2.6-0.3,3.8-1c4.5-2.6,6.7-9.6,5.7-18.8
			C30.9,75.9,30.8,75.8,30.7,75.8z"/>
	</g>
</g>
<g>
	<path class="st2" d="M35.7,43.6c0.4,1.2,5.7,5.6,6.4,5.3c1.1-2.7,3.6-4.8,3.6-4.8c-3.9-0.6-6.9-2.3-6.9-2.3L35.7,43.6z"/>
	<path class="st3" d="M45.7,44c-3.8-0.6-6.8-2.3-6.8-2.3c-0.1,0-0.2,0-0.2,0l-3.1,1.8c-0.1,0-0.1,0.2-0.1,0.3
		c0.4,1.2,5.5,5.5,6.5,5.5c0,0,0.1,0,0.1,0c0.1,0,0.1-0.1,0.1-0.1c1-2.6,3.5-4.7,3.5-4.7c0.1-0.1,0.1-0.2,0.1-0.2
		C45.8,44,45.8,44,45.7,44z M41.9,48.7c-0.9-0.2-5.2-3.7-5.9-5l2.8-1.6c0.6,0.3,3.1,1.7,6.4,2.2C44.4,45,42.8,46.6,41.9,48.7z"/>
</g>
<g>
	<path class="st2" d="M50.2,41.7c0,0-1.5,1.9-3.2,2.4c0,0,3.8,2.2,5.2,4c0,0,0.8-3,0.2-5.7C52.4,42.4,51.7,41.7,50.2,41.7z"/>
	<path class="st3" d="M52.6,42.2c0,0-0.8-0.7-2.3-0.7c-0.1,0-0.1,0-0.2,0.1c0,0-1.5,1.9-3.1,2.3c-0.1,0-0.2,0.1-0.2,0.2
		c0,0.1,0,0.2,0.1,0.2c0,0,3.8,2.2,5.2,3.9c0,0,0.1,0.1,0.2,0.1c0,0,0,0,0,0c0.1,0,0.2-0.1,0.2-0.2c0-0.1,0.8-3.1,0.2-5.8
		C52.6,42.3,52.6,42.2,52.6,42.2z M52.2,47.6c-1.3-1.3-3.7-2.9-4.6-3.5c1.4-0.6,2.5-1.9,2.8-2.2c1.1,0,1.7,0.4,1.9,0.6
		C52.7,44.5,52.3,46.7,52.2,47.6z"/>
</g>
<g>
	<path class="st2" d="M40.5,67c-0.6,0-1,0.5-1,1.1c0,0.6,0.5,1,1.1,0.9c0.6,0,1-0.5,1-1.1C41.6,67.3,41.1,66.9,40.5,67z"/>
	<path class="st1" d="M40.5,66.7c-0.3,0-0.6,0.2-0.8,0.4c-0.2,0.2-0.3,0.6-0.3,0.9c0,0.7,0.6,1.2,1.2,1.2c0,0,0.1,0,0.1,0
		c0.7-0.1,1.2-0.7,1.2-1.3C41.8,67.2,41.2,66.7,40.5,66.7z M40.7,68.8L40.7,68.8c-0.5,0-0.8-0.3-0.9-0.8c0-0.2,0-0.4,0.2-0.6
		c0.1-0.2,0.3-0.3,0.5-0.3h0.1c0.4,0,0.8,0.3,0.8,0.8C41.5,68.4,41.1,68.8,40.7,68.8z"/>
</g>
<g>
	<path class="st2" d="M43.2,82.2c-0.6,0-1,0.5-1,1.1c0,0.6,0.5,1,1.1,0.9s1-0.5,1-1.1C44.3,82.5,43.8,82.1,43.2,82.2z"/>
	<path class="st1" d="M43.2,81.9c-0.3,0-0.6,0.2-0.9,0.4s-0.3,0.6-0.3,0.9c0,0.7,0.6,1.2,1.2,1.2c0,0,0.1,0,0.1,0
		c0.3,0,0.6-0.2,0.9-0.4s0.3-0.6,0.3-0.9C44.5,82.4,43.9,81.9,43.2,81.9z M43.9,83.7c-0.1,0.2-0.3,0.3-0.5,0.3h-0.1
		c-0.4,0-0.8-0.3-0.8-0.8c0-0.2,0-0.4,0.2-0.6c0.1-0.2,0.3-0.3,0.5-0.3h0.1c0.4,0,0.8,0.3,0.8,0.8C44.2,83.3,44.1,83.5,43.9,83.7z"
		/>
</g>
<g>
	<path class="st2" d="M45.2,97.4c-0.6,0-1,0.5-1,1.1s0.5,1,1.1,0.9s1-0.5,1-1.1C46.2,97.8,45.7,97.4,45.2,97.4z"/>
	<path class="st1" d="M45.2,97.2c-0.3,0-0.6,0.2-0.9,0.4S44,98.2,44,98.6c0,0.7,0.6,1.2,1.2,1.2c0,0,0.1,0,0.1,0
		c0.7-0.1,1.2-0.7,1.2-1.3C46.5,97.7,45.8,97.2,45.2,97.2z M45.3,99.3L45.3,99.3c-0.5,0-0.8-0.3-0.9-0.8c0-0.2,0-0.4,0.2-0.6
		c0.1-0.2,0.3-0.3,0.5-0.3h0.1c0.4,0,0.8,0.3,0.8,0.8C46.1,98.8,45.8,99.2,45.3,99.3z"/>
</g>
<g>
	<g>
		<path class="st2" d="M94.6,26.8c-0.9-0.4-2.1-1.2-3.6-1.7c-1.5-0.5-2.1,0.3-3.3,0.5c-1.3,0.2-1.8,1.2-1.3,1.6s1.9,0.4,1.9,0.4
			s-1.8,0.8-2.9,1.3s-1.6,1.3-1.8,1.5c-0.1,0.2-0.3,1.2-0.3,1.2s-2.4,3.6-1.4,4.6c1.2,1,2.3-1.7,2.3-1.7c0.8,0.1,1.4-0.8,1.4-0.8
			c0.9,2.1-0.1,2.5-3.7,5.5c-3.6,2.9-0.5,3.2-0.8,5.6c-0.3,2.4-0.9,7.8-0.9,7.8c4.4,7.1,10.4,5.4,10.4,5.4S87.1,47,90.1,42.4
			c3-4.7,7-4,6.1-8.1C95.3,30.2,95.5,27.2,94.6,26.8z"/>
		<path class="st1" d="M95.8,30.1c-0.3-2-0.4-3.3-1.1-3.5c-0.3-0.1-0.7-0.3-1.1-0.5c-0.7-0.4-1.5-0.8-2.5-1.1
			c-0.3-0.1-0.7-0.2-1-0.2c-0.5,0-0.9,0.2-1.4,0.3c-0.3,0.1-0.7,0.2-1.1,0.3c-0.8,0.1-1.4,0.6-1.6,1.1c-0.1,0.3-0.1,0.6,0.2,0.9
			c0.2,0.3,0.7,0.4,1.1,0.5c-0.6,0.3-1.5,0.7-2.1,1c-1,0.6-1.7,1.4-1.8,1.6c-0.1,0.2-0.3,1-0.3,1.2c-0.3,0.5-2.5,3.8-1.3,4.9
			c0.2,0.2,0.5,0.3,0.7,0.3c0.9,0,1.6-1.4,1.8-1.9c0.5,0,0.9-0.3,1.2-0.6c0.5,1.5-0.2,2-2.7,4.1c-0.3,0.2-0.6,0.5-1,0.8
			c-2.4,2-1.9,2.9-1.3,3.9c0.3,0.5,0.6,1.1,0.5,1.8c-0.3,2.3-0.9,7.8-0.9,7.8c0,0,0,0.1,0,0.1c3.1,5,7,5.7,9,5.7
			c1,0,1.6-0.2,1.7-0.2c0.1,0,0.1,0,0.1-0.1c0,0,0-0.1,0-0.2c0-0.1-3.4-11.2-0.5-15.8c1.2-1.9,2.7-3,3.8-3.8c1.6-1.2,2.8-2,2.3-4.5
			C96.1,32.7,95.9,31.3,95.8,30.1z M93.8,38.4c-1.2,0.8-2.7,1.9-4,3.9c-2.8,4.4-0.1,14.2,0.4,15.9c-0.3,0-0.7,0.1-1.3,0.1
			c-1.9,0-5.6-0.7-8.6-5.4c0.1-0.7,0.7-5.6,0.9-7.8c0.1-0.9-0.2-1.6-0.5-2.1c-0.5-0.9-0.9-1.6,1.2-3.4c0.4-0.3,0.7-0.6,1-0.8
			c2.7-2.2,3.6-2.9,2.7-4.9c0-0.1-0.1-0.1-0.2-0.1c-0.1,0-0.2,0-0.2,0.1c-0.2,0.2-0.7,0.7-1.2,0.7c-0.1,0-0.2,0-0.2,0.1
			c-0.2,0.5-0.9,1.8-1.5,1.8c-0.1,0-0.3-0.1-0.4-0.2c-0.7-0.6,0.5-3,1.4-4.3c0,0,0,0,0-0.1c0.1-0.4,0.3-1,0.3-1.1
			c0.1-0.1,0.6-0.9,1.7-1.4c1-0.5,2.8-1.3,2.9-1.3c0.1,0,0.1-0.1,0.1-0.2s-0.1-0.2-0.2-0.2c-0.7,0-1.4-0.1-1.7-0.4
			c-0.1-0.1-0.1-0.3-0.1-0.4c0.1-0.3,0.5-0.7,1.3-0.9c0.4-0.1,0.8-0.2,1.2-0.3c0.4-0.2,0.8-0.3,1.2-0.3c0.3,0,0.6,0,0.9,0.1
			c0.9,0.3,1.7,0.7,2.4,1.1c0.4,0.2,0.8,0.4,1.2,0.6c0.4,0.2,0.6,1.5,0.8,3.2c0.2,1.1,0.3,2.5,0.7,4.1
			C96.4,36.5,95.5,37.2,93.8,38.4z"/>
	</g>
	<g>
		<path class="st3" d="M92.8,28.9l0-0.2l-0.2-0.1c0,0-1.1-0.3-2.4-1.5l-0.1-0.1l-0.1,0c0,0-1.5,0.4-2.1,0.5c-0.1,0-0.2,0.1-0.2,0.3
			S87.9,28,88,28c0.5-0.1,1.7-0.4,2.1-0.4c1,0.9,1.9,1.3,2.3,1.4c-0.2,1.2,0.2,1.8,0.2,1.9c0,0.1,0.1,0.1,0.2,0.1c0,0,0.1,0,0.1,0
			c0.1-0.1,0.1-0.2,0.1-0.3C92.9,30.6,92.6,30,92.8,28.9z"/>
	</g>
	<g>
		<path class="st3" d="M88.1,32.2c-0.6-0.7-1.9-1.7-2.8-1.6c-0.7,0.1-2.1,0.9-2.3,1c-0.1,0.1-0.1,0.2-0.1,0.3
			c0.1,0.1,0.2,0.1,0.3,0.1c0.4-0.3,1.6-0.9,2.1-1c0.5,0,1.7,0.7,2.4,1.5c0.8,0.8,1.5,2,1.5,2c0,0.1,0.1,0.1,0.2,0.1
			c0,0,0.1,0,0.1,0c0.1-0.1,0.1-0.2,0.1-0.3C89.6,34.2,88.9,33,88.1,32.2z"/>
	</g>
	<g>
		<path class="st1" d="M89.1,27.4c-0.1,0-0.2,0-0.3,0.1c-0.1,0.1,0,0.2,0.1,0.3c2.2,1.1,4.3,4,4.4,4.1c0,0.1,0.1,0.1,0.2,0.1
			c0,0,0.1,0,0.1,0c0.1-0.1,0.1-0.2,0.1-0.3C93.5,31.5,91.4,28.5,89.1,27.4z"/>
	</g>
	<g>
		<path class="st1" d="M88.1,29.3c-1.8-0.6-4.7,1.9-4.8,2c-0.1,0.1-0.1,0.2,0,0.3s0.2,0.1,0.3,0c0,0,2.8-2.4,4.3-1.9
			c1.6,0.6,3.7,2.9,3.8,2.9c0,0,0.1,0.1,0.2,0.1c0.1,0,0.1,0,0.2-0.1c0.1-0.1,0.1-0.2,0-0.3C91.9,32.2,89.8,29.9,88.1,29.3z"/>
	</g>
</g>
<g>
	<path class="st2" d="M91.6,50.7c0,0-7.4-1.6-12.3-4.9c0,0-7.3,30.5,0.8,39.6c9.9,11.2,14.8-2.6,14.2-10.3
		C93.7,67.2,91.6,50.7,91.6,50.7z"/>
	<path class="st1" d="M91.8,50.7c0-0.1-0.1-0.2-0.2-0.2c-0.1,0-7.5-1.7-12.3-4.9c-0.1,0-0.1,0-0.2,0c-0.1,0-0.1,0.1-0.1,0.2
		c-0.3,1.2-7.2,30.7,0.8,39.8c2.5,2.9,4.9,4.3,7.1,4.3l0,0c1.4,0,2.7-0.6,3.9-1.8c2.8-3,4-8.9,3.7-12.9
		C93.9,67.3,91.8,50.8,91.8,50.7z M90.4,87.7c-1.1,1.1-2.2,1.7-3.5,1.7l0,0c-2,0-4.3-1.4-6.7-4.2c-7.4-8.5-1.5-35.9-0.8-39.1
		c4.5,2.9,10.9,4.5,12,4.7c0.2,1.7,2.1,16.9,2.6,24.2C94.3,79.1,93.1,84.8,90.4,87.7z"/>
</g>
<g>
	<path class="st2" d="M20.5,37.2c-1.2-1-3.7-0.5-5.1,1c-1.4,1.4-4.3,1-3,3.5s5.8-0.4,5.8-0.4l0.6,5.4c0,0,1.8-1.8,2.8-4.3
		C22.1,41.1,21.6,38.2,20.5,37.2z"/>
	<path class="st1" d="M20.6,37.1c-1.3-1-3.9-0.5-5.4,1c-0.4,0.5-1.1,0.7-1.7,1c-0.7,0.3-1.4,0.6-1.6,1.2c-0.1,0.4-0.1,0.9,0.3,1.6
		c0.3,0.5,0.7,0.9,1.3,1c1.9,0.5,4.7-1.3,4.8-1.3c0.1-0.1,0.1-0.2,0.1-0.3c-0.1-0.1-0.2-0.1-0.3-0.1c0,0-2.7,1.7-4.4,1.3
		c-0.5-0.1-0.8-0.4-1-0.8c-0.3-0.5-0.4-0.9-0.2-1.2c0.1-0.4,0.7-0.7,1.4-0.9c0.6-0.2,1.3-0.5,1.8-1.1c1.3-1.3,3.7-1.8,4.8-0.9
		c1.1,0.9,1.6,3.7,1.1,4.9c-1,2.5-2.7,4.2-2.7,4.3c-0.1,0.1-0.1,0.2,0,0.3c0,0,0.1,0.1,0.2,0.1s0.1,0,0.2-0.1
		c0.1-0.1,1.8-1.8,2.8-4.4C22.4,41.1,21.8,38.1,20.6,37.1z"/>
</g>
<g>
	<g>
		<rect x="0.5" y="105.4" class="st1" width="94" height="1.2"/>
	</g>
</g>
<rect x="74.3" y="20.5" transform="matrix(0.9687 -0.2481 0.2481 0.9687 -4.8599 19.6368)" class="st0" width="2.4" height="17.1"/>
</svg>
