<?xml version="1.0" encoding="utf-8"?>
<!-- Generator: Adobe Illustrator 27.7.0, SVG Export Plug-In . SVG Version: 6.00 Build 0)  -->
<svg version="1.1" id="Capa_1" xmlns="http://www.w3.org/2000/svg" xmlns:xlink="http://www.w3.org/1999/xlink" x="0px" y="0px"
	 viewBox="0 0 154 134" style="enable-background:new 0 0 154 134;" xml:space="preserve">
<style type="text/css">
	.st0{opacity:0.55;fill:url(#SVGID_1_);enable-background:new    ;}
	.st1{fill:#3B9D81;}
	.st2{fill:#00272E;}
	.st3{fill:#87BE4B;}
	.st4{fill:#11111F;}
	.st5{fill:#FFFFFF;}
	.st6{fill:#0F101E;}
	.st7{fill:#84BC26;}
	.st8{fill-rule:evenodd;clip-rule:evenodd;fill:#FAB903;}
	.st9{fill-rule:evenodd;clip-rule:evenodd;fill:#FFFFFF;}
	.st10{fill:#000502;}
	.st11{fill:#16162B;}
	.st12{fill:#FAB903;}
	.st13{fill:#101C2F;}
</style>
<g>
	<g>
		
			<radialGradient id="SVGID_1_" cx="49.07" cy="82.66" r="47.04" gradientTransform="matrix(1 0 0 -1 0 134)" gradientUnits="userSpaceOnUse">
			<stop  offset="0" style="stop-color:#FDCE33"/>
			<stop  offset="0.1809" style="stop-color:#FDCF36"/>
			<stop  offset="0.3234" style="stop-color:#FDD140"/>
			<stop  offset="0.4529" style="stop-color:#FDD551"/>
			<stop  offset="0.5747" style="stop-color:#FEDB68"/>
			<stop  offset="0.6911" style="stop-color:#FEE287"/>
			<stop  offset="0.8034" style="stop-color:#FEEBAC"/>
			<stop  offset="0.9104" style="stop-color:#FFF5D7"/>
			<stop  offset="0.9944" style="stop-color:#FFFFFF"/>
		</radialGradient>
		<path class="st0" d="M49.1,4.3c-26,0-47,21.1-47,47s21.1,47,47,47s47-21.1,47-47S75.1,4.3,49.1,4.3z"/>
		<g>
			<g>
				<g>
					<path class="st1" d="M32.1,79c2.9,4.5,10.4,9.2,10.4,9.2l0.4,7c0,0-10.4-3-16.1-10.8C21.1,76.8,28.6,73.6,32.1,79z"/>
					<path class="st2" d="M27.5,76c1.8-0.1,3.6,1,4.9,2.8c2.9,4.4,10.2,9.1,10.3,9.1l-0.3,0.6c-0.3-0.2-7.5-4.8-10.5-9.3
						c-1.3-2-3.1-2.6-4.3-2.6c-1,0.1-1.8,0.6-2.2,1.5c-0.7,1.5,0,3.8,1.8,6.2C32.7,91.9,42.9,94.9,43,95l-0.2,0.6
						c-0.1,0-10.5-3.2-16.2-10.9c-2.7-3.6-2.3-5.9-1.8-6.9C25.3,76.8,26.3,76.1,27.5,76z"/>
				</g>
				<g>
					<path class="st2" d="M43.2,91.8L43,92.4c-9-3.2-14.9-12.6-14.9-12.6l0.5-0.3C28.7,79.5,34.4,88.6,43.2,91.8z"/>
				</g>
				<g>
					<path class="st2" d="M30.6,82.4l-0.1,0.7c-0.1,0-2.2-0.2-3.2-1l0.4-0.5C28.6,82.2,30.6,82.4,30.6,82.4z"/>
				</g>
				<g>
					<path class="st2" d="M33,81.9l0.6-0.2c0.5,1.4-0.1,3.8-0.1,4l-0.6-0.2C32.9,85.4,33.5,83.1,33,81.9z"/>
				</g>
				<g>
					<path class="st2" d="M35.3,87.2l0,0.7c0,0-0.5,0-1,0c-1.1,0-2.9-0.1-4-0.6l0.3-0.6C32.1,87.3,35.2,87.2,35.3,87.2z"/>
				</g>
				<g>
					<path class="st2" d="M37.8,85c1.7,2.6,0.2,4.5,0.2,4.6l-0.5-0.4c0-0.1,1.2-1.6-0.2-3.8L37.8,85z"/>
				</g>
				<g>
					<path class="st2" d="M40.2,90.7l0.5,0.4c0,0-1,1.2-2.9,1.2c-0.6,0-1.3-0.1-2.1-0.5l0.3-0.6C38.7,92.5,40.1,90.8,40.2,90.7z"/>
				</g>
			</g>
			<g>
				<g>
					<path class="st1" d="M64.2,71.8c-5,14.7-19.5,24.4-19.5,24.4l-2.8-11c0,0,9.2-10.9,11.5-19.3C56.2,55.8,69.2,57.1,64.2,71.8z"
						/>
					<path class="st2" d="M59,59.2c1.9-0.5,3.7,0.1,4.9,1.4c1.2,1.3,2.8,4.5,0.5,11.3c-5,14.6-19.5,24.5-19.6,24.6l-0.4-0.5
						c0.1-0.1,14.4-9.8,19.4-24.2c1.6-4.7,1.5-8.6-0.4-10.6c-1.1-1.2-2.6-1.6-4.3-1.2c-2,0.5-4.4,2.3-5.5,6.2
						c-2.3,8.4-11.5,19.3-11.6,19.4l-0.5-0.4C41.7,84.8,50.8,74,53,65.8C54,62.3,56.3,59.8,59,59.2z"/>
				</g>
				<g>
					<path class="st2" d="M59.1,64.8l0.6,0.2c0,0.2-4.4,17.3-16.7,26.6L42.7,91C54.8,81.8,59.1,64.9,59.1,64.8z"/>
				</g>
				<g>
					<path class="st2" d="M61.5,67.8l0.5,0.4c-1.1,1.6-4.2,2.9-4.3,3l-0.2-0.6C57.5,70.6,60.5,69.2,61.5,67.8z"/>
				</g>
				<g>
					<path class="st2" d="M55.1,76.2l-0.5,0.3c-0.1-0.1-2.2-3.6-2.1-5.9l0.7,0C53,72.8,55.1,76.2,55.1,76.2z"/>
				</g>
				<g>
					<path class="st2" d="M60,77.5c-2.1,1.9-7.1,3.2-7.3,3.2l-0.2-0.6c0,0,5.1-1.3,7.1-3.1L60,77.5z"/>
				</g>
				<g>
					<path class="st2" d="M48.4,78.1c-1.1,4.2,1.5,6.1,1.6,6.2l-0.4,0.5c0,0-3.1-2.3-1.9-6.9L48.4,78.1z"/>
				</g>
				<g>
					<path class="st2" d="M53.6,86.8l0.4,0.5c-1.8,1.6-3.5,2-4.8,2c-1.8,0-2.9-0.8-3-0.8l0.4-0.5C46.7,88,49.8,90.1,53.6,86.8z"/>
				</g>
			</g>
			<g>
				<g>
					<path class="st3" d="M40.4,60.5l0.9,1.3c-0.4,0.2-9.2,6.4,1,23.9c1.1,1.9,3,5.1,2,8.4c-0.3,1.3-1.1,2.5-2.2,3.7h-2.4
						c1.7-1.2,2.7-2.6,3.1-4.1c0.7-2.8-0.8-5.4-1.9-7.2C29.9,67.6,40,60.8,40.4,60.5z"/>
					<path class="st4" d="M40.6,86.7c1,1.8,2.6,4.4,1.9,7c-0.4,1.4-1.4,2.7-3,3.9l-0.8,0.6h3.6l0.1-0.1c1.2-1.2,1.9-2.4,2.3-3.8
						c0.9-3.5-1-6.8-2.1-8.7c-10.1-17.2-1.5-23.2-1.1-23.4l0.3-0.2l-1.2-1.9l-0.3,0.2C39.8,60.5,29.4,67.5,40.6,86.7z M41.2,86.3
						c-10-17.1-2.5-24.1-0.9-25.4l0.5,0.8c-1.5,1.2-8.3,7.8,1.2,24.1c1.1,1.8,2.9,4.9,2,8.2c-0.3,1.2-1,2.3-2,3.4h-1.4
						c1.3-1.1,2.2-2.3,2.5-3.7C43.9,91,42.2,88.2,41.2,86.3z"/>
				</g>
			</g>
			<g>
				<g>
					<path class="st1" d="M30.9,89.7c4,1.5,14.4,5.4,14.4,5.4s-8,2.8-15.3,0.5C22.8,93.4,26.1,87.9,30.9,89.7z"/>
					<path class="st2" d="M25.5,91.5c-0.2,1.4,0.8,3.4,4.4,4.5c1.9,0.6,4.1,0.9,6.4,0.9c5,0,9.1-1.4,9.1-1.4l0.8-0.3l-0.8-0.3
						c-0.1,0-10.5-3.9-14.5-5.4c-0.7-0.3-1.4-0.4-2-0.4C27.2,89,25.8,90,25.5,91.5z M26.2,91.6c0.2-1.1,1.4-1.9,2.8-1.9
						c0.6,0,1.2,0.1,1.8,0.3c3.3,1.3,10.9,4.1,13.6,5.1c-1.5,0.4-4.5,1.1-8,1.1c-2.2,0-4.3-0.3-6.2-0.9C27,94.3,26,92.8,26.2,91.6z"
						/>
				</g>
			</g>
			<g>
				<path class="st5" d="M60.8,129.2h-30c-8.7-6.7-10.4-28.5-10.4-28.5h50.8C71.2,100.7,71.5,122.4,60.8,129.2z"/>
				<path class="st6" d="M71.5,100.4H20l0,0.3c0.1,0.9,1.8,22,10.5,28.7l0.1,0.1h30.2l0.1-0.1c10.7-6.8,10.5-27.9,10.5-28.8
					L71.5,100.4z M70.8,101c0,2.7-0.5,21.6-10.1,27.8H30.9c-7.9-6.2-9.9-25-10.1-27.8H70.8z"/>
			</g>
			<g>
				<path class="st7" d="M23,95.5h45.6c3,0,5.4,2.4,5.4,5.4H17.5C17.5,98,20,95.5,23,95.5z"/>
				<path class="st6" d="M17.2,101v0.3h57.1V101c0-3.2-2.6-5.8-5.8-5.8H23C19.8,95.2,17.2,97.8,17.2,101z M17.9,100.7
					c0.2-2.7,2.4-4.8,5.1-4.8h45.6c2.7,0,4.9,2.1,5.1,4.8H17.9z"/>
			</g>
			<g id="LDuPgP_2_">
				<g>
					<g>
						<g>
							<g>
								<path class="st8" d="M43,53c0.2-0.2,0.2-0.5,0.1-0.8c-0.8-2.9-0.3-5.6,1.8-7.8c2.7-3,7.5-3.4,10.7-1
									c0.3,0.3,0.6,0.5,0.8,0.8c0.2,0.2,0.3,0.3,0.5,0.5c2.1,2.8,2.5,5.8,0.9,8.8c-1.6,3-4.2,4.3-7.5,4.2c-0.3,0-0.5,0.1-0.8,0.3
									c-1.1,1.4-2.2,2.7-3.3,4.1c-0.3,0.4-0.7,0.7-1.2,0.7c-0.5-0.1-0.9,0-1.4,0c-0.7,0.1-1.4-0.2-2-0.6c-0.9-0.7-1.7-1.4-1.6-2.7
									c0-0.1,0-0.2-0.1-0.3c-0.5-0.8-0.5-1.2,0-2C41,55.8,42,54.4,43,53z"/>
								<path class="st2" d="M39.7,57.1C39,58,39,58.5,39.6,59.4c0,0,0,0.1,0,0.1c-0.1,1.4,0.8,2.3,1.8,3c0.7,0.5,1.3,0.7,1.9,0.7
									c0.1,0,0.2,0,0.3,0c0.5,0,0.8-0.1,1.3,0c0.7,0.1,1.2-0.4,1.5-0.8l1.2-1.4c0.7-0.9,1.5-1.8,2.2-2.7c0.1-0.2,0.2-0.2,0.5-0.2
									c0.2,0,0.3,0,0.4,0c3.4,0,6-1.5,7.5-4.4c1.6-3.1,1.3-6.3-0.9-9.2c-0.1-0.2-0.3-0.3-0.5-0.5c-0.2-0.2-0.4-0.4-0.6-0.6
									l-0.2-0.2c-1.5-1.1-3.2-1.7-5.1-1.7c-2.3,0-4.6,1-6.1,2.7c-2.1,2.3-2.7,5.1-1.8,8.1c0.1,0.2,0,0.3-0.1,0.5
									c-0.6,0.8-1.1,1.6-1.7,2.3C40.6,55.8,40.2,56.4,39.7,57.1z M40.2,57.5c0.5-0.7,0.9-1.3,1.4-2c0.5-0.8,1.1-1.6,1.7-2.3
									c0.2-0.3,0.3-0.7,0.2-1.1c-0.8-2.8-0.2-5.4,1.7-7.5c1.4-1.6,3.5-2.5,5.6-2.5c1.7,0,3.3,0.5,4.7,1.6l0.2,0.2
									c0.2,0.2,0.4,0.4,0.6,0.6c0.2,0.2,0.3,0.3,0.4,0.5c2.1,2.7,2.4,5.6,0.8,8.5c-1.5,2.8-3.9,4.2-7.2,4.1l0,0
									c-0.5,0-0.8,0.1-1,0.5c-0.7,0.9-1.5,1.8-2.2,2.7L45.9,62c-0.3,0.4-0.6,0.6-0.9,0.5c-0.2,0-0.3,0-0.5,0c-0.3,0-0.7,0-1,0.1
									c-0.6,0.1-1.1-0.1-1.8-0.6c-0.9-0.7-1.5-1.3-1.5-2.4c0-0.2-0.1-0.4-0.1-0.5C39.7,58.4,39.7,58.2,40.2,57.5z"/>
							</g>
						</g>
					</g>
					<g>
						<g>
							<path class="st9" d="M48.7,60.8L48,61.7c-2.4-2.3-4.8-4.6-7.2-6.9c-0.1-0.1-0.2-0.2-0.3-0.3l0.7-0.9
								C43.7,56,46.2,58.3,48.7,60.8z"/>
							<path class="st10" d="M40.2,54.3c-0.1,0.1-0.1,0.3,0,0.4c0.1,0.1,0.2,0.2,0.3,0.3c2.4,2.3,4.8,4.6,7.2,6.9
								C47.9,62,47.9,62,48,62c0,0,0,0,0,0c0.1,0,0.2,0,0.2-0.1L49,61c0.1-0.1,0.1-0.3,0-0.4c-2.2-2.1-4.4-4.2-6.6-6.3l-0.9-0.9
								c-0.1-0.1-0.2-0.1-0.2-0.1c-0.1,0-0.2,0-0.2,0.1L40.2,54.3z M40.9,54.4l0.3-0.4l0.7,0.6c2.1,2,4.3,4.1,6.4,6.1L48,61.2
								c-2.3-2.2-4.6-4.4-6.9-6.6C41,54.5,41,54.5,40.9,54.4z"/>
						</g>
					</g>
					<g>
						<g>
							<path class="st9" d="M47.7,62.1L47,63c-2.5-2.4-7.5-7.2-7.5-7.2l0.7-0.9C40.2,54.9,45.2,59.7,47.7,62.1z"/>
							<path class="st10" d="M39.2,55.6c-0.1,0.1-0.1,0.3,0,0.4c0,0,0.5,0.5,1.4,1.3l6.2,5.9c0.1,0.1,0.1,0.1,0.2,0.1c0,0,0,0,0,0
								c0.1,0,0.2,0,0.2-0.1l0.7-0.9c0.1-0.1,0.1-0.3,0-0.4c-2.5-2.4-7.5-7.2-7.5-7.2c-0.1-0.1-0.2-0.1-0.2-0.1
								c-0.1,0-0.2,0-0.2,0.1L39.2,55.6z M39.9,55.8l0.3-0.4c1,1,4.9,4.7,7.1,6.8L47,62.5L39.9,55.8z"/>
						</g>
					</g>
					<g>
						<g>
							<path class="st9" d="M42,53c2.7,2,5.4,4.1,8,6.2l-0.9,1.2c-2.5-2.4-5-4.8-7.5-7.2c0,0,0,0,0,0l0.2-0.3
								C41.8,52.9,41.9,52.9,42,53z"/>
							<path class="st10" d="M41.3,52.9c-0.1,0.1-0.1,0.3,0,0.4l7.5,7.2c0.1,0.1,0.1,0.1,0.2,0.1h0c0.1,0,0.2,0,0.2-0.1l0.9-1.2
								c0.1-0.1,0.1-0.3-0.1-0.5l-8.2-6.3c-0.1-0.1-0.3-0.1-0.5,0.1L41.3,52.9z M43.4,54.5l6.2,4.7L49,59.9L43.4,54.5z"/>
						</g>
					</g>
					<g>
						<g>
							<path class="st9" d="M46.7,63.4l-0.2,0.3c-2.8-2.1-5.5-4.2-8.2-6.3l0.9-1.2C41.7,58.7,44.2,61,46.7,63.4z"/>
							<path class="st10" d="M38,57.2c-0.1,0.1-0.1,0.3,0.1,0.5c2.6,2,5.2,4,7.8,6l0.5,0.3c0.1,0,0.1,0.1,0.2,0.1c0,0,0,0,0,0
								c0.1,0,0.2-0.1,0.2-0.1l0.2-0.3c0.1-0.1,0.1-0.3,0-0.4L39.4,56c-0.1-0.1-0.2-0.1-0.2-0.1s-0.2,0-0.2,0.1L38,57.2z M38.7,57.3
								l0.5-0.7l5.4,5.2C42.7,60.4,40.7,58.9,38.7,57.3z"/>
						</g>
					</g>
				</g>
			</g>
		</g>
		<g>
			
				<image style="overflow:visible;" width="976" height="346" xlink:href="../logo-amp-blue-green.png"  transform="matrix(4.624277e-02 0 0 4.624277e-02 22.4335 107.1429)">
			</image>
			<g>
				<g>
					<path class="st5" d="M63.8,112.4c-3.2,1.5-6,1.8-8.5,2.9c-0.9,0.4-4.5,1.1-4,2.2c0.8,1.7,3.7,0.6,5,0c1.4-0.7,6.9-1.7,6.9-1.7
						s-1.9,1.4-2,3c-0.1,2.3,0,2.6,0.9,3s2.2-0.3,2.7,0.4c0.8,0.9,2.5,0.2,2.5,0.2s1.5,0.3,2.7-0.7c0.8-0.6,1.2-1.5,1.1-3
						c-0.1-1.1,2.6-0.7,4.3-1.8c1.3-0.9,0.6-2.5,3.3-4l-3.7-4.9C70.8,110.4,65.8,111.5,63.8,112.4z"/>
					<g>
						<path class="st4" d="M75.1,107.8c-0.1-0.1-0.2-0.1-0.3-0.1c-1.1,0.7-2.4,1.3-3.9,1.9c-1.5,0.6-2.9,1.1-4.2,1.5
							c-1.2,0.4-2.3,0.7-3,1.1c-0.4,0.2-0.8,0.4-1.2,0.5c-1.3,0.5-2.6,0.9-3.8,1.2c-1.1,0.3-2.2,0.6-3.2,1c-0.1,0-0.2,0.1-0.4,0.2
							c-0.2,0.1-0.5,0.2-0.9,0.3c-0.5,0.2-1.1,0.3-1.6,0.6c-0.9,0.4-1.4,0.7-1.6,1.1c-0.1,0.2-0.1,0.4,0,0.6
							c0.6,1.2,2.2,1.4,4.5,0.4c0.3-0.1,0.6-0.2,0.8-0.4c1-0.5,4.3-1.2,5.9-1.5c-0.6,0.6-1.3,1.5-1.3,2.5c-0.1,2.2,0,2.8,1,3.3
							c0.4,0.2,0.9,0.2,1.4,0.1c0.5,0,1-0.1,1.2,0.2c0.8,0.9,2.2,0.4,2.7,0.3c0.2,0,1.1,0.1,1.9-0.2c0.3-0.1,0.6-0.3,0.9-0.5
							c0.9-0.7,1.3-1.7,1.2-3.2c0-0.1,0-0.2,0.4-0.4c0.3-0.1,0.7-0.2,1.1-0.3c0.9-0.2,1.9-0.4,2.7-0.9c0.6-0.4,0.8-0.9,1.1-1.5
							c0.3-0.8,0.7-1.7,2.2-2.5c0.1,0,0.1-0.1,0.1-0.2s0-0.2-0.1-0.2L75.1,107.8z M76.1,115.3c-0.2,0.5-0.4,1-0.9,1.3
							c-0.7,0.4-1.7,0.7-2.5,0.8c-0.5,0.1-0.9,0.2-1.2,0.3c-0.5,0.2-0.7,0.5-0.7,0.9c0.1,1.3-0.2,2.2-1,2.8
							c-0.2,0.2-0.5,0.3-0.8,0.4c-0.9,0.4-1.7,0.2-1.7,0.2c-0.1,0-0.1,0-0.2,0c-0.2,0.1-1.5,0.6-2.1-0.1c-0.4-0.5-1-0.4-1.6-0.4
							c-0.4,0-0.8,0.1-1.2-0.1c-0.7-0.3-0.8-0.5-0.7-2.8c0.1-1.4,1.8-2.8,1.9-2.8c0.1-0.1,0.1-0.2,0.1-0.3s-0.2-0.2-0.3-0.2
							c-0.2,0-5,0.9-6.7,1.6c-0.1,0-0.2,0.1-0.3,0.1c-0.2,0.1-0.5,0.2-0.8,0.3c-1.2,0.5-3.2,1.1-3.8-0.2c0-0.1,0-0.1,0-0.2
							c0.1-0.2,0.3-0.4,1.3-0.8c0.5-0.2,1.1-0.4,1.6-0.5c0.4-0.1,0.7-0.2,0.9-0.3l0.1,0c1.1-0.5,2.2-0.8,3.4-1.1
							c1.2-0.3,2.5-0.7,3.9-1.2c0.4-0.2,0.8-0.3,1.2-0.5c0.7-0.3,1.7-0.6,2.9-1c1.3-0.4,2.7-0.9,4.2-1.5c1.4-0.6,2.7-1.2,3.8-1.8
							l3.4,4.5C76.8,113.7,76.4,114.6,76.1,115.3z"/>
					</g>
				</g>
				<g>
					<path class="st11" d="M64,116.6c-0.6,0.6-1.2,1.7-0.7,2.9c0,0.1,0.2,0.2,0.3,0.2l0,0c0.1-0.1,0.2-0.2,0.2-0.3
						c-0.4-1,0-1.9,0.5-2.4c0.4-0.3,0.8-0.5,1.1-0.3c0.4,0.2,0.6,0.9,0.6,1.9c-0.2,2.8-1.8,3.1-1.9,3.1c-0.2,0-0.2,0.1-0.2,0.3
						s0.2,0.2,0.3,0.2c0,0,0.2,0,0.5-0.1c0.7-0.3,1.8-1.1,1.9-3.4c0.1-1.6-0.4-2.2-0.9-2.4C65.1,116,64.5,116.1,64,116.6z"/>
				</g>
				<g>
					<path class="st11" d="M66.5,117.2c-0.1,0.1-0.2,0.2-0.1,0.4s0.2,0.2,0.4,0.1c0.2-0.2,1-0.6,1.5-0.3c0.3,0.2,0.5,0.8,0.4,1.6
						c-0.1,2.3-1.6,3.1-1.6,3.1c-0.1,0.1-0.2,0.2-0.1,0.4c0.1,0.1,0.2,0.2,0.3,0.1c0,0,0,0,0,0c0.1,0,1.8-1,1.9-3.6
						c0.1-1.1-0.2-1.8-0.7-2.1C67.7,116.5,66.5,117.2,66.5,117.2z"/>
				</g>
			</g>
			<g>
				<g>
					<path class="st7" d="M88.2,96.7L70,109.5c0,0,2.7,8.9,8.2,12.3c0,0,15.1-6.8,21.7-15.2c0,0-2.2-22.5-2.3-34.1
						C97.6,72.5,91,80,88.2,96.7z"/>
				</g>
				<g>
					<g>
						<path class="st11" d="M97.4,72.3c-0.1,0.1-6.7,7.7-9.5,24.2l-18,12.8c-0.1,0.1-0.1,0.2-0.1,0.3c0.1,0.4,2.8,9.1,8.3,12.5
							c0.1,0,0.2,0.1,0.2,0h0c0.2-0.1,14.9-6.8,21.6-15c0.1-0.1,0.1-0.3,0-0.4c-0.1-0.1-0.3-0.1-0.4,0c-6.3,7.7-19.8,14.1-21.2,14.8
							c-4.9-3.1-7.5-10.6-7.9-11.9l18-12.7c0.1,0,0.1-0.1,0.1-0.2c2.8-16.4,9.3-24,9.4-24.1c0.1-0.1,0.1-0.3-0.1-0.4
							C97.6,72.2,97.4,72.2,97.4,72.3z"/>
					</g>
				</g>
				<g>
					<path class="st12" d="M87.7,97.5c1.4,0.7,2.7,3.1,2.7,3.1l0-3.8C88.2,95.6,86.3,96.8,87.7,97.5z"/>
					<path class="st13" d="M87.3,96.3c-0.3,0.2-0.4,0.4-0.4,0.7c0,0.2,0.1,0.5,0.7,0.8c1.3,0.6,2.5,3,2.6,3l0.5-0.2
						c-0.1-0.1-1.3-2.5-2.8-3.2c-0.3-0.1-0.3-0.2-0.3-0.3c0-0.1,0.1-0.1,0.2-0.2c0.4-0.2,1.4-0.3,2.6,0.3l0.3-0.5
						C89.2,95.9,87.9,95.9,87.3,96.3z"/>
				</g>
			</g>
			<g>
				<path class="st5" d="M60.5,116.5c-0.4,0.7-3.4,2.5-3.1,3.5c0.4,1,3.5,0.5,4.7-1c2.4-3.1,6.2-1.3,7.9-6.4l-7.5,1.7
					C62.6,114.3,60.9,115.8,60.5,116.5z"/>
				<g>
					<path class="st13" d="M65.5,116.6c-1.3,0.4-2.5,0.9-3.6,2.3c-0.8,1-2.5,1.5-3.6,1.4c-0.3-0.1-0.5-0.2-0.6-0.3
						c-0.2-0.5,1.2-1.6,1.9-2.2c0.5-0.4,1-0.8,1.1-1.1c0.4-0.6,2-2.2,2-2.2l-0.4-0.4c-0.1,0.1-1.7,1.6-2.1,2.3
						c-0.1,0.2-0.6,0.6-1,0.9c-1.1,0.9-2.4,2-2.1,2.8c0.1,0.2,0.3,0.6,1,0.7s1.6,0,2.4-0.4c0.7-0.3,1.3-0.7,1.7-1.2
						c1-1.2,2.1-1.7,3.4-2.1c1.8-0.6,3.6-1.3,4.6-4.4l-0.5-0.2C68.8,115.4,67.2,116,65.5,116.6z"/>
				</g>
			</g>
			<g>
				<path class="st7" d="M115.9,68.6c-14.3,0-19.8,2.6-22.8,9.8c-5.4,12.8-5.8,34.7-6.2,50.5h58.5c-0.5-13.8-0.5-39.8-9.2-52.1
					C133,72.2,128.1,68.6,115.9,68.6z"/>
				<path class="st4" d="M136.4,76.6c-2.9-4.1-7.5-8.3-20.5-8.3c-14.1,0-19.9,2.5-23,9.9c-5.3,12.4-5.8,33.6-6.2,49.1l0,1.5
					c0,0.1,0,0.1,0.1,0.2s0.1,0.1,0.2,0.1h58.4c0.1,0,0.1,0,0.2-0.1s0.1-0.1,0.1-0.2c0-1.2-0.1-2.4-0.1-3.8
					C145,110.3,144.3,88,136.4,76.6z M87.1,128.6l0-1.2c0.4-15.4,0.9-36.6,6.2-48.9c3.1-7.2,8.8-9.6,22.6-9.6c12.7,0,17.3,4.1,20,8
					c7.9,11.3,8.6,33.5,9,48.2c0,1.2,0.1,2.4,0.1,3.5H87.1z"/>
			</g>
			<g>
				<g>
					<path class="st5" d="M117.5,50.1c0,0,0.6-7.4-3.1-9.6s-12.6,0.6-13,5.7c-0.1,1.8-0.1,3-0.9,6.2c-0.8,3.2,1,11.2,8.2,11.2
						c0,0,0.4,3.6-1.6,7c0,0,3,6.3,8.5,3.9c5.5-2.4,3.8-6.9,3.8-6.9s-1.5-2.6-1.5-10.2c0,0,2.4-1.1,2.8-3.9
						C120.9,51.4,119.6,50.1,117.5,50.1z"/>
					<g>
						<path class="st4" d="M117.8,49.8c0.1-1.4,0.2-7.5-3.2-9.6c-0.9-0.5-2.1-0.8-3.4-0.8c-4.5,0-9.7,2.8-9.9,6.8l0,0.6
							c-0.1,1.5-0.2,2.8-0.9,5.6c-0.6,2.2,0.1,5.9,2,8.5c1.5,2,3.6,3,6.1,3.1c0.1,0.8,0.1,3.8-1.5,6.6c0,0.1-0.1,0.2,0,0.2
							c0.1,0.2,2.2,4.6,6.3,4.6c0.8,0,1.7-0.2,2.5-0.6c5.6-2.5,4-7.2,3.9-7.3c0,0-1.5-2.6-1.5-9.9c0.6-0.3,2.4-1.5,2.8-4
							c0.1-1-0.1-2-0.7-2.6C119.6,50.3,118.8,49.9,117.8,49.8z M120.4,53.5c-0.3,2.6-2.6,3.7-2.6,3.7c-0.1,0-0.2,0.1-0.2,0.2
							c0,7.6,1.5,10.3,1.5,10.3c0.1,0.2,1.5,4.3-3.7,6.6c-0.8,0.3-1.6,0.5-2.3,0.5c-3.3,0-5.4-3.5-5.7-4.2c1.9-3.4,1.5-6.9,1.5-7.1
							c0-0.1-0.1-0.2-0.3-0.2c-2.5,0-4.5-1-6-2.9c-2.1-2.7-2.4-6.3-1.9-8c0.7-2.8,0.8-4.2,0.9-5.7l0-0.6c0.3-3.9,5.7-6.3,9.4-6.3
							c1.3,0,2.4,0.3,3.2,0.7c3.5,2.1,2.9,9.3,2.9,9.4s0,0.2,0.1,0.2s0.1,0.1,0.2,0.1c1,0,1.8,0.3,2.3,0.9
							C120.3,51.8,120.5,52.6,120.4,53.5z"/>
					</g>
				</g>
				<g>
					<path class="st11" d="M108.7,46.5c-0.1,0-0.3,0.1-0.3,0.2c0,0.1,0.1,0.3,0.2,0.3c0,0,2,0.5,3.2,2.4c0.1,0.1,0.1,0.1,0.2,0.1
						c0.1,0,0.1,0,0.1,0c0.1-0.1,0.2-0.2,0.1-0.4C111,47,108.8,46.5,108.7,46.5z"/>
				</g>
				<g>
					<path class="st11" d="M105.1,48c0,0-1.4,0.8-3.1,0.8c-0.1,0-0.3,0.1-0.3,0.3c0,0.2,0.1,0.3,0.3,0.3c0.1,0,0.1,0,0.2,0
						c1.7,0,3.1-0.8,3.1-0.8c0.1-0.1,0.2-0.2,0.1-0.4C105.4,48,105.3,48,105.1,48z"/>
				</g>
				<g>
					<path class="st11" d="M104.5,53.5c-0.6,0-0.9,0.5-0.9,0.6c-0.1,0.1,0,0.3,0.1,0.4s0.3,0,0.4-0.1c0,0,0.2-0.3,0.4-0.3h0
						c0.2,0,0.5,0.2,0.8,0.7c0.1,0.1,0.1,0.1,0.2,0.1c0.1,0,0.1,0,0.2,0c0.1-0.1,0.2-0.2,0.1-0.4C105.4,53.7,105,53.4,104.5,53.5z"
						/>
				</g>
				<g>
					<path class="st13" d="M110.4,50c-0.3-0.2-0.7-0.1-0.8,0.1c-0.2,0.3-0.1,0.6,0.2,0.8c0.3,0.2,0.7,0.1,0.8-0.1
						C110.8,50.6,110.7,50.2,110.4,50z"/>
					<path class="st13" d="M110.5,49.8c-0.4-0.3-1-0.2-1.2,0.2c-0.2,0.4-0.1,0.9,0.3,1.2c0.2,0.1,0.3,0.2,0.5,0.2
						c0.3,0,0.5-0.1,0.7-0.4C111.1,50.6,110.9,50.1,110.5,49.8z M110.4,50.7c-0.1,0.1-0.3,0.2-0.5,0c-0.2-0.1-0.2-0.3-0.2-0.4
						c0-0.1,0.1-0.1,0.2-0.1c0.1,0,0.2,0,0.2,0.1C110.4,50.4,110.5,50.6,110.4,50.7z"/>
				</g>
				<g>
					<path class="st13" d="M103.4,50c-0.3-0.2-0.7-0.1-0.8,0.1c-0.2,0.3-0.1,0.6,0.2,0.8c0.3,0.2,0.7,0.1,0.8-0.1
						C103.8,50.6,103.7,50.2,103.4,50z"/>
					<path class="st13" d="M103.5,49.8c-0.4-0.3-1-0.2-1.2,0.2c-0.2,0.4-0.1,0.9,0.3,1.2c0.2,0.1,0.3,0.2,0.5,0.2
						c0.3,0,0.5-0.1,0.7-0.4C104.1,50.6,103.9,50.1,103.5,49.8z M103.4,50.7c-0.1,0.1-0.3,0.2-0.5,0c-0.2-0.1-0.2-0.3-0.2-0.4
						c0.1-0.1,0.1-0.1,0.2-0.1c0.1,0,0.2,0,0.2,0.1C103.4,50.4,103.5,50.6,103.4,50.7z"/>
				</g>
				<g>
					<path class="st4" d="M123.4,33.3c0.2-4.5-3.7-1.2-7-3.8c-3.3-2.6-2.8,2.2-5.9,3.5c-3,1.3-2.3,7.4,0.7,6.4
						c2.9-1,5.2,2.3,6.7,3.7c1.4,1.4,5.8,1.6,7.4-2.8C126.9,35.5,123.2,37.8,123.4,33.3z"/>
					<path class="st4" d="M124.9,36.3c-0.7-0.5-1.3-1.1-1.2-3.1c0.1-1.1-0.1-1.8-0.6-2.3c-0.6-0.6-1.5-0.6-2.5-0.6
						c-1.3,0-2.7,0-4-1.1c-0.7-0.5-1.3-0.8-1.8-0.8c-0.9,0-1.5,0.9-2,1.8c-0.6,0.9-1.2,2-2.3,2.4c-1.8,0.8-2.4,3-2,4.8
						c0.3,1.7,1.5,2.6,2.8,2.1c0.3-0.1,0.7-0.2,1-0.2c1.9,0,3.5,1.7,4.6,3c0.3,0.3,0.5,0.6,0.8,0.8c0.6,0.6,1.7,1,2.8,1
						c2.3,0,4.2-1.4,5.1-3.8C126.4,37.6,125.7,37,124.9,36.3z M124.9,40.2c-1.2,3.2-3.8,3.5-4.6,3.5c-1,0-1.9-0.3-2.4-0.8
						c-0.2-0.2-0.5-0.5-0.7-0.8c-1.2-1.3-2.9-3.2-5-3.2c-0.4,0-0.8,0.1-1.2,0.2c-0.2,0.1-0.4,0.1-0.5,0.1c-0.9,0-1.4-0.9-1.6-1.8
						c-0.3-1.5,0.2-3.5,1.7-4.2c1.3-0.6,2-1.7,2.6-2.7c0.5-0.9,0.9-1.5,1.6-1.5c0.4,0,0.9,0.2,1.5,0.7c1.5,1.1,3.1,1.2,4.3,1.2
						c0.9,0,1.7,0,2.1,0.5c0.3,0.3,0.5,1,0.4,1.9c-0.1,2.2,0.8,2.9,1.4,3.5C125.3,37.4,125.8,37.8,124.9,40.2z"/>
				</g>
				<g>
					<path class="st7" d="M116.9,34.8c-2.4-1-4.9-0.3-5.6,1.4c-0.7,1.7,0.8,3.8,3.2,4.8c2.4,1,4.9,0.3,5.6-1.4
						S119.3,35.8,116.9,34.8z"/>
					<path class="st7" d="M117,34.6c-0.8-0.3-1.6-0.5-2.4-0.5c-1.7,0-3.1,0.8-3.6,2c-0.7,1.8,0.8,4.2,3.4,5.2
						c0.8,0.3,1.6,0.5,2.4,0.5c1.7,0,3.1-0.8,3.6-2C121.1,37.9,119.6,35.6,117,34.6z M119.8,39.5c-0.4,1-1.6,1.6-3.1,1.6
						c-0.7,0-1.5-0.2-2.2-0.4c-2.3-0.9-3.7-2.9-3.1-4.5c0.4-1,1.6-1.6,3.1-1.6c0.7,0,1.5,0.2,2.2,0.4C119.1,36,120.5,38,119.8,39.5z
						"/>
				</g>
				<g>
					<path class="st11" d="M109.5,56.1c0,0-1.6,1.7-2.7,0.8c-0.1-0.1-0.3-0.1-0.4,0c-0.1,0.1-0.1,0.3,0,0.4c0.4,0.3,0.7,0.4,1.1,0.4
						c1.2,0,2.3-1.2,2.4-1.2c0.1-0.1,0.1-0.3,0-0.4C109.7,56,109.6,56,109.5,56.1z"/>
				</g>
				<g>
					<path class="st4" d="M114.6,36.9c-8.6-2-10.4,3.2-10.4,3.2c-6.4,2.8-3.3,10-3.3,10s0.9-6.7,4.6-6.7c4.5,0,6-2.5,6-2.5
						c-0.9,2.5-0.2,4.6,2.5,6.8c2.7,2.2,1.7,7,1.7,7c1.9-0.6,1.8-4.4,2.6-4.5c2.2-0.2,2.3,3.4,2.3,3.4
						C122.4,50.1,124.6,39.2,114.6,36.9z"/>
					<path class="st4" d="M114.7,36.6c-1.3-0.3-2.6-0.5-3.7-0.5c-5.1,0-6.7,3.1-7,3.7c-6.5,2.9-3.4,10.2-3.4,10.3L101,51l0.1-1
						c0-0.1,0.9-6.5,4.4-6.5c2.9,0,4.6-1,5.4-1.7c-0.4,2.2,0.5,4,2.9,5.9c2.5,2.1,1.7,6.7,1.7,6.7l-0.1,0.4l0.4-0.1
						c1.3-0.4,1.7-2,2.1-3.2c0.1-0.5,0.3-1.2,0.5-1.2c1.9-0.2,2,3.1,2,3.1l0,1l0.5-0.9c1-2,2.6-7.4,0.6-11.8
						C120.2,39.1,118,37.4,114.7,36.6z M120.8,52.5c-0.2-1.1-0.8-2.8-2.5-2.7c-0.5,0-0.7,0.7-1,1.6c-0.3,1-0.6,2.1-1.3,2.6
						c0.2-1.3,0.4-4.8-1.9-6.7c-2.6-2.1-3.3-4-2.4-6.5l-0.5-0.2c0,0-1.4,2.3-5.8,2.3c-3.1,0-4.3,4-4.7,5.9c-0.6-2-1.3-6.6,3.5-8.7
						l0.1,0l0-0.1c0,0,1.3-3.5,6.6-3.5c1.1,0,2.3,0.2,3.6,0.5c3.1,0.7,5.3,2.4,6.4,4.9C122.7,45.7,121.7,50.2,120.8,52.5z"/>
				</g>
				<g>
					<path class="st11" d="M113,61.1c-1.7,2.2-4.3,2.2-4.3,2.2c-0.2,0-0.3,0.1-0.3,0.3s0.1,0.3,0.3,0.3l0,0c0.1,0,2.8-0.1,4.7-2.5
						c0.1-0.1,0.1-0.3,0-0.4C113.2,61,113.1,61,113,61.1z"/>
				</g>
				<g>
					<path class="st11" d="M117.6,51.3c-0.1,0-0.2,0.2-0.2,0.3s0.2,0.2,0.3,0.2c0,0,0.7-0.2,1.1,0.2c0.3,0.2,0.5,0.7,0.5,1.3
						c0,0.2,0.1,0.3,0.3,0.3c0.2,0,0.3-0.1,0.3-0.3c0-0.8-0.2-1.4-0.7-1.7C118.5,51.1,117.6,51.3,117.6,51.3z"/>
				</g>
				<g>
					<path class="st11" d="M119.4,52.7C119.4,52.7,119.4,52.7,119.4,52.7c-1.7,0-2,1.2-2,1.2c0,0.1,0,0.3,0.2,0.3c0,0,0.1,0,0.1,0
						c0.1,0,0.2-0.1,0.2-0.2c0,0,0.3-0.8,1.5-0.8c0,0,0,0,0,0c0.2,0,0.3-0.1,0.3-0.3C119.7,52.8,119.6,52.7,119.4,52.7z"/>
				</g>
			</g>
			<g>
				<path class="st5" d="M119.4,65.8c-0.2,2.1-5.1,3.1-5.1,3.1l-1.3,3.4l-1.3-3.5c-1.7-0.9-3.6-2.7-3.6-2.7l-3.3,3.1
					c0,0-3.4,35.4-2.3,59.7h20.1c-2.5-36.8,0.2-59.7,0.2-59.7L119.4,65.8z"/>
				<g>
					<path class="st4" d="M123,68.9l-3.4-3.3c-0.1-0.1-0.2-0.1-0.3-0.1s-0.2,0.1-0.2,0.2c-0.2,1.5-3.6,2.6-4.8,2.9
						c-0.1,0-0.2,0.1-0.2,0.2l-1,2.8l-1-2.8c0-0.1-0.1-0.1-0.1-0.1c-1.7-0.9-3.5-2.7-3.5-2.7c-0.1-0.1-0.3-0.1-0.4,0l-3.3,3.1
						c-0.1,0.1-0.1,0.1-0.1,0.2c0,0.3-3.4,35.7-2.3,59.7c0,0.1,0.1,0.2,0.3,0.2h20.1c0.1,0,0.1,0,0.2-0.1s0.1-0.1,0.1-0.2
						c-2.5-36.3,0.2-59.4,0.2-59.7C123.1,69.1,123,69,123,68.9z M122.3,128.6h-19.6c-1-23.4,2.2-57.2,2.3-59.3l3.1-2.8
						c0.5,0.5,1.9,1.8,3.3,2.6l1.2,3.4c0,0.1,0.1,0.2,0.2,0.2l0,0c0.1,0,0.2-0.1,0.2-0.2l1.2-3.3c0.8-0.2,4.3-1.1,5-2.8l3,2.9
						C122.3,71.1,120,93.8,122.3,128.6z"/>
				</g>
			</g>
			<g>
				<path class="st4" d="M102.3,120.8c0.1,2.8,0.1,5.2,0.1,8.1h20.1c-0.2-2.8-0.3-5.4-0.5-8.1H102.3z"/>
				<path class="st4" d="M122.4,120.8l0-0.2h-20.3l0,0.3c0.1,1.6,0.1,3,0.1,4.5c0,1.1,0,2.3,0.1,3.5l0,0.3h20.7l0-0.3
					C122.7,126.2,122.6,123.6,122.4,120.8z M102.7,128.6c0-1.1,0-2.2,0-3.2c0-1.4,0-2.8-0.1-4.3h19.3c0.1,2.6,0.3,5.1,0.4,7.5
					L102.7,128.6L102.7,128.6z"/>
			</g>
			<g>
				<path class="st4" d="M112.6,73l-1.7-3.2c0-0.1-0.1-0.1-0.2-0.1c-0.1,0-0.2,0-0.2,0.1l-3,3.6l-1.8-4c-0.1-0.1-0.2-0.2-0.3-0.1
					s-0.2,0.2-0.1,0.3l1.9,4.4c0,0.1,0.1,0.1,0.2,0.2c0.1,0,0.2,0,0.2-0.1l3-3.6l1.5,2.8l0.1,5.7c0,0.2,0.1,0.3,0.3,0.3l0,0
					c0.2,0,0.3-0.1,0.3-0.3l-0.1-5.8C112.7,73.1,112.6,73.1,112.6,73z"/>
			</g>
			<g>
				<path class="st4" d="M122,69.4l-3.3,4.1l-3-3.6c-0.1-0.1-0.1-0.1-0.2-0.1c-0.1,0-0.2,0.1-0.2,0.1l-1.7,3.2c0,0,0,0.1,0,0.1
					l-0.1,5.8c0,0.2,0.1,0.3,0.3,0.3l0,0c0.2,0,0.3-0.1,0.3-0.3l0.1-5.7l1.5-2.8l3,3.6c0.1,0.1,0.1,0.1,0.2,0.1l0,0
					c0.1,0,0.2,0,0.2-0.1l3.5-4.3c0.1-0.1,0.1-0.3,0-0.4C122.3,69.3,122.1,69.3,122,69.4z"/>
			</g>
			<g>
				<g>
					<path class="st5" d="M129.4,123c-0.7,1-1.2,1.4-2.5,2.9c-1.3,1.6-1.4,2.9-1.4,2.9H137c0,0,0.9-0.2,1.2-2.4s1.5-3.9,1.5-3.9
						l-8.1-2C131.6,120.5,129.9,122.2,129.4,123z"/>
					<g>
						<path class="st4" d="M139.8,122.2l-8.1-2c-0.1,0-0.2,0-0.2,0.1c-0.1,0.1-1.7,1.7-2.2,2.5c-0.4,0.6-0.7,0.9-1.2,1.4
							c-0.3,0.4-0.8,0.8-1.4,1.5c-1.4,1.6-1.5,3-1.5,3c0,0.1,0,0.1,0.1,0.2c0.1,0.1,0.1,0.1,0.2,0.1H137c0,0,0.1,0,0.1,0
							c0.1,0,1.1-0.4,1.4-2.6c0.3-2.1,1.4-3.8,1.5-3.8c0.1-0.1,0.1-0.2,0-0.2C139.9,122.3,139.9,122.3,139.8,122.2z M138,126.4
							c-0.2,1.7-0.9,2.1-1,2.2h-11.2c0.1-0.4,0.4-1.4,1.3-2.5c0.6-0.7,1-1.1,1.3-1.5c0.5-0.5,0.8-0.9,1.2-1.5c0.4-0.7,1.7-2,2.1-2.3
							l7.6,1.9C138.9,123.3,138.2,124.7,138,126.4z"/>
					</g>
				</g>
				<g>
					<path class="st7" d="M138.9,75.8c-7.8-8.5-15.5-5.8-14,7.5c0.8,7.1,4,16.1,9.1,21.3l-6.2,17.2c0,0,7.1,7.6,13.5,6.7
						c0,0,10.3-14.5,8.2-25.1C147.4,93.4,143.9,81.2,138.9,75.8z"/>
				</g>
				<g>
					<g>
						<path class="st4" d="M138.6,75.6c-3.3-3.6-6.6-5.3-9.4-4.9c-0.1,0-0.2,0.2-0.2,0.3c0,0.2,0.2,0.2,0.3,0.2
							c2.6-0.4,5.8,1.3,9,4.7c5.8,6.3,9.3,21.3,10.5,27.5c2,9.9-7.2,23.5-8.1,24.8c-5.8,0.7-12.2-5.6-13.1-6.6l6.2-17.1
							c0-0.1,0-0.2-0.1-0.3c-1.8-1.8-3.5-4.8-4.9-7.1l-0.6-0.9c-0.1-0.1-0.2-0.2-0.4-0.1c-0.1,0.1-0.2,0.2-0.1,0.4l0.6,0.9
							c1.4,2.3,3.1,5.2,4.9,7.1l-6.2,17.1c0,0.1,0,0.2,0.1,0.3c0.3,0.3,6.5,6.9,12.7,6.9c0.4,0,0.7,0,1.1-0.1c0.1,0,0.1-0.1,0.2-0.1
							c0.1-0.1,10.3-14.7,8.2-25.3C148,97.1,144.5,82,138.6,75.6z"/>
					</g>
				</g>
				<g>
					<path class="st7" d="M133.1,105.2c1.5-0.4,4,0.8,4,0.8l-2.4-2.9C132.2,103.4,131.5,105.5,133.1,105.2z"/>
					<path class="st13" d="M133,104.9c-0.3,0.1-0.4,0-0.5,0c0,0,0-0.1,0-0.2c0.2-0.4,0.9-1.2,2.2-1.4l-0.1-0.5
						c-1.5,0.2-2.4,1-2.6,1.7c-0.1,0.3-0.1,0.6,0.1,0.8c0.1,0.2,0.4,0.3,1,0.2c1.4-0.3,3.9,0.7,3.9,0.7l0.2-0.5
						C137.1,105.6,134.6,104.5,133,104.9z"/>
				</g>
			</g>
			<g>
				<path class="st11" d="M103.5,70.3c-0.1-0.1-0.3,0-0.4,0.1c0,0.1-3.6,6.9-4,12.4c0,0.1,0,0.2,0.1,0.2l1.3,1.1l-2.2-0.4
					c-0.1,0-0.2,0-0.2,0.1C98,84,98,84,98,84.1c0,0.2,0.2,16.3,2.1,32.4c0,0.1,0.1,0.2,0.3,0.2c0,0,0,0,0,0c0.2,0,0.2-0.2,0.2-0.3
					c-1.8-14.8-2.1-29.7-2.1-32l2.8,0.5c0.1,0,0.2,0,0.3-0.2c0.1-0.1,0-0.2-0.1-0.3l-1.9-1.7c0.4-5.4,3.9-12,3.9-12.1
					C103.7,70.6,103.6,70.4,103.5,70.3z"/>
			</g>
			<g>
				<path class="st11" d="M127,84.1l-1.8,0.2l1.2-1c0.1-0.1,0.1-0.1,0.1-0.2c0.2-5.5-2.2-12.6-2.2-12.7c-0.1-0.1-0.2-0.2-0.3-0.2
					s-0.2,0.2-0.2,0.3c0,0.1,2.3,7,2.2,12.4l-1.8,1.5c-0.1,0.1-0.1,0.2-0.1,0.3c0,0.1,0.2,0.2,0.3,0.2l2.4-0.2
					c-0.2,2.3-1.3,16.9-4.2,31.5c0,0.1,0.1,0.3,0.2,0.3c0,0,0,0,0.1,0c0.1,0,0.2-0.1,0.3-0.2c3.1-15.8,4.2-31.7,4.2-31.8
					c0-0.1,0-0.2-0.1-0.2C127.2,84.1,127.1,84.1,127,84.1z"/>
			</g>
		</g>
	</g>
	<g>
		<rect x="15.8" y="128.5" class="st4" width="131.4" height="1.3"/>
	</g>
</g>
</svg>
