<?xml version="1.0" encoding="utf-8"?>
<!-- Generator: Adobe Illustrator 27.7.0, SVG Export Plug-In . SVG Version: 6.00 Build 0)  -->
<svg version="1.1" id="Capa_1" xmlns="http://www.w3.org/2000/svg" xmlns:xlink="http://www.w3.org/1999/xlink" x="0px" y="0px"
	 viewBox="0 0 125 120" style="enable-background:new 0 0 125 120;" xml:space="preserve">
<style type="text/css">
	.st0{fill:#11111F;}
	.st1{fill:#FFFFFF;}
	.st2{fill:#efad1f;}
	.st3{clip-path:url(#SVGID_00000022531547332435736880000015334604094173480378_);}
	.st4{fill:#6D6494;}
	.st5{fill:#C3F1E4;}
	.st6{fill:#00272E;}
	.st7{clip-path:url(#SVGID_00000082331790596604455590000016591847941113914755_);}
	.st8{fill:#3B9D81;}
	.st9{fill:#84BC26;}
</style>
<g>
	<g>
		<rect x="3.5" y="114.5" class="st0" width="115.4" height="1.2"/>
	</g>
	<g>
		<g>
			<g>
				<g>
					<polygon class="st0" points="118.3,114.7 114.8,114.7 108.7,32 112.3,32 					"/>
					<path class="st0" d="M108.5,31.8c0,0-0.1,0.1-0.1,0.2l6,82.7c0,0.1,0.1,0.2,0.2,0.2h3.6c0.1,0,0.1,0,0.2-0.1s0.1-0.1,0.1-0.2
						l-6-82.7c0-0.1-0.1-0.2-0.2-0.2h-3.6C108.6,31.8,108.6,31.8,108.5,31.8z M109,32.2h3.1l6,82.2H115L109,32.2z"/>
				</g>
				<g>
					<polygon class="st0" points="81.3,114.7 77.7,114.7 71.6,32 75.2,32 					"/>
					<path class="st0" d="M71.5,31.8c0,0-0.1,0.1-0.1,0.2l6,82.7c0,0.1,0.1,0.2,0.2,0.2h3.6c0.1,0,0.1,0,0.2-0.1s0.1-0.1,0.1-0.2
						l-6-82.7c0-0.1-0.1-0.2-0.2-0.2h-3.6C71.6,31.8,71.5,31.8,71.5,31.8z M71.9,32.2H75l6,82.2h-3.1L71.9,32.2z"/>
				</g>
			</g>
			<g>
				<polygon class="st0" points="99.5,93.7 95.2,114.6 91.7,114.6 96,93.7 				"/>
				<path class="st0" d="M95.7,93.7l-4.3,20.9c0,0.1,0,0.1,0.1,0.2c0,0.1,0.1,0.1,0.2,0.1h3.6c0.1,0,0.2-0.1,0.2-0.2l4.3-20.9
					c0-0.1,0-0.1-0.1-0.2c0-0.1-0.1-0.1-0.2-0.1H96C95.8,93.5,95.8,93.6,95.7,93.7z M92,114.4L96.2,94h3.1l-4.2,20.4H92z"/>
			</g>
			<g>
				<polygon class="st1" points="39.6,93.7 35.3,114.6 31.7,114.6 36,93.7 				"/>
				<path d="M35.8,93.7l-4.3,20.9c0,0.1,0,0.1,0,0.2s0.1,0.1,0.2,0.1h3.6c0.1,0,0.2-0.1,0.2-0.2l4.3-20.9c0-0.1,0-0.1,0-0.2
					c0-0.1-0.1-0.1-0.2-0.1H36C35.9,93.5,35.8,93.6,35.8,93.7z M32,114.4L36.2,94h3.1l-4.2,20.4H32z"/>
			</g>
			<g>
				<polygon class="st0" points="122.7,6.4 104.2,99.4 31.4,99.4 30,97.7 121.3,4.7 				"/>
				<path class="st0" d="M29.8,97.5c-0.1,0.1-0.1,0.2,0,0.3l1.4,1.7c0,0.1,0.1,0.1,0.2,0.1h72.8c0.1,0,0.2-0.1,0.2-0.2l18.5-93
					c0-0.1,0-0.1-0.1-0.2l-1.4-1.7c0-0.1-0.1-0.1-0.2-0.1s-0.1,0-0.2,0.1L29.8,97.5z M30.3,97.7l91-92.7l1.2,1.4L104,99.2H31.5
					L30.3,97.7z"/>
			</g>
			<g>
				<polygon class="st1" points="121.3,4.7 102.8,97.7 30,97.7 48.5,4.7 				"/>
				<path class="st0" d="M29.8,97.6c0,0,0,0.1,0,0.1c0,0.1,0.1,0.2,0.2,0.2h0h72.8c0.1,0,0.2-0.1,0.2-0.2l18.5-93
					c0-0.1,0-0.1-0.1-0.2c0-0.1-0.1-0.1-0.2-0.1H48.5c-0.1,0-0.2,0.1-0.2,0.2L29.8,97.6z M30.3,97.4L48.7,4.9H121l-18.4,92.6
					C102.6,97.5,30.3,97.5,30.3,97.4z"/>
			</g>
			<g>
				<g>
					<g>
						<path d="M82.2,10.8l0,0.5c2.9,0,5.3,1.1,7,3.2c1.8,2.3,2.4,5.6,1.6,9.1C89.2,30.4,82.6,36,76.2,36c-2.9,0-5.3-1.1-7-3.2
							c-1.8-2.3-2.4-5.6-1.6-9c1.6-6.8,8.2-12.4,14.6-12.4L82.2,10.8L82.2,10.8z M82.2,10.8c-6.7,0-13.4,5.7-15.1,12.8
							c-1.7,7.1,2.4,12.8,9,12.9c0,0,0,0,0,0c6.7,0,13.4-5.7,15.1-12.8C93,16.6,88.9,10.9,82.2,10.8C82.2,10.8,82.2,10.8,82.2,10.8
							L82.2,10.8z"/>
					</g>
					<g>
						<g>
							<defs>
								<path id="SVGID_1_" d="M76.2,36.5c-6.7,0-10.7-5.8-9-12.9c1.7-7.1,8.4-12.8,15.1-12.8"/>
							</defs>
							<clipPath id="SVGID_00000013179570523719436620000007230825793556135830_">
								<use xlink:href="#SVGID_1_"  style="overflow:visible;"/>
							</clipPath>
						</g>
					</g>
				</g>
				<g>
					<g>
						<path class="st1" d="M67.9,92.3c-3,0-5.6-1.2-7.3-3.4c-1.9-2.4-2.5-5.9-1.7-9.5c1.7-7.1,8.5-12.9,15.2-12.9
							c3,0,5.6,1.2,7.3,3.4c1.9,2.4,2.5,5.9,1.7,9.5C81.4,86.6,74.6,92.3,67.9,92.3L67.9,92.3z"/>
						<path class="st0" d="M74,66.4l0,0.5c2.9,0,5.5,1.2,7.1,3.3c1.9,2.4,2.5,5.7,1.6,9.2c-1.7,7-8.3,12.7-14.9,12.7
							c-2.9,0-5.5-1.2-7.1-3.3c-1.9-2.4-2.5-5.7-1.6-9.2c1.7-7,8.3-12.7,14.9-12.7L74,66.4L74,66.4z M74,66.4
							c-6.8,0-13.7,5.8-15.4,13.1c-1.7,7.2,2.4,13.1,9.2,13.1c0,0,0,0,0,0c6.8,0,13.7-5.8,15.4-13.1C85,72.3,80.9,66.4,74,66.4
							C74.1,66.4,74.1,66.4,74,66.4L74,66.4z"/>
					</g>
					<polygon class="st2" points="66.2,81.4 76,70.6 71.4,79.5 75.5,78.3 66.7,88.3 70.6,80 					"/>
				</g>
				<g>
					<g>
						<path class="st1" d="M97.4,61.7c-2.3,0-4.3-0.9-5.7-2.6c-1.5-1.9-2-4.6-1.3-7.3c1.3-5.5,6.6-10,11.8-10c2.4,0,4.4,0.9,5.7,2.6
							c1.5,1.9,2,4.6,1.3,7.3C107.9,57.2,102.6,61.7,97.4,61.7L97.4,61.7z"/>
						<path d="M102.2,41.4l0,0.5c2.3,0,4.2,0.9,5.5,2.5c1.4,1.8,1.9,4.4,1.2,7.1c-1.3,5.4-6.5,9.8-11.6,9.8c-2.3,0-4.2-0.9-5.5-2.5
							c-1.4-1.8-1.9-4.4-1.2-7.1c1.3-5.4,6.5-9.8,11.6-9.8V41.4L102.2,41.4z M102.2,41.4c-5.3,0-10.7,4.6-12,10.2
							c-1.3,5.7,1.9,10.2,7.2,10.3c0,0,0,0,0,0c5.3,0,10.7-4.6,12-10.2C110.8,46,107.6,41.4,102.2,41.4
							C102.3,41.4,102.2,41.4,102.2,41.4L102.2,41.4z"/>
					</g>
					<g>
						<g>
							<defs>
								<path id="SVGID_00000098929553524346435480000015603470106617415870_" d="M109.5,51.7c-1.3,5.7-6.7,10.2-12.1,10.2
									s-8.6-4.6-7.2-10.3c1.3-5.7,6.7-10.2,12.1-10.2C107.6,41.4,110.8,46,109.5,51.7z"/>
							</defs>
							<clipPath id="SVGID_00000013893445194416485080000012181165732167389342_">
								<use xlink:href="#SVGID_00000098929553524346435480000015603470106617415870_"  style="overflow:visible;"/>
							</clipPath>
							<g style="clip-path:url(#SVGID_00000013893445194416485080000012181165732167389342_);">
								<polygon class="st4" points="92.3,53.5 91,55.5 106.9,55.6 106.6,53.5 								"/>
								<g>
									<polygon class="st5" points="91.2,54.5 107.1,54.5 107.2,54.2 91.3,54.2 									"/>
									<path class="st6" d="M91.2,54.5l16,0l0.1-0.4l-16,0L91.2,54.5z M91.4,54.2l15.7,0l0,0.2l-15.7,0L91.4,54.2z"/>
								</g>
								<g>
									<polygon class="st1" points="93.1,50.1 91.3,54.2 107.2,54.2 107.3,50.1 									"/>
									<path class="st6" d="M93.1,50.1l-1.8,4.2l16,0l0.2-4.2L93.1,50.1z M91.4,54.1l1.7-4l14.2,0l-0.2,4L91.4,54.1z"/>
								</g>
								<g>
									<g>
										<polygon class="st6" points="96.7,51.8 98.6,51.8 99,50.3 97.1,50.3 										"/>
										<path class="st6" d="M96.6,51.9h2l0.4-1.6h-1.9L96.6,51.9z M98.9,50.4l-0.4,1.3h-1.8l0.4-1.3H98.9z"/>
									</g>
									<g>
										<polygon class="st6" points="96,53.9 98,53.9 98.5,52.1 96.6,52.1 										"/>
										<path class="st6" d="M95.9,54H98l0.5-2h-2L95.9,54z M98.4,52.2l-0.5,1.7h-1.9l0.6-1.7H98.4z"/>
									</g>
									<g>
										<polygon class="st6" points="99.2,50.3 98.8,51.8 100.6,51.8 100.9,50.3 										"/>
										<path class="st6" d="M99.1,50.3l-0.4,1.6h2l0.3-1.6H99.1z M98.8,51.8l0.4-1.3h1.6l-0.3,1.3H98.8z"/>
									</g>
									<g>
										<polygon class="st6" points="98.7,52.1 98.2,53.9 100.2,53.9 100.6,52.1 										"/>
										<path class="st6" d="M98.7,52l-0.5,2h2.1l0.4-2H98.7z M98.3,53.9l0.5-1.7h1.8l-0.3,1.7H98.3z"/>
									</g>
									<g>
										<polygon class="st6" points="101.1,50.3 100.8,51.8 102.7,51.8 103,50.3 										"/>
										<path class="st6" d="M101.1,50.3l-0.3,1.6h2l0.2-1.6H101.1z M100.9,51.8l0.3-1.3h1.7l-0.2,1.3H100.9z"/>
									</g>
									<g>
										<polygon class="st6" points="100.8,52.1 100.4,53.9 102.4,53.9 102.7,52.1 										"/>
										<path class="st6" d="M100.7,52l-0.4,2h2.1l0.3-2H100.7z M100.5,53.9l0.3-1.7h1.8l-0.3,1.7H100.5z"/>
									</g>
									<g>
										<polygon class="st6" points="92.6,51.8 94.2,51.8 94.8,50.3 93.3,50.3 										"/>
										<path class="st6" d="M92.6,51.8h1.7l0.6-1.6h-1.6L92.6,51.8z M94.7,50.4l-0.5,1.3h-1.5l0.6-1.3H94.7z"/>
									</g>
									<g>
										<polygon class="st6" points="91.7,53.9 93.4,53.9 94.1,52.1 92.5,52.1 										"/>
										<path class="st6" d="M91.6,54h1.8l0.7-2h-1.7L91.6,54z M94,52.1l-0.7,1.7h-1.6l0.7-1.7H94z"/>
									</g>
									<g>
										<polygon class="st6" points="105.3,50.3 105.2,51.8 107,51.8 107.1,50.4 										"/>
										<path class="st6" d="M105.3,50.3l-0.2,1.6h1.9l0.1-1.6H105.3z M105.2,51.8l0.1-1.3h1.6l-0.1,1.3H105.2z"/>
									</g>
									<g>
										<polygon class="st6" points="105.2,52.1 105,53.9 106.9,54 107,52.1 										"/>
										<path class="st6" d="M105.1,52l-0.2,2h2l0.1-2H105.1z M105.1,53.9l0.2-1.7h1.7l-0.1,1.7H105.1z"/>
									</g>
									<g>
										<polygon class="st6" points="94.5,51.8 96.4,51.8 96.9,50.3 95,50.3 										"/>
										<path class="st6" d="M94.4,51.8h2.1l0.5-1.6h-2L94.4,51.8z M96.8,50.4l-0.4,1.3h-1.9l0.5-1.3H96.8z"/>
									</g>
									<g>
										<polygon class="st6" points="93.7,53.9 95.7,53.9 96.3,52.1 94.3,52.1 										"/>
										<path class="st6" d="M93.6,54h2.2l0.6-2h-2.1L93.6,54z M96.3,52.1l-0.6,1.7h-2l0.7-1.7H96.3z"/>
									</g>
									<g>
										<polygon class="st6" points="103.2,50.3 103,51.8 104.9,51.8 105.1,50.3 										"/>
										<path class="st6" d="M103.1,50.3l-0.2,1.6h2.1l0.2-1.6H103.1z M103,51.8l0.2-1.3h1.8l-0.1,1.3H103z"/>
									</g>
									<g>
										<polygon class="st6" points="102.9,52.1 102.7,53.9 104.7,53.9 104.9,52.1 										"/>
										<path class="st6" d="M102.9,52l-0.3,2h2.2l0.2-2H102.9z M102.7,53.9l0.2-1.7h1.9l-0.2,1.7H102.7z"/>
									</g>
								</g>
							</g>
						</g>
					</g>
				</g>
				<g>
					<g>
						<path class="st1" d="M49,61.7c-2.4,0-4.5-1-5.8-2.7c-1.5-1.9-2-4.7-1.3-7.5c1.3-5.6,6.7-10.2,12-10.2c2.4,0,4.5,1,5.8,2.7
							c1.5,1.9,2,4.7,1.3,7.5C59.6,57.2,54.3,61.7,49,61.7C49,61.7,49,61.7,49,61.7z"/>
						<path d="M53.8,41.3l0,0.1c2.4,0,4.4,1,5.8,2.7c1.5,1.9,2,4.6,1.3,7.5c-1.3,5.6-6.7,10.1-11.9,10.1c-2.4,0-4.4-1-5.8-2.7
							c-1.5-1.9-2-4.6-1.3-7.5c1.3-5.6,6.7-10.1,11.9-10.1L53.8,41.3L53.8,41.3z M53.8,41.3c-5.3,0-10.7,4.6-12,10.2
							c-1.3,5.7,1.9,10.2,7.2,10.3c0,0,0,0,0,0c5.3,0,10.7-4.6,12-10.2C62.4,45.9,59.2,41.3,53.8,41.3
							C53.8,41.3,53.8,41.3,53.8,41.3L53.8,41.3z"/>
					</g>
					<g>
						<g>
							<defs>
								<path id="SVGID_00000133517916886506756160000017532261762160812200_" d="M61,51.6c-1.3,5.7-6.7,10.2-12.1,10.2
									s-8.5-4.6-7.2-10.3c1.3-5.7,6.7-10.2,12.1-10.2C59.2,41.3,62.4,45.9,61,51.6z"/>
							</defs>
							<clipPath id="SVGID_00000047774239695738838400000005506079946778443140_">
								<use xlink:href="#SVGID_00000133517916886506756160000017532261762160812200_"  style="overflow:visible;"/>
							</clipPath>
							<g style="clip-path:url(#SVGID_00000047774239695738838400000005506079946778443140_);">
								<polygon class="st4" points="43.9,53.4 42.6,55.4 58.5,55.5 58.1,53.4 								"/>
								<g>
									<polygon class="st5" points="42.8,54.4 58.7,54.4 58.7,54.1 42.9,54.1 									"/>
									<path class="st6" d="M42.7,54.4l16,0l0.1-0.4l-16,0L42.7,54.4z M42.9,54.1l15.7,0l0,0.2l-15.7,0L42.9,54.1z"/>
								</g>
								<g>
									<polygon class="st1" points="44.7,50 42.9,54.1 58.7,54.1 58.9,50 									"/>
									<path class="st6" d="M44.6,50l-1.8,4.2l16,0L59,50L44.6,50z M43,54l1.7-4l14.2,0l-0.2,4L43,54z"/>
								</g>
								<g>
									<g>
										<polygon class="st6" points="48.2,51.7 50.1,51.7 50.5,50.2 48.7,50.2 										"/>
										<path class="st6" d="M48.2,51.8h2l0.4-1.6h-1.9L48.2,51.8z M50.5,50.3l-0.4,1.3h-1.8l0.4-1.3H50.5z"/>
									</g>
									<g>
										<polygon class="st6" points="47.5,53.8 49.5,53.8 50.1,52 48.2,52 										"/>
										<path class="st6" d="M47.5,53.9h2.1l0.5-2h-2L47.5,53.9z M50,52l-0.5,1.7h-1.9l0.5-1.7H50z"/>
									</g>
									<g>
										<polygon class="st6" points="50.8,50.2 50.3,51.7 52.2,51.7 52.5,50.2 										"/>
										<path class="st6" d="M50.7,50.2l-0.4,1.6h2l0.3-1.6H50.7z M50.4,51.6l0.4-1.3h1.6l-0.3,1.3H50.4z"/>
									</g>
									<g>
										<polygon class="st6" points="50.3,52 49.8,53.8 51.8,53.8 52.1,52 										"/>
										<path class="st6" d="M50.2,51.9l-0.5,2h2.1l0.4-2H50.2z M49.8,53.8l0.5-1.7h1.8l-0.3,1.7H49.8z"/>
									</g>
									<g>
										<polygon class="st6" points="52.7,50.2 52.4,51.7 54.3,51.7 54.5,50.2 										"/>
										<path class="st6" d="M52.7,50.2l-0.3,1.6h2l0.2-1.6H52.7z M52.5,51.6l0.3-1.3h1.7l-0.2,1.3H52.5z"/>
									</g>
									<g>
										<polygon class="st6" points="52.3,52 52,53.8 54,53.8 54.3,52 										"/>
										<path class="st6" d="M52.3,51.9l-0.4,2H54l0.3-2H52.3z M52.1,53.8l0.3-1.7h1.8L54,53.8H52.1z"/>
									</g>
									<g>
										<polygon class="st6" points="44.2,51.7 45.8,51.7 46.3,50.2 44.8,50.2 										"/>
										<path class="st6" d="M44.1,51.7h1.7l0.6-1.6h-1.6L44.1,51.7z M46.3,50.3l-0.5,1.3h-1.5l0.6-1.3H46.3z"/>
									</g>
									<g>
										<polygon class="st6" points="43.3,53.8 45,53.8 45.7,52 44.1,52 										"/>
										<path class="st6" d="M43.2,53.9H45l0.7-2H44L43.2,53.9z M45.6,52L45,53.8h-1.6l0.7-1.7H45.6z"/>
									</g>
									<g>
										<polygon class="st6" points="56.9,50.2 56.8,51.7 58.5,51.7 58.6,50.2 										"/>
										<path class="st6" d="M56.8,50.2l-0.2,1.6h1.9l0.1-1.6H56.8z M56.8,51.7l0.1-1.3h1.6l-0.1,1.3H56.8z"/>
									</g>
									<g>
										<polygon class="st6" points="56.7,52 56.6,53.8 58.5,53.8 58.5,52 										"/>
										<path class="st6" d="M56.7,51.9l-0.2,2h2l0.1-2H56.7z M56.6,53.8l0.2-1.7h1.7l-0.1,1.7H56.6z"/>
									</g>
									<g>
										<polygon class="st6" points="46,51.7 48,51.7 48.5,50.2 46.6,50.2 										"/>
										<path class="st6" d="M46,51.8H48l0.5-1.6h-2L46,51.8z M48.4,50.3L48,51.6h-1.9l0.5-1.3H48.4z"/>
									</g>
									<g>
										<polygon class="st6" points="45.2,53.8 47.3,53.8 47.9,52 45.9,52 										"/>
										<path class="st6" d="M45.2,53.9h2.2l0.6-2h-2.1L45.2,53.9z M47.8,52l-0.6,1.7h-2L46,52H47.8z"/>
									</g>
									<g>
										<polygon class="st6" points="54.8,50.2 54.5,51.7 56.5,51.7 56.7,50.2 										"/>
										<path class="st6" d="M54.7,50.2l-0.2,1.6h2.1l0.2-1.6H54.7z M54.6,51.7l0.2-1.3h1.8l-0.1,1.3H54.6z"/>
									</g>
									<g>
										<polygon class="st6" points="54.5,52 54.2,53.8 56.3,53.8 56.5,52 										"/>
										<path class="st6" d="M54.5,51.9l-0.3,2h2.2l0.2-2H54.5z M54.3,53.8l0.2-1.7h1.9l-0.2,1.7H54.3z"/>
									</g>
								</g>
							</g>
						</g>
					</g>
				</g>
				<g>
					<g>
						<path class="st8" d="M67.7,46.4l-2.5-0.7l1.7,5l5.4-3.1L69.8,47c1.5-2,3.6-3.5,5.9-4.1l1.2-0.3l0-2.4l-1.2,0.3
							C72.6,41.3,69.7,43.4,67.7,46.4z"/>
					</g>
					<g>
						<path class="st8" d="M69.9,57.9c-1.3-1.1-2.1-2.9-2.2-4.9l0-1.2l-2.4,0.6l0,1.2c0,2.8,1.2,5.2,3.2,6.6L67,63.1l5.6-2.6
							l-1.2-5.3L69.9,57.9z"/>
					</g>
					<g>
						<path class="st8" d="M79.3,54.3l2.4,0.8c-1.5,2-3.6,3.4-5.8,4l-1.2,0.3l0,2.4l1.2-0.3c1.2-0.3,2.5-0.9,3.6-1.6
							c1.6-1,3.1-2.4,4.3-4.1l2.5,0.8l-1.6-5.1L79.3,54.3z"/>
					</g>
					<g>
						<path class="st8" d="M84.2,38.5l-5.5,2.8l1.5,5.1l1.4-2.8c1.5,1.1,2.4,2.9,2.4,5.1l0,1.2l2.4-0.6l0-1.2c0-3-1.3-5.5-3.6-6.9
							L84.2,38.5z"/>
					</g>
				</g>
			</g>
		</g>
		<g>
			<g>
				<path class="st0" d="M46.1,29.8c-6.9,3.6,12.3,17.3,12.3,17.3s1.4-5.4,1.4-11.4S53,26.2,46.1,29.8z"/>
			</g>
			<g>
				<g>
					<g>
						<path class="st1" d="M43.2,85.6c-7.4,0-12.4-4.8-13.1-5.5c0.2-1.1,1.8-8.8,2.2-19.8l0-0.2l-0.1-0.1c0,0-3.6-1.9-3.9-6
							c-0.1-1.4,0.2-2.6,1-3.5c0.8-0.9,2.1-1.4,3.6-1.4l0.5,0l0-0.3c0-0.1-0.4-11.4,5.2-14.6c1.2-0.7,2.7-1,4.5-1
							c6,0,14.8,4.1,15,10.5c0,0.8,0,1.5,0,2.2c-0.1,1.9-0.2,3.7,0.8,5.8c1.1,2.1,1.3,9-1.7,13.8c-1.9,3.1-4.8,4.7-8.5,4.7h-0.2
							l0,0.2c0,0.3-0.8,6.4-0.5,9.7l0,0.1l0,0.1c0,0,1.5,1.9,1,3.3c-0.3,0.9-1.4,1.5-3.2,1.8C44.9,85.5,44,85.6,43.2,85.6L43.2,85.6
							z"/>
						<path class="st0" d="M43,33.6c5.9,0,14.5,4,14.7,10.2c0,0.8,0,1.5,0,2.2c-0.1,1.9-0.2,3.8,0.9,5.9c1.1,2.1,1.2,8.8-1.7,13.5
							C55,68.4,52.3,70,48.7,70h-0.4l0,0.4c0,0.3-0.8,6.4-0.5,9.8l0,0.2l0.1,0.1c0.4,0.5,1.4,2,0.9,3.1c-0.3,0.8-1.3,1.3-3,1.6
							c-0.8,0.1-1.7,0.2-2.5,0.2c-7,0-11.9-4.4-12.9-5.3c0.3-1.5,1.8-9.1,2.2-19.7l0-0.3l-0.3-0.1c-0.1-0.1-3.5-1.8-3.8-5.8
							c-0.1-1.3,0.2-2.5,1-3.3c0.8-0.8,2-1.3,3.4-1.3c0.1,0,0.2,0,0.2,0l0.5,0l0-0.5c0-0.1-0.4-11.3,5.1-14.4
							C39.8,33.9,41.3,33.6,43,33.6L43,33.6z M43,33.1c-1.8,0-3.4,0.3-4.7,1c-5.8,3.3-5.3,14.8-5.3,14.8c-0.1,0-0.2,0-0.3,0
							c-3.1,0-5.1,2-4.9,5.1c0.4,4.4,4.1,6.3,4.1,6.3c-0.4,11.9-2.2,19.8-2.2,19.8s5.2,5.7,13.4,5.7c0.8,0,1.7-0.1,2.6-0.2
							c6.2-0.9,2.4-5.5,2.4-5.5c-0.3-3.3,0.5-9.7,0.5-9.7c11.4,0,12.1-15.3,10.4-18.8c-1.4-2.8-0.7-5.1-0.8-7.9
							C58,37.4,49.5,33.1,43,33.1L43,33.1z"/>
					</g>
				</g>
				<g>
					<path class="st0" d="M48.1,44.4c-0.1,0-3.3-0.4-6,2c-0.1,0.1-0.1,0.2,0,0.3c0,0,0.1,0.1,0.2,0.1c0,0,0.1,0,0.1,0
						c2.6-2.3,5.7-1.9,5.7-1.9c0.1,0,0.2-0.1,0.2-0.2C48.3,44.5,48.2,44.4,48.1,44.4z"/>
				</g>
				<g>
					<path class="st0" d="M57.1,46.9L57.1,46.9C57.1,46.9,57.1,46.9,57.1,46.9c-2.6,0-4.8-1.4-4.8-1.4c-0.1-0.1-0.2,0-0.3,0.1
						c-0.1,0.1,0,0.2,0.1,0.3c0.1,0.1,2.3,1.5,5,1.5c0.1,0,0.2-0.1,0.2-0.2C57.3,47,57.2,46.9,57.1,46.9z"/>
				</g>
				<g>
					<path class="st0" d="M53,55.1c-0.6,0-1.2,0.4-1.9,1.3c-0.1,0.1,0,0.2,0,0.3c0,0,0.1,0,0.1,0c0.1,0,0.1,0,0.2-0.1
						c0.5-0.7,1-1.1,1.5-1.1c0.5,0,0.8,0.6,0.8,0.6c0.1,0.1,0.2,0.2,0.3,0.1s0.2-0.2,0.1-0.3C54.2,55.9,53.8,55.2,53,55.1z"/>
				</g>
				<g>
					<path class="st0" d="M45.4,49.6h-1.5c-0.3,0.3-0.4,0.7-0.2,1.1c0.2,0.4,0.8,0.5,1.3,0.2C45.5,50.7,45.7,50.1,45.4,49.6
						C45.4,49.7,45.4,49.7,45.4,49.6z"/>
				</g>
				<g>
					<path class="st0" d="M56.3,49.6h-1.5c-0.3,0.3-0.4,0.7-0.2,1.1c0.2,0.4,0.8,0.5,1.3,0.2C56.4,50.7,56.6,50.1,56.3,49.6
						C56.3,49.7,56.3,49.7,56.3,49.6z"/>
				</g>
				<g>
					<path class="st0" d="M49.5,60.3c-2,1.5-4.5-1.4-4.5-1.4c-0.1-0.1-0.2-0.1-0.3,0c-0.1,0.1-0.1,0.2,0,0.3c0,0,1.7,2,3.6,2
						c0.5,0,1-0.2,1.5-0.5c0.1-0.1,0.1-0.2,0-0.3C49.8,60.3,49.6,60.3,49.5,60.3z"/>
				</g>
				<g>
					<path class="st0" d="M48.8,70.3c-0.1,0-10.3-0.4-14.2-7.7c0-0.1-0.2-0.2-0.3-0.1c-0.1,0.1-0.2,0.2-0.1,0.3c4,7.6,14.4,8,14.5,8
						l0,0c0.1,0,0.2-0.1,0.2-0.2C49,70.4,48.9,70.3,48.8,70.3z"/>
				</g>
				<g>
					<g>
						<path class="st0" d="M31.2,56.4c-0.5-0.3-0.9-0.8-1.1-1.5c-0.4-1.5,0.2-2.9,1-3.5c0.6-0.4,1.2-0.4,1.7,0l0.3-0.3
							c-0.7-0.5-1.5-0.5-2.2,0c-1,0.7-1.7,2.2-1.2,4c0.2,0.9,0.7,1.5,1.3,1.8c0.4,0.2,0.8,0.3,1.2,0.3c0.5,0,1-0.1,1-0.2L33,56.5
							C33,56.5,32,56.9,31.2,56.4z"/>
					</g>
					<g>
						<path class="st0" d="M31,53.5c-0.3-0.3-0.5-0.8-0.4-1.6l-0.4,0c-0.1,0.9,0.1,1.6,0.6,2c0.4,0.3,0.8,0.4,1.1,0.4
							c0.2,0,0.4,0,0.4,0l-0.1-0.4C32.2,53.7,31.5,53.9,31,53.5z"/>
					</g>
				</g>
				<g>
					<path class="st0" d="M61.6,47.5h-8.7c-0.1,0-0.2,0.1-0.3,0.2c-0.2,0.5-0.3,1.1-0.3,1.7c0,2.7,2.2,4.9,4.9,4.9s4.9-2.2,4.9-4.9
						c0-0.6-0.1-1.1-0.3-1.7C61.8,47.6,61.7,47.5,61.6,47.5z M57.2,53.7c-2.4,0-4.4-2-4.4-4.4c0-0.4,0.1-0.9,0.2-1.3h8.3
						c0.1,0.4,0.2,0.8,0.2,1.3C61.6,51.8,59.6,53.7,57.2,53.7z"/>
				</g>
				<g>
					<path class="st0" d="M50.2,47.5h-8.7c-0.1,0-0.2,0.1-0.3,0.2c-0.2,0.5-0.3,1.1-0.3,1.7c0,2.7,2.2,4.9,4.9,4.9s4.9-2.2,4.9-4.9
						c0-0.6-0.1-1.1-0.3-1.7C50.4,47.6,50.3,47.5,50.2,47.5z M45.8,53.7c-2.4,0-4.4-2-4.4-4.4c0-0.4,0.1-0.9,0.2-1.3H50
						c0.1,0.4,0.2,0.8,0.2,1.3C50.2,51.8,48.2,53.7,45.8,53.7z"/>
				</g>
			</g>
			<g>
				<path class="st0" d="M39.7,27.3c-4.2,0.3-6.2,3.8-6.2,3.8c-7.6,0-11.5,1.6-13.4,12.2c-1.5,8.4,4.2,16.2,5.3,17.2
					c2.7,2.5,6.4,4.5,6.4,4.5c1.3-1.3,1.3-4.5,0.6-5.1c-1.8-0.5-3.1-2.5-3.7-4.4c-0.1-0.5-0.9-3.1,0.5-4.5c2.1-2.1,3.5-1.4,4-1.5
					c1.6-0.3,2.8,1.2,2.8-1.4c0-2.2,0.4-8.1,5.4-8.1s8.2-3.7,6.6-7.9C46.5,27.9,43.8,27,39.7,27.3z"/>
			</g>
			<g>
				<g>
					<path class="st9" d="M51.9,75.6h-0.5V73c0-1.4-1.2-2.6-2.6-2.6c-1.2,1.3-15.6,1.4-17.7-0.1c-1.4-0.3-3.2,1.2-3.2,2.7v2.6h-1.6
						c-10.8,0-19.8,8.2-20.8,19l-1.8,20.2h71.9l-3.1-21.4C71.1,83.2,62.2,75.6,51.9,75.6z"/>
					<path class="st0" d="M75.9,115.1H3.5l1.9-20.5c1-11,10-19.2,21-19.2h1.3V73c0-0.8,0.5-1.6,1.2-2.2c0.7-0.6,1.6-0.9,2.3-0.7
						l0.1,0c2.1,1.6,16.3,1.2,17.4,0.1l0.1-0.1h0.1c1.5,0,2.8,1.3,2.8,2.8v2.3h0.2c10.4,0,19.4,7.8,20.9,18.1L75.9,115.1z M4,114.6
						h71.3l-3.1-21.1C70.8,83.4,62,75.8,51.9,75.8h-0.7V73c0-1.2-1-2.3-2.2-2.3C47.1,72.1,33.2,72,31,70.6c-0.6-0.1-1.2,0.1-1.8,0.6
						c-0.6,0.5-1,1.2-1,1.8v2.8h-1.8c-10.7,0-19.6,8.1-20.5,18.8L4,114.6z"/>
				</g>
			</g>
			<g>
				<g>
					<g>
						<path class="st1" d="M39.6,114.6c0.5-4.4,2.5-9.8,4.2-14.7c1.8-4.9,3.4-9.1,2.9-11.1c-0.9-3.7-3.3-5.3-5.3-6.6
							c-2-1.4-3.5-2.4-2.9-4.9c0.5-2.1,0.8-3.9,1.1-5.4c0.4-2.2,0.7-4,1.3-4.2c0.5-0.2,1-0.4,1.6-0.7c1-0.5,2-1,3.3-1.3
							c0.4-0.1,0.7-0.2,1-0.2c0.7,0,1.2,0.2,1.8,0.5c0.5,0.2,0.9,0.4,1.5,0.5c1,0.2,1.6,0.8,1.7,1.2c0,0.1,0.1,0.4-0.1,0.6
							c-0.3,0.3-1,0.4-2,0.4c-0.2,0-0.3,0-0.3,0l-1.3-0.1l1.2,0.5c0,0,2.4,1.1,3.7,1.9c1.3,0.7,2,1.8,2.1,2c0.1,0.2,0.3,1.1,0.4,1.6
							c1.2,1.9,2.6,5.2,1.7,5.9c-0.2,0.2-0.4,0.2-0.6,0.2c-0.9,0-1.7-1.8-2-2.5l-0.1-0.2l-0.2,0c0,0-0.1,0-0.1,0
							c-0.7,0-1.3-0.7-1.5-1l-0.2-0.3l-0.2,0.4c-1,2.1-0.4,2.7,1.7,4.5c0.8,0.7,1.7,1.5,2.8,2.7c2.4,2.4,2,3.3,1.5,4.3
							c-0.2,0.5-0.4,0.9-0.4,1.6c0,3-0.8,22-1,24.4C57,114.6,39.6,114.6,39.6,114.6z"/>
						<path class="st0" d="M46.9,65.7c0.6,0,1.1,0.2,1.7,0.4c0.4,0.2,0.9,0.4,1.5,0.5c0.9,0.2,1.4,0.7,1.5,1.1c0,0.1,0,0.3,0,0.4
							c-0.2,0.2-0.7,0.4-1.8,0.4c-0.2,0-0.3,0-0.3,0l-2.5-0.1l2.3,1.1c0,0,2.4,1.1,3.7,1.9c1.2,0.7,1.9,1.7,2,1.9
							c0.1,0.1,0.2,0.9,0.4,1.5l0,0.1l0,0.1c1.2,1.8,2.5,4.9,1.7,5.6c-0.1,0.1-0.3,0.2-0.4,0.2c-0.6,0-1.4-1.4-1.8-2.3l-0.1-0.4
							l-0.4,0c0,0,0,0-0.1,0c-0.6,0-1.2-0.6-1.3-0.9l-0.5-0.7l-0.3,0.8c-1.1,2.3-0.3,3,1.7,4.8c0.8,0.7,1.7,1.5,2.8,2.6
							c2.3,2.3,1.9,3.1,1.5,4.1c-0.2,0.5-0.5,1-0.5,1.7c0,2.9-0.8,21-0.9,24.1H39.9c0.5-4.3,2.5-9.6,4.2-14.3
							c1.8-4.9,3.4-9.2,2.9-11.3c-0.9-3.7-3.4-5.4-5.4-6.8c-2-1.3-3.4-2.3-2.8-4.7c0.5-2.1,0.8-3.9,1.1-5.4c0.3-2,0.6-3.8,1.2-4
							c0.5-0.2,1-0.4,1.6-0.7c1-0.4,2-1,3.2-1.3C46.3,65.7,46.6,65.7,46.9,65.7L46.9,65.7z M46.9,65.2c-0.3,0-0.7,0.1-1.1,0.2
							c-2,0.6-3.6,1.6-4.9,2s-1.2,4.4-2.5,9.8c-1.3,5.4,6.4,4.5,8.2,11.7c0.9,3.9-6.3,17-7.2,26h17.9c0,0,1-21.5,1-24.6
							c0-1.9,2.4-2.4-1.2-6.1c-4.3-4.3-5.7-4.2-4.5-6.8c0,0,0.8,1.1,1.8,1.1c0,0,0.1,0,0.1,0c0,0,1,2.6,2.2,2.6
							c0.2,0,0.5-0.1,0.7-0.3c1.5-1.2-1.6-6.2-1.6-6.2s-0.3-1.3-0.4-1.6c-0.1-0.3-0.9-1.3-2.2-2.1c-1.3-0.8-3.8-1.9-3.8-1.9
							s0.1,0,0.3,0c0.6,0,1.7-0.1,2.2-0.5c0.6-0.6,0-1.9-1.7-2.2C48.9,65.9,48.2,65.2,46.9,65.2L46.9,65.2z"/>
					</g>
				</g>
				<g>
					<path class="st0" d="M49.7,68.7c-0.8-0.2-2.8-0.7-2.8-0.7l-0.1,0l-0.1,0.1c-1.8,1.5-3.2,1.9-3.2,1.9L43.2,70l0,0.2
						c0.3,1.5-0.2,2.3-0.2,2.3c-0.1,0.1,0,0.2,0.1,0.3c0,0,0.1,0,0.1,0c0.1,0,0.1,0,0.2-0.1c0,0,0.6-0.9,0.3-2.5
						c0.5-0.1,1.7-0.6,3.2-1.8c0.4,0.1,2,0.5,2.7,0.7c0.1,0,0.2-0.1,0.2-0.2C49.9,68.9,49.8,68.7,49.7,68.7z"/>
				</g>
				<g>
					<path class="st0" d="M53,72.9c-1.1-0.1-2.8,1.2-3.7,2c-1.1,1.1-2.1,2.6-2.2,2.7c-0.1,0.1,0,0.2,0.1,0.3c0,0,0.1,0,0.1,0
						c0.1,0,0.1,0,0.2-0.1c0,0,1-1.6,2.1-2.6c1-1,2.6-1.9,3.3-1.9c0.7,0.1,2.2,1,2.8,1.4c0.1,0.1,0.2,0,0.3-0.1s0-0.2-0.1-0.3
						C55.8,74.3,53.9,73,53,72.9z"/>
				</g>
				<g>
					<path class="st0" d="M48.2,68.4c-3.2,1.4-6.1,5.2-6.2,5.3c-0.1,0.1,0,0.2,0,0.3c0,0,0.1,0,0.1,0c0.1,0,0.1,0,0.2-0.1
						c0,0,3-3.8,6-5.2c0.1-0.1,0.2-0.2,0.1-0.3C48.5,68.4,48.3,68.4,48.2,68.4z"/>
				</g>
				<g>
					<path class="st0" d="M49.4,71c-2.3,0.7-5.2,3.7-5.4,3.8c-0.1,0.1-0.1,0.2,0,0.3c0,0,0.1,0.1,0.2,0.1c0.1,0,0.1,0,0.2-0.1
						c0,0,3-3.1,5.2-3.7c2.1-0.7,5.7,2.7,5.8,2.7c0.1,0.1,0.2,0.1,0.3,0c0.1-0.1,0.1-0.2,0-0.3C55.5,73.7,51.8,70.3,49.4,71z"/>
				</g>
			</g>
		</g>
	</g>
</g>
<path class="st8" d="M90.8,17.1"/>
<g>
	<g>
		<g>
			<path class="st8" d="M71,20.4l-0.2-0.3c0,0,3.6-2.4,9.5,0.3c5.6,2.6,7.6-0.2,7.7-0.3l0.3,0.2c0,0-2.2,3.1-8.1,0.4
				C74.5,18.1,71.1,20.4,71,20.4z"/>
		</g>
		<g>
			<path class="st8" d="M70.3,23.6l-0.2-0.3c0,0,3.6-2.4,9.5,0.3c5.6,2.6,7.6-0.2,7.7-0.3l0.3,0.2c0,0-2.2,3.1-8.1,0.4
				C73.8,21.4,70.4,23.6,70.3,23.6z"/>
		</g>
		<g>
			<path class="st8" d="M69.6,26.8l-0.2-0.3c0,0,3.6-2.4,9.5,0.3c5.6,2.6,7.6-0.2,7.7-0.3l0.3,0.2c0,0-2.2,3.1-8.1,0.4
				C73.1,24.5,69.7,26.8,69.6,26.8z"/>
		</g>
	</g>
</g>
</svg>
