<?xml version="1.0" encoding="utf-8"?>
<!-- Generator: Adobe Illustrator 27.7.0, SVG Export Plug-In . SVG Version: 6.00 Build 0)  -->
<svg version="1.1" id="Capa_1" xmlns="http://www.w3.org/2000/svg" xmlns:xlink="http://www.w3.org/1999/xlink" x="0px" y="0px"
	 viewBox="0 0 135 130" style="enable-background:new 0 0 135 130;" xml:space="preserve">
<style type="text/css">
	.st0{fill:#FFFFFF;}
	.st1{fill:#11111F;}
	.st2{fill:#84BC26;}
	.st3{fill:#16162B;}
	.st4{fill:#000502;}
	.st5{fill:#EFAD1F;}
	.st6{fill:#FAB903;}
	.st7{fill:#87BE4B;}
	.st8{fill:#3B9D81;}
</style>
<g>
	<g>
		<g>
			<g>
				<g>
					<g>
						<g>
							<path class="st0" d="M40.5,122c-7.2,0-11.4-11.3-12.7-34.7c0-0.4,0-0.7,0-1c0-1.2,0-2.2-1.1-2.6c-1.1-0.3-8.2-2.7-9.2-3.2
								c-0.6-0.3-0.9-0.6-0.9-0.9c0-0.3,0.4-0.6,0.4-0.6l0.6-0.3l-0.6-0.1c-2-0.4-3.4-1.4-3.6-2c-0.1-0.2,0-0.3,0-0.3
								c0.2-0.2,0.8-0.3,0.9-0.3l1.9-0.1l-1.9-0.4c-0.5-0.1-1.4-0.5-1.5-0.9c0-0.1-0.1-0.2,0.1-0.4c0.1-0.2,0.5-0.3,1-0.3
								c1.6,0,4.3,0.9,4.3,1c0.2,0,0.4,0,0.5,0c0.1,0,0.2,0,0.3,0c4,0,6.1,0.8,6.1,0.8l0.1,0l0.1,0c0.5-0.1,1-0.1,1.5-0.1
								c1.8,0,3.6,0.4,3.6,0.4l0.4,0.1l0-0.3c-0.3-2.4,0.1-5.2,1-6.2c0.2-0.2,0.4-0.4,0.7-0.4c0,0,0.1,0,0.2,0
								c0.6,0.1,0.6,1.2,0.6,2.3c0,0.8,0,1.7,0.2,2.3c0.2,0.5,0.4,1.1,0.6,1.6c0.9,2.2,1.8,4.4,1.4,8.7c-0.6,5.8,3.2,12.4,6.1,17.3
								c1.2,2.1,2.2,3.8,2.5,4.8l0.1,0.6l4.7-7.5l9.3,8.4c-0.5,0.5-1.3,1.5-2.3,2.8c-3.2,3.9-8.5,10.4-11.8,11.2
								C43,121.7,41.8,122,40.5,122z"/>
							<path class="st1" d="M32.3,69.4L32.3,69.4L32.3,69.4c0,0,0.1,0,0.1,0c0.4,0.1,0.4,1.1,0.4,2c0,0.8,0,1.7,0.2,2.4
								c0.2,0.5,0.4,1.1,0.6,1.6c0.9,2.2,1.8,4.3,1.3,8.6c-0.6,5.9,3.3,12.6,6.1,17.4c1.2,2,2.2,3.8,2.4,4.7l0.3,1.2l0.6-1l4.2-6.7
								l8.9,8c-0.5,0.5-1.2,1.3-2.2,2.6c-3.2,3.9-8.4,10.3-11.6,11.1c-0.9,0.2-2.1,0.5-3.3,0.5c-7.1,0-11.1-11.3-12.4-34.4
								c0-0.4,0-0.7,0-1c0-1.2,0-2.4-1.3-2.8c-1.1-0.3-8.2-2.7-9.2-3.2c-0.6-0.3-0.8-0.6-0.8-0.7c0-0.1,0.2-0.3,0.3-0.3l1.1-0.7
								l-1.3-0.3c-2-0.4-3.3-1.3-3.4-1.8c0-0.1,0-0.1,0-0.1c0.1-0.1,0.5-0.2,0.8-0.2l3.8-0.1l-3.7-0.9c-0.6-0.1-1.2-0.4-1.3-0.7
								c0-0.1,0-0.1,0.1-0.2c0,0,0.2-0.2,0.9-0.2c1.6,0,4.2,0.9,4.3,0.9l0.1,0h0.1c0.2,0,0.5,0,0.7,0c3.9,0,5.9,0.8,6,0.8l0.1,0.1
								l0.1,0c0.4-0.1,0.9-0.1,1.5-0.1c1.8,0,3.5,0.4,3.5,0.4l0.7,0.2l-0.1-0.7c-0.3-2.3,0.1-5.1,0.9-6
								C32.1,69.4,32.3,69.4,32.3,69.4L32.3,69.4z M32.3,68.9c-1.6,0-2.3,3.9-1.9,6.8c0,0-1.8-0.4-3.6-0.4c-0.5,0-1,0-1.5,0.1
								c0,0-2.1-0.9-6.2-0.9c-0.2,0-0.5,0-0.7,0c0,0-2.7-1-4.4-1c-0.6,0-1,0.1-1.2,0.4c-0.9,1.2,1.5,1.7,1.5,1.7s-1.5,0-1.2,1
								c0.2,0.8,1.8,1.8,3.8,2.2c0,0-1.5,0.8,0.5,1.9c1,0.5,8.2,2.9,9.2,3.2c1.2,0.4,0.9,1.7,1,3.3c1.7,30.2,7.9,34.9,12.9,34.9
								c1.2,0,2.4-0.3,3.4-0.5c4.7-1.2,13-13.2,14.4-14.2l-9.8-8.8l-4.5,7.2c-0.8-3.3-9.4-13.6-8.5-22c0.6-5.4-0.9-7.4-2-10.4
								c-0.6-1.5,0.3-4.4-1-4.7C32.5,68.9,32.4,68.9,32.3,68.9L32.3,68.9z"/>
						</g>
					</g>
					<g>
						<path d="M21,79.4c-2.5-1.7-4.2-0.8-4.3-0.7l0.2,0.4c0.1,0,1.5-0.8,3.8,0.7l0.1,0.1H21c0,0,1.7-0.1,3.1,0.5l0.2-0.4
							C22.9,79.4,21.4,79.4,21,79.4z"/>
					</g>
					<g>
						<path d="M18.3,76.2c-2.3-1-4-0.7-4.1-0.7l0.1,0.5c0,0,1.6-0.2,3.9,0.7l0.1,0h0.1c0,0,2.2-0.2,4.9,1.2l0.2-0.4
							C20.8,76.2,18.7,76.2,18.3,76.2z"/>
					</g>
					<g>
						<path d="M18.4,74.9c0,0,3.1,0.2,6.3,1.6l0.2-0.4c-3.2-1.4-6.3-1.7-6.4-1.7L18.4,74.9z"/>
					</g>
				</g>
				<g>
					<g>
						<g>
							<path class="st0" d="M92.4,107.9l2.1-15.3l8.8,0.6l0-0.3c0.2-4.1,0.2-7.5,0.3-10.8c0.1-5.8,0.2-10.7,0.9-16.8
								c0.4-3.3,2.1-6.1,3.5-8.6c0.2-0.3,0.4-0.7,0.6-1c0.3-0.6,0.5-1.3,0.7-2c0.2-0.9,0.4-1.8,1-2.2c0.2-0.1,0.3-0.2,0.5-0.2
								c0.2,0,0.4,0.1,0.5,0.4c0.7,1.1,0.7,4.1-0.4,6.3l-0.2,0.4l0.5-0.1c0,0,0.3,0,0.8,0c0.7,0,1.9,0.1,3.1,0.5l0.1,0l0.1,0
								c0,0,1.2-0.3,3-0.3c1.6,0,3.1,0.2,4.6,0.7l0.1,0l0.1,0c0,0,1.7-0.3,3.2-0.3c1.6,0,1.9,0.3,2.1,0.5c0.1,0.2,0.1,0.4,0,0.4
								c-0.2,0.4-1.1,0.5-1.6,0.6l-1.9,0.1l1.9,0.4c0.2,0,0.7,0.2,0.8,0.5c0,0.1,0.1,0.2,0,0.3c-0.3,0.6-1.8,1.3-3.8,1.3l-0.7,0
								l0.5,0.4c0,0,0.3,0.3,0.3,0.6c-0.1,0.2-0.4,0.5-1,0.7c-1.1,0.3-8.3,1.6-9.2,1.6c-1.8,0.1-1.8,1.4-1.7,2.6c0,0.2,0,0.4,0,0.6
								c0,2.5,0.9,6.2,2,10.5c2.4,9.7,5.4,21.8-1.4,25.2C108.2,107.5,95.4,107.9,92.4,107.9L92.4,107.9L92.4,107.9z"/>
							<path class="st1" d="M110.6,51.7c0.1,0,0.2,0.2,0.3,0.3c0.7,1.1,0.6,4-0.4,6.1l-0.4,0.8l0.9-0.1c0,0,0.3,0,0.7,0
								c0.7,0,1.8,0.1,3,0.5l0.1,0l0.1,0c0,0,1.2-0.3,2.9-0.3c1.5,0,3,0.2,4.5,0.7l0.1,0l0.1,0c0,0,1.7-0.3,3.1-0.3
								c1.6,0,1.8,0.4,1.8,0.4c0,0.1,0.1,0.2,0,0.2c-0.1,0.2-0.8,0.4-1.4,0.5l-3.7,0.2l3.7,0.7c0.3,0,0.6,0.2,0.7,0.3
								c0,0,0,0.1,0,0.1c-0.2,0.5-1.6,1.1-3.6,1.2L122,63l1,0.8c0.1,0.1,0.2,0.3,0.2,0.3c0,0-0.1,0.2-0.8,0.5
								c-1.1,0.3-8.3,1.6-9.2,1.6c-2,0.1-2,1.7-2,2.9c0,0.2,0,0.4,0,0.6c0,2.6,0.9,6.3,2,10.6c2.4,9.6,5.4,21.6-1.2,24.9
								c-3.8,1.9-16.1,2.4-19.4,2.4l2.1-14.8l8.3,0.6l0.5,0l0-0.5c0.2-4.1,0.2-7.5,0.3-10.8c0.1-5.7,0.2-10.7,0.9-16.8
								c0.4-3.2,2-6,3.5-8.5c0.2-0.3,0.4-0.7,0.6-1c0.4-0.6,0.5-1.4,0.7-2.1c0.2-0.9,0.4-1.7,0.9-2.1
								C110.4,51.8,110.6,51.7,110.6,51.7L110.6,51.7L110.6,51.7z M110.6,51.2c-0.2,0-0.4,0.1-0.6,0.2c-1.1,0.8-0.9,3-1.7,4.3
								c-1.5,2.7-3.7,5.9-4.1,9.7c-1.2,9.5-0.7,16.2-1.2,27.6l-8.8-0.6l-2.2,15.8c0.1,0,0.2,0,0.3,0c2.8,0,15.8-0.4,19.8-2.4
								c10-5-0.5-27.7-0.5-36c0-1.6-0.3-3,1.5-3c1,0,8.3-1.3,9.3-1.6c2.1-0.7,0.8-1.7,0.8-1.7c2-0.1,3.6-0.8,4-1.5
								c0.4-0.9-1-1.1-1-1.1s2.4-0.2,1.7-1.4c-0.3-0.5-1.2-0.7-2.3-0.7c-1.5,0-3.2,0.3-3.2,0.3c-1.8-0.5-3.3-0.7-4.6-0.7
								c-1.8,0-3,0.3-3,0.3c-1.3-0.4-2.4-0.5-3.2-0.5c-0.5,0-0.8,0-0.8,0C112.4,55.4,112.1,51.2,110.6,51.2L110.6,51.2z"/>
						</g>
					</g>
					<g>
						<path d="M119.4,63.2c-0.3-0.2-1.3-0.5-3.6-0.2l0.1,0.5c2.6-0.3,3.3,0.2,3.3,0.2l0.1,0.1l0.1,0c2.9-0.9,3.8-0.1,3.8-0.1
							l0.2-0.2l-0.2,0.2l0.2-0.2l0.2-0.2C123.4,63.2,122.5,62.3,119.4,63.2z"/>
					</g>
					<g>
						<path d="M122.5,60.6c-0.1,0-2.7-0.2-5.1,0.4l0.1,0.5c2.4-0.6,4.9-0.4,5-0.4l0,0c2-0.3,3.8-0.1,3.8-0.1l0.1-0.5
							C126.3,60.5,124.5,60.3,122.5,60.6z"/>
					</g>
					<g>
						<path d="M116.2,59.4l0.1,0.5c3.2-0.8,6.2-0.6,6.2-0.6l0-0.5C122.5,58.8,119.5,58.6,116.2,59.4z"/>
					</g>
				</g>
				<g>
					<path class="st2" d="M44.9,104c0,0,4,11.4,13.2,12.1c0,0-1.6-22.1-1.8-26.7C56.2,89.4,50.5,90.6,44.9,104z"/>
					<path class="st3" d="M56.3,89.2c-0.1,0-0.1-0.1-0.2-0.1c-0.2,0.1-5.9,1.3-11.5,14.7c0,0.1,0,0.1,0,0.2
						c0,0.1,4.2,11.6,13.4,12.2c0,0,0,0,0,0c0.1,0,0.1,0,0.2-0.1c0-0.1,0.1-0.1,0.1-0.2c0-0.2-1.6-22.2-1.8-26.7
						C56.4,89.4,56.4,89.3,56.3,89.2z M45.1,104c4.8-11.4,9.6-13.8,10.8-14.3c0.2,4.8,1.6,23.5,1.8,26.1
						C49.5,115.1,45.5,105.1,45.1,104z"/>
				</g>
				<g>
					<path class="st2" d="M73.1,85.4c-8.3,0-17.6,4.1-17.6,4.1S49,104.8,51.4,111c1.4,3.6,2.7,11.1,3.6,16.9h38.8
						c-1.4-2.9-2.5-5.5-2.5-6.9c0-3.3,1.2-6.9,1.9-10.9l7.6,0.7c1.6-8.6,0.2-19.3,0.2-19.3S81.4,85.4,73.1,85.4z"/>
				</g>
				<path class="st1" d="M93.1,110.2c0,0-6.9,6.1-5.8,13.4c0.2,1.6,0.6,3.1,1,4.4h5.4c-1.4-2.9-2.5-5.5-2.5-6.9
					C91.2,117.8,92.5,114.2,93.1,110.2z"/>
				<g>
					<path class="st1" d="M88.3,85.7c-6.3-2.8-8-13.3-8-13.3l-2.8,1.6c0,0-0.6,11.9,1.6,11.9c5.6,0,4.8,13.8,7.8,13.8
						s2.9-3.9,2.9-3.9C93.2,95.9,94.6,88.5,88.3,85.7z"/>
					<g>
						<path d="M88.4,85.5c-6.1-2.7-7.8-13-7.8-13.1l-0.1-0.3L77.3,74l0,0.1c0,0.4-0.5,10.1,1.2,11.8c0.2,0.2,0.4,0.3,0.7,0.3
							c3,0,4.1,4.4,5,8.3c0.7,3.1,1.3,5.5,2.8,5.5c0.8,0,1.5-0.3,2-0.8c1-1,1.1-2.5,1.1-3.1c1.3-0.1,2.3-1.3,2.7-3
							C93.4,90.5,92.2,87.2,88.4,85.5z M92.4,93c-0.3,1.6-1.3,2.6-2.5,2.6h-0.2v0.2c0,0,0,2-1,3c-0.4,0.4-1,0.7-1.7,0.7
							c-1.1,0-1.7-2.5-2.3-5.1c-0.9-3.9-2.1-8.7-5.5-8.7c-0.1,0-0.2-0.1-0.3-0.2c-1.2-1.3-1.2-8.5-1.1-11.3l2.4-1.4
							c0.4,1.9,2.3,10.6,8.1,13.1C91.8,87.5,92.9,90.6,92.4,93z"/>
					</g>
				</g>
				<g>
					<g>
						<g>
							<path class="st0" d="M72.1,91c-2.2,0-3.7-0.5-4.6-1.6c-1.1-1.3-0.8-2.9-0.8-3c0-0.1,1.1-3.4,1.1-10.3v-0.3l-0.3,0.1
								c0,0-0.2,0-0.5,0c-0.9,0-2.6-0.3-3.6-2.4c-0.9-2-0.3-3.5,1.4-4.3l0.2-0.1L65,68.8c0-0.1-3.6-6.7-1.2-10.2
								c1.2-1.8,4.6-3,8.3-3c3.7,0,6.5,1.2,7.6,3.2c0.3,0.7,0.5,1.4,0.7,2.2c0.3,1.1,0.5,2.2,1.4,3.1c1.7,1.7,2.3,5.6,1.3,8.8
								c-0.8,2.8-2.7,4.7-5.3,5.3l-0.2,0.1l0.1,0.2c0,0,0.7,2.6,0.8,7.3C78.2,86.3,75.8,91,72.1,91z"/>
							<path d="M72.1,55.9c3.6,0,6.3,1.1,7.4,3c0.3,0.6,0.5,1.3,0.7,2.1c0.3,1.1,0.6,2.3,1.4,3.2c1.6,1.6,2.2,5.4,1.3,8.5
								c-0.6,1.9-1.9,4.4-5.1,5.1L77.3,78l0.1,0.5c0,0,0.7,2.6,0.8,7.2c-0.4,0.7-2.7,5-6.2,5c-2.1,0-3.6-0.5-4.4-1.5
								c-0.9-1.1-0.8-2.5-0.7-2.7c0.1-0.4,1.1-3.8,1.1-10.4v-0.6l-0.6,0.1c0,0-0.2,0-0.4,0c-0.9,0-2.5-0.3-3.3-2.3
								c-0.6-1.3-0.8-3,1.3-3.9l0.5-0.2l-0.3-0.5c0-0.1-3.5-6.6-1.3-10C65.1,57,68.5,55.9,72.1,55.9L72.1,55.9z M72.1,55.4
								c-3.6,0-7.3,1.2-8.5,3.1c-2.5,3.7,1.2,10.5,1.2,10.5c-2,0.9-2.4,2.6-1.6,4.6c1,2.3,2.9,2.6,3.8,2.6c0.3,0,0.5,0,0.5,0
								c0,6.9-1.1,10.3-1.1,10.3s-0.9,4.9,5.6,4.9c4.2,0,6.7-5.4,6.7-5.4c-0.1-4.9-0.8-7.5-0.8-7.5c7-1.6,6.9-11.6,4-14.5
								c-1.3-1.3-1.1-3.5-2-5.2C78.7,56.3,75.4,55.4,72.1,55.4L72.1,55.4z"/>
						</g>
					</g>
					<g>
						<path d="M77.9,66.4c-0.4,0.1-0.8,0.4-1.1,1.1l0.4,0.2c0.2-0.5,0.5-0.8,0.8-0.8c0.3,0,0.5,0.2,0.5,0.2l0.4-0.3
							C78.9,66.9,78.5,66.4,77.9,66.4z"/>
					</g>
					<g>
						<path d="M76.2,72c0,0,3.5,1.7,4.3-0.8C80.8,69.9,80,68.4,76.2,72z"/>
					</g>
					<g>
						<path d="M63.9,71.1c-0.3,0.5-0.2,1.2,0.1,1.9l0.4-0.2c-0.3-0.6-0.3-1.1-0.1-1.5c0.3-0.6,1-0.7,1-0.7l-0.1-0.5
							C65.2,70.2,64.3,70.3,63.9,71.1z"/>
					</g>
					<g>
						<path d="M64.1,72.3l0.2,0.4c1.2-0.6,1.8,0.1,1.9,0.2l0.2-0.2l-0.2,0.2l0.2-0.2l0.2-0.2C66.5,72.5,65.6,71.6,64.1,72.3z"/>
					</g>
				</g>
				<g>
					<path d="M65,86.1c-0.3,0-0.5,0.1-0.8,0.3C64.8,86.2,65.2,86.1,65,86.1z"/>
					<path class="st1" d="M66.3,51.5c-8.8,2.7-8.5,8.9-8.5,8.9C52.1,63,54.5,70,55,74.8c0.5,5.7-0.7,7.9-7.6,10.2
						c-6.9,2.3-3.6,6-3.6,6c-3.5,4.8,3,8.8,3,8.8s3.6-6.5,7.3-9.4c2.5-2,8.1-3.4,10.1-4c0.2-0.2,0.5-0.3,0.8-0.3
						c0.2,0-0.1,0.1-0.8,0.3c-2.7,2-0.6,15.4,3.9,15.4c3.6,0,3.9-3.7,3.9-3.7s5.5-2.2,0.6-7.7c-6.1-6.9-3-15.1-5.1-14.2
						c-0.9,0.4-2.2-0.2-3.6-1.4c-2.2-1.9-1.3-5.8,1.3-5.8c5.6,0,0.3-9.9,0.3-9.9c9-4.5,13.5,2.6,17.5,2.1
						C83,52.3,74.3,49.1,66.3,51.5z"/>
					<g>
						<path d="M71.5,50.5c-1.8,0-3.5,0.3-5.2,0.8c-8.1,2.5-8.6,7.9-8.6,9c-4.7,2.2-3.9,7.6-3.2,11.9c0.2,0.9,0.3,1.8,0.4,2.7
							c0.5,5.4-0.5,7.7-7.4,10c-2.6,0.9-4.1,2-4.5,3.4c-0.3,1.3,0.3,2.4,0.6,2.8c-0.8,1.2-1.1,2.5-0.9,3.8c0.6,3,3.9,5.1,4,5.2
							l0.2,0.1l0.1-0.2c0-0.1,3.6-6.5,7.3-9.4c2.2-1.7,6.9-3.1,9.3-3.8c-1.2,2-0.9,6.9,0.4,10.5c1.1,3.1,2.6,4.7,4.3,4.7
							c3.3,0,4-3.1,4.1-3.8c0.5-0.2,2.1-1.1,2.6-2.9c0.4-1.5-0.3-3.3-2-5.2c-3.8-4.2-4-9-4.1-11.8c-0.1-1.6-0.1-2.6-0.9-2.6
							c-0.1,0-0.2,0-0.4,0.1c-0.8,0.3-1.9-0.1-3.3-1.4c-1.2-1.1-1.3-2.7-0.9-3.8c0.4-1,1.1-1.5,2.1-1.5c1.1,0,1.9-0.4,2.4-1.2
							c1.4-2.4-1.2-7.7-1.8-8.9c1.9-0.9,3.7-1.4,5.5-1.4c2.8,0,5,1.1,7,2.1c1.7,0.9,3.2,1.6,4.7,1.4l0.2,0V61
							C83.2,53.7,77.3,50.5,71.5,50.5z M78.6,59.4c-2-1-4.3-2.2-7.2-2.2c-1.9,0-3.9,0.5-5.9,1.5l-0.2,0.1l0.1,0.2
							c0,0.1,3.3,6.2,1.9,8.6c-0.4,0.6-1,0.9-2,0.9c-1.1,0-2.1,0.7-2.5,1.8c-0.6,1.5-0.1,3.3,1.1,4.4c1.6,1.4,2.9,1.9,3.9,1.5
							c0.1,0,0.2-0.1,0.2-0.1c0.3,0,0.3,1.1,0.4,2.1c0.1,2.9,0.4,7.7,4.3,12.1c1.6,1.8,2.2,3.4,1.9,4.8C74,97,72,97.8,72,97.8
							l-0.1,0.1V98c0,0.1-0.4,3.5-3.7,3.5c-1.5,0-2.8-1.6-3.8-4.4c-1.4-4.2-1.4-9.3,0-10.5c0.9-0.2,1-0.3,1-0.5l-0.1-0.2H65
							c-0.3,0-0.6,0.1-0.9,0.3l-0.2,0.1c-2.2,0.6-7.5,2-9.9,4c-3.4,2.6-6.6,8.1-7.3,9.3c-0.7-0.5-3.1-2.3-3.6-4.8
							c-0.2-1.2,0.1-2.4,0.9-3.6l0.1-0.2L44,90.8c0,0-1-1.1-0.7-2.5c0.3-1.3,1.7-2.3,4.2-3.1c7.2-2.4,8.3-4.8,7.8-10.5
							C55.1,73.9,55,73,54.9,72c-0.7-4.4-1.5-9.4,3.1-11.4l0.2-0.1l0-0.2c0-0.1-0.3-6.1,8.3-8.7c1.7-0.5,3.4-0.8,5.1-0.8
							c5.2,0,11.2,2.6,11.3,9.9C81.5,60.9,80.2,60.2,78.6,59.4z"/>
					</g>
				</g>
				<g>
					<g>
						<path d="M69,64.4l0.4,0.2c0.6-1.2,1.5-2.5,3.8-2.5v-0.5C70.7,61.6,69.6,63.2,69,64.4z"/>
					</g>
					<g>
						<path d="M72,65.5c-0.4,0.1-0.7,0.6-0.5,1c0.1,0.4,0.6,0.7,1,0.5c0.4-0.1,0.7-0.6,0.5-1C72.9,65.6,72.4,65.4,72,65.5z"/>
					</g>
					<g>
						<path d="M77,60.7l0.3,0.4c1.5-0.9,2-0.6,3.2,0.1l0.2,0.1l0.3-0.4l-0.2-0.1C79.5,60,78.8,59.6,77,60.7z"/>
					</g>
					<g>
						<path d="M79.1,63.2c-0.4,0.1-0.7,0.6-0.5,1s0.6,0.7,1,0.5c0.4-0.1,0.7-0.6,0.5-1S79.5,63.1,79.1,63.2z"/>
					</g>
				</g>
				<g>
					<path class="st4" d="M52.9,117.5c-1.9-7.5-0.3-17.4-0.3-17.5l0.5,0.1c0,0.1-1.6,9.9,0.3,17.3L52.9,117.5z"/>
				</g>
			</g>
		</g>
		<g>
			<path class="st5" d="M38.6,47.4c0,8.4-6.8,15.2-15.2,15.2S8.2,55.8,8.2,47.4S15,32.2,23.4,32.2S38.6,39,38.6,47.4z"/>
			<polygon class="st5" points="26.4,30.6 20.4,30.6 23.4,24.6 23.4,24.6 			"/>
			<polygon class="st5" points="26.4,30.6 20.4,30.6 23.4,24.6 23.4,24.6 			"/>
			<polygon class="st5" points="20.4,64.1 26.4,64.1 23.4,70.2 23.4,70.2 			"/>
			<polygon class="st6" points="40.2,50.4 40.2,44.4 46.2,47.4 46.2,47.4 			"/>
			<polygon class="st5" points="6.7,44.4 6.7,50.4 0.6,47.4 0.6,47.4 			"/>
			<polygon class="st5" points="37.4,37.7 33.1,33.4 39.5,31.3 39.5,31.3 			"/>
			<polygon class="st5" points="9.4,57.1 13.7,61.3 7.3,63.5 7.3,63.5 			"/>
			<polygon class="st5" points="33.1,61.3 37.4,57.1 39.5,63.5 39.5,63.5 			"/>
			<polygon class="st5" points="13.7,33.4 9.4,37.7 7.3,31.3 7.3,31.3 			"/>
		</g>
		<path class="st7" d="M133.7,39.8c0,7.8-5.3,14.1-11.9,14.1S110,47.6,110,39.8s11.9-23.8,11.9-23.8S133.7,32,133.7,39.8z"/>
		<polygon class="st1" points="16.5,49.7 26.9,34.9 25,45 28.9,45.5 19.5,59.3 21.3,49.3 		"/>
		<polygon class="st1" points="115.1,40.3 125.5,25.5 123.6,35.5 127.5,36.1 118.2,49.8 119.9,39.9 		"/>
		<g>
			<g>
				<g>
					<path class="st0" d="M92.1,51.6c-2,0-3.6-1.6-3.6-3.6s1.6-3.6,3.6-3.6s3.6,1.6,3.6,3.6S94.1,51.6,92.1,51.6z"/>
					<path d="M92.1,44.6c1.9,0,3.4,1.5,3.4,3.4s-1.5,3.4-3.4,3.4s-3.4-1.5-3.4-3.4S90.2,44.6,92.1,44.6L92.1,44.6z M92.1,44.1
						c-2.1,0-3.9,1.7-3.9,3.9s1.7,3.9,3.9,3.9S96,50.1,96,48S94.2,44.1,92.1,44.1L92.1,44.1z"/>
				</g>
			</g>
			<g>
				<g>
					<path class="st0" d="M90.3,61.9c-1.4,0-2.5-1.1-2.5-2.5s1.1-2.5,2.5-2.5s2.5,1.1,2.5,2.5C92.8,60.7,91.7,61.9,90.3,61.9z"/>
					<path d="M90.3,57.1c1.2,0,2.3,1,2.3,2.3s-1,2.3-2.3,2.3s-2.3-1-2.3-2.3C88,58.1,89,57.1,90.3,57.1L90.3,57.1z M90.3,56.6
						c-1.5,0-2.8,1.2-2.8,2.8s1.2,2.8,2.8,2.8s2.8-1.2,2.8-2.8C93,57.8,91.8,56.6,90.3,56.6L90.3,56.6z"/>
				</g>
			</g>
			<g>
				<g>
					<path class="st0" d="M85,40.3c-2.7,0-5.3-1.2-7-3.3l-0.1-0.2l-0.2,0.1c-1.9,0.9-3.9,1.4-6,1.4c-3.1,0-6.1-1-8.6-3l-0.2-0.1
						l-0.2,0.1c-1.4,1.2-3.2,1.9-5,1.9c-0.3,0-0.7,0-1-0.1c-3.4-0.5-6.1-3.2-6.5-6.6c-0.2-2.2,0.4-4.3,1.9-5.9
						c1.4-1.6,3.5-2.5,5.6-2.5H58l0.1-0.2c0.1-0.6,0.3-1.2,0.5-1.8l0-0.1l-0.1-0.1c-1.4-1.9-2.1-4.2-1.9-6.6c0.4-4.5,4-8.2,8.5-8.6
						c0.3,0,0.7-0.1,1-0.1c4.2,0,7.8,2.7,9.1,6.6l0,0.1l0.1,0c0.3,0.1,0.7,0.2,1,0.2c0.2,0,0.3,0,0.5,0c2.3,0,4.2-1.8,4.3-4.1
						c0-2,0.9-3.7,2.4-4.5c0.9-0.5,1.8-0.7,2.8-0.7c2.7,0,5,2.1,5.2,4.8l0,0.2l0.2,0c5.8,0.6,10.2,5.5,10.2,11.3
						c0,4.9-3.2,9.3-7.9,10.8L94,29.5l0,0.2c0.1,0.5,0.1,1,0.1,1.4C94.1,36.2,90,40.3,85,40.3z"/>
					<path d="M86.5,2.4c2.6,0,4.8,2,4.9,4.6l0,0.4l0.4,0c5.7,0.6,10,5.4,10,11.1c0,4.8-3.1,9.1-7.7,10.6l-0.4,0.1l0.1,0.4
						c0.1,0.5,0.1,1,0.1,1.4c0,4.9-4,8.9-8.9,8.9c-2.7,0-5.1-1.2-6.8-3.2l-0.2-0.3l-0.3,0.2c-1.9,0.9-3.8,1.3-5.9,1.3
						c-3.1,0-6-1-8.4-3l-0.3-0.3l-0.3,0.3c-1.3,1.2-3,1.8-4.8,1.8c-0.3,0-0.7,0-1-0.1c-3.3-0.4-5.9-3.2-6.3-6.4
						c-0.2-2.1,0.4-4.1,1.8-5.7c1.4-1.5,3.4-2.4,5.5-2.4l0,0h0.1h0l0.4,0l0.1-0.4c0.1-0.6,0.3-1.1,0.5-1.8l0.1-0.2l-0.2-0.2
						c-1.4-1.8-2-4.1-1.9-6.4c0.4-4.3,3.9-8,8.2-8.4c0.3,0,0.7-0.1,1-0.1c4,0,7.6,2.6,8.8,6.4l0.1,0.2l0.3,0.1
						c0.3,0.1,0.7,0.2,1.1,0.2c0.2,0,0.4,0,0.6,0c2.5,0,4.5-1.9,4.5-4.3V7.3c0-1.9,0.9-3.5,2.3-4.2C84.7,2.7,85.6,2.4,86.5,2.4
						L86.5,2.4z M86.5,1.9c-0.9,0-1.9,0.2-2.9,0.7C81.9,3.6,81,5.4,81,7.4c0,0,0,0,0,0.1c0,2.2-1.9,3.8-4,3.8c-0.2,0-0.3,0-0.5,0
						c-0.3,0-0.7-0.1-1-0.2c-1.3-3.9-4.9-6.8-9.3-6.8c-0.3,0-0.7,0-1.1,0.1c-4.6,0.5-8.3,4.3-8.7,8.9c-0.2,2.6,0.5,4.9,2,6.8
						c-0.2,0.6-0.4,1.2-0.5,1.9c0,0-0.1,0-0.1,0c-4.6,0-8.3,4-7.8,8.7c0.4,3.5,3.2,6.4,6.7,6.9c0.4,0,0.7,0.1,1.1,0.1
						c2,0,3.8-0.7,5.1-1.9c2.4,1.9,5.4,3.1,8.7,3.1c2.2,0,4.2-0.5,6.1-1.4c1.7,2.1,4.3,3.4,7.2,3.4c5.2,0,9.4-4.2,9.4-9.4
						c0-0.5-0.1-1-0.1-1.4c4.7-1.5,8.1-5.9,8.1-11.1c0-6-4.6-11-10.4-11.6C91.7,4.2,89.3,1.9,86.5,1.9L86.5,1.9z"/>
				</g>
			</g>
		</g>
		<g>
			<g>
				<path class="st8" d="M75,13.6c-5.9,1.5-9.5,7.5-8.1,13.4c1.4,5.9,7.4,9.5,13.3,7.9s9.5-7.5,8.1-13.4
					C86.8,15.6,80.9,12.1,75,13.6z"/>
			</g>
			<g>
				<g>
					<path class="st1" d="M81,14.1c-0.4-0.2-0.4-0.2-1,0.1C80.6,14.5,80.6,14.5,81,14.1z M78.9,24.5c-0.6,0.1-1.1,0.1-1.5,0.1
						c0,0,0,0.1-0.1,0.2c0.1,0.1,0.2,0.2,0.3,0.3C77.9,24.7,78.5,24.9,78.9,24.5z M79.1,13.9c0.1-0.1,0.1-0.1,0.1-0.3
						c-0.2-0.1-0.4-0.1-0.5-0.3c-0.1-0.1-0.1-0.1-0.2-0.1c-1.2-0.1-2.3,0-3.5,0.3c0,0-0.1,0-0.1,0c0.1,0.1,0.2,0.1,0.4,0.1
						c0.3-0.1,0.6,0,0.8,0.2c0.2,0.2,0.5,0.2,0.7,0.4c0,0,0.2,0,0.2,0c-0.1,0.1-0.1,0.2-0.2,0.4c0.3,0.1,0.7,0.1,0.8,0.3
						c0.4,0.5,0.8,0.6,1.5,0.6c-0.2-0.2-0.4-0.4-0.3-0.5c0-0.2,0.1-0.4-0.2-0.5c0.1-0.1,0.2-0.2,0.3-0.2c0-0.1-0.1-0.2-0.1-0.4
						C78.9,14,79,14,79.1,13.9z M78.2,18.2c0,0.1-0.1,0.2-0.1,0.3c0.3,0,0.6,0,0.9,0c0-0.1-0.1-0.3-0.1-0.3
						c-0.3-0.1-0.5-0.2-0.7-0.3C78.3,18,78.3,18.1,78.2,18.2z M85.5,17c-0.1,0.1-0.2,0.3-0.3,0.4c0.2,0.4,0.4,0.7,0.6,1
						c0.2,0,0.3,0.1,0.6,0.1c-0.1-0.3,0.3-0.6-0.2-0.9c0-0.2-0.1-0.4-0.1-0.5c-0.6-0.7-1.3-1.4-2-1.9c-0.2-0.1-0.4,0-0.7,0.2
						c0.1,0.2,0.3,0.3,0.3,0.4c0.4,0,0.7,0,1.1,0.1c0,0.2-0.1,0.3-0.1,0.6C84.9,16.6,85.2,16.8,85.5,17z M77,24.7
						c-0.1-0.1-0.1-0.2-0.2-0.2c-0.2,0-0.4,0.1-0.6,0c-0.5-0.3-0.8,0-1.2,0.1c0.2,0.5,0.4,0.1,0.5,0C76,24.6,76.4,25.2,77,24.7z
						 M68.6,19.6c0,0.2,0,0.5,0,0.7c0.1,0.6,0.1,0.6,0.1,1c0,0.1,0,0.2,0,0.2c-0.1,0.6-0.1,1.1,0.3,1.6c0.2,0.3,0.5,0.3,0.7,0.6
						c0,0.2,0.1,0.3,0.1,0.5c0,0.2,0.4,0.2,0.2,0.4c0.2,0.1,0.3,0.2,0.5,0.2c0-0.1,0-0.2,0-0.5c0.2,0.1,0.2,0.2,0.3,0.2
						c0.2,0.2,0.3,0.4,0.5,0.6c0.2,0.2,0.5,0.3,0.4,0.7c0.5,0.3,1.1,0.6,1.7,0.5c0.3,0,0.6-0.2,0.9,0.1c0.2,0.1,0.4,0.2,0.6,0.2
						c0,0,0.1-0.1,0.2-0.2c1,0.9,1,0.9,2.1,0.5c0,0,0-0.1,0-0.1c-0.2,0-0.3,0-0.5,0c-0.5,0-0.6-0.1-0.7-0.7c0-0.2-0.2-0.3-0.2-0.5
						c-0.3,0.1-0.6,0.1-0.9,0.2c0-0.4,0.1-0.7,0.1-1.1c-0.2,0-0.4,0.1-0.5,0.1c-0.1,0.2,0,0.5-0.4,0.6c-0.4,0.1-0.6-0.1-0.8-0.3
						c-0.1-0.5-0.2-0.9-0.3-1.3c0.5-0.6,0.5-0.6,1.2-0.6c0-0.1,0-0.2,0-0.4c0.4,0,0.7,0,1,0c0.3,0.3,0.5,0.6,0.8,0.9
						c0.1-0.5-0.3-0.9-0.4-1.3c0.2-0.2,0.4-0.5,0.7-0.8c0.2-0.2,0.2-0.3-0.1-0.7c0.1-0.1,0.3-0.2,0.3-0.3c0.1-0.4,0.3-0.5,0.6-0.8
						c0-0.1,0-0.3-0.1-0.4c0.2-0.1,0.4-0.2,0.6-0.3c0.1,0.1,0.1,0.2,0.1,0.3c0.3-0.3,0.6-0.5,0.8-0.8c0,0-0.1-0.1-0.1-0.1
						c-0.1,0.1-0.3,0.2-0.4,0.3c-0.1-0.1-0.2-0.2-0.4-0.3c0.2-0.3,0.5-0.5,0.6-0.7c0.1-0.3,0.5-0.3,0.6-0.6
						c-0.3-0.3-0.5-0.4-0.8-0.4c-0.2,0-0.4-0.1-0.6-0.3c-0.1-0.1-0.2-0.2-0.3-0.3c-0.1,0-0.2,0-0.2,0c0,0.2-0.1,0.3-0.1,0.5
						c-0.6-0.2-0.8-1.1-1.5-0.5c0.1,0.3-0.1,0.7,0.2,1c0.1,0,0.1,0.2,0,0.2c-0.3,0.3-0.1,0.7-0.1,1c-0.6,0.1-0.5-0.4-0.6-0.7
						c-0.3,0-0.5,0-0.7,0c-0.2,0-0.4-0.1-0.6-0.2c-0.2-0.1-0.3-0.3-0.2-0.5c0.1-0.3,0.4-0.5,0.5-0.9c0.1-0.2,0.4,0,0.6,0
						c0.2,0,0.3-0.1,0.6-0.2c-0.3-0.1-0.5-0.2-0.6-0.2c0.1-0.2,0.2-0.4,0.2-0.5c0.2-0.6,0.3-0.6,0.8-0.4c0.1,0,0.2,0.1,0.2,0.1
						c-0.2,0.2-0.3,0.5-0.5,0.7c0.6-0.1,0.6-0.1,1.2,0.3c0.1-0.1,0.3-0.3,0.4-0.4c-0.1-0.1-0.2-0.2-0.2-0.2c0.1-0.2,0.2-0.4,0.2-0.5
						c-0.7-0.3-1.3-0.6-1.8-0.8c-0.3,0.1-0.6,0.1-0.9,0.2c0,0,0-0.1,0-0.1c0.3-0.1,0.5-0.1,0.8-0.2c0.1-0.1,0.1-0.2,0.1-0.4
						c-0.2,0.1-0.3,0.1-0.5,0.1c0,0,0,0.1,0.1,0.1c-0.2,0-0.3,0-0.4,0c-0.2,0.1-0.4,0.2-0.7,0.3c-0.1,0.2-0.2,0.4-0.3,0.5
						c0.1,0.1,0.2,0.3,0.4,0.6c-0.3-0.1-0.5-0.1-0.6-0.2c0-0.2,0.1-0.3,0.1-0.4c-0.1,0-0.3-0.1-0.4-0.1c-0.3,0.2-0.6,0.4-0.9,0.6
						c0.1,0,0.2,0,0.2,0.1c-0.1,0.1-0.1,0.2-0.2,0.3c-0.1,0-0.2-0.1-0.3-0.1c-1,0.8-1.8,1.7-2.5,2.8c0.1,0.1,0.1,0.3,0.1,0.5
						C68.4,19.2,68.5,19.4,68.6,19.6z M72.9,14.8c0.2-0.1,0.3-0.1,0.5-0.1c0.1,0.2,0.3,0.4,0.4,0.7c-0.1,0-0.1,0.1-0.1,0.1
						C73.4,15.3,73.2,15.1,72.9,14.8z M77.3,28.1c-0.1,0.2-0.3,0.5-0.5,0.8c0.3,0.2,0,0.5,0.2,0.7c0.3,0.2,0.6,0.4,0.8,0.6
						c0.2,0.2,0.4,0.5,0.6,0.6c0.3,0.2,0.6,0.2,0.8,0.3c0.3,1,0.4,1.8,0.2,2.7c0.1,0.1,0.2,0.2,0.2,0.3c0,0.3,0,0.5,0,0.8
						c0,0,0,0.1,0,0.1c0.2,0,0.4-0.1,0.6-0.1c0,0,0.1,0,0.1,0c0.1-0.5,0.3-1,0.8-1.4c0.2-0.1,0.3-0.2,0.3-0.4c0-0.1,0.1-0.2,0.1-0.2
						c0.6-0.3,0.9-0.8,1-1.4c0.1-0.3,0.3-0.5,0.6-0.6c0.5-0.1,0.6-0.5,0.8-1c0.2-0.7,0.3-1.3,0.8-1.9c0,0,0,0,0-0.1
						c0-0.1,0-0.3,0-0.4c-0.3,0.1-0.6-0.3-0.9-0.2c-0.3,0.1-0.6,0-0.9,0c-0.1,0-0.3,0.1-0.4,0.1c-0.2-0.3-0.4-0.6-0.7-1
						c-0.3,0-0.7,0-1,0c-0.4-0.2-0.8-0.4-1.3-0.5c-0.2,0.1-0.2,0.3-0.5,0.2c-0.3-0.1-0.7-0.2-0.9,0.1C78,26.1,78,26,77.9,25.9
						c-0.2,0.2-0.2,0.5-0.5,0.5c-0.3,0,0,0.6-0.4,0.6C77.1,27.4,77.2,27.7,77.3,28.1z M86.2,22c0.2,0,0.2,0,0.4,0
						c0,0.3,0.2,0.6,0.1,0.9c-0.1,0.1,0,0.4,0.1,0.5c0.5,0.3,0.5,1,1.1,1.2c0.2-0.2,0.5-0.4,0.8-0.6c0-0.8-0.1-1.7-0.3-2.5
						c-0.3-1.3-0.8-2.4-1.5-3.4c0,0,0,0-0.1,0c0,0.1-0.1,0.4-0.2,0.5c-0.3,0.3-0.3,0.6-0.2,1c0,0.2,0.1,0.4,0.1,0.5
						C86.2,20.7,86.4,21.3,86.2,22z"/>
				</g>
			</g>
		</g>
	</g>
	<g>
		<rect x="15.7" y="127" class="st1" width="115.4" height="1.2"/>
	</g>
</g>
</svg>
