<?xml version="1.0" encoding="utf-8"?>
<!-- Generator: Adobe Illustrator 27.7.0, SVG Export Plug-In . SVG Version: 6.00 Build 0)  -->
<svg version="1.1" id="Capa_1" xmlns="http://www.w3.org/2000/svg" xmlns:xlink="http://www.w3.org/1999/xlink" x="0px" y="0px"
	 viewBox="0 0 130 129" style="enable-background:new 0 0 130 129;" xml:space="preserve">
<style type="text/css">
	.st0{fill:#FFFFFF;}
	.st1{fill:#11111F;}
	.st2{fill:#11111F;}
	.st3{fill:#84BC26;}
	.st4{fill:#3B9D81;}
	.st5{fill:#EFAD1F;}
	.st6{fill:#11111F;}
	.st7{fill:#11111F;}
</style>
<g>
	<g>
		<g>
			<g>
				<path class="st0" d="M84.1,62.8c-0.2-1.6,0.4-2,1.2-3c1.8-2.1,6.9-4.8,7.5-4.9c-0.2-2.1,0.9-5.1,0.9-5.1c-0.2-3,0.1-4.7,1.1-4.7
					c1.4,0,1.4,3.3,1.3,4.4c-0.1,0.8-0.5,4.8-0.5,4.8s1.1-4,2.2-4.7c0,0,0.3-2.9,1.6-5.1c1-1.7,3.8-2.5,2.1,1.6
					c0.4-1.2,1.7-1.2,2-0.4c0.5,1.4,0.5,4.2-0.1,5c1.8-2.5,3.2-1.7,2.3,1.5c-0.5,1.8-0.7,5.5-2.7,6.8c-2.3,1.4-5.2,7.3-9.2,6.6
					c-2.6-0.4-0.8,2.6-1.7,6.9c-0.6,2.7-3.3,4.4-6,3.6c-2.8-0.8-3.5-3.1-3.5-6.4C82.6,67.2,84.2,64.2,84.1,62.8z"/>
				<path class="st1" d="M83.2,65.6c-0.4,1.3-0.9,2.8-0.9,4.1c0,2.9,0.4,5.8,3.7,6.7c0.4,0.1,0.9,0.2,1.4,0.2c2.4,0,4.4-1.7,4.9-4
					c0.4-1.7,0.3-3.2,0.3-4.4c0-1-0.1-1.8,0.2-2.2c0.1-0.1,0.2-0.2,0.5-0.2c0.1,0,0.2,0,0.4,0c0.2,0,0.5,0.1,0.7,0.1
					c2.5,0,4.7-2.4,6.4-4.3c0.8-1,1.7-1.9,2.3-2.3c1.6-1,2.1-3.4,2.5-5.4c0.1-0.6,0.2-1.1,0.3-1.5c0.4-1.4,0.4-2.4,0-2.9
					c-0.4-0.5-1.2-0.4-1.9,0.3c0.2-1.3,0.1-3-0.3-4c-0.2-0.5-0.6-0.7-1.1-0.7c-0.2,0-0.4,0-0.5,0.1c0.2-0.8,0.2-1.5-0.1-1.8
					c-0.2-0.2-0.4-0.4-0.7-0.4c-0.7,0-1.6,0.7-2.1,1.5c-1.2,2-1.6,4.5-1.6,5.1c-0.5,0.4-1,1.5-1.4,2.5c0.1-1,0.2-2.1,0.3-2.5
					c0.1-0.9,0.1-3.3-0.7-4.3c-0.4-0.5-1.2-0.5-1.6-0.1c-0.6,0.6-0.8,2.1-0.6,4.6c-0.2,0.4-1.1,3-1,5c-1.2,0.5-5.7,2.9-7.4,4.9
					c-0.1,0.1-0.2,0.2-0.3,0.4c-0.7,0.8-1.1,1.3-1,2.8C83.9,63.5,83.6,64.5,83.2,65.6z M82.8,69.7c0-1.2,0.5-2.7,0.9-4
					c0.4-1.2,0.7-2.2,0.6-2.9c-0.1-1.3,0.2-1.7,0.9-2.4c0.1-0.1,0.2-0.2,0.3-0.4c1.7-2,6.8-4.7,7.4-4.8c0.1,0,0.2-0.1,0.2-0.3
					c-0.2-2,0.9-5,0.9-5s0-0.1,0-0.1c-0.2-2.4,0-3.8,0.5-4.3c0.2-0.3,0.6-0.2,0.9,0.1c0.7,0.8,0.7,3,0.6,3.9
					c-0.1,0.8-0.5,4.8-0.5,4.8c0,0.1,0.1,0.2,0.2,0.3c0.1,0,0.2,0,0.3-0.2c0.3-1.1,1.2-4.1,2.1-4.6c0.1,0,0.1-0.1,0.1-0.2
					c0,0,0.3-2.9,1.6-5c0.4-0.7,1.2-1.3,1.7-1.3c0.2,0,0.3,0.1,0.3,0.2c0.1,0.2,0.3,0.7-0.3,2.3c0,0.1-0.1,0.2-0.1,0.3
					c0,0.1,0,0.3,0.2,0.3s0.3,0,0.3-0.1l0.1-0.2c0.2-0.3,0.5-0.5,0.8-0.5c0.2,0,0.5,0.1,0.6,0.4c0.5,1.3,0.4,4,0,4.8
					c-0.1,0.1,0,0.3,0.1,0.3c0.1,0.1,0.3,0,0.3-0.1c0.9-1.3,1.5-1.4,1.6-1.4c0.1,0,0.2,0,0.3,0.2c0.2,0.3,0.3,1.1-0.1,2.5
					c-0.1,0.4-0.2,1-0.3,1.5c-0.4,1.8-0.8,4.1-2.3,5c-0.8,0.5-1.5,1.4-2.5,2.4c-1.7,2-3.7,4.2-6,4.2c-0.2,0-0.4,0-0.6-0.1
					c-0.2,0-0.3-0.1-0.5-0.1c-0.4,0-0.7,0.1-0.9,0.3c-0.4,0.5-0.4,1.3-0.4,2.5c0,1.2,0.1,2.6-0.3,4.3c-0.5,2.1-2.3,3.6-4.5,3.6
					c-0.4,0-0.8-0.1-1.2-0.2C83.4,75.1,82.8,72.8,82.8,69.7z"/>
			</g>
			<g>
				<path class="st0" d="M103,53.8c0,0-0.6,0.3-1,0.9l0.9-2.1C102.8,52.9,102.8,53.3,103,53.8z"/>
				<path class="st0" d="M101.9,54.7l-0.6,1.4C101.5,55.5,101.7,55,101.9,54.7z"/>
				<path class="st0" d="M102.8,52.6c0.1-1.1,0.8-1.8,0.8-1.8L102.8,52.6z"/>
				<path class="st1" d="M102.7,53.7c-0.4-1.8,0.7-3,0.8-3.1l0.3,0.3c0,0-1.1,1.2-0.6,2.8c0,0.1,0,0.2-0.1,0.3
					c-0.1,0-1.2,0.6-1.5,2.2l-0.5-0.1C101.4,54.6,102.3,53.9,102.7,53.7z"/>
			</g>
			<g>
				<path class="st0" d="M100.3,51.3c0,0-0.5,0.8-0.9,2l1.4-4.5C100.5,49.7,100.3,50.6,100.3,51.3z"/>
				<path class="st0" d="M99.4,53.3L98.9,55C99,54.4,99.2,53.8,99.4,53.3z"/>
				<path class="st0" d="M100.8,48.8c0.4-1.4,0.8-2.7,0.8-2.7L100.8,48.8z"/>
				<path class="st2" d="M101.3,46l0.5,0.2c0,0-1.2,3.3-1.2,5.1c0,0,0,0.1,0,0.1c0,0-1,1.7-1.4,3.6l-0.5-0.1
					c0.4-1.8,1.3-3.4,1.5-3.7C100.1,49.4,101.3,46.2,101.3,46z"/>
			</g>
			<g>
				<path class="st0" d="M102.1,56.7l-6.2-2C99.5,54.5,102.1,56.7,102.1,56.7z"/>
				<path class="st2" d="M102.3,56.5l-0.3,0.4c0,0-2.6-2.1-6.1-1.9l0-0.5C99.5,54.2,102.2,56.4,102.3,56.5z"/>
			</g>
			<path class="st0" d="M87.4,50.7c0.2-0.5,1.5-1.4,2,0.5c0.5,1.8-0.8,4-0.8,4.3c-0.6,2.9,0.7,4.1,0.2,6.4c-0.3,1.6-3.4,3.7-3.4,3.7
				c-1-1.1-1.7-3.5-1.8-5.4c-0.1-2.3,1.2-3.7,2.3-5.8C86.7,53.2,87.1,51.3,87.4,50.7z"/>
			<g>
				<path class="st0" d="M87.4,50.7c0.3-1.3,1.5-1.4,2,0.5c0.5,1.8-0.8,4-0.8,4.3c-0.2,1.2-0.2,2,0,2.8l-4,6c-0.5-1.2-0.9-2.7-0.9-4
					c-0.1-2.3,1.2-3.7,2.3-5.8C86.7,53.2,87.3,51.3,87.4,50.7z"/>
				<path class="st1" d="M85.8,54.3c0.7-1.2,1.3-3.1,1.4-3.7c0.2-0.7,0.6-1.1,1.1-1.1c0,0,0,0,0,0c0.6,0,1.1,0.6,1.4,1.6
					c0.4,1.5-0.3,3.2-0.7,4.1c-0.1,0.2-0.2,0.3-0.2,0.4c-0.2,1.2-0.1,2,0,2.7l-0.5,0.1c-0.1-0.7-0.2-1.6,0-2.9
					c0-0.1,0.1-0.3,0.2-0.5c0.3-0.8,1-2.3,0.6-3.7C89,50.3,88.5,50,88.3,50c-0.3,0-0.5,0.3-0.6,0.7c-0.1,0.6-0.8,2.6-1.5,3.8
					c-0.2,0.5-0.5,0.9-0.8,1.3c-0.9,1.5-1.6,2.7-1.5,4.4c0.1,1.3,0.4,2.8,0.9,3.9l-0.4,0.2c-0.5-1.2-0.9-2.7-0.9-4.1
					c-0.1-1.8,0.7-3.2,1.6-4.7C85.3,55.2,85.5,54.8,85.8,54.3z"/>
			</g>
		</g>
		<g>
			<g>
				<path class="st3" d="M59.8,71.4c7,0.8,13.7,4.3,20,10.8c0,0-1.1-11.6,2.2-14.3c0.3-0.2,0.6-0.4,1-0.6c2.8,1.4,5.9,2.1,9.2,2.6
					c1.3,1.2,2.4,2.6,3,4.1c3.1,7.4,1.6,27.9-7,31.5c-9.3,3.9-20.6-5.3-27.5-10.3C51.5,88.6,46.8,69.9,59.8,71.4z"/>
				<path class="st1" d="M52,75.3c-1.8,5.7,2.4,15.6,8.6,20.1c0.6,0.4,1.2,0.9,1.9,1.3c5.8,4.2,13.6,9.9,21,9.9
					c1.7,0,3.4-0.3,4.9-0.9c8.7-3.6,10.4-24.1,7.1-31.8c-0.6-1.5-1.7-3-3.1-4.2c0,0-0.1-0.1-0.1-0.1c-3.9-0.6-6.7-1.4-9.1-2.6
					c-0.1,0-0.2,0-0.2,0c-0.4,0.2-0.7,0.4-1.1,0.6c-3,2.4-2.6,11.3-2.4,13.9c-6.1-6.1-12.8-9.6-19.7-10.4c-0.5-0.1-1-0.1-1.5-0.1
					C54.3,71.1,52.6,73.4,52,75.3z M52.5,75.5c0.9-2.9,3.5-4.3,7.3-3.8c7,0.8,13.7,4.4,19.9,10.7c0.1,0.1,0.2,0.1,0.3,0.1
					c0.1,0,0.2-0.1,0.1-0.2c0-0.1-1.1-11.5,2.1-14.1c0.2-0.2,0.5-0.4,0.8-0.5c2.4,1.2,5.2,2,9.1,2.6c1.3,1.2,2.3,2.6,2.9,4
					c3.2,7.6,1.6,27.7-6.9,31.2c-1.4,0.6-3,0.9-4.7,0.9c-7.2,0-15-5.7-20.7-9.8c-0.7-0.5-1.3-0.9-1.9-1.4
					C54.9,90.7,50.7,81,52.5,75.5z"/>
			</g>
		</g>
		<g>
			<path class="st3" d="M25,70.9c0.9-1.4-1.3-9.5,6.3-13c12.2-5.5,21.3,0.5,25.4,5.3c0.8,1,1.2,5.2,1.8,6.2c1.1,2.1-1.5,2.4-0.5,4.7
				c2.5,5.8,8.3,16.4,9.1,21.2c1.2,6.4,1.1,9.1,1.1,14.9c0,2.7-0.3,10,0.5,15.4H14c0,0.3,2-26.4,4.4-42.9C19.6,75,23.1,74,25,70.9z"
				/>
			<path class="st1" d="M13.9,124.4c-0.1,0.7-0.1,1.1-0.1,1.2s0,0.1,0,0.2c0.1,0.1,0.1,0.1,0.2,0.1c0,0,0,0,0,0l0,0h54.7
				c0.1,0,0.1,0,0.2-0.1c0.1-0.1,0.1-0.1,0.1-0.2c-0.7-4.3-0.6-10-0.5-13.4c0-0.8,0-1.4,0-1.9v-0.7c0-5.4,0-8.1-1.1-14.3
				c-0.6-3.4-3.6-9.5-6.2-14.9c-1.1-2.3-2.2-4.6-3-6.3c-0.4-1-0.1-1.6,0.3-2.2c0.4-0.6,0.8-1.3,0.2-2.5c-0.2-0.4-0.4-1.4-0.6-2.4
				c-0.3-1.6-0.7-3.2-1.2-3.8c-1.9-2.3-7.4-7.6-16-7.6c-3.2,0-6.5,0.8-9.8,2.2c-5.9,2.7-6.1,7.9-6.2,11.1c0,0.9-0.1,1.7-0.2,2
				c-0.5,0.9-1.2,1.6-1.9,2.4c-1.8,1.9-3.8,4-4.6,9.5C17.3,89.2,15.8,101.7,13.9,124.4z M14.3,125.4c0-0.2,0-0.5,0.1-0.9
				c1.9-22.6,3.4-35.2,4.3-41.7c0.8-5.4,2.7-7.4,4.5-9.2c0.7-0.8,1.4-1.5,2-2.5c0.2-0.4,0.3-1.2,0.3-2.2c0.1-3,0.3-8.1,5.9-10.7
				c3.2-1.5,6.4-2.2,9.5-2.2c8.4,0,13.7,5.2,15.6,7.4c0.4,0.5,0.8,2.2,1.1,3.6c0.2,1.1,0.4,2.1,0.7,2.5c0.5,0.9,0.2,1.4-0.2,2
				c-0.4,0.7-0.9,1.4-0.3,2.6c0.8,1.8,1.8,4,3,6.3c2.6,5.4,5.6,11.5,6.2,14.8c1.1,6.1,1.1,8.8,1.1,14.2v0.7c0,0.5,0,1.2,0,1.9
				c-0.1,3.3-0.2,8.8,0.5,13.2L14.3,125.4L14.3,125.4z"/>
		</g>
		<g>
			<path class="st0" d="M38.7,56.6l11.1,4.7c0,0-0.8,6,1.1,9.6c0,0-2.8,5.5-13.5-1.4C37.5,69.4,39.7,63.3,38.7,56.6z"/>
			<path class="st1" d="M37.2,69.3c0,0.1,0,0.2,0.1,0.3c3.6,2.3,6.7,3.5,9.3,3.5l0,0c3.4,0,4.5-2.1,4.6-2.2c0-0.1,0-0.2,0-0.2
				c-1.9-3.5-1.1-9.4-1.1-9.4c0-0.1,0-0.2-0.2-0.3l-11.1-4.7c-0.1,0-0.2,0-0.2,0c-0.1,0-0.1,0.1-0.1,0.2
				C39.4,63.2,37.3,69.3,37.2,69.3z M37.8,69.3c0.3-1.1,2-6.4,1.3-12.3l10.5,4.4c-0.1,1-0.6,6.1,1.1,9.4c-0.3,0.4-1.4,1.8-4.1,1.8
				l0,0C44.2,72.7,41.2,71.5,37.8,69.3z"/>
		</g>
		<g>
			<path class="st0" d="M38.5,50.8c0,0-3.7-7.9,6.8-11.8c8.6-3.2,10.4,2.3,10.6,5.3c0.2,2.8,1.6,5.4,1.7,7.8s-1.8,7.8-4,10.8
				c-2.2,3-10.5,2.6-13.7-5.2c0,0-1.9,0.1-2.8-1.7C36.1,53.8,36.4,51.7,38.5,50.8z"/>
			<path class="st2" d="M36.5,52.5c-0.4,1-0.2,2.3,0.4,3.7c0.8,1.6,2.3,1.8,2.8,1.8c2.2,5.1,6.4,7,9.6,7c2,0,3.6-0.7,4.5-1.8
				c2.2-3,4.2-8.4,4.1-11c-0.1-1.3-0.4-2.5-0.8-3.9c-0.4-1.3-0.8-2.6-0.9-3.9c-0.2-1.9-1.2-6.5-6.3-6.5c-1.4,0-2.9,0.3-4.7,1
				c-3.6,1.3-6,3.3-7,5.9c-1.1,2.8-0.3,5.3,0,6C37.4,51.1,36.8,51.7,36.5,52.5z M37,52.6c0.3-0.7,0.8-1.2,1.6-1.6
				c0.1,0,0.1-0.1,0.1-0.1c0-0.1,0-0.1,0-0.2c0,0-1.3-2.9,0-5.9c1-2.4,3.3-4.3,6.8-5.6c1.7-0.6,3.2-1,4.5-1c4.7,0,5.6,4.2,5.8,6
				c0.1,1.4,0.5,2.7,0.9,4c0.4,1.3,0.8,2.6,0.8,3.8c0.1,2.5-1.8,7.7-4,10.7c-0.8,1-2.3,1.6-4.1,1.6c-3.1,0-7.1-1.8-9.2-6.8
				c0-0.1-0.1-0.2-0.2-0.2l0,0c-0.2,0-1.8,0-2.5-1.6C36.8,54.7,36.7,53.5,37,52.6z"/>
		</g>
		<g>
			<path class="st0" d="M49.1,48l-3.4,2.5C47,48.4,49.1,48,49.1,48z"/>
			<path class="st1" d="M49,47.7l0.1,0.5c0,0-2,0.5-3.2,2.4l-0.4-0.3C46.8,48.2,48.9,47.8,49,47.7z"/>
		</g>
		<g>
			<path class="st0" d="M55.7,48l-3.2-0.8C52.5,47.2,54.6,47,55.7,48z"/>
			<path class="st1" d="M55.9,47.8l-0.3,0.4c-1-0.9-3-0.8-3-0.8l0-0.5C52.6,46.9,54.7,46.8,55.9,47.8z"/>
		</g>
		<g>
			<path class="st2" d="M53.2,57.9c0,0-1,1.2-2.3,1.3c-1.4,0-2.8-1.5-2.8-1.5S50.3,58.8,53.2,57.9z"/>
			<path class="st1" d="M48.2,57.5L47,56.8l0.9,1c0.1,0.1,1.4,1.6,2.9,1.6h0.1c1.5-0.1,2.5-1.3,2.5-1.4l0.5-0.6l-0.8,0.2
				c-0.7,0.2-1.5,0.4-2.2,0.4C49.3,58,48.3,57.5,48.2,57.5z M49.2,58.3c0.8,0.2,2,0.3,3.1,0c-0.4,0.3-0.9,0.5-1.5,0.6h-0.1
				C50.3,58.9,49.7,58.6,49.2,58.3z"/>
		</g>
		<g>
			<path class="st0" d="M53.3,53.7L51.6,54C52.6,52.5,53.3,53.7,53.3,53.7z"/>
			<path class="st2" d="M52.6,53c0.5,0,0.8,0.5,0.9,0.6L53,53.8c0,0-0.2-0.3-0.5-0.3h0c-0.2,0-0.5,0.2-0.8,0.7l-0.4-0.3
				C51.8,53.3,52.2,53,52.6,53z"/>
		</g>
		<g>
			<path class="st1" d="M49.3,33.1c7.4-1.6,9.5,4.6,9.3,8.4c-0.2,3.6-2.2,3.9-2.2,3.9s-1.8-0.7-4.7-0.1c0,0,0.2-2.8-2.1-5.2
				c0,0,0.2,2.9-1.1,6l-4,2.1c0,0,0-2.8-1.5-3.7c0,0,0.9,8.9,0.4,10.5c0,0-1.1-4.2-2.5-4.5c-0.8-0.2-1.8-0.1-2.4,0.2
				c-4.6,2.5-0.6,6.6,1.4,6.9c0,0-2.4,1.3-5,0c-4-2.1-10.2-13-2.2-21.3C42.2,26.4,49.3,33.1,49.3,33.1z"/>
			<path class="st1" d="M32.5,36.1c-4,4.2-4.3,8.8-3.8,11.9c0.8,4.6,3.7,8.6,6,9.9c0.8,0.4,1.7,0.7,2.7,0.7c1.5,0,2.6-0.6,2.6-0.6
				l0.6-0.4L40,57.4c-1.1-0.2-3-1.7-3.3-3.3c-0.2-1.2,0.5-2.3,2-3c0.5-0.3,1.5-0.3,2.2-0.2c0.9,0.2,1.9,2.7,2.3,4.3l0.2,0.8l0.2-0.8
				c0.4-1.4-0.2-8-0.3-10c0.9,1,0.9,3.1,0.9,3.1v0.4l4.4-2.4l0-0.1c0.9-2.3,1.1-4.4,1.1-5.4c1.7,2.2,1.6,4.5,1.6,4.5l0,0.3l0.3-0.1
				c0.8-0.2,1.5-0.3,2.3-0.3c1.4,0,2.2,0.3,2.3,0.3l0.1,0l0.1,0c0.1,0,2.3-0.4,2.4-4.1c0.1-2.1-0.5-5-2.3-7
				c-1.7-1.8-4.1-2.4-7.1-1.7c-0.5-0.4-2.8-2.2-6.2-2.2C39.6,30.6,36,32.5,32.5,36.1z M32.9,36.5c3.4-3.5,6.8-5.3,10.2-5.3
				c3.7,0,6,2.1,6,2.2l0.1,0.1l0.1,0c2.9-0.6,5.2-0.1,6.8,1.6c1.8,1.8,2.3,4.6,2.2,6.6c-0.1,3-1.6,3.6-2,3.7
				c-0.2-0.1-1.1-0.3-2.4-0.3c-0.7,0-1.4,0.1-2.1,0.2c0-0.8-0.2-3.1-2.1-5.1l-0.5-0.5l0,0.7c0,0,0.2,2.8-1,5.8l-3.6,1.9
				c-0.1-0.8-0.3-2.7-1.6-3.5l-0.4-0.2l0,0.5c0,0.1,0.6,6.4,0.5,9.3c-0.5-1.3-1.3-3.3-2.3-3.5c-0.8-0.2-2-0.1-2.5,0.2
				c-2.2,1.1-2.4,2.6-2.2,3.6c0.3,1.6,1.8,3,3,3.5c-0.4,0.1-1,0.3-1.8,0.3c-0.8,0-1.7-0.2-2.4-0.6c-2.3-1.2-5.1-5.1-5.8-9.5
				C28.8,44.9,29,40.5,32.9,36.5z"/>
		</g>
		<g>
			<path class="st2" d="M47.4,50.6c0.3-0.2,0.7-0.1,0.8,0.1c0.2,0.3,0.1,0.6-0.2,0.8c-0.3,0.2-0.7,0.1-0.8-0.1
				C47,51.2,47.1,50.8,47.4,50.6z"/>
			<path class="st1" d="M46.8,51c0,0.2,0,0.4,0.1,0.6c0.1,0.2,0.4,0.3,0.7,0.3c0.2,0,0.3,0,0.5-0.2c0.4-0.3,0.5-0.8,0.3-1.2
				c-0.2-0.4-0.8-0.5-1.2-0.2C47,50.5,46.9,50.7,46.8,51z M47.3,51.1c0-0.1,0.1-0.2,0.2-0.3c0.1,0,0.2-0.1,0.2-0.1
				c0.1,0,0.2,0,0.3,0.1c0.1,0.2,0,0.4-0.2,0.5c-0.2,0.1-0.4,0.1-0.5,0C47.3,51.2,47.3,51.1,47.3,51.1z"/>
		</g>
		<g>
			<path class="st2" d="M54,49.2c0.3-0.2,0.7-0.1,0.8,0.1c0.2,0.3,0.1,0.6-0.2,0.8c-0.3,0.2-0.7,0.1-0.8-0.1
				C53.6,49.7,53.7,49.3,54,49.2z"/>
			<path class="st1" d="M53.4,49.5c0,0.2,0,0.4,0.1,0.6c0.1,0.2,0.4,0.3,0.7,0.3c0.2,0,0.3,0,0.5-0.2c0.2-0.1,0.3-0.3,0.4-0.5
				c0.1-0.2,0-0.5-0.1-0.6c-0.2-0.4-0.8-0.5-1.2-0.2C53.7,49.1,53.5,49.3,53.4,49.5z M53.9,49.6c0-0.1,0.1-0.2,0.2-0.3
				c0.1,0,0.2-0.1,0.2-0.1c0.1,0,0.2,0,0.3,0.1c0,0.1,0,0.2,0,0.2c0,0.1-0.1,0.2-0.2,0.2C54.3,50,54,50,54,49.8
				C53.9,49.8,53.9,49.7,53.9,49.6z"/>
		</g>
		<g>
			<path class="st1" d="M28,28c7.2-1.3,8,8.7,8,8.7c-6.6-3.2-3.8,3.3-10.9,3C18,39.4,20.8,29.3,28,28z"/>
			<path class="st1" d="M20.7,36.1c0.2,2.3,1.8,3.6,4.3,3.7c0.1,0,0.3,0,0.4,0c3.1,0,4.3-1.4,5.2-2.5c0.7-0.8,1.2-1.4,2.3-1.4
				c0.7,0,1.7,0.3,2.9,0.9l0.4,0.2l0-0.4c0-0.1-0.8-9-7-9c-0.4,0-0.9,0-1.3,0.1C23.4,28.6,20.5,32.8,20.7,36.1z M28,28.2
				c0.4-0.1,0.8-0.1,1.2-0.1c4.9,0,6.2,6.4,6.4,8.1c-1.1-0.5-2-0.7-2.7-0.7c-1.3,0-2,0.8-2.7,1.6c-1,1.1-2,2.4-5.2,2.3
				c-2.3-0.1-3.7-1.3-3.9-3.3C21,33,23.7,29,28,28.2z"/>
		</g>
		<g>
			<path class="st3" d="M79.2,80.4c0.9-0.5,2.8,4.2,2.8,4.2L81.2,88C81.2,88,78.2,80.8,79.2,80.4z"/>
			<path class="st1" d="M79.1,80.1c0.1-0.1,0.3-0.1,0.5,0c1.1,0.4,2.4,4,2.6,4.4l-0.5,0.2c-0.6-1.4-1.7-3.8-2.3-4.1
				c-0.1,0-0.1,0-0.1,0c-0.3,0.3,0.6,3.7,2.2,7.3L81,88.1C79.9,85.3,78.1,80.6,79.1,80.1z"/>
		</g>
		<g>
			<path class="st3" d="M55.2,68.4l-8.2,6.2C47.1,68.7,52.9,67.5,55.2,68.4z"/>
			<path class="st1" d="M49.5,69.2c1.9-1.3,4.4-1.5,5.8-0.9l-0.2,0.5c-1.3-0.5-3.6-0.3-5.4,0.9c-1.1,0.8-2.5,2.3-2.5,5.1h-0.5
				C46.8,71.6,48.3,70,49.5,69.2z"/>
		</g>
		<g>
			<path class="st3" d="M46.6,72.5c0.5,0.7,2.2,0.9,1.2,3.7L32.1,67C36,65.7,41.4,66.2,46.6,72.5z"/>
			<path class="st1" d="M46.8,72.3c0.1,0.1,0.3,0.2,0.4,0.4c0.7,0.5,1.6,1.2,0.8,3.6l-0.5-0.2c0.7-2,0-2.6-0.7-3.1
				c-0.2-0.1-0.4-0.3-0.5-0.4c-5.6-6.9-11.3-6.3-14.2-5.3L32,66.8C35,65.8,40.9,65.2,46.8,72.3z"/>
		</g>
		<g>
			<path class="st4" d="M43.8,72.8c0.4,0,0.7,0.3,0.7,0.7c0,0.4-0.3,0.7-0.7,0.7S43,74,43,73.6S43.3,72.8,43.8,72.8z"/>
			<path class="st1" d="M42.8,73.6c0,0.5,0.4,1,1,1s1-0.4,1-1s-0.4-1-1-1C43.2,72.6,42.8,73,42.8,73.6z M43.3,73.6
				c0-0.3,0.2-0.5,0.5-0.5s0.5,0.2,0.5,0.5s-0.2,0.5-0.5,0.5S43.3,73.8,43.3,73.6z"/>
		</g>
		<g>
			<path class="st0" d="M43.7,73.2c0.2,0,0.3,0.1,0.3,0.3c0,0.6,1,15.2,0,18.3c0,0.1-0.2,0.2-0.3,0.2c0,0-0.1,0-0.1,0
				c-0.2-0.1-0.3-0.2-0.2-0.4c0.9-3,0-17.9,0-18.1C43.4,73.4,43.5,73.3,43.7,73.2z"/>
		</g>
		<g>
			<path class="st4" d="M51.2,72.8c0.4,0,0.7,0.3,0.7,0.7c0,0.4-0.3,0.7-0.7,0.7s-0.7-0.3-0.7-0.7S50.8,72.8,51.2,72.8z"/>
			<path class="st1" d="M50.2,73.6c0,0.5,0.4,1,1,1s1-0.4,1-1s-0.4-1-1-1C50.6,72.6,50.2,73,50.2,73.6z M50.7,73.6
				c0-0.3,0.2-0.5,0.5-0.5s0.5,0.2,0.5,0.5s-0.2,0.5-0.5,0.5S50.7,73.8,50.7,73.6z"/>
		</g>
		<g>
			<path class="st0" d="M50.8,73.6c0-0.2,0.1-0.3,0.3-0.4c0.2,0,0.3,0.1,0.4,0.3c0.5,5,0.3,8.1,0,10.8c-0.2,2.3-0.4,4.4,0,7.4
				c0,0.2-0.1,0.3-0.3,0.4c0,0,0,0,0,0c-0.2,0-0.3-0.1-0.3-0.3c-0.3-3.1-0.1-5.2,0-7.5C51.1,81.6,51.3,78.6,50.8,73.6z"/>
		</g>
		<g>
			<path class="st0" d="M37.6,111c1-0.4,1.2-1,3-2.3s2.9-3.6,4.9-4.5s0.3,3.2-0.7,4.4c-1,1.1-0.9,2.8,1.1,2.6c2-0.3,6-2.9,8.2-5.3
				s2,0.6,1.2,1.9c-0.9,1.3-3.6,3.9-5.2,4.2c0,0,2.6,0.1,6.3-4.2c0.5-0.6,1.8-0.7,0.7,2.8c0,0,2-0.2,0.1,3.4
				c-1.9,3.6-4.9,3.6-4.9,3.6s1.3,0.9,3.2-0.5c1.9-1.4,2.2,0.1,1.4,1.1c-1.2,1.5-3.4,2.2-5.8,2.3c-2.4,0.1-8.7,0.7-13.2-0.1
				s-9.1-0.2-13.1-0.2l-0.2-9.2C24.5,111,34.8,112,37.6,111z"/>
			<path class="st1" d="M24.4,110.8c0,0.1-0.1,0.1-0.1,0.2l0.2,9.2c0,0.1,0.1,0.2,0.2,0.2h0.3c1.2,0,2.4-0.1,3.6-0.1
				c1.3-0.1,2.6-0.1,4-0.1c2,0,3.7,0.1,5.2,0.4c1.6,0.3,3.5,0.4,5.8,0.4c2.1,0,4.2-0.1,5.7-0.2c0.7,0,1.3-0.1,1.7-0.1
				c2.7-0.1,4.8-0.9,6-2.4c0.4-0.5,0.6-1.2,0.4-1.6c-0.3-0.6-1.1-0.6-2.1,0.2c-0.6,0.5-1.3,0.7-1.9,0.7c1.1-0.3,2.7-1.2,3.9-3.5
				c0.8-1.6,1.1-2.7,0.7-3.3c-0.2-0.3-0.5-0.4-0.7-0.5c0.4-1.4,0.5-2.4,0.2-2.8c-0.3-0.4-1-0.3-1.3,0.1c-1.3,1.5-2.4,2.4-3.3,3.1
				c1.1-0.9,2.2-2.1,2.7-2.8c0.5-0.8,0.9-2.2,0.5-2.8c-0.1-0.2-0.3-0.4-0.6-0.4c-0.4,0-0.9,0.3-1.5,1c-2.2,2.4-6.2,4.9-8.1,5.2
				c-0.7,0.1-1.2-0.1-1.4-0.5c-0.2-0.5,0-1.2,0.5-1.7c0.8-0.8,2.1-3.6,1.6-4.5c-0.2-0.4-0.6-0.5-1.2-0.2c-1.2,0.6-2.2,1.6-3,2.6
				c-0.6,0.7-1.2,1.4-1.9,1.9c-0.7,0.6-1.2,1-1.5,1.3c-0.5,0.5-0.8,0.8-1.4,1c-0.8,0.3-2.3,0.4-4.4,0.4c-3.9,0-8.5-0.5-8.6-0.5
				C24.5,110.7,24.4,110.7,24.4,110.8z M24.8,111.2c1.1,0.1,5,0.5,8.4,0.5c2.2,0,3.7-0.2,4.6-0.4c0.7-0.2,1-0.6,1.6-1.1
				c0.4-0.3,0.8-0.8,1.5-1.3c0.7-0.6,1.3-1.3,2-2c0.9-1,1.7-2,2.9-2.5c0.2-0.1,0.3-0.1,0.4-0.1c0.1,0,0.1,0,0.2,0.1
				c0.3,0.7-0.8,3.2-1.5,4c-0.6,0.7-0.8,1.6-0.6,2.2c0.2,0.3,0.6,0.9,1.9,0.8c2.2-0.3,6.3-3.1,8.4-5.3c0.7-0.7,1-0.8,1.1-0.8
				c0,0,0.1,0,0.1,0.1c0.2,0.4,0,1.6-0.5,2.3c-1,1.4-3.6,3.8-5.1,4.1c-0.1,0-0.2,0.1-0.2,0.3c0,0.1,0.1,0.2,0.2,0.2l0,0
				c0.3,0,2.9-0.1,6.5-4.3c0.2-0.2,0.4-0.3,0.6-0.1c0.1,0.1,0.3,0.7-0.3,2.7c0,0.1,0,0.2,0,0.2s0.1,0.1,0.2,0.1l0,0
				c0.1,0,0.4,0,0.6,0.3c0.2,0.3,0.3,1-0.7,2.8c-1.8,3.4-4.5,3.4-4.7,3.4c-0.1,0-0.2,0.1-0.2,0.2c0,0.1,0,0.2,0.1,0.3
				c0,0,0.5,0.3,1.2,0.3c0.7,0,1.5-0.3,2.2-0.8c0.6-0.4,1-0.5,1.1-0.5c0.2,0,0.2,0.1,0.3,0.2c0.1,0.2,0,0.7-0.3,1.1
				c-1.1,1.3-3.1,2.2-5.6,2.2c-0.5,0-1,0.1-1.7,0.1c-1.5,0.1-3.6,0.2-5.7,0.2c-2.3,0-4.2-0.1-5.7-0.4c-1.6-0.3-3.2-0.4-5.3-0.4
				c-1.4,0-2.7,0.1-4,0.1c-1.2,0.1-2.4,0.1-3.6,0.1H25L24.8,111.2z"/>
		</g>
		<g>
			<path class="st0" d="M56.8,110.5l0.5,0.2c-0.1,0.2-1.6,3.9-7.4,5.1l-0.1-0.5C55.3,114.2,56.8,110.6,56.8,110.5z"/>
		</g>
		<g>
			<path class="st3" d="M27.3,72.5l0.3,19.8c-2.1,3.8-4.9,13.7-4.9,13.7s5.5,1.4,9,0.9s6.7,0.9,6.2,4.5c-0.7,5.1,0.3,10.2,0.3,10.2
				c0,5.5-9.1,4.3-25.3,1.3c-16.1-3-9.6-17.7-3.4-34.9C15.7,70.8,27.3,72.5,27.3,72.5z"/>
			<path class="st1" d="M9.3,87.9c6.2-17.2,18-15.7,18.1-15.7l-0.1,0.5c-0.1,0-11.5-1.4-17.5,15.4c-0.4,1.1-0.8,2.2-1.2,3.4
				c-4,10.9-7.4,20.4-4.2,26.1c1.5,2.6,4.3,4.3,8.6,5.1c11.8,2.2,21.1,3.7,24,1.3c0.7-0.6,1-1.3,1-2.3c0-0.1-1-5.2-0.3-10.3
				c0.2-1.3-0.1-2.3-0.9-3.1c-1-1-2.9-1.5-5-1.2c-3.5,0.4-8.8-0.9-9-0.9c-0.1,0-0.1-0.1-0.1-0.1c0-0.1,0-0.1,0-0.2
				c0.1-0.4,2.8-10,4.9-13.7l0.4,0.2c-1.9,3.4-4.4,11.8-4.8,13.4c1.1,0.3,5.6,1.3,8.6,0.9c2.3-0.3,4.3,0.2,5.4,1.3
				c0.8,0.8,1.2,2.1,1,3.5c-0.7,5,0.3,10.1,0.3,10.2c0,1.2-0.4,2.1-1.2,2.7c-1.1,0.9-3.1,1.3-5.8,1.3c-4.5,0-10.9-1.1-18.6-2.6
				c-4.5-0.8-7.4-2.6-9-5.3c-3.3-5.9,0.1-15.4,4.2-26.5C8.5,90.2,8.9,89.1,9.3,87.9z"/>
		</g>
		<g>
			<path class="st3" d="M23.9,105.3c0.9,1.9-2.8,3.3-2.8,3.3l-3.7-2.7C17.4,105.8,22.9,103.3,23.9,105.3z"/>
			<path class="st1" d="M24.1,105.2c0.2,0.4,0.2,0.9,0,1.4c-0.6,1.4-2.9,2.2-3,2.3l-0.2-0.5c0,0,2.2-0.8,2.7-2c0.1-0.3,0.1-0.6,0-1
				c-0.7-1.4-4.6,0-6.1,0.7l-0.2-0.4C17.9,105.3,23.1,103.1,24.1,105.2z"/>
		</g>
		<g>
			<path class="st0" d="M41.1,53.7l-2.7,1.4c0,0-1.2-1.5-0.1-2.7C39.4,51.2,41.1,52.4,41.1,53.7z"/>
			<path class="st2" d="M40,51.8c0.8,0.3,1.3,1.1,1.3,1.9l-0.5,0c0-0.6-0.4-1.2-1-1.4c-0.3-0.1-0.8-0.2-1.3,0.3
				c-0.9,1,0.1,2.4,0.1,2.4l-0.4,0.3c-0.5-0.6-1-2-0.1-3C38.7,51.7,39.3,51.5,40,51.8z"/>
		</g>
		<g>
			<path class="st0" d="M40.2,52.2l-0.6,1.7C39.6,53.9,38.9,52.7,40.2,52.2z"/>
			<path class="st2" d="M40.1,52l0.2,0.5c-0.3,0.1-0.5,0.3-0.6,0.5c-0.1,0.4,0.1,0.8,0.1,0.8L39.3,54c0,0-0.3-0.6-0.1-1.2
				C39.3,52.4,39.6,52.2,40.1,52z"/>
		</g>
	</g>
	<g>
		<g>
			<path class="st5" d="M100.1,2.9c-9.5-3-20,1.7-24.2,10.7c-3.4,7.3-2,15.5,2.7,21.3l0,0c0,0,0,0,0.1,0.1c0.1,0.1,0.1,0.2,0.2,0.2
				c1.6,1.9,9,11.3,9,17.5l0,0c-0.1,3.7,2.8,6.7,6.5,6.7h0.9c3.7,0,6.7-3.2,6.4-6.9v-0.1c0-7,8.6-18.2,8.6-18.2l0,0
				c1.1-1.5,2-3.1,2.7-4.9C117.2,18.6,111.4,6.4,100.1,2.9z"/>
		</g>
		<path class="st0" d="M109.3,22.8c1.2-0.4,2.4-3.4,1.5-6.4c-0.9-2.9-3.7-4.7-4.9-4.3c-1.2,0.4-0.4,2.8,0.5,5.7
			C107.3,20.8,108.1,23.2,109.3,22.8z"/>
		<g>
			<path d="M127.1,12l-9.5,3.2c-0.1,0-0.2,0.2-0.1,0.3c0,0.1,0.1,0.1,0.2,0.1c0,0,0.1,0,0.1,0l9.5-3.2c0.1,0,0.2-0.2,0.1-0.3
				C127.4,12.1,127.2,12,127.1,12z"/>
		</g>
		<g>
			<path class="st1" d="M124.5,27.9l-6.8-0.9c-0.1,0-0.2,0.1-0.2,0.2c0,0.1,0.1,0.2,0.2,0.2l6.8,0.9c0,0,0,0,0,0
				c0.1,0,0.2-0.1,0.2-0.2S124.6,27.9,124.5,27.9z"/>
		</g>
		<g>
			<path class="st1" d="M126.8,33.8l-11.2-5.7c-0.1,0-0.2,0-0.3,0.1c-0.1,0.1,0,0.2,0.1,0.3l11.2,5.7c0,0,0.1,0,0.1,0
				c0.1,0,0.2,0,0.2-0.1C127,34,126.9,33.8,126.8,33.8z"/>
		</g>
		<g>
			<path class="st1" d="M124.2,18.7c-1.6-0.2-3.3,0.1-3.5,1.3c-0.1,0.4-0.1,0.7,0,1c-0.8,0.4-1.4,1-1.6,1.1c-0.1,0.1-0.1,0.2,0,0.3
				s0.2,0.1,0.3,0c0.3-0.2,0.8-0.7,1.4-1c0.2,0.5,0.5,0.8,0.9,1c0.3,0.2,0.6,0.3,0.8,0.3c0.2,0,0.3,0,0.5-0.1
				c0.2-0.1,0.5-0.4,0.3-1.2c-0.1-0.6-0.4-0.8-0.7-0.9c-0.4-0.1-1,0-1.5,0.2c0-0.2,0-0.5,0-0.7c0.2-0.9,1.7-1.1,3.1-1
				c2,0.3,4,1.4,3.9,3.1c0,0.1,0.1,0.2,0.2,0.2s0.2-0.1,0.2-0.2C128.6,20.3,126.4,19,124.2,18.7z M122.4,21c0.2,0.1,0.3,0.2,0.4,0.5
				c0.1,0.4,0,0.6-0.1,0.8c-0.2,0.1-0.5,0.1-0.8-0.1c-0.3-0.2-0.6-0.5-0.7-0.9C121.6,21,122.1,20.9,122.4,21z"/>
		</g>
		<g>
			<path class="st1" d="M72.5,17L63,13.8c-0.1,0-0.2,0-0.3,0.1c0,0.1,0,0.2,0.1,0.3l9.5,3.2c0,0,0.1,0,0.1,0c0.1,0,0.2-0.1,0.2-0.1
				C72.7,17.2,72.6,17,72.5,17z"/>
		</g>
		<g>
			<path class="st1" d="M72.4,28.7l-6.8,0.9c-0.1,0-0.2,0.1-0.2,0.2c0,0.1,0.1,0.2,0.2,0.2c0,0,0,0,0,0l6.8-0.9
				c0.1,0,0.2-0.1,0.2-0.2C72.6,28.7,72.5,28.7,72.4,28.7z"/>
		</g>
		<g>
			<path class="st1" d="M74.4,29.8l-11.2,5.7c-0.1,0-0.2,0.2-0.1,0.3c0,0.1,0.1,0.1,0.2,0.1c0,0,0.1,0,0.1,0l11.2-5.7
				c0.1,0,0.2-0.2,0.1-0.3C74.7,29.8,74.6,29.7,74.4,29.8z"/>
		</g>
		<g>
			<path class="st1" d="M69.5,22.7c0.1-0.3,0.1-0.6,0-1c-0.2-1.2-2-1.5-3.5-1.3c-2.2,0.3-4.4,1.6-4.3,3.5c0,0.1,0.1,0.2,0.2,0.2
				c0.1,0,0.2-0.1,0.2-0.2C62,22.3,64,21.1,66,20.8c1.3-0.2,2.9,0,3.1,1c0.1,0.3,0.1,0.5,0,0.7c-0.5-0.2-1.1-0.4-1.5-0.2
				c-0.2,0.1-0.6,0.3-0.7,0.9c-0.2,0.8,0.1,1.1,0.3,1.2c0.1,0.1,0.3,0.1,0.5,0.1c0.3,0,0.6-0.1,0.8-0.3c0.3-0.2,0.7-0.6,0.9-1
				c0.6,0.3,1.2,0.8,1.4,1c0.1,0.1,0.2,0.1,0.3,0c0.1-0.1,0.1-0.2,0-0.3C70.9,23.7,70.2,23.2,69.5,22.7z M68.2,23.8
				c-0.3,0.2-0.7,0.3-0.8,0.1c-0.2-0.1-0.2-0.4-0.1-0.7c0.1-0.3,0.2-0.5,0.4-0.5c0.1,0,0.2,0,0.2,0c0.3,0,0.6,0.1,1,0.3
				C68.8,23.4,68.5,23.6,68.2,23.8z"/>
		</g>
		<g>
			<g>
				<g>
					<path class="st3" d="M90.3,44.4c0-0.1-2.9-11-3.9-17.5l0,0c-0.1,0-3.3-0.9-3.6-3.7c0-0.4,0-0.6,0.1-0.8
						c0.1-0.1,0.1-0.1,0.2-0.1c0.9,0,3.2,3.5,3.3,3.7l-0.3-3.7c0,0-2.4-3.4-2.4-5.9c0-1.5,1.1-2.3,2.2-2.3c0.9,0,1.7,0.5,2.1,1.4
						c0.9,2.2-1.1,6.3-1.1,6.5c0,0-0.1,3.2,0.4,6.1c0-0.2,0.8-1.1,0.9-2.2c0.1-1.3,0.7-2.1,1.4-2.1c0.2,0,0.3,0,0.5,0.1
						c0.3,0.1,0.5,0.5,0.5,1c-0.1,1.3-1.2,3.5-3.2,4c0.1,0,1.7,9.3,3.5,15.2L90.3,44.4L90.3,44.4L90.3,44.4z"/>
					<path d="M86,14.2c0.8,0,1.6,0.4,2,1.4c0.9,2.2-1.1,6.4-1.1,6.4s-0.1,3.2,0.4,6.2c0,0,0.8-1.1,0.9-2.3c0.1-1,0.5-2.1,1.4-2.1
						c0.2,0,0.3,0,0.5,0.1c1.2,0.5-0.1,4.2-2.7,5c0,0,1.7,9.3,3.5,15.2l-0.5,0.2c0,0-2.9-11-3.9-17.5c0,0-3.3-0.8-3.6-3.7
						c-0.1-0.6,0.1-0.8,0.3-0.8c0.8,0,3.3,3.6,3.3,3.6l-0.2-3.8c0,0-2.4-3.4-2.4-5.9C83.8,15.1,84.9,14.2,86,14.2L86,14.2z M86,14.1
						c-1.1,0-2.3,0.8-2.3,2.3c0,2.4,2.2,5.6,2.4,5.9l0.2,3.4c-0.6-0.9-2.4-3.4-3.2-3.4c-0.1,0-0.2,0-0.2,0.1
						c-0.1,0.1-0.2,0.4-0.1,0.8c0.2,2.7,3.1,3.6,3.6,3.7c1.1,6.4,3.9,17.3,3.9,17.4l0,0.1l0.1,0l0.5-0.2l0.1,0L91,44.2
						c-1.7-5.5-3.3-14.2-3.5-15.1c2-0.6,3.1-2.8,3.2-4.1c0-0.6-0.2-1-0.5-1.1c-0.2-0.1-0.4-0.1-0.5-0.1c-0.8,0-1.3,0.8-1.5,2.1
						c-0.1,0.9-0.6,1.7-0.8,2c-0.4-2.7-0.4-5.6-0.4-5.9c0.2-0.4,2.1-4.4,1.1-6.5C87.7,14.7,86.9,14.1,86,14.1L86,14.1z"/>
				</g>
			</g>
			<g>
				<g>
					<path class="st3" d="M95.3,42.9c0.1-0.1,6.4-3.6,7.1-9.2l0,0c0,0-0.9-2.1-1.1-4.6c-0.1-0.9,0-1.5,0.3-1.9
						c0.1-0.1,0.2-0.2,0.4-0.2c0.4,0,0.7,0.4,0.8,1c0.2,1,0.1,3,0.1,3.7c0.1-0.8,0.7-3.5,0.9-4.9c0.2-0.8,0-1.4-0.1-2.1
						c-0.1-0.6-0.2-1.3-0.1-2c0.2-1.3,0.9-1.7,1.5-1.7c0.2,0,0.4,0,0.6,0.1c0.8,0.4,0.9,2.2-0.2,4.6c-0.2,0.5-0.4,0.9-0.6,1.2
						c-0.6,1.2-0.8,1.6-1.1,3.7c0.1-0.2,1-1.3,1.6-2.1c0.2-0.2,0.4-0.3,0.7-0.3c0.4,0,0.8,0.3,1,0.6c0.1,0.3,0.3,0.8-0.3,1.6
						c-1.3,1.6-3.2,1.9-3.3,1.9c0,0,0,6.6-7.8,11.1l-0.1,0L95.3,42.9z"/>
					<path d="M104.9,21c0.2,0,0.4,0,0.5,0.1c0.7,0.4,0.9,2.1-0.2,4.5s-1.3,2.3-1.7,5c0,0,1.1-1.2,1.7-2.1c0.2-0.2,0.4-0.3,0.6-0.3
						c0.8,0,1.6,0.9,0.7,2.1c-1.3,1.6-3.2,1.9-3.2,1.9s0,6.6-7.8,11.2l-0.2-0.6c0,0,6.4-3.5,7.1-9.2c0,0-0.9-2.1-1.1-4.6
						c-0.1-1.4,0.3-2,0.6-2c0.3,0,0.6,0.4,0.7,0.9c0.2,1.2,0,3.9,0,3.9s0.8-3.5,1-5.1s-0.5-2.6-0.2-4.2
						C103.7,21.5,104.3,21,104.9,21L104.9,21z M104.9,20.9c-0.6,0-1.3,0.5-1.5,1.8c-0.1,0.8,0,1.4,0.1,2.1c0.1,0.7,0.3,1.3,0.1,2.1
						c-0.2,1-0.5,2.8-0.8,3.9c0-0.9,0-2-0.1-2.8c-0.1-0.6-0.4-1-0.8-1c-0.2,0-0.3,0.1-0.4,0.2c-0.2,0.2-0.4,0.7-0.3,1.9
						c0.2,2.4,1,4.4,1.1,4.6c-0.7,5.5-6.9,9-7,9l-0.1,0l0,0.1l0.2,0.6l0,0.1l0.1-0.1c7.3-4.2,7.8-10.4,7.9-11.2
						c0.4-0.1,2.1-0.5,3.2-1.9c0.6-0.8,0.5-1.4,0.3-1.6c-0.2-0.4-0.6-0.7-1.1-0.7c-0.3,0-0.6,0.1-0.7,0.4c-0.4,0.6-1.1,1.4-1.5,1.8
						c0.3-1.8,0.5-2.2,1.1-3.4c0.2-0.3,0.4-0.7,0.6-1.2c1.1-2.4,0.9-4.2,0.2-4.6C105.3,21,105.1,20.9,104.9,20.9L104.9,20.9z"/>
				</g>
			</g>
			<g>
				<g>
					<path class="st3" d="M99.7,41.6c-3.3-3.1-2.6-6.4-2.6-6.4l0,0c-0.1,0-0.9-0.4-1.4-1.3c-0.2-0.4-0.1-0.7,0-0.8
						c0.1-0.2,0.3-0.3,0.5-0.3c0.2,0,0.4,0.1,0.4,0.3c0.2,0.5,0.6,1.2,0.6,1.2c0-1.1-0.1-1.3-0.2-1.9c0-0.2-0.1-0.4-0.2-0.7
						c-0.3-1.3,0-2.2,0.4-2.3c0.1,0,0.1,0,0.2,0c0.2,0,0.3,0.1,0.4,0.2c0.1,0.1,0.3,0.4,0.2,0.9c0,0.4-0.2,0.7-0.3,1
						c-0.1,0.3-0.3,0.6-0.3,1c0,0.6-0.1,1.6-0.1,2.2c0.1-0.5,0.2-1.1,0.4-1.5c0.1-0.2,0.3-0.4,0.5-0.4c0.1,0,0.2,0,0.2,0.1
						c0.1,0.2,0.1,0.5,0,1c-0.4,1.2-1.1,2.2-1.1,2.2c-0.3,2.8,2.4,5.2,2.4,5.2L99.7,41.6L99.7,41.6L99.7,41.6z"/>
					<path d="M97.5,29.4c0.3,0,0.7,0.3,0.6,1c-0.1,0.8-0.6,1.2-0.6,2s-0.1,2.6-0.1,2.6s0.2-1.3,0.5-1.9c0.1-0.2,0.3-0.4,0.4-0.4
						c0.2,0,0.4,0.3,0.1,1c-0.4,1.2-1.1,2.2-1.1,2.2c-0.3,2.9,2.4,5.3,2.4,5.3l-0.1,0.3c-3.4-3.1-2.6-6.4-2.6-6.4s-0.9-0.3-1.4-1.3
						c-0.3-0.7,0.1-1,0.4-1c0.2,0,0.3,0.1,0.4,0.2c0.2,0.5,0.6,1.2,0.6,1.2c0.1-1.4,0-1.3-0.3-2.7c-0.3-1.3,0-2.1,0.4-2.2
						C97.4,29.4,97.5,29.4,97.5,29.4L97.5,29.4z M97.5,29.3c-0.1,0-0.1,0-0.2,0c-0.4,0.1-0.8,1-0.5,2.4c0.1,0.3,0.1,0.5,0.2,0.7
						c0.1,0.6,0.2,0.8,0.2,1.6c-0.1-0.3-0.3-0.6-0.4-0.9c-0.1-0.2-0.3-0.3-0.5-0.3s-0.4,0.1-0.6,0.3c-0.1,0.2-0.1,0.5,0,0.8
						c0.4,0.8,1.1,1.2,1.3,1.3c-0.1,0.5-0.4,3.5,2.7,6.4l0.1,0.1l0.1-0.1l0.1-0.3l0-0.1l-0.1,0c0,0-2.7-2.4-2.4-5.2
						c0.1-0.2,0.7-1,1.1-2.2c0.2-0.6,0.1-0.9,0-1c-0.1-0.1-0.2-0.1-0.3-0.1c-0.2,0-0.4,0.2-0.5,0.4c-0.1,0.2-0.2,0.5-0.2,0.9
						c0-0.5,0-1.1,0.1-1.5c0-0.4,0.2-0.7,0.3-1c0.1-0.3,0.3-0.6,0.3-1c0-0.5-0.1-0.8-0.2-0.9C97.9,29.4,97.7,29.3,97.5,29.3
						L97.5,29.3z"/>
				</g>
			</g>
			<g>
				<g>
					<path class="st3" d="M90.1,39c0-0.1,2-1.9,1.8-3.9l0,0c0,0-0.5-0.7-0.8-1.6c-0.1-0.3-0.1-0.6,0-0.8c0-0.1,0.1-0.1,0.2-0.1
						c0.1,0,0.3,0.1,0.3,0.3c0.1,0.2,0.2,0.7,0.3,1c0-0.4-0.1-1.1-0.1-1.5c0-0.3-0.1-0.5-0.2-0.7c-0.1-0.2-0.2-0.4-0.2-0.7
						c0-0.4,0.1-0.5,0.2-0.6c0.1-0.1,0.2-0.1,0.3-0.1c0,0,0.1,0,0.1,0c0.3,0.1,0.6,0.7,0.3,1.7c0,0.2-0.1,0.4-0.1,0.5
						c-0.1,0.5-0.1,0.6-0.1,1.3c0.1-0.2,0.2-0.5,0.3-0.8c0.1-0.1,0.2-0.2,0.3-0.2c0.2,0,0.3,0.1,0.4,0.2c0.1,0.2,0.1,0.4,0,0.6
						c-0.3,0.7-1,1-1,1c0,0,0.5,2.4-1.9,4.7l-0.1,0L90.1,39z"/>
					<path d="M91.9,30.3c0,0,0.1,0,0.1,0c0.3,0.1,0.5,0.7,0.3,1.6c-0.2,1-0.3,0.9-0.2,1.9c0,0,0.3-0.5,0.4-0.9
						c0.1-0.1,0.2-0.2,0.3-0.2c0.3,0,0.6,0.2,0.3,0.7c-0.3,0.7-1,1-1,1s0.6,2.4-1.9,4.7L90.2,39c0,0,2-1.8,1.8-3.9
						c0,0-0.5-0.7-0.8-1.6c-0.2-0.5-0.1-0.8,0.1-0.8c0.1,0,0.2,0.1,0.3,0.3c0.2,0.4,0.3,1.4,0.3,1.4s0-1.3-0.1-1.9
						c0-0.6-0.4-0.9-0.4-1.5C91.4,30.5,91.7,30.3,91.9,30.3L91.9,30.3z M91.9,30.2c-0.1,0-0.3,0.1-0.4,0.2s-0.2,0.3-0.2,0.7
						c0,0.3,0.1,0.5,0.2,0.8c0.1,0.2,0.2,0.4,0.2,0.7c0,0.2,0,0.5,0,0.9c0-0.2-0.1-0.3-0.1-0.4c-0.1-0.2-0.2-0.3-0.4-0.3
						c-0.1,0-0.2,0-0.2,0.1c-0.1,0.2-0.1,0.4,0,0.8c0.3,0.8,0.7,1.5,0.8,1.6c0.2,2-1.7,3.8-1.8,3.8l-0.1,0l0,0.1l0.1,0.2l0.1,0.1
						l0.1-0.1c2.2-2.1,2-4.2,1.9-4.7c0.2-0.1,0.7-0.4,1-1c0.1-0.2,0.1-0.5,0-0.6c-0.1-0.1-0.3-0.2-0.4-0.2s-0.3,0.1-0.4,0.2
						c-0.1,0.2-0.2,0.4-0.3,0.6c0-0.5,0-0.6,0.1-1c0-0.1,0.1-0.3,0.1-0.5c0.2-1,0-1.6-0.4-1.8C92,30.2,92,30.2,91.9,30.2L91.9,30.2z
						"/>
				</g>
			</g>
		</g>
		<g>
			<g>
				<path class="st4" d="M97.3,45.3l-3.1,3.2c0,0-3.6,0.9-5.8-2.7s-1.9-10.3-1.9-10.3S97.2,37.3,97.3,45.3z"/>
				<path class="st6" d="M86.5,35.5L86.5,35.5c0.1,0,2.8,0.4,5.4,1.9c2.5,1.3,5.4,3.8,5.4,7.9h-0.1c0-4.1-2.9-6.5-5.4-7.8
					c-2.4-1.3-4.9-1.8-5.3-1.8c0,0.7-0.1,6.9,1.9,10.2c2.1,3.5,5.7,2.7,5.7,2.6l0,0.1c0,0-0.4,0.1-1,0.1c-1.2,0-3.4-0.4-4.8-2.8
					C86.3,42.4,86.5,35.7,86.5,35.5L86.5,35.5z"/>
			</g>
			<g>
				<path d="M95.2,45.8L95.2,45.8c-2.2-3.6-8.3-9.5-8.4-9.6l0.1-0.1C86.9,36.1,93.1,42,95.2,45.8z"/>
			</g>
			<g>
				<path d="M88.6,37.8l0,0.1c-0.1,0-1.2-0.2-1.7-0.3l0-0.1C87.4,37.7,88.6,37.8,88.6,37.8z"/>
			</g>
			<g>
				<path d="M89.9,39.2l0,0.1c-0.1,0-1.9-0.2-2.7-0.4l0-0.1C88,39,89.9,39.2,89.9,39.2z"/>
			</g>
			<g>
				<path d="M91.1,40.5v0.1c0,0-2.3,0-3.8-0.3l0-0.1C88.8,40.5,91.1,40.5,91.1,40.5z"/>
			</g>
			<g>
				<path d="M92.3,41.8l0,0.1c0,0-0.6,0.1-1.8,0.1c-0.8,0-1.8-0.1-2.9-0.2l0-0.1C90.6,42.2,92.3,41.8,92.3,41.8z"/>
			</g>
			<g>
				<path d="M93.6,43.4L93.6,43.4c0,0.1-1.1,0.8-3,0.8c-0.6,0-1.4-0.1-2.2-0.2l0-0.1C91.6,44.5,93.5,43.4,93.6,43.4z"/>
			</g>
			<g>
				<path d="M94.6,45L94.6,45c0.1,0.1-1.2,1.3-3.5,1.3c-0.5,0-1,0-1.6-0.2l0-0.1C92.7,46.7,94.6,45,94.6,45z"/>
			</g>
			<g>
				<g>
					<path d="M89.3,38.6l-0.1,0c0,0-0.2-1.4-0.4-1.9l0.1,0C89.1,37.2,89.3,38.6,89.3,38.6z"/>
				</g>
				<g>
					<path d="M90.6,39.8l-0.1,0c0,0-0.4-1.8-0.7-2.5l0.1,0C90.2,38,90.6,39.8,90.6,39.8z"/>
				</g>
				<g>
					<path d="M91.7,41.2l-0.1,0c0,0-0.3-2-0.8-3.5l0.1,0C91.4,39.2,91.7,41.2,91.7,41.2z"/>
				</g>
				<g>
					<path d="M92.1,38.3c0.8,3,0.7,4.3,0.7,4.3h-0.1C92.7,42.6,92.8,41.2,92.1,38.3L92.1,38.3z"/>
				</g>
				<g>
					<path d="M93.8,39.6c0.9,3.1,0.3,4.4,0.3,4.4L94,44c0,0,0.6-1.3-0.3-4.4L93.8,39.6z"/>
				</g>
				<g>
					<path d="M95.5,41.1l0.1,0c0.8,3-0.4,4.7-0.4,4.7l-0.1-0.1C95.1,45.7,96.3,44.1,95.5,41.1z"/>
				</g>
			</g>
		</g>
		<g>
			<g>
				<path class="st3" d="M94.1,46.6l2.6,2.2c0,0,2.8,0.3,4.2-2.5c1.3-2.9,0.5-8,0.5-8S93.4,40.5,94.1,46.6z"/>
				<path class="st6" d="M101.4,38.2L101.4,38.2c-0.1,0-2.1,0.6-4,1.9c-1.8,1.2-3.8,3.3-3.4,6.5l0.1,0c-0.3-3.1,1.7-5.2,3.4-6.4
					c1.7-1.2,3.5-1.8,3.8-1.9c0.1,0.5,0.7,5.2-0.5,7.9c-1.3,2.8-4.1,2.5-4.1,2.5l0,0.1c0,0,0.3,0,0.8,0c0.9-0.1,2.5-0.6,3.4-2.5
					C102.2,43.4,101.4,38.3,101.4,38.2L101.4,38.2z"/>
			</g>
			<g>
				<path d="M95.7,46.7L95.7,46.7c1.3-3,5.5-8,5.5-8l-0.1-0.1C101.1,38.7,97,43.7,95.7,46.7z"/>
			</g>
			<g>
				<path d="M100,40.1L100,40.1c0.1,0.1,0.9-0.1,1.2-0.3l0-0.1C100.9,39.9,100,40.1,100,40.1z"/>
			</g>
			<g>
				<path d="M99.1,41.2L99.1,41.2c0.1,0.1,1.5-0.2,2-0.5l0-0.1C100.6,40.9,99.1,41.2,99.1,41.2z"/>
			</g>
			<g>
				<path d="M98.3,42.3L98.3,42.3c0,0.1,1.7-0.1,2.9-0.5l0-0.1C100,42.1,98.3,42.3,98.3,42.3z"/>
			</g>
			<g>
				<path d="M97.5,43.5L97.5,43.5c0,0.1,0.5,0.1,1.4,0c0.6-0.1,1.3-0.2,2.2-0.4l0-0.1C98.8,43.6,97.5,43.5,97.5,43.5z"/>
			</g>
			<g>
				<path d="M96.7,44.8L96.7,44.8c0,0.1,0.9,0.5,2.3,0.3c0.5-0.1,1-0.2,1.6-0.4l0-0.1C98.3,45.4,96.7,44.8,96.7,44.8z"/>
			</g>
			<g>
				<path d="M96,46.1L96,46.1c0,0.1,1,0.9,2.8,0.7c0.4,0,0.8-0.1,1.2-0.3l0-0.1C97.6,47.2,96.1,46.1,96,46.1z"/>
			</g>
			<g>
				<g>
					<path d="M99.5,40.8L99.5,40.8c0.1,0,0.1-1.1,0.2-1.5l-0.1,0C99.5,39.7,99.5,40.7,99.5,40.8z"/>
				</g>
				<g>
					<path d="M98.6,41.8L98.6,41.8c0.1,0,0.3-1.4,0.4-2l-0.1,0C98.8,40.4,98.6,41.8,98.6,41.8z"/>
				</g>
				<g>
					<path d="M97.9,42.9L97.9,42.9c0.1,0,0.2-1.5,0.4-2.7l-0.1,0C98,41.4,97.9,42.9,97.9,42.9z"/>
				</g>
				<g>
					<path d="M97.3,40.8c-0.3,2.3-0.2,3.3-0.2,3.3l0.1,0C97.2,44.1,97.1,43.1,97.3,40.8L97.3,40.8z"/>
				</g>
				<g>
					<path d="M96.2,41.9c-0.4,2.4,0.2,3.3,0.2,3.4l0.1,0C96.4,45.2,95.9,44.3,96.2,41.9L96.2,41.9z"/>
				</g>
				<g>
					<path d="M95.1,43.2L95.1,43.2c-0.5,2.4,0.6,3.5,0.6,3.5l0.1-0.1C95.7,46.7,94.7,45.6,95.1,43.2z"/>
				</g>
			</g>
		</g>
		<g>
			<path class="st1" d="M86.4,46.9c0.9,2,1.5,4.1,1.5,5.9c-0.1,3.7,2.8,6.7,6.5,6.7h0.9c3.7,0,6.7-3.2,6.4-6.9v-0.1
				c0-1.7,0.5-3.6,1.3-5.6C102.9,46.9,86.4,46.9,86.4,46.9z"/>
		</g>
	</g>
</g>
<g>
	<rect x="2.1" y="124.9" class="st7" width="115.4" height="2.2"/>
</g>
</svg>
