<?xml version="1.0" encoding="utf-8"?>
<!-- Generator: Adobe Illustrator 27.7.0, SVG Export Plug-In . SVG Version: 6.00 Build 0)  -->
<svg version="1.1" id="Capa_1" xmlns="http://www.w3.org/2000/svg" xmlns:xlink="http://www.w3.org/1999/xlink" x="0px" y="0px"
	 viewBox="0 0 125 135" style="enable-background:new 0 0 125 135;" xml:space="preserve">
<style type="text/css">
	.st0{fill:#11111F;}
	.st1{fill:#3B9D81;}
	.st2{fill:#EFAD1F;}
	.st3{fill:#FFFFFF;}
	.st4{fill:#87BE4B;}
	.st5{fill:#16162B;}
	.st6{fill:#84BC26;}
</style>
<rect x="-1.8" class="st0" width="128.6" height="136.3"/>
<g>
	<g>
		<g>
			<g>
				<g>
					<polygon points="3.8,64.9 79.3,64.9 79.3,63.5 3.8,63.5 					"/>
				</g>
				<g>
					<polygon class="st1" points="7.6,45.3 3.8,63.5 79.3,63.5 75.4,45.3 					"/>
				</g>
				<g>
					<g>
						<polygon points="26.6,52.8 35.6,52.8 35.9,46.2 27.2,46.2 						"/>
					</g>
					<g>
						<polygon points="25.7,62.3 35.2,62.3 35.6,54.1 26.5,54.1 						"/>
					</g>
					<g>
						<polygon points="36.9,46.2 36.6,52.8 45.4,52.8 45.2,46.2 						"/>
					</g>
					<g>
						<polygon points="36.6,54.1 36.3,62.3 45.8,62.3 45.5,54.1 						"/>
					</g>
					<g>
						<polygon points="46.2,46.2 46.5,52.8 55.5,52.8 54.9,46.2 						"/>
					</g>
					<g>
						<polygon points="46.5,54.1 46.8,62.3 56.4,62.3 55.6,54.1 						"/>
					</g>
					<g>
						<polygon points="7.3,52.8 14.9,52.8 15.9,46.2 8.7,46.2 						"/>
					</g>
					<g>
						<polygon points="5.4,62.3 13.5,62.3 14.7,54.1 7.1,54.1 						"/>
					</g>
					<g>
						<polygon points="66.1,46.2 67.1,52.8 75.7,52.8 74.4,46.2 						"/>
					</g>
					<g>
						<polygon points="67.3,54.1 68.6,62.3 77.6,62.3 76,54.1 						"/>
					</g>
					<g>
						<polygon points="16,52.8 25.4,52.8 26.1,46.2 17,46.2 						"/>
					</g>
					<g>
						<polygon points="14.6,62.3 24.5,62.3 25.3,54.1 15.9,54.1 						"/>
						<path d="M14.4,62.6h10.4l0.9-8.7h-10L14.4,62.6z M25,54.3L24.3,62H15l1.1-7.7H25z"/>
					</g>
					<g>
						<polygon points="56,46.2 56.6,52.8 66,52.8 65,46.2 						"/>
					</g>
					<g>
						<polygon points="56.8,54.1 57.6,62.3 67.4,62.3 66.2,54.1 						"/>
					</g>
				</g>
			</g>
			<g>
				<g>
					<ellipse class="st2" cx="41.5" cy="21.9" rx="12.8" ry="12.8"/>
					<polygon class="st2" points="44.1,7.8 39,7.8 41.5,2.7 41.5,2.7 					"/>
					<polygon class="st2" points="44.1,7.8 39,7.8 41.5,2.7 41.5,2.7 					"/>
					<polygon class="st2" points="39,36.1 44.1,36.1 41.5,41.2 41.5,41.2 					"/>
					<polygon class="st2" points="55.7,24.5 55.7,19.4 60.8,21.9 60.8,21.9 					"/>
					<polygon class="st2" points="27.4,19.4 27.4,24.5 22.3,21.9 22.3,21.9 					"/>
					<polygon class="st2" points="53.3,13.7 49.7,10.1 55.1,8.3 55.1,8.3 					"/>
					<polygon class="st2" points="29.7,30.1 33.3,33.7 27.9,35.5 27.9,35.5 					"/>
					<polygon class="st2" points="49.7,33.7 53.3,30.1 55.1,35.5 55.1,35.5 					"/>
					<polygon class="st2" points="33.3,10.1 29.7,13.7 27.9,8.3 27.9,8.3 					"/>
				</g>
			</g>
			<g>
				<g>
					<rect x="16.5" y="71.9" width="8.6" height="2.9"/>
					<g>
						<path class="st3" d="M15.7,117.2c-1.7,0-3.1-1.4-3.1-3.1V76.9c0-1.7,1.4-3.1,3.1-3.1H26c1.7,0,3.1,1.4,3.1,3.1v37.1
							c0,1.7-1.4,3.1-3.1,3.1H15.7z"/>
						<path d="M26,74c1.6,0,2.9,1.3,2.9,2.9v37.1c0,1.6-1.3,2.9-2.9,2.9H15.7c-1.6,0-2.9-1.3-2.9-2.9V76.9c0-1.6,1.3-2.9,2.9-2.9
							L26,74L26,74z M26,73.7H15.7c-1.8,0-3.3,1.5-3.3,3.3v37.1c0,1.8,1.5,3.3,3.3,3.3H26c1.8,0,3.3-1.5,3.3-3.3V76.9
							C29.3,75.1,27.8,73.7,26,73.7L26,73.7z"/>
					</g>
					<g>
						<path class="st3" d="M17.1,114.9c-1.5,0-2.8-1.3-2.8-2.8V79.3c0-1.5,1.3-2.8,2.8-2.8h7.5c1.5,0,2.8,1.3,2.8,2.8v32.8
							c0,1.5-1.3,2.8-2.8,2.8C24.6,114.9,17.1,114.9,17.1,114.9z"/>
						<path d="M24.6,76.6c1.5,0,2.7,1.2,2.7,2.7v32.8c0,1.5-1.2,2.7-2.7,2.7h-7.5c-1.5,0-2.7-1.2-2.7-2.7V79.3
							c0-1.5,1.2-2.7,2.7-2.7H24.6L24.6,76.6z M24.6,76.3h-7.5c-1.6,0-2.9,1.3-2.9,2.9v32.8c0,1.6,1.3,2.9,2.9,2.9h7.5
							c1.6,0,2.9-1.3,2.9-2.9V79.3C27.5,77.7,26.2,76.3,24.6,76.3L24.6,76.3z"/>
					</g>
					<path class="st4" d="M27.3,111v1.1c0,1.5-1.2,2.7-2.7,2.7h-7.5c-1.5,0-2.7-1.2-2.7-2.7V111H27.3z"/>
					<rect x="14.4" y="106" class="st4" width="12.9" height="4.3"/>
					<rect x="14.4" y="101" class="st4" width="12.9" height="4.3"/>
					<rect x="14.4" y="96" class="st4" width="12.9" height="4.3"/>
					<rect x="14.4" y="91" class="st4" width="12.9" height="4.3"/>
					<rect x="14.4" y="86" class="st4" width="12.9" height="4.3"/>
					<rect x="14.4" y="81" class="st4" width="12.9" height="4.3"/>
					<path class="st4" d="M27.3,79.3v1.1H14.4v-1.1c0-1.5,1.2-2.7,2.7-2.7h7.5C26.1,76.6,27.3,77.8,27.3,79.3z"/>
				</g>
				<g>
					<rect x="37.2" y="71.9" width="8.6" height="2.9"/>
					<g>
						<path class="st3" d="M36.4,117.2c-1.7,0-3.1-1.4-3.1-3.1V76.9c0-1.7,1.4-3.1,3.1-3.1h10.3c1.7,0,3.1,1.4,3.1,3.1v37.1
							c0,1.7-1.4,3.1-3.1,3.1H36.4z"/>
						<path d="M46.7,74c1.6,0,2.9,1.3,2.9,2.9v37.1c0,1.6-1.3,2.9-2.9,2.9H36.4c-1.6,0-2.9-1.3-2.9-2.9V76.9c0-1.6,1.3-2.9,2.9-2.9
							L46.7,74L46.7,74z M46.7,73.7H36.4c-1.8,0-3.3,1.5-3.3,3.3v37.1c0,1.8,1.5,3.3,3.3,3.3h10.3c1.8,0,3.3-1.5,3.3-3.3V76.9
							C49.9,75.1,48.5,73.7,46.7,73.7L46.7,73.7z"/>
					</g>
					<g>
						<path class="st3" d="M37.8,114.9c-1.5,0-2.8-1.3-2.8-2.8V79.3c0-1.5,1.3-2.8,2.8-2.8h7.5c1.5,0,2.8,1.3,2.8,2.8v32.8
							c0,1.5-1.3,2.8-2.8,2.8C45.3,114.9,37.8,114.9,37.8,114.9z"/>
						<path d="M45.3,76.6c1.5,0,2.7,1.2,2.7,2.7v32.8c0,1.5-1.2,2.7-2.7,2.7h-7.5c-1.5,0-2.7-1.2-2.7-2.7V79.3
							c0-1.5,1.2-2.7,2.7-2.7H45.3L45.3,76.6z M45.3,76.3h-7.5c-1.6,0-2.9,1.3-2.9,2.9v32.8c0,1.6,1.3,2.9,2.9,2.9h7.5
							c1.6,0,2.9-1.3,2.9-2.9V79.3C48.2,77.7,46.9,76.3,45.3,76.3L45.3,76.3z"/>
					</g>
					<path class="st4" d="M48,111v1.1c0,1.5-1.2,2.7-2.7,2.7h-7.5c-1.5,0-2.7-1.2-2.7-2.7V111H48z"/>
					<rect x="35.1" y="106" class="st4" width="12.9" height="4.3"/>
					<rect x="35.1" y="101" class="st4" width="12.9" height="4.3"/>
					<rect x="35.1" y="96" class="st4" width="12.9" height="4.3"/>
					<rect x="35.1" y="91" class="st4" width="12.9" height="4.3"/>
					<rect x="35.1" y="86" class="st4" width="12.9" height="4.3"/>
					<rect x="35.1" y="81" class="st4" width="12.9" height="4.3"/>
					<path class="st4" d="M48,79.3v1.1H35.1v-1.1c0-1.5,1.2-2.7,2.7-2.7h7.5C46.8,76.6,48,77.8,48,79.3z"/>
				</g>
				<g>
					<rect x="57.9" y="71.9" width="8.6" height="2.9"/>
					<g>
						<path class="st3" d="M57.1,117.2c-1.7,0-3.1-1.4-3.1-3.1V76.9c0-1.7,1.4-3.1,3.1-3.1h10.3c1.7,0,3.1,1.4,3.1,3.1v37.1
							c0,1.7-1.4,3.1-3.1,3.1H57.1z"/>
						<path d="M67.4,74c1.6,0,2.9,1.3,2.9,2.9v37.1c0,1.6-1.3,2.9-2.9,2.9H57.1c-1.6,0-2.9-1.3-2.9-2.9V76.9c0-1.6,1.3-2.9,2.9-2.9
							L67.4,74L67.4,74z M67.4,73.7H57.1c-1.8,0-3.3,1.5-3.3,3.3v37.1c0,1.8,1.5,3.3,3.3,3.3h10.3c1.8,0,3.3-1.5,3.3-3.3V76.9
							C70.6,75.1,69.2,73.7,67.4,73.7L67.4,73.7z"/>
					</g>
					<g>
						<path class="st3" d="M58.4,114.9c-1.5,0-2.8-1.3-2.8-2.8V79.3c0-1.5,1.3-2.8,2.8-2.8H66c1.5,0,2.8,1.3,2.8,2.8v32.8
							c0,1.5-1.3,2.8-2.8,2.8C66,114.9,58.4,114.9,58.4,114.9z"/>
						<path d="M66,76.6c1.5,0,2.7,1.2,2.7,2.7v32.8c0,1.5-1.2,2.7-2.7,2.7h-7.5c-1.5,0-2.7-1.2-2.7-2.7V79.3c0-1.5,1.2-2.7,2.7-2.7
							H66L66,76.6z M66,76.3h-7.5c-1.6,0-2.9,1.3-2.9,2.9v32.8c0,1.6,1.3,2.9,2.9,2.9H66c1.6,0,2.9-1.3,2.9-2.9V79.3
							C68.9,77.7,67.6,76.3,66,76.3L66,76.3z"/>
					</g>
					<path class="st4" d="M68.6,111v1.1c0,1.5-1.2,2.7-2.7,2.7h-7.5c-1.5,0-2.7-1.2-2.7-2.7V111H68.6z"/>
					<rect x="55.8" y="106" class="st4" width="12.9" height="4.3"/>
					<rect x="55.8" y="101" class="st4" width="12.9" height="4.3"/>
					<rect x="55.8" y="96" class="st4" width="12.9" height="4.3"/>
					<rect x="55.8" y="91" class="st4" width="12.9" height="4.3"/>
					<rect x="55.8" y="86" class="st4" width="12.9" height="4.3"/>
					<rect x="55.8" y="81" class="st4" width="12.9" height="4.3"/>
					<path class="st4" d="M68.6,79.3v1.1H55.8v-1.1c0-1.5,1.2-2.7,2.7-2.7H66C67.4,76.6,68.6,77.8,68.6,79.3z"/>
				</g>
			</g>
			<g>
				<polygon points="21.5,71.9 20.6,71.9 20.6,67.4 41.1,67.4 41.1,64.9 42,64.9 42,68.3 21.5,68.3 				"/>
			</g>
			<g>
				<polygon points="62.7,71.9 61.8,71.9 61.8,68.2 41,68.3 41,67.4 62.7,67.3 				"/>
			</g>
			<g>
				<rect x="41.1" y="66.9" width="0.9" height="5"/>
			</g>
		</g>
		<g>
			<g>
				<g>
					<path class="st3" d="M55.9,89.9c-0.9-0.8-2.7,0.8-2.7,3.8c0,2.4-2.4,5.9-0.5,8.4l3-3.6c0,0,0.3-3.5,0.1-5.1
						C55.5,91.9,56.2,90.2,55.9,89.9z"/>
					<path class="st5" d="M54.8,89.6c-0.9,0.4-1.9,1.9-1.9,4.1c0,0.8-0.3,1.7-0.6,2.7c-0.6,1.9-1.2,4.1,0.2,5.8
						c0,0.1,0.1,0.1,0.2,0.1c0,0,0.1,0,0.1-0.1c0.1-0.1,0.1-0.2,0-0.3c-1.2-1.6-0.6-3.5-0.1-5.4c0.3-1,0.6-1.9,0.6-2.8
						c0-2,0.8-3.3,1.6-3.7c0.2-0.1,0.5-0.2,0.7,0c0.1,0.1,0,0.6-0.1,1c-0.1,0.7-0.3,1.6-0.1,2.5c0.2,1.5-0.1,5-0.1,5
						c0,0.1,0.1,0.2,0.2,0.2c0.1,0,0.2-0.1,0.2-0.2c0-0.1,0.3-3.5,0.1-5.1c-0.1-0.8,0-1.6,0.1-2.3c0.1-0.7,0.2-1.2-0.1-1.4
						C55.7,89.4,55.2,89.4,54.8,89.6z"/>
				</g>
				<g>
					<g>
						<path class="st3" d="M95.4,77.5l-0.3,0.1c0,0-2.5,1.1-4.6,1.1c-1,0-1.8-0.2-2.2-0.7c-3.8-3.7-5.2-9.1-5.2-11.9
							c0-1.9,0.3-2.9,0.6-3.6c0.2-0.8,0.4-1.3,0.1-2.2c-0.6-1.6,0.5-7.5,1.8-8.8c0.8-0.8,4.9-1.9,9.5-1.9c3.1,0,5.8,0.5,7.8,1.5
							c5.4,2.5,5.3,8.1,4.6,12.6l-0.1,0.6c-0.3,1.7-0.6,3.9-0.4,6.6c0.3,3.1,1.2,5.2,1.5,5.9l-12.4,5.6L95.4,77.5z"/>
						<path d="M95,49.8c3,0,5.7,0.5,7.7,1.4c5.3,2.5,5.2,7.9,4.5,12.3l-0.1,0.5c-0.3,1.7-0.6,4-0.4,6.6c0.3,2.8,1.1,4.9,1.4,5.8
							l-11.9,5.3l-0.5-4.1l-0.1-0.7L95,77.4c0,0-2.5,1.1-4.5,1.1c-0.9,0-1.6-0.2-2.1-0.6c-3.8-3.6-5.1-9-5.1-11.7
							c0-1.8,0.3-2.8,0.6-3.6c0.2-0.8,0.4-1.4,0.1-2.3c-0.5-1.5,0.5-7.3,1.7-8.6C86.4,50.9,90.5,49.8,95,49.8L95,49.8z M95,49.3
							c-4.5,0-8.8,1.1-9.7,2c-1.4,1.4-2.4,7.5-1.8,9.1c0.6,1.6-0.7,2-0.7,5.7c0,3.1,1.6,8.5,5.3,12.1c0.6,0.6,1.5,0.8,2.4,0.8
							c2.2,0,4.7-1.1,4.7-1.1l0.6,4.7l12.9-5.8c0,0-1.3-2.4-1.6-6.1c-0.3-2.9,0.2-5.3,0.5-7c0.5-3.4,1.3-10-4.8-12.9
							C100.6,49.7,97.8,49.3,95,49.3L95,49.3z"/>
					</g>
				</g>
				<g>
					<g>
						<path class="st6" d="M108,72.4c-3.1,0.4-11.4,7.1-14.6,8.4c0,0,0.6,0.7-1.2,2.8c-5.1,6.1-9.4,11-9.4,20.9
							c0,10-4.3,18.1-3.2,26.5h40.1c0-15.9-0.8-32.7-5.3-42.9C112.1,82.8,109.3,77.8,108,72.4z"/>
						<path d="M119.9,131.3H79.4l0-0.2c-0.6-4.6,0.4-9,1.4-13.7c0.9-4,1.8-8.2,1.8-12.8c0-9.7,4.2-14.8,9.1-20.6l0.4-0.5
							c1.6-1.9,1.2-2.5,1.2-2.5L93,80.7l0.3-0.1c1.3-0.5,3.5-2,5.8-3.5c3.4-2.3,7-4.6,8.8-4.8l0.2,0l0.1,0.2c0.9,4,2.7,7.7,4.5,11.7
							c0.6,1.3,1.2,2.6,1.8,4c4.7,10.7,5.3,28.6,5.3,43L119.9,131.3L119.9,131.3z M79.8,130.8h39.6c0-14.3-0.6-32-5.3-42.5
							c-0.6-1.3-1.2-2.7-1.8-4c-1.8-3.8-3.6-7.6-4.5-11.6c-1.8,0.4-5.3,2.7-8.4,4.7c-2.2,1.5-4.3,2.9-5.7,3.5c0.1,0.4,0,1.3-1.3,2.8
							L92,84.3c-4.8,5.7-9,10.7-9,20.2c0,4.6-0.9,8.8-1.8,12.9C80.2,122,79.3,126.4,79.8,130.8z"/>
					</g>
				</g>
				<g>
					<g>
						<path class="st3" d="M55.3,97.1c-0.5-1-2.1-6.8-2.7-8.6c-0.8-2.4-3.8-0.9-5.8-0.9c-1.7,0-3.8-1-4.1-0.1
							c-0.6,1.4,2.5,2.8,4.9,2.7c2.6-0.2,2.2,0.8,2.2,0.8s-4.9-1.7-5.7,0.9c0,0-1.9,1-1.6,2.7c0,0.1-3.3,3.6-1.2,4.9
							c0.7,0.4,3.5,2.9,3.8,1.1c0.2-1.2-2.3-2.3-2-2.6s0.5-0.9,0.6-0.7c2.9,6.3,5.5,8,7.5,7.8c5.3,4.9,9.8,8.3,9.8,8.3l5.1-10.4
							C66,102.9,55.8,98.1,55.3,97.1z"/>
						<path class="st5" d="M66.1,102.7c-4.9-2.3-10.3-5.2-10.6-5.7c-0.2-0.5-0.9-2.7-1.5-4.7c-0.5-1.6-0.9-3.1-1.2-3.9
							c-0.3-1-1.1-1.5-2.3-1.5c-0.6,0-1.3,0.1-2,0.2c-0.7,0.1-1.3,0.2-1.8,0.2c-0.6,0-1.3-0.2-1.9-0.3c-0.5-0.1-1-0.2-1.5-0.2
							c-0.5,0-0.8,0.2-1,0.5c-0.2,0.4-0.1,0.8,0.2,1.2c0.5,0.8,1.8,1.4,3.3,1.7c-1.3,0.2-1.8,0.8-2.1,1.4c-0.4,0.2-1.9,1.2-1.7,2.8
							c0,0.1-0.1,0.1-0.2,0.2c-0.6,0.7-1.9,2.5-1.7,3.8c0.1,0.5,0.3,0.8,0.8,1.1c0.1,0.1,0.3,0.2,0.5,0.3c0.8,0.6,2,1.4,2.8,1.4
							c0.3,0,0.7-0.1,0.9-0.8c1.9,3.1,3.8,4.6,5.7,4.6c0,0,0.1,0,0.2,0c5.2,4.8,9.7,8.2,9.7,8.2c0,0,0.1,0.1,0.1,0.1c0,0,0,0,0,0
							c0.1,0,0.1-0.1,0.2-0.1l5.1-10.4c0-0.1,0-0.1,0-0.2C66.2,102.8,66.2,102.7,66.1,102.7z M60.8,113c-1-0.8-4.9-3.9-9.5-8.1
							c0,0-0.1-0.1-0.2-0.1h0c-0.1,0-0.2,0-0.2,0c-2.3,0-4.8-2.7-7.1-7.7C43.7,97,43.6,97,43.5,97c-0.2,0-0.3,0.2-0.4,0.4
							c-0.1,0.1-0.2,0.3-0.3,0.4c-0.1,0.1-0.1,0.2-0.1,0.2c0,0.2,0.3,0.5,0.7,0.8c0.6,0.5,1.4,1.1,1.3,1.7c0,0.4-0.2,0.5-0.4,0.5
							c-0.7,0-1.8-0.8-2.5-1.4c-0.2-0.2-0.4-0.3-0.5-0.4c-0.3-0.2-0.5-0.5-0.6-0.8c-0.2-1.1,1.1-2.8,1.6-3.4
							c0.3-0.3,0.3-0.4,0.3-0.5C42.3,92.9,44,92,44.1,92c0,0,0.1-0.1,0.1-0.1c0.3-0.8,1.1-1.2,2.4-1.2c1.5,0,3,0.5,3,0.5
							c0.1,0,0.2,0,0.3-0.1c0,0,0.1-0.3-0.1-0.6c-0.2-0.4-0.8-0.6-1.8-0.6c-0.2,0-0.4,0-0.6,0c-1.8,0.1-3.9-0.7-4.5-1.6
							c-0.2-0.3-0.2-0.5-0.1-0.8c0-0.1,0.1-0.2,0.5-0.2c0.3,0,0.8,0.1,1.3,0.2c0.6,0.1,1.4,0.3,2,0.3c0.6,0,1.2-0.1,1.9-0.2
							c0.6-0.1,1.3-0.2,1.9-0.2c1,0,1.6,0.4,1.9,1.2c0.3,0.8,0.7,2.3,1.2,3.8c0.6,2.1,1.3,4.2,1.5,4.8c0.4,1,8.5,4.8,10.6,5.9
							L60.8,113z M44,98.7c-0.1-0.1-0.2-0.2-0.3-0.2c-0.2-0.1-0.4-0.3-0.5-0.4c0.1-0.1,0.2-0.3,0.3-0.4C43.7,98,43.8,98.3,44,98.7z
							 M48.2,90.3c0.8,0,1.1,0.2,1.2,0.3C49.1,90.5,48.7,90.4,48.2,90.3z"/>
					</g>
					<g>
						<path class="st5" d="M44.1,94.2c-0.9-0.4-1.6-0.1-1.9,0.2c-0.1,0.1-0.1,0.2,0,0.3c0.1,0.1,0.2,0.1,0.3,0c0,0,0.6-0.6,1.4-0.1
							c0.9,0.5,2.2,1.4,2.2,1.4c0,0,0.1,0.1,0.1,0.1c0.1,0,0.1,0,0.2-0.1c0.1-0.1,0.1-0.2,0-0.3C46.3,95.6,45.1,94.7,44.1,94.2z"/>
					</g>
					<g>
						<path class="st5" d="M47.8,93c0,0-0.8-0.4-1.8-0.9c-1-0.5-2.2-0.4-2.2-0.4c-0.1,0-0.2,0.1-0.2,0.3c0,0.1,0.1,0.2,0.3,0.2
							c0,0,1.1-0.1,1.9,0.3c0.9,0.5,1.8,0.9,1.8,0.9c0,0,0.1,0,0.1,0c0.1,0,0.2,0,0.2-0.1C48,93.2,48,93.1,47.8,93z"/>
					</g>
				</g>
				<g>
					<g>
						<path class="st6" d="M89.3,88.2C83,95.4,77,106,77,106s-8.6-5.2-15.7-7.7c0,0-5.8,12.2-3.6,19.9c0,0,21.9,10.8,23.7,10.3
							c0.9-0.2,9.3-4.9,15.2-13.2c6.1-8.4,6.5-19.2-0.2-27.1C94.2,85.6,91.1,86.2,89.3,88.2z"/>
						<path d="M81.3,128.8c-2.6,0-21.5-9.3-23.7-10.3l-0.1-0.1l0-0.1c-2.2-7.7,3.4-19.6,3.6-20.1l0.1-0.2l0.2,0.1
							c6.4,2.3,14.1,6.8,15.5,7.6c0.9-1.6,6.4-11.1,12.2-17.7c1-1.2,2.4-1.8,3.8-1.8c0,0,0,0,0.1,0c1.4,0,2.7,0.7,3.7,1.9
							c6.5,7.8,6.6,18.5,0.2,27.4c-5.9,8.2-14.4,13-15.4,13.3C81.4,128.8,81.3,128.8,81.3,128.8z M57.9,118
							c8.8,4.3,22.1,10.6,23.4,10.3c1-0.2,9.3-5,15.1-13.1c6.3-8.7,6.2-19.2-0.2-26.8c-0.9-1.1-2.1-1.7-3.3-1.7c0,0,0,0,0,0
							c-1.2,0-2.5,0.6-3.4,1.6l-0.2-0.2l0.2,0.2c-6.3,7.1-12.2,17.7-12.3,17.8l-0.1,0.2l-0.2-0.1c-0.1-0.1-8.5-5.1-15.4-7.6
							C60.7,100.2,56,111,57.9,118z"/>
					</g>
				</g>
				<g>
					<path d="M96.8,46.1c-5.4-0.2-9.5,1.3-12.2,3.2c-2.8,1.9-5,5.4-3.6,7.5s9.9,3.8,10.5,7.2c0.7-0.9,1.9-1.4,3.2-1.1
						c1.3,0.3,2.4,1.3,2.6,2.6c0.3,1.5-0.5,2.9-1.7,3.6c0.6,4.1,3.4,6.6,7,5.4c1.4-0.5,6.9-1.9,6.9-2.9c0-3,0.2-15.2-0.9-18.3
						C107,48.6,102.3,46.2,96.8,46.1z"/>
				</g>
			</g>
		</g>
	</g>
	<g>
		<rect x="5.2" y="131.2" class="st3" width="115.4" height="1.1"/>
	</g>
</g>
</svg>
