<?xml version="1.0" encoding="utf-8"?>
<!-- Generator: Adobe Illustrator 27.3.1, SVG Export Plug-In . SVG Version: 6.00 Build 0)  -->
<svg version="1.1" id="Capa_1" xmlns="http://www.w3.org/2000/svg" xmlns:xlink="http://www.w3.org/1999/xlink" x="0px" y="0px"
	 viewBox="0 0 129 146" style="enable-background:new 0 0 129 146;" xml:space="preserve">
<style type="text/css">
	.st0{fill:#FFFFFF;}
	.st1{fill:#010202;}
	.st2{fill:#FAB90B;}
	.st3{fill:#88BF4B;}
	.st4{opacity:0.55;fill:#6D6595;}
	.st5{fill:#3C9D81;}
	.st6{fill:#16162B;}
</style>
<g>
	<g>
		<g>
			<g>
				<g>
					<rect x="77.11" y="85.41" class="st0" width="33.97" height="59.45"/>
					<path class="st1" d="M110.83,85.66v58.95H77.36V85.66H110.83L110.83,85.66z M111.33,85.16H76.86v59.95h34.47V85.16
						L111.33,85.16z"/>
				</g>
				<g>
					<polygon class="st0" points="28.55,144.86 28.55,89.42 19.75,89.42 50.14,44.2 51.06,44.2 79.82,85.41 81.76,85.41 
						81.76,88.19 82.62,89.42 81.76,89.42 81.76,144.86 					"/>
					<path class="st1" d="M50.93,44.45l28.61,41l0.15,0.21h0.26h1.56v2.45v0.16l0.09,0.13l0.54,0.78h-0.13h-0.5v0.5v54.94H28.8
						V89.67v-0.5h-0.5h-8.08l30.05-44.73H50.93L50.93,44.45z M51.19,43.95H50L19.28,89.67h9.02v55.44h53.7V89.67h1.09l-1.09-1.57
						v-2.95h-2.06L51.19,43.95L51.19,43.95z"/>
				</g>
				<polygon class="st2" points="50,43.95 95.03,43.95 128.12,91.37 82.27,91.59 				"/>
			</g>
			<g>
				<g>
					<polygon class="st1" points="63.96,47.07 76.39,65.11 103.14,65.11 90.63,47.07 					"/>
					<g>
						<g>
							<polygon class="st3" points="70.66,56.04 64.66,47.42 70.89,47.34 76.95,56.04 							"/>
							<path class="st1" d="M70.89,47.39l5.96,8.6h-6.19l-5.96-8.6H70.89L70.89,47.39z M70.94,47.29h-0.05H64.7h-0.19l0.11,0.16
								l5.96,8.59l0.03,0.04h0.05h6.19h0.19l-0.11-0.16l-5.96-8.6L70.94,47.29L70.94,47.29z"/>
						</g>
						<g>
							<polygon class="st3" points="77.12,56.04 71.12,47.42 77.35,47.34 83.4,56.04 							"/>
							<path class="st1" d="M77.35,47.39l5.96,8.6h-6.19l-5.96-8.6H77.35L77.35,47.39z M77.4,47.29h-0.05h-6.19h-0.19l0.11,0.16
								l5.96,8.59l0.03,0.04h0.05h6.19h0.19l-0.11-0.16l-5.96-8.6L77.4,47.29L77.4,47.29z"/>
						</g>
						<g>
							<polygon class="st3" points="83.58,56.04 77.58,47.42 83.81,47.34 89.86,56.04 							"/>
							<path class="st1" d="M83.81,47.39l5.96,8.6h-6.19l-5.96-8.6H83.81L83.81,47.39z M83.86,47.29h-0.05h-6.19h-0.19l0.11,0.16
								l5.96,8.59l0.03,0.04h0.05h6.19h0.19l-0.11-0.16l-5.96-8.6L83.86,47.29L83.86,47.29z"/>
						</g>
						<g>
							<polygon class="st3" points="90.04,56.04 84.04,47.42 90.27,47.34 96.32,56.04 							"/>
							<path class="st1" d="M90.27,47.39l5.96,8.6h-6.19l-5.96-8.6H90.27L90.27,47.39z M90.32,47.29h-0.05h-6.19h-0.19L84,47.45
								l5.96,8.59l0.03,0.04h0.05h6.19h0.19l-0.11-0.16l-5.96-8.6L90.32,47.29L90.32,47.29z"/>
						</g>
					</g>
					<g>
						<g>
							<polygon class="st3" points="76.74,64.85 70.74,56.23 76.97,56.15 83.02,64.85 							"/>
							<path class="st1" d="M76.97,56.2l5.96,8.6h-6.19l-5.96-8.6H76.97L76.97,56.2z M77.02,56.1h-0.05h-6.19h-0.19l0.11,0.16
								l5.96,8.6l0.03,0.04h0.05h6.19h0.19l-0.11-0.16l-5.96-8.6L77.02,56.1L77.02,56.1z"/>
						</g>
						<g>
							<polygon class="st3" points="83.19,64.85 77.19,56.23 83.42,56.15 89.48,64.85 							"/>
							<path class="st1" d="M83.42,56.2l5.96,8.6h-6.19l-5.96-8.6H83.42L83.42,56.2z M83.48,56.1h-0.05h-6.19h-0.19l0.11,0.16
								l5.96,8.6l0.03,0.04h0.05h6.19h0.19l-0.11-0.16l-5.96-8.6L83.48,56.1L83.48,56.1z"/>
						</g>
						<g>
							<polygon class="st3" points="89.65,64.85 83.65,56.23 89.88,56.15 95.94,64.85 							"/>
							<path class="st1" d="M89.88,56.2l5.96,8.6h-6.19l-5.96-8.6H89.88L89.88,56.2z M89.94,56.1h-0.05h-6.19H83.5l0.11,0.16
								l5.96,8.6l0.03,0.04h0.05h6.19h0.19l-0.11-0.16l-5.96-8.6L89.94,56.1L89.94,56.1z"/>
						</g>
						<g>
							<polygon class="st3" points="96.11,64.85 90.11,56.23 96.34,56.15 102.4,64.85 							"/>
							<path class="st1" d="M96.34,56.2l5.96,8.6h-6.19l-5.96-8.6H96.34L96.34,56.2z M96.39,56.1h-0.05h-6.19h-0.19l0.11,0.16
								l5.96,8.6l0.03,0.04h0.05h6.19h0.19l-0.11-0.16l-5.96-8.6L96.39,56.1L96.39,56.1z"/>
						</g>
					</g>
				</g>
				<g>
					<polygon class="st1" points="77.86,68.6 90.29,86.63 117.03,86.63 104.53,68.6 					"/>
					<g>
						<g>
							<polygon class="st3" points="84.56,77.56 78.56,68.95 84.79,68.87 90.85,77.56 							"/>
							<path class="st1" d="M84.79,68.92l5.96,8.59h-6.19l-5.96-8.59H84.79L84.79,68.92z M84.84,68.82h-0.05H78.6h-0.19l0.11,0.16
								l5.96,8.59l0.03,0.04h0.05h6.19h0.19l-0.11-0.16l-5.96-8.6L84.84,68.82L84.84,68.82z"/>
						</g>
						<g>
							<polygon class="st3" points="91.02,77.56 85.02,68.95 91.25,68.87 97.3,77.56 							"/>
							<path class="st1" d="M91.25,68.92l5.96,8.59h-6.19l-5.96-8.59H91.25L91.25,68.92z M91.3,68.82h-0.05h-6.19h-0.19l0.11,0.16
								l5.96,8.59l0.03,0.04h0.05h6.19h0.19l-0.11-0.16l-5.96-8.6L91.3,68.82L91.3,68.82z"/>
						</g>
						<g>
							<polygon class="st3" points="97.48,77.56 91.48,68.95 97.71,68.87 103.76,77.56 							"/>
							<path class="st1" d="M97.71,68.92l5.96,8.59h-6.19l-5.96-8.59H97.71L97.71,68.92z M97.76,68.82h-0.05h-6.19h-0.19l0.11,0.16
								l5.96,8.59l0.03,0.04h0.05h6.19h0.19l-0.11-0.16l-5.96-8.6L97.76,68.82L97.76,68.82z"/>
						</g>
						<g>
							<polygon class="st3" points="103.94,77.56 97.94,68.95 104.17,68.87 110.22,77.56 							"/>
							<path class="st1" d="M104.17,68.92l5.96,8.59h-6.19l-5.96-8.59H104.17L104.17,68.92z M104.22,68.82h-0.05h-6.19h-0.19
								l0.11,0.16l5.96,8.59l0.03,0.04h0.05h6.19h0.19l-0.11-0.16l-5.96-8.6L104.22,68.82L104.22,68.82z"/>
						</g>
					</g>
					<g>
						<g>
							<polygon class="st3" points="90.63,86.38 84.64,77.76 90.86,77.68 96.92,86.38 							"/>
							<path class="st1" d="M90.86,77.73l5.96,8.59h-6.19l-5.96-8.59H90.86L90.86,77.73z M90.92,77.63h-0.05h-6.19h-0.19l0.11,0.16
								l5.96,8.59l0.03,0.04h0.05h6.19h0.19l-0.11-0.16l-5.96-8.59L90.92,77.63L90.92,77.63z"/>
						</g>
						<g>
							<polygon class="st3" points="97.09,86.38 91.09,77.76 97.32,77.68 103.38,86.38 							"/>
							<path class="st1" d="M97.32,77.73l5.96,8.59h-6.19l-5.96-8.59H97.32L97.32,77.73z M97.38,77.63h-0.05h-6.19h-0.19l0.11,0.16
								l5.96,8.59l0.03,0.04h0.05h6.19h0.19l-0.11-0.16l-5.96-8.59L97.38,77.63L97.38,77.63z"/>
						</g>
						<g>
							<polygon class="st3" points="103.55,86.38 97.55,77.76 103.78,77.68 109.84,86.38 							"/>
							<path class="st1" d="M103.78,77.73l5.96,8.59h-6.19l-5.96-8.59H103.78L103.78,77.73z M103.83,77.63h-0.05h-6.19H97.4
								l0.11,0.16l5.96,8.59l0.03,0.04h0.05h6.19h0.19l-0.11-0.16l-5.96-8.59L103.83,77.63L103.83,77.63z"/>
						</g>
						<g>
							<polygon class="st3" points="110.01,86.38 104.01,77.76 110.24,77.68 116.29,86.38 							"/>
							<path class="st1" d="M110.24,77.73l5.96,8.59h-6.19l-5.96-8.59H110.24L110.24,77.73z M110.29,77.63h-0.05h-6.19h-0.19
								l0.11,0.16l5.96,8.59l0.03,0.04h0.05h6.19h0.19l-0.11-0.16l-5.96-8.59L110.29,77.63L110.29,77.63z"/>
						</g>
					</g>
				</g>
			</g>
		</g>
		<g>
			<g>
				<g>
					<g>
						<path class="st0" d="M36.21,118.2c0.13-0.02,0.27-0.03,0.41-0.05C36.49,118.14,36.35,118.16,36.21,118.2z"/>
						<path class="st1" d="M36.56,118.15c-0.11,0-0.23,0.02-0.34,0.05c0.13-0.02,0.27-0.03,0.41-0.05
							C36.6,118.15,36.58,118.15,36.56,118.15L36.56,118.15z"/>
					</g>
					<g>
						<path class="st0" d="M38.05,120.23c-0.09,0-0.18-0.01-0.28-0.02c-0.66-0.08-1.96-0.51-2.12-1.02
							c-0.05-0.16,0.05-0.35,0.29-0.55c0.11-0.09,0.22-0.16,0.35-0.2l0.37-0.04c0.15,0.01,0.34,0.07,0.51,0.12
							c0.14,0.05,0.27,0.09,0.38,0.09c0.2,0,0.35-0.12,0.38-0.33c0.02-0.13,0.03-0.3-0.07-0.42l-0.08-0.09l-0.15-0.02h-0.06
							l-0.07,0.03c-0.27,0.03-0.59,0.07-0.91,0.12c-0.01,0-0.03,0-0.04,0c-0.16,0-0.29,0.02-0.41,0.06
							c-0.99,0.11-1.95,0.17-2.81,0.17c-2.96,0-4.86-0.7-5.63-2.08l-0.05-0.09l-0.11-0.03c-1.26-0.31-2.88-0.66-4.68-1.06
							c-7.52-1.66-18.88-4.16-20.02-6.61c-1.92-4.15,6.26-16.78,7.35-18.44l12.24,5.85l-5.64,8.36l0.26,0.13
							c1.3,0.63,12.77,6.19,14.06,6.19h0c0.59-0.08,2.15-0.84,3.95-1.7c1.83-0.89,3.92-1.89,4.8-2.12c0.17-0.04,0.33-0.07,0.48-0.07
							c1.11,0,1.63,1.21,2.19,2.49c0.25,0.57,0.5,1.16,0.81,1.62c0.36,0.54,0.86,1.03,1.31,1.46c0.61,0.59,1.18,1.15,0.97,1.43
							c-0.23,0.32-0.52,0.48-0.87,0.48l0,0c-1.11,0-2.57-1.49-3.38-2.89c-0.62-1.07-1.17-1.58-1.67-1.58
							c-0.36,0-0.54,0.26-0.56,0.29l-0.12,0.19l0.18,0.14c0.01,0.01,0.96,0.74,1.7,1.7c0.94,1.21,1.14,2.2,0.58,2.92l-0.06,0.08
							l0.01,0.1c0.01,0.08,0.2,1.85-1.14,2.42l-0.14,0.06l-0.01,0.15C40.12,117.55,39.87,120.23,38.05,120.23z"/>
						<path class="st1" d="M10.27,90.14l11.78,5.63l-5.32,7.88l-0.32,0.48l0.52,0.25c2.13,1.04,12.85,6.21,14.17,6.21l0.08,0
							l0.04-0.01c0.52-0.08,1.84-0.71,3.94-1.72c1.83-0.88,3.89-1.88,4.76-2.1c0.15-0.04,0.29-0.06,0.42-0.06
							c0.88,0,1.35,0.93,1.96,2.34c0.25,0.58,0.51,1.18,0.84,1.66c0.37,0.56,0.89,1.06,1.34,1.5c0.35,0.34,0.94,0.91,0.94,1.1
							c-0.19,0.25-0.4,0.37-0.67,0.37c-0.87,0-2.26-1.22-3.17-2.77c-0.68-1.17-1.28-1.71-1.89-1.71c-0.38,0-0.65,0.22-0.77,0.41
							l-0.24,0.38l0.36,0.28c0.63,0.49,2.31,2.04,2.48,3.33c0.05,0.36-0.03,0.67-0.25,0.95l-0.12,0.16l0.02,0.2
							c0.01,0.07,0.17,1.67-0.99,2.16l-0.28,0.12l-0.03,0.3c0,0.03-0.23,2.47-1.83,2.47c-0.08,0-0.16,0-0.25-0.02
							c-0.74-0.09-1.82-0.53-1.91-0.84c-0.01-0.04,0.06-0.16,0.21-0.29c0.07-0.06,0.15-0.11,0.23-0.14l0.12-0.01l0.19-0.02
							c0.15,0.01,0.31,0.06,0.45,0.11c0.16,0.05,0.31,0.1,0.46,0.1c0.33,0,0.58-0.22,0.63-0.54c0.03-0.17,0.04-0.42-0.13-0.62
							c-0.1-0.12-0.26-0.19-0.41-0.19l-0.13,0l-0.04,0.02c-0.3,0.05-0.58,0.08-0.86,0.12l-0.04,0c-0.15,0-0.3,0.02-0.44,0.06
							c-1.01,0.12-1.95,0.18-2.79,0.18c-2.83,0-4.7-0.67-5.41-1.95l-0.11-0.19l-0.21-0.05c-1.26-0.31-2.85-0.66-4.69-1.06
							c-7.02-1.55-18.76-4.13-19.84-6.48C1.46,104.7,7.51,94.31,10.27,90.14L10.27,90.14z M10.1,89.5c0,0-9.62,14.26-7.49,18.86
							c1.46,3.16,18.2,6.19,24.87,7.81c0.69,1.23,2.37,2.21,5.85,2.21c0.85,0,1.81-0.06,2.89-0.18c0.12-0.04,0.23-0.05,0.34-0.05
							c0.02,0,0.04,0,0.06,0c0.32-0.04,0.64-0.09,0.98-0.14c0,0,0.01,0,0.02,0c0.03,0,0.08,0.03,0.05,0.24
							c-0.01,0.08-0.06,0.11-0.13,0.11c-0.18,0-0.53-0.19-0.92-0.21c-0.14,0.02-0.27,0.03-0.41,0.05c-0.15,0.04-0.29,0.12-0.44,0.25
							c-1.33,1.16,1.16,1.9,1.97,2.01c0.11,0.01,0.21,0.02,0.31,0.02c2.08,0,2.33-2.93,2.33-2.93c1.54-0.65,1.29-2.68,1.29-2.68
							c1.54-1.99-2.33-4.98-2.33-4.98s0.11-0.18,0.34-0.18c0.29,0,0.77,0.27,1.46,1.46c0.86,1.49,2.39,3.02,3.6,3.02
							c0.41,0,0.78-0.17,1.07-0.58c0.54-0.74-1.37-1.82-2.27-3.18c-0.99-1.48-1.38-4.22-3.21-4.22c-0.17,0-0.35,0.02-0.55,0.07
							c-1.74,0.45-7.65,3.66-8.65,3.81c-0.01,0-0.03,0-0.04,0c-1.27,0-13.95-6.16-13.95-6.16l5.64-8.36L10.1,89.5L10.1,89.5z"/>
					</g>
				</g>
			</g>
			<g>
				<g>
					<path class="st0" d="M17.4,131.33c0.04,0.05,0.07,0.1,0.1,0.14C17.5,131.47,17.47,131.37,17.4,131.33z"/>
					<path class="st1" d="M17.4,131.33c0.04,0.05,0.07,0.1,0.1,0.14C17.5,131.47,17.47,131.37,17.4,131.33L17.4,131.33z"/>
				</g>
				<path class="st1" d="M22.04,107.68c-2.69,0.09-11.18,14.98-4.65,23.65c0.07,0.04,0.1,0.14,0.1,0.14
					c-0.04-0.05-0.07-0.1-0.1-0.14c-0.29-0.19-1.25,0.56-3.41,13.38h33.35c0.29-22.9,3.79-36.98,3.08-38.15
					C48.7,103.73,24.47,107.6,22.04,107.68z"/>
			</g>
			<g>
				<path class="st1" d="M28.53,106.56c-9.43,12.07-1.93,25.92-1.93,32.29c0,4.77-0.16,2.11-0.28,5.86h32.49
					c-1.3-18.89-1.94-33.92-4.35-36.77C51.93,104.94,30.61,103.9,28.53,106.56z"/>
			</g>
			<path class="st4" d="M17.4,131.33c0.04,0.05,0.07,0.1,0.1,0.14C17.5,131.47,17.47,131.37,17.4,131.33z"/>
			<g>
				<g>
					<g>
						<path class="st0" d="M27.14,69.36c0.35-1.21,1.5-5.68,1.5-11.82v-0.17l-0.15-0.06c-0.07-0.03-1.68-0.73-1.97-3.2
							c-0.1-0.84,0.1-1.57,0.56-2.09c0.49-0.55,1.27-0.86,2.2-0.86h0.27l-0.02-0.27c0-0.07-0.49-6.88,2.78-8.91
							c0.75-0.46,1.78-0.71,3-0.71c3.55,0,8.65,2.26,8.91,5.94l0.04,0.57c0.09,1.43,0.17,2.67,0.87,5.38
							c0.42,1.63,0.12,5.06-1.84,7.6c-1.4,1.81-3.3,2.72-5.66,2.72h-0.31l0.06,0.3c0.02,0.11,0.54,2.53,2.23,5.58H27.14z"/>
						<path class="st1" d="M35.32,41.53c3.9,0,8.43,2.44,8.66,5.7l0.04,0.57c0.09,1.45,0.17,2.7,0.88,5.42
							c0.47,1.83-0.08,5.17-1.8,7.38c-1.35,1.74-3.19,2.62-5.46,2.62h-0.61l0.12,0.6c0.02,0.1,0.51,2.37,2.05,5.28H27.47
							c0.43-1.56,1.42-5.79,1.42-11.57l0-0.33l-0.3-0.13c-0.06-0.03-1.54-0.69-1.82-3c-0.09-0.77,0.08-1.43,0.5-1.9
							c0.44-0.5,1.16-0.77,2.01-0.77h0.54l-0.04-0.54c-0.01-0.07-0.49-6.72,2.66-8.67C33.15,41.76,34.14,41.53,35.32,41.53
							L35.32,41.53z M35.32,41.03c-1.21,0-2.32,0.24-3.13,0.74c-3.45,2.13-2.9,9.14-2.9,9.14c-1.97,0-3.24,1.27-3.01,3.23
							c0.31,2.66,2.12,3.4,2.12,3.4c0,7.24-1.59,12.07-1.59,12.07h13.24c-1.86-3.23-2.41-5.88-2.41-5.88c6.81,0,8.53-7.6,7.74-10.63
							c-0.78-3.03-0.78-4.21-0.9-5.9C44.21,43.46,39.21,41.03,35.32,41.03L35.32,41.03z"/>
					</g>
				</g>
				<g>
					<path class="st1" d="M35.58,49.98l0.4,0.24c1.13-1.85,3.04-2.28,3.06-2.28l-0.1-0.46C38.85,47.5,36.81,47.96,35.58,49.98z"/>
				</g>
				<g>
					<path class="st1" d="M41.62,48.99l-0.24,0.4c0.06,0.03,1.36,0.79,2.96,0.79c0.07,0,0.13,0,0.2,0l-0.02-0.47
						C42.96,49.77,41.63,49,41.62,48.99z"/>
				</g>
				<g>
					<path class="st1" d="M42.91,54.11c-0.43-0.01-0.81,0.27-1.19,0.85l0.39,0.26c0.28-0.42,0.57-0.67,0.78-0.64
						c0.25,0.01,0.42,0.29,0.42,0.3l0.2-0.12l-0.2,0.12l0.2-0.12l0.2-0.12C43.71,54.62,43.42,54.13,42.91,54.11z"/>
				</g>
				<g>
					<path class="st1" d="M37.36,50.84c-0.28,0.18-0.38,0.52-0.23,0.77c0.16,0.25,0.51,0.3,0.79,0.12c0.28-0.18,0.38-0.52,0.23-0.77
						C38,50.72,37.64,50.66,37.36,50.84z"/>
				</g>
				<g>
					<path class="st1" d="M43.31,50.84c-0.28,0.18-0.38,0.52-0.23,0.77c0.16,0.25,0.51,0.3,0.79,0.12c0.28-0.18,0.38-0.52,0.23-0.77
						C43.95,50.72,43.59,50.66,43.31,50.84z"/>
				</g>
				<g>
					<path class="st1" d="M35,34.13c-3.36-1.42-2.85-6.65-6.51-3.82c-3.66,2.82-7.93-0.84-7.72,4.17c0.21,5.01-3.89,2.45-2.01,7.73
						c1.7,4.79,6.56,4.64,8.16,3.07c1.6-1.57,4.11-5.19,7.38-4.09C37.55,42.27,38.36,35.55,35,34.13z"/>
				</g>
				<g>
					<path class="st2" d="M29.92,36.7c-2.31,0.9-3.68,2.94-3.05,4.56c0.63,1.61,3.01,2.19,5.33,1.29c2.31-0.9,3.68-2.94,3.05-4.55
						C34.62,36.38,32.24,35.8,29.92,36.7z"/>
				</g>
				<g>
					<path class="st1" d="M39.96,58.08c-1.23-0.11-2.3-1.87-2.32-1.89l-0.4,0.24c0.05,0.08,1.21,1.98,2.67,2.11
						c0.05,0,0.11,0.01,0.16,0.01c0.57,0,1.11-0.28,1.59-0.83l-0.35-0.31C40.88,57.91,40.44,58.12,39.96,58.08z"/>
				</g>
				<g>
					<path class="st1" d="M41.91,41.41c0,0-1.79-4.93-9.91-3.04c-9.43,2.2-7.42,12.56-5.72,15.76c0,0,0.15-3.36,2.21-3.18
						c0.74,0.06,0.72,3.68,2.5,4.24c0,0-0.91-4.52,1.65-6.6c2.56-2.08,3.26-4.05,2.37-6.41c0,0,1.37,2.34,5.67,2.34
						c3.56,0,4.4,6.34,4.4,6.34S48,44.02,41.91,41.41z"/>
				</g>
				<g>
					<path class="st2" d="M28.39,56.48c-0.58,0-1.05,0.47-1.05,1.05c0,0.58,0.47,1.05,1.05,1.05s1.05-0.47,1.05-1.05
						C29.44,56.95,28.97,56.48,28.39,56.48z"/>
				</g>
			</g>
			<g>
				<g>
					<g>
						<path class="st5" d="M42.04,68.13c-0.29-0.6-0.73-2.06-1.78-2.65c-2.95-1.65-6.35-2.05-13.45-2.05
							c-1.09,0-1.37,2.27-1.64,2.99c-0.66,1.74-2.31,2.74-3.28,2.74c-5.84,0-8.77,10.11-18.3,24.96c0,0,1.29,6.46,14.86,8.69
							c1.26-1.38,1.99-3.03,1.99-3.03c0.18,6.37,0.8,8.56,0.8,8.56c22.29,1.69,33.53-1.49,33.53-1.49
							c2.94-5.99,3.13-19.77-0.13-24.58C50.26,75.8,45.52,75.51,42.04,68.13z"/>
						<path class="st1" d="M33.72,109.08c-3.69,0-7.86-0.14-12.5-0.49l-0.17-0.01L21,108.4c-0.02-0.09-0.56-2.06-0.77-7.65
							c-0.35,0.62-0.88,1.46-1.59,2.23l-0.09,0.1l-0.13-0.02C4.83,100.82,3.4,94.44,3.35,94.17l-0.02-0.1l0.05-0.08
							c3.01-4.69,5.32-8.83,7.35-12.49c4.38-7.85,7.02-12.59,11.16-12.59c0.85,0,2.42-0.92,3.04-2.58c0.06-0.15,0.11-0.37,0.18-0.63
							c0.26-1,0.65-2.52,1.69-2.52c7.55,0,10.72,0.49,13.57,2.08c0.95,0.53,1.41,1.65,1.72,2.4c0.06,0.14,0.11,0.26,0.16,0.36l0,0
							c1.92,4.05,4.21,5.93,6.64,7.93c1.96,1.61,3.99,3.27,5.95,6.17c3.45,5.09,3.04,18.93,0.15,24.83l-0.05,0.1l-0.11,0.03
							C54.75,107.11,47.6,109.08,33.72,109.08z M21.44,108.1c20.73,1.55,31.96-1.16,33.16-1.47c2.97-6.21,2.89-19.73-0.16-24.23
							c-1.92-2.84-3.92-4.48-5.86-6.06c-2.47-2.03-4.81-3.95-6.77-8.1l0,0c-0.05-0.11-0.11-0.24-0.17-0.38
							c-0.28-0.68-0.71-1.71-1.51-2.15c-2.77-1.55-5.88-2.02-13.33-2.02c-0.65,0-1,1.34-1.21,2.14c-0.07,0.28-0.13,0.52-0.2,0.68
							c-0.71,1.89-2.5,2.9-3.51,2.9c-3.84,0-6.43,4.64-10.72,12.33c-2.03,3.64-4.32,7.75-7.31,12.42c0.23,0.78,2.29,6.33,14.5,8.38
							c1.16-1.31,1.85-2.85,1.86-2.87l0.45-1.02l0.03,1.11C20.84,105.07,21.3,107.48,21.44,108.1z"/>
					</g>
				</g>
				<g>
					<path class="st1" d="M18.22,85.75c-0.2,0.06-0.81,0.26,0.34,7.02l0.46-0.08c-0.46-2.7-0.8-5.68-0.65-6.4
						c0.06,0.08,0.16,0.24,0.3,0.52c1.65,3.3,1.54,12.87,1.54,12.97l0.47,0.01c0.01-0.4,0.12-9.78-1.58-13.18
						C18.8,86.01,18.54,85.65,18.22,85.75z"/>
				</g>
			</g>
			<g>
				<g>
					<g>
						<g>
							<path class="st0" d="M80.8,68.91c0-0.13-0.01-0.27-0.02-0.41C80.77,68.63,80.77,68.77,80.8,68.91z"/>
							<path class="st1" d="M80.79,68.5c-0.02,0.13-0.01,0.27,0.02,0.41C80.8,68.77,80.79,68.64,80.79,68.5L80.79,68.5z"/>
						</g>
						<g>
							<path class="st0" d="M67.09,101.56c-4.98,0-15.19-7.84-16.66-8.98l7.95-12.73l6.71,7.33l0.17-0.29
								c1.23-2.09,7.37-12.57,7.29-13.6c-0.04-0.52-0.66-2.12-1.38-3.98c-0.74-1.9-1.57-4.06-1.73-4.97
								c-0.26-1.48,1.14-1.96,2.63-2.47c0.59-0.2,1.19-0.41,1.69-0.68c0.56-0.31,1.1-0.78,1.56-1.19c0.51-0.45,1.04-0.91,1.35-0.91
								c0.06,0,0.11,0.02,0.15,0.06c0.32,0.27,0.45,0.59,0.4,0.97c-0.15,1.09-1.73,2.4-3.14,3.08c-1.11,0.53-1.67,1.03-1.71,1.53
								c-0.04,0.37,0.22,0.57,0.25,0.59l0.18,0.13l0.15-0.17c0.02-0.02,2.1-2.29,3.78-2.29c0.4,0,0.73,0.13,1.02,0.39l0.08,0.07
								c0,0,0.1,0,0.11,0c0.35,0,1.9,0.07,2.32,1.33l0.05,0.14l0.15,0.02c0.02,0,1.61,0.28,2.26,1.24c0.26,0.38,0.34,0.82,0.23,1.33
								c-0.15,0.72-0.74,2.04-1.25,2.04l0,0c-0.18,0-0.35-0.18-0.47-0.34c-0.08-0.11-0.14-0.22-0.17-0.35l-0.01-0.35
								c0.02-0.19,0.1-0.37,0.16-0.54c0.09-0.22,0.17-0.41,0.08-0.59c-0.03-0.07-0.11-0.15-0.26-0.19c-0.08-0.02-0.14-0.03-0.2-0.03
								h-0.13l-0.17,0.14l-0.08,0.11l0.04,0.17c0.01,0.27,0.03,0.6,0.04,0.92c-0.02,0.11-0.01,0.27,0.02,0.43
								c0.17,4.57-0.72,7.44-2.57,8.29l-0.1,0.05l-0.03,0.1c-0.41,1.23-0.89,2.81-1.43,4.58c-2.25,7.36-5.66,18.49-8.19,19.42
								C67.9,101.5,67.52,101.56,67.09,101.56z"/>
							<path class="st1" d="M76.67,59.35c0.25,0.22,0.35,0.46,0.31,0.75c-0.12,0.87-1.44,2.13-3.01,2.88
								c-1.21,0.58-1.8,1.13-1.85,1.73c-0.04,0.38,0.17,0.68,0.35,0.81l0.36,0.27l0.3-0.33c0.56-0.61,2.29-2.21,3.59-2.21
								c0.33,0,0.61,0.11,0.85,0.32l0.19,0.13h0.19c0.28,0,1.68,0.06,2.05,1.16l0.1,0.28l0.3,0.05c0.01,0,1.5,0.26,2.09,1.13
								c0.22,0.33,0.28,0.7,0.19,1.13c-0.17,0.81-0.73,1.84-1,1.84c-0.03,0-0.12-0.04-0.27-0.23c-0.06-0.08-0.09-0.15-0.12-0.23
								l-0.01-0.31c0.03-0.15,0.09-0.31,0.14-0.44c0.1-0.24,0.21-0.52,0.07-0.8c-0.08-0.16-0.23-0.27-0.42-0.32
								c-0.1-0.02-0.18-0.03-0.26-0.03c-0.29,0-0.44,0.15-0.5,0.25l-0.15,0.26l0.07,0.18c0.02,0.3,0.04,0.58,0.05,0.87
								c-0.02,0.16-0.01,0.32,0.02,0.48c0.16,4.45-0.68,7.23-2.42,8.04l-0.2,0.09l-0.07,0.21c-0.41,1.23-0.88,2.79-1.43,4.59
								c-2.1,6.87-5.62,18.37-8.04,19.26c-0.29,0.11-0.65,0.16-1.04,0.16c-4.74,0-14.37-7.27-16.32-8.79l7.65-12.26l6.26,6.84
								l0.46,0.5l0.34-0.58c2.23-3.78,7.41-12.7,7.33-13.75c-0.04-0.53-0.56-1.88-1.4-4.05c-0.73-1.89-1.57-4.04-1.72-4.92
								c-0.2-1.15,0.64-1.57,2.46-2.19c0.6-0.2,1.22-0.41,1.73-0.7c0.59-0.33,1.13-0.8,1.61-1.22
								C75.9,59.84,76.45,59.36,76.67,59.35L76.67,59.35z M76.68,58.85c-0.72,0-1.8,1.44-3.04,2.13c-1.69,0.95-4.84,1.06-4.44,3.41
								c0.31,1.77,3.03,7.92,3.11,8.92c0.08,1.01-7.26,13.46-7.26,13.46l-6.71-7.33l-8.24,13.2c0,0,11.49,9.17,16.99,9.17
								c0.45,0,0.86-0.06,1.22-0.19c3.27-1.2,7.63-17.65,9.78-24.16c1.6-0.74,2.92-3.02,2.71-8.55c-0.03-0.14-0.03-0.28-0.02-0.41
								c-0.02-0.32-0.03-0.65-0.06-0.99c0,0-0.03-0.07,0.1-0.07c0.03,0,0.08,0.01,0.14,0.02c0.29,0.07-0.11,0.49-0.18,1.05
								c0.01,0.14,0.01,0.27,0.02,0.41c0.03,0.15,0.1,0.3,0.21,0.46c0.23,0.31,0.46,0.44,0.67,0.44c0.76,0,1.36-1.62,1.49-2.23
								c0.5-2.34-2.69-2.86-2.69-2.86c-0.48-1.44-2.21-1.5-2.52-1.5c-0.03,0-0.05,0-0.05,0c-0.35-0.32-0.76-0.45-1.18-0.45
								c-1.81,0-3.96,2.37-3.96,2.37s-0.83-0.61,1.42-1.69c2.07-0.99,4.31-3.16,2.8-4.46C76.9,58.88,76.8,58.85,76.68,58.85
								L76.68,58.85z"/>
						</g>
					</g>
				</g>
				<g>
					<path class="st5" d="M39.24,89.38c3.61,4.41,8.59,7.5,16.72,11.62c-2.52-1.02,5.48-15.47,9.13-15.91c0,0-9.45-9.61-15.33-12.33
						c-2.07-0.96-4.15-1.41-6.17-1.34C41.35,71.48,38.29,88.22,39.24,89.38z"/>
					<path class="st1" d="M55.87,101.23c-0.05-0.02-0.09-0.04-0.13-0.07c-7.77-3.93-12.99-7.1-16.69-11.63l0.39-0.32
						c3.53,4.32,8.51,7.4,15.83,11.14c-0.04-0.26-0.04-0.58,0.01-0.95c0.51-3.87,6-13.27,9.34-14.46
						c-1.68-1.67-9.77-9.58-14.94-11.97c-2.03-0.94-4.06-1.38-6.06-1.32l-0.02-0.5c2.06-0.07,4.19,0.39,6.29,1.36
						c5.85,2.71,15.01,11.99,15.4,12.39l0.36,0.36l-0.5,0.06c-2.75,0.33-8.82,10.04-9.36,14.14c-0.06,0.48-0.07,1.07,0.23,1.26
						c0.03,0.01,0.06,0.03,0.08,0.04L55.87,101.23z"/>
				</g>
			</g>
		</g>
		<g>
			<g>
				<path class="st5" d="M51.03,5.21l-3.14-3.5l-0.5,9.35l9.35,0.51L53.7,8.19c3.31-1.69,7.13-1.94,10.67-0.65l1.83,0.67l1.34-3.65
					L65.7,3.89C60.82,2.1,55.5,2.59,51.03,5.21z"/>
				<path class="st5" d="M67.66,4.21l-1.83-0.67C61,1.78,55.58,2.22,51.1,4.75l-2.95-3.28c-0.1-0.11-0.25-0.15-0.39-0.1
					c-0.14,0.05-0.23,0.18-0.24,0.32l-0.5,9.35c-0.01,0.2,0.14,0.37,0.34,0.38l9.34,0.51c0.01,0,0.01,0,0.02,0
					c0.14,0,0.27-0.08,0.33-0.21c0.06-0.13,0.04-0.29-0.06-0.4l-2.7-3.01c3.12-1.45,6.72-1.6,9.95-0.42l1.83,0.67
					c0.19,0.07,0.4-0.03,0.47-0.22l1.34-3.65C67.94,4.49,67.85,4.28,67.66,4.21z M65.98,7.74L64.49,7.2
					c-3.57-1.31-7.58-1.06-10.96,0.67c-0.1,0.05-0.17,0.15-0.19,0.26c-0.02,0.11,0.01,0.23,0.09,0.31l2.44,2.72l-8.1-0.44l0.44-8.1
					l2.55,2.85c0.12,0.13,0.31,0.16,0.46,0.07c4.34-2.55,9.64-3.03,14.37-1.3l1.48,0.54L65.98,7.74z"/>
			</g>
			<g>
				<path class="st5" d="M47.18,15.52l0.67-1.83l-3.66-1.34l-0.67,1.83c-1.58,4.33-1.34,9.14,0.61,13.3l-3.77,2.8l9.26,1.37
					L51,22.39l-3.67,2.72C46.11,22.06,46.04,18.63,47.18,15.52z"/>
				<path class="st5" d="M50.78,22.1l-3.28,2.43c-1.03-2.88-1.03-6.02,0.02-8.88l0.67-1.83c0.07-0.19-0.03-0.4-0.22-0.47l-3.65-1.34
					c-0.19-0.07-0.4,0.03-0.47,0.22l-0.67,1.83c-1.57,4.28-1.38,9.11,0.5,13.31l-3.53,2.62c-0.12,0.09-0.17,0.24-0.14,0.38
					c0.04,0.14,0.15,0.25,0.3,0.27l9.26,1.37c0.02,0,0.04,0,0.05,0c0.18,0,0.33-0.13,0.36-0.31l1.38-9.26
					c0.02-0.15-0.05-0.29-0.17-0.37C51.06,22,50.9,22.01,50.78,22.1z M49.32,31.24l-8.03-1.19l3.06-2.27
					c0.14-0.1,0.19-0.29,0.11-0.45c-1.92-4.08-2.13-8.82-0.6-13.02l0.54-1.48l2.97,1.09l-0.54,1.48c-1.16,3.18-1.11,6.68,0.16,9.85
					c0.04,0.1,0.13,0.18,0.24,0.22c0.11,0.03,0.23,0.01,0.32-0.06l2.96-2.19L49.32,31.24z"/>
			</g>
			<g>
				<path class="st5" d="M65.56,32.2c-3.25,1.56-6.97,1.77-10.4,0.51l-1.83-0.67l-1.34,3.65l1.83,0.67
					c1.94,0.71,3.95,1.06,5.95,1.06c2.89,0,5.76-0.74,8.36-2.18l3.01,3.57l0.78-9.33L62.6,28.7L65.56,32.2z"/>
				<path class="st5" d="M71.96,29.12l-9.33-0.79c-0.14-0.01-0.29,0.06-0.35,0.2c-0.07,0.13-0.05,0.29,0.05,0.4l2.64,3.13
					c-3.06,1.34-6.54,1.45-9.68,0.3l-1.83-0.67c-0.19-0.07-0.4,0.03-0.47,0.22l-1.34,3.65c-0.07,0.19,0.03,0.4,0.22,0.47l1.83,0.67
					c4.66,1.71,9.93,1.35,14.35-1l2.82,3.34c0.07,0.08,0.17,0.13,0.28,0.13c0.04,0,0.08-0.01,0.11-0.02
					c0.14-0.05,0.24-0.17,0.25-0.32l0.78-9.33C72.31,29.32,72.16,29.14,71.96,29.12z M70.86,37.9l-2.44-2.89
					c-0.07-0.08-0.17-0.13-0.28-0.13c-0.06,0-0.12,0.02-0.18,0.05c-4.29,2.37-9.45,2.76-14.01,1.1l-1.48-0.54l1.09-2.97l1.49,0.54
					c3.45,1.26,7.36,1.07,10.68-0.53c0.1-0.05,0.18-0.14,0.2-0.25c0.02-0.11-0.01-0.23-0.08-0.31l-2.38-2.82l8.08,0.68L70.86,37.9z"
					/>
			</g>
			<g>
				<path class="st5" d="M69.35,8.13l-0.95,9.31l3.55-2.89c1.46,3.2,1.63,6.84,0.41,10.18l-0.67,1.83l3.66,1.34L76,26.07
					c1.69-4.62,1.32-9.69-0.98-14.03l3.63-2.96L69.35,8.13z"/>
				<path class="st5" d="M78.69,8.72l-9.31-0.95C69.19,7.75,69,7.9,68.98,8.1l-0.95,9.31c-0.01,0.15,0.06,0.29,0.19,0.36
					c0.13,0.07,0.29,0.05,0.4-0.04l3.17-2.58c1.26,3.03,1.34,6.38,0.21,9.46l-0.67,1.83c-0.03,0.09-0.03,0.19,0.01,0.28
					c0.04,0.09,0.11,0.16,0.2,0.19l3.66,1.34c0.04,0.01,0.08,0.02,0.13,0.02c0.05,0,0.1-0.01,0.15-0.03
					c0.09-0.04,0.16-0.12,0.19-0.21l0.67-1.83c1.67-4.58,1.36-9.69-0.86-14.06l3.4-2.77c0.11-0.09,0.16-0.25,0.12-0.39
					C78.96,8.84,78.84,8.73,78.69,8.72z M74.79,11.76c-0.14,0.11-0.17,0.3-0.09,0.45c2.25,4.25,2.6,9.25,0.96,13.73l-0.54,1.49
					l-2.97-1.09l0.54-1.49c1.25-3.42,1.1-7.13-0.42-10.45c-0.05-0.1-0.14-0.18-0.25-0.2c-0.11-0.02-0.23,0-0.31,0.07l-2.86,2.33
					l0.83-8.07l8.07,0.82L74.79,11.76z"/>
			</g>
		</g>
		<polygon class="st2" points="53.73,21.81 63.08,8.53 59.8,19.4 64.84,18.01 56.47,30.35 58.95,20.05 		"/>
	</g>
	<g>
		<rect x="1.12" y="144.13" class="st6" width="115.37" height="1.15"/>
	</g>
</g>
</svg>
