<?xml version="1.0" encoding="utf-8"?>
<!-- Generator: Adobe Illustrator 27.3.1, SVG Export Plug-In . SVG Version: 6.00 Build 0)  -->
<svg version="1.1" id="Capa_1" xmlns="http://www.w3.org/2000/svg" xmlns:xlink="http://www.w3.org/1999/xlink" x="0px" y="0px"
	 viewBox="0 0 97 107" style="enable-background:new 0 0 97 107;" xml:space="preserve">
<style type="text/css">
	.st0{fill:#16162B;}
	.st1{fill:#3C9D81;}
	.st2{fill:#FFFFFF;}
	.st3{fill:#FAB90B;}
	.st4{fill:#111D2F;}
</style>
<g>
	<g>
		<rect x="0.49" y="104.96" class="st0" width="94" height="1.15"/>
	</g>
</g>
<path class="st1" d="M72.52,20.32c3.31-7.07,20.83-16.48,20.83-16.48S97.32,23.32,94,30.39c-3.32,7.07-10.81,10.55-16.74,7.77"/>
<path class="st1" d="M77.26,38.16c-5.93-2.78-8.06-10.77-4.74-17.84"/>
<g>
	<g>
		<path class="st0" d="M47.68,6.2c0,0-0.73-6.06-11.29-3.61c-7.64,1.77-9.01,1.17-9.01,1.17s0.85,2.76,4.03,3.5
			c0,0-5.52-0.69-5.2,4.93c0.32,5.62,3.77,6.42,3.82,9.01c0.05,2.6-4.67,5.41,0.26,9.07c4.93,3.66,15.95,10.25,23.23-0.53
			C60.56,19.3,54.25,1.48,47.68,6.2z"/>
		<path class="st0" d="M49.88,5.2c-0.69,0-1.39,0.21-2.06,0.64c-0.29-1.03-1.58-4.05-6.89-4.05c-1.36,0-2.91,0.2-4.6,0.59
			c-4.49,1.04-6.8,1.26-7.95,1.26c-0.69,0-0.92-0.08-0.92-0.08c-0.08-0.04-0.17-0.02-0.24,0.04c-0.06,0.06-0.09,0.15-0.06,0.23
			c0.03,0.1,0.69,2.16,2.96,3.22c-0.92,0.1-2.12,0.42-3,1.35c-0.84,0.89-1.22,2.17-1.13,3.81c0.19,3.38,1.49,5.05,2.53,6.39
			c0.71,0.91,1.26,1.62,1.28,2.62c0.02,0.76-0.43,1.57-0.89,2.43c-1.02,1.87-2.28,4.19,1.25,6.81c4.84,3.59,9.3,5.41,13.27,5.41h0
			c4.13,0,7.58-2.02,10.27-6c4.21-6.24,3.79-15.49,0.95-20.83C53.33,6.57,51.64,5.2,49.88,5.2z M53.33,29.62
			c-2.6,3.85-5.93,5.8-9.9,5.8h0c-3.82,0-8.31-1.84-13.01-5.32c-3.22-2.39-2.16-4.35-1.12-6.24c0.5-0.91,0.97-1.77,0.95-2.65
			c-0.02-1.14-0.65-1.95-1.38-2.88c-1.01-1.29-2.26-2.9-2.44-6.14c-0.08-1.51,0.25-2.68,1.01-3.48c1.03-1.09,2.58-1.25,3.41-1.25
			c0.32,0,0.52,0.02,0.53,0.03c0.12,0.01,0.23-0.07,0.25-0.18c0.02-0.12-0.05-0.23-0.17-0.25c-2.34-0.55-3.37-2.24-3.72-2.99
			c0.84,0.09,3.11,0.06,8.71-1.24c1.66-0.39,3.17-0.58,4.5-0.58c5.96,0,6.51,3.83,6.53,4c0.01,0.08,0.06,0.14,0.13,0.18
			c0.07,0.03,0.15,0.02,0.22-0.02c2.24-1.61,4.67-0.48,6.45,2.87C57.03,14.48,57.44,23.53,53.33,29.62z"/>
	</g>
	<g>
		<path class="st2" d="M52.51,20.01l0.99,7.23c0,0,2.53-1.83,1.83-5.54C54.94,19.55,52.51,20.01,52.51,20.01z"/>
		<path class="st0" d="M52.47,19.79c-0.12,0.02-0.2,0.14-0.18,0.26c0.02,0.12,0.14,0.2,0.26,0.18c0.09-0.02,2.21-0.39,2.56,1.51
			c0.66,3.52-1.65,5.25-1.74,5.32c-0.1,0.07-0.12,0.21-0.05,0.31c0.04,0.06,0.11,0.09,0.18,0.09c0.04,0,0.09-0.01,0.13-0.04
			c0.03-0.02,2.63-1.96,1.92-5.77C55.21,19.79,53.38,19.62,52.47,19.79z"/>
	</g>
	<g>
		<path class="st3" d="M53.22,42.83c-3.2-1.52-12.63-1.3-17.78,1.07c-5.15,2.38-4.03,7.48-2.47,13.96
			c1.59,6.63,8.83,16.34,9.11,29.21c0.28,12.87-0.42,18.8-0.42,18.8h24.5c0,0,3.08-35.09-6.56-54.87
			C57.68,47.07,55.06,43.71,53.22,42.83z"/>
		<path class="st4" d="M53.31,42.63c-1.32-0.62-3.72-0.98-6.58-0.98c-4.27,0-8.64,0.79-11.39,2.06c-5.4,2.49-4.1,7.92-2.6,14.21
			c0.54,2.25,1.7,4.81,3.05,7.77c2.62,5.75,5.87,12.89,6.05,21.4c0.27,12.71-0.41,18.71-0.41,18.77c-0.01,0.06,0.01,0.12,0.05,0.17
			c0.04,0.05,0.1,0.07,0.17,0.07h24.5c0.12,0,0.21-0.09,0.22-0.2c0.03-0.35,2.98-35.38-6.58-54.99
			C57.86,46.93,55.19,43.52,53.31,42.63z M65.95,105.66H41.9c0.12-1.25,0.63-7.28,0.39-18.59c-0.18-8.59-3.46-15.79-6.09-21.57
			c-1.34-2.94-2.5-5.48-3.02-7.69c-1.46-6.1-2.72-11.37,2.35-13.71c2.7-1.24,6.99-2.02,11.2-2.02c2.8,0,5.12,0.34,6.39,0.94
			c1.79,0.85,4.37,4.17,6.28,8.08C68.53,69.83,66.18,102.77,65.95,105.66z"/>
	</g>
	<g>
		<path class="st2" d="M30.65,25.02c0.14,3.77,3.01,5.01,3.01,5.01l-0.62-7.27C33.03,22.76,30.57,22.85,30.65,25.02z"/>
		<path class="st0" d="M33.74,29.83c-0.11-0.05-2.74-1.23-2.87-4.81c-0.07-1.92,2.08-2.03,2.17-2.03c0.12-0.01,0.22-0.11,0.21-0.23
			c0-0.12-0.09-0.22-0.23-0.21c-0.93,0.03-2.67,0.6-2.6,2.49c0.14,3.87,3.11,5.19,3.14,5.2c0.03,0.01,0.06,0.02,0.09,0.02
			c0.09,0,0.17-0.05,0.2-0.13C33.9,30,33.85,29.87,33.74,29.83z"/>
	</g>
	<g>
		<path class="st2" d="M49.83,36.22l-10.69,1.36c0,0,0.16,2.38-0.49,5.19c0,0,4.71,1.66,7.53,1.36c1.12-0.12,2.54-0.55,4.05-1.96
			C50.23,42.18,49.67,37.92,49.83,36.22z"/>
		<path class="st0" d="M50.05,36.24c0.01-0.07-0.02-0.13-0.07-0.18c-0.05-0.05-0.12-0.07-0.18-0.06l-10.69,1.36
			c-0.12,0.01-0.2,0.12-0.19,0.24c0,0.02,0.15,2.39-0.48,5.13c-0.03,0.11,0.04,0.22,0.14,0.26c0.16,0.06,4.03,1.41,6.87,1.41
			c0.27,0,0.52-0.01,0.75-0.04c1.52-0.16,2.89-0.82,4.18-2.02c0.05-0.05,0.08-0.12,0.07-0.19C50.45,42.11,49.89,37.9,50.05,36.24z
			 M46.16,43.92c-0.22,0.02-0.46,0.04-0.71,0.04c-2.42,0-5.72-1.05-6.54-1.32c0.5-2.28,0.48-4.22,0.46-4.85l10.22-1.3
			c-0.08,1.68,0.32,4.95,0.41,5.62C48.81,43.17,47.55,43.77,46.16,43.92z"/>
	</g>
	<g>
		<path class="st2" d="M52.11,15.51c-1.44-6.7-7.71-4.93-7.71-4.93c-6.64-1.71-11.14,2.72-11.43,5c-0.29,2.28-0.23,8.79,0.33,11.63
			c0.6,3.07,0.71,8.32,3.86,11.17c1.62,1.47,4.96-0.39,6.02,2.44c3.82-0.18,7.21-1.18,9.7-4.09c1.84-2.16,1.17-6.53,0.95-9.52
			C53.6,24.21,52.73,18.4,52.11,15.51z"/>
		<path class="st0" d="M54.04,27.19c-0.22-3.11-1.12-8.96-1.71-11.73c-0.99-4.62-4.27-5.31-6.13-5.31c-0.91,0-1.6,0.16-1.8,0.21
			c-0.99-0.25-1.98-0.38-2.94-0.38c-5.25,0-8.46,3.63-8.71,5.57c-0.29,2.27-0.24,8.78,0.33,11.7c0.12,0.59,0.21,1.27,0.32,1.98
			c0.45,3.1,1.01,6.96,3.61,9.31c0.74,0.67,1.77,0.71,2.77,0.74c1.35,0.05,2.62,0.1,3.19,1.61c0.03,0.09,0.12,0.14,0.21,0.14h0.01
			c4.47-0.21,7.6-1.53,9.85-4.17c1.67-1.95,1.36-5.56,1.1-8.46C54.1,27.99,54.07,27.58,54.04,27.19z M52.7,36.59
			c-2.14,2.5-5.12,3.78-9.38,4c-0.7-1.64-2.2-1.7-3.53-1.75c-0.96-0.04-1.87-0.07-2.49-0.63c-2.48-2.25-3.03-6.02-3.47-9.05
			c-0.1-0.72-0.2-1.41-0.32-2.01c-0.55-2.83-0.61-9.37-0.33-11.56c0.23-1.76,3.35-5.19,8.27-5.19c0.94,0,1.91,0.13,2.88,0.38
			c0.04,0.01,0.08,0.01,0.12,0c0.01,0,0.74-0.21,1.74-0.21c2.11,0,4.81,0.86,5.7,4.96c0.59,2.76,1.48,8.58,1.7,11.67
			c0.03,0.39,0.06,0.8,0.1,1.23C53.94,31.27,54.24,34.78,52.7,36.59z"/>
	</g>
	<g>
		<path class="st0" d="M53.68,25.79c-0.92,0.59-2.07,0.94-3.44,0.94c-1.7,0-2.66-0.72-3.97-0.93c-1.74-0.27-3.43,0.18-4.56,0.99
			c-1.43,1.03-2.73,2.06-5.04,2.06c-1.27,0-2.34-0.3-3.22-0.8c0.5,3.12,0.83,7.72,3.71,10.33c1.63,1.47,4.96-0.39,6.02,2.44
			c3.82-0.18,7.21-1.18,9.7-4.09c1.84-2.16,1.17-6.53,0.95-9.52C53.79,26.82,53.74,26.34,53.68,25.79z M48.43,30.1
			c-0.86,0.54-1.78,1.02-2.76,1.33c-0.97,0.31-2,0.42-3.01,0.4c-0.75-0.02-1.31-0.6-1.34-1.34c-0.03-0.71,0.64-1.36,1.34-1.34
			c0.24,0.01,0.49,0.01,0.73-0.01c0.11,0,0.22-0.01,0.33-0.02c0.03,0,0.1-0.01,0.16-0.02c0.06-0.01,0.16-0.02,0.19-0.03
			c0.1-0.02,0.2-0.04,0.3-0.06c0.2-0.05,0.4-0.1,0.59-0.16c0.19-0.06,0.38-0.14,0.57-0.21c0.03-0.01,0.06-0.03,0.09-0.04
			c0.1-0.04,0.19-0.09,0.29-0.14c0.4-0.2,0.79-0.43,1.17-0.67c0.64-0.4,1.45-0.11,1.83,0.48C49.31,28.89,49.02,29.73,48.43,30.1z"/>
		<path class="st0" d="M46.96,27.6c-0.43,0.27-0.8,0.48-1.16,0.66c-0.09,0.05-0.19,0.09-0.28,0.14l-0.29,0.11
			c-0.11,0.04-0.22,0.09-0.34,0.12c-0.19,0.06-0.38,0.11-0.57,0.16c-0.1,0.02-0.19,0.04-0.29,0.06l-0.14,0.02l0.03,0.22l-0.1-0.21
			L43.7,28.9c-0.11,0.01-0.21,0.02-0.32,0.02c-0.24,0.01-0.48,0.01-0.71,0.01l-0.03,0c-0.4,0-0.81,0.18-1.11,0.5
			c-0.29,0.3-0.45,0.7-0.43,1.08c0.04,0.88,0.69,1.53,1.56,1.55c0.09,0,0.19,0,0.28,0c1.01,0,1.95-0.14,2.81-0.41
			c0.9-0.29,1.82-0.73,2.81-1.35c0.37-0.23,0.64-0.61,0.73-1.05c0.09-0.39,0.02-0.78-0.18-1.1C48.64,27.44,47.65,27.17,46.96,27.6z
			 M48.85,29.15c-0.07,0.31-0.27,0.6-0.54,0.77c-0.96,0.6-1.84,1.03-2.71,1.3c-0.89,0.28-1.89,0.41-2.94,0.39
			c-0.62-0.02-1.09-0.49-1.12-1.13c-0.01-0.26,0.1-0.54,0.3-0.75c0.22-0.23,0.5-0.36,0.79-0.36v-0.22l0.02,0.22
			c0.25,0.01,0.5,0.01,0.75-0.01c0.11,0,0.22-0.01,0.34-0.02l0.13-0.01c0,0,0.08-0.01,0.09-0.01l0.15-0.02
			c0.1-0.02,0.21-0.04,0.31-0.06c0.21-0.05,0.41-0.1,0.61-0.17c0.12-0.04,0.24-0.08,0.37-0.13l0.31-0.12
			c0.1-0.05,0.2-0.09,0.29-0.14c0.37-0.18,0.75-0.4,1.19-0.68c0.49-0.31,1.2-0.1,1.53,0.41C48.86,28.61,48.91,28.88,48.85,29.15z"/>
		<path class="st0" d="M54.04,27.19c-0.03-0.39-0.08-0.88-0.14-1.43c-0.01-0.08-0.06-0.14-0.12-0.17c-0.07-0.03-0.15-0.03-0.21,0.01
			c-0.95,0.6-2.07,0.91-3.32,0.91c-0.99,0-1.73-0.26-2.44-0.51c-0.47-0.16-0.96-0.33-1.49-0.42c-1.67-0.26-3.48,0.14-4.72,1.03
			l-0.22,0.16c-1.32,0.96-2.57,1.86-4.69,1.86c-1.16,0-2.21-0.26-3.11-0.77c-0.07-0.04-0.17-0.04-0.24,0.01
			c-0.07,0.05-0.11,0.13-0.09,0.22c0.06,0.36,0.11,0.75,0.17,1.15c0.45,3.1,1.01,6.96,3.61,9.31c0.74,0.67,1.77,0.71,2.77,0.74
			c1.35,0.05,2.62,0.1,3.19,1.61c0.03,0.09,0.12,0.14,0.21,0.14c0,0,0.01,0,0.01,0c4.47-0.21,7.6-1.53,9.85-4.17
			c1.67-1.95,1.36-5.56,1.1-8.46C54.1,27.99,54.07,27.58,54.04,27.19z M52.7,36.59c-2.14,2.5-5.12,3.78-9.38,4
			c-0.7-1.64-2.2-1.7-3.53-1.75c-0.96-0.04-1.87-0.07-2.49-0.63c-2.48-2.25-3.03-6.02-3.47-9.05c-0.04-0.25-0.07-0.49-0.1-0.72
			c0.87,0.42,1.86,0.63,2.93,0.63c2.26,0,3.57-0.94,4.95-1.94l0.22-0.16c1.15-0.83,2.83-1.2,4.4-0.95c0.49,0.08,0.94,0.23,1.41,0.4
			c0.75,0.26,1.52,0.53,2.59,0.53c1.21,0,2.31-0.27,3.26-0.8c0.05,0.4,0.08,0.76,0.1,1.07c0.03,0.39,0.06,0.8,0.1,1.23
			C53.94,31.27,54.24,34.78,52.7,36.59z"/>
	</g>
	<g>
		<path class="st0" d="M47.33,27.9c-1.77,2.04-4.27,2.16-4.29,2.17c-0.12,0-0.22,0.11-0.21,0.23c0,0.12,0.1,0.21,0.22,0.21h0.01
			c0.11,0,2.71-0.13,4.61-2.32c0.08-0.09,0.07-0.23-0.02-0.31C47.55,27.8,47.41,27.81,47.33,27.9z"/>
	</g>
	<g>
		<path class="st0" d="M49.09,15.78c-2.74-0.91-4.31-0.35-4.37-0.32c-0.11,0.04-0.17,0.17-0.13,0.29c0.04,0.11,0.17,0.17,0.29,0.13
			c0.02-0.01,1.5-0.53,4.08,0.33c0.02,0.01,0.05,0.01,0.07,0.01c0.09,0,0.18-0.06,0.21-0.15C49.27,15.94,49.21,15.82,49.09,15.78z"
			/>
	</g>
	<g>
		<path class="st0" d="M39.78,14.85c-0.07-0.01-1.72-0.21-4.19,1.3c-0.1,0.06-0.14,0.2-0.07,0.31c0.04,0.07,0.11,0.11,0.19,0.11
			c0.04,0,0.08-0.01,0.12-0.03c2.32-1.42,3.88-1.24,3.9-1.24c0.12,0.01,0.23-0.07,0.25-0.19C39.99,14.97,39.91,14.86,39.78,14.85z"
			/>
	</g>
	<g>
		<path class="st0" d="M38.06,20.73c-0.36,0-0.65,0.29-0.65,0.65c0,0.36,0.29,0.65,0.65,0.65c0.36,0,0.65-0.29,0.65-0.65
			C38.71,21.02,38.42,20.73,38.06,20.73z"/>
		<path class="st0" d="M38.06,20.51c-0.48,0-0.87,0.39-0.87,0.87c0,0.48,0.39,0.87,0.87,0.87c0.48,0,0.87-0.39,0.87-0.87
			C38.93,20.9,38.54,20.51,38.06,20.51z M38.06,21.81c-0.24,0-0.43-0.19-0.43-0.43c0-0.24,0.19-0.43,0.43-0.43
			c0.24,0,0.43,0.19,0.43,0.43C38.49,21.62,38.3,21.81,38.06,21.81z"/>
	</g>
	<g>
		<path class="st0" d="M47.68,19.61c-0.36,0-0.65,0.29-0.65,0.65c0,0.36,0.29,0.65,0.65,0.65c0.36,0,0.65-0.29,0.65-0.65
			C48.34,19.9,48.04,19.61,47.68,19.61z"/>
		<path class="st0" d="M47.68,19.39c-0.48,0-0.87,0.39-0.87,0.87c0,0.48,0.39,0.87,0.87,0.87c0.48,0,0.87-0.39,0.87-0.87
			C48.56,19.78,48.17,19.39,47.68,19.39z M47.68,20.69c-0.24,0-0.43-0.19-0.43-0.43c0-0.24,0.19-0.43,0.43-0.43
			c0.24,0,0.43,0.19,0.43,0.43C48.11,20.5,47.92,20.69,47.68,20.69z"/>
	</g>
	<g>
		<path class="st2" d="M35.7,43.6c0,0-5.97,1.4-11.12,3.78c-5.15,2.38-9.98,4-8.43,10.49c1.59,6.63,8.83,16.34,9.11,29.21
			c0.28,12.87-0.42,18.8-0.42,18.8h24.5c0,0-0.6-34.42-10.24-54.2C37.18,47.74,35.7,43.6,35.7,43.6z"/>
		<path class="st0" d="M35.91,43.53c-0.04-0.11-0.15-0.17-0.26-0.14c-0.06,0.01-6.05,1.44-11.16,3.8c-0.37,0.17-0.74,0.34-1.11,0.51
			c-4.79,2.17-8.92,4.04-7.44,10.23c0.54,2.25,1.7,4.81,3.05,7.77c2.62,5.75,5.87,12.89,6.05,21.4c0.27,12.71-0.41,18.71-0.41,18.77
			c-0.01,0.06,0.01,0.12,0.05,0.17c0.04,0.05,0.1,0.07,0.17,0.07h24.5c0.06,0,0.12-0.02,0.16-0.07c0.04-0.04,0.06-0.1,0.06-0.16
			c-0.01-0.34-0.72-34.7-10.26-54.29C37.41,47.7,35.92,43.57,35.91,43.53z M25.1,105.66c0.12-1.25,0.63-7.28,0.39-18.59
			c-0.18-8.59-3.46-15.79-6.09-21.57c-1.34-2.94-2.5-5.48-3.03-7.69c-1.4-5.83,2.39-7.55,7.19-9.72c0.37-0.17,0.74-0.34,1.11-0.51
			c4.56-2.1,9.82-3.46,10.88-3.72c0.31,0.85,1.67,4.48,3.35,7.92c9.1,18.67,10.13,50.86,10.21,53.88H25.1z"/>
	</g>
	<g>
		<path class="st2" d="M61.27,42.88l5.09,30.5c1.32,2.02,5.48,9.36,7.26,12.44c3.81,6.6,17.29,6.91,19.05-1.37
			c1.67-7.91-9.97-24.15-15.79-31.41C69.85,44.26,61.27,42.88,61.27,42.88z"/>
		<path class="st0" d="M61.31,42.66c-0.12-0.02-0.24,0.06-0.25,0.18c-0.02,0.12,0.06,0.24,0.18,0.25
			c0.09,0.01,8.57,1.47,15.48,10.08c2.95,3.68,17.59,22.5,15.74,31.22c-0.67,3.18-3.22,5.35-6.98,5.94
			c-4.69,0.75-9.7-1.25-11.65-4.64c-0.37-0.65-0.85-1.48-1.39-2.41c-2.04-3.56-4.84-8.43-5.88-10.04c-0.07-0.1-0.21-0.13-0.31-0.07
			c-0.1,0.07-0.13,0.2-0.07,0.31c1.04,1.59,3.83,6.46,5.87,10.02c0.54,0.93,1.01,1.76,1.38,2.41c1.99,3.44,6.23,5.01,10.06,5.01
			c0.71,0,1.4-0.05,2.05-0.16c3.96-0.63,6.63-2.92,7.35-6.29c1.89-8.91-12.86-27.88-15.83-31.59C70.05,44.16,61.4,42.67,61.31,42.66
			z"/>
	</g>
	<g>
		<path class="st2" d="M52.42,42.36c0,0,7.89,15.5,7.89,42.79c0,13.14,0.44,20.73,0.44,20.73h16.03c0,0-2.05-44.1-5.78-54.85
			C67.34,40.44,52.42,42.36,52.42,42.36z"/>
		<path class="st0" d="M71.22,50.96C68.52,43.16,59.95,42,55.09,42c-1.61,0-2.66,0.13-2.7,0.14c-0.07,0.01-0.13,0.05-0.17,0.12
			c-0.03,0.06-0.03,0.14,0,0.21c0.08,0.15,7.87,15.77,7.87,42.69c0,13,0.44,20.67,0.44,20.74c0.01,0.12,0.1,0.21,0.22,0.21h16.03
			h0.01c0.12,0,0.22-0.1,0.22-0.22c0-0.03,0-0.05-0.01-0.08C76.91,103.82,74.84,61.41,71.22,50.96z M60.96,105.66
			c-0.07-1.31-0.43-8.71-0.43-20.51c0-25.04-6.72-40.35-7.78-42.61c0.42-0.04,1.25-0.1,2.34-0.1c4.74,0,13.09,1.13,15.71,8.66
			c3.53,10.19,5.58,51.08,5.75,54.55H60.96z"/>
	</g>
	<g>
		<path class="st0" d="M42.39,24.83c-0.15-0.2-0.03-0.61,0.02-0.74l-0.41-0.17c-0.03,0.07-0.3,0.73,0.02,1.17
			c0.17,0.23,0.45,0.35,0.84,0.35c0.06,0,0.12,0,0.19-0.01l-0.04-0.44C42.8,25,42.51,24.99,42.39,24.83z"/>
	</g>
	<g>
		<g>
			<path class="st2" d="M15.74,51.74c1.4-2.14,2.12-3.48,3.73-5.8c2.46-3.55-3.5-7.93-3.5-7.93s-1.53-13.15-2.13-14.4
				c-0.37-0.76-2.08-1.07-2.54,0.46c-0.3,0.99,0.15,10.44,0.39,12.18c0,0-2.88-3.32-5.12,0.48c0,0-2.25,0.16-2.15,2.25
				c0,0-1.64,0.43-2.15,2.43c-0.66,2.61,1.36,4.27,1.36,4.27s-1.02,3.33,0.42,5.38c2.61,3.71,3.62,16.77,3.62,16.77l12.39-4.57
				C20.06,63.27,14.64,53.42,15.74,51.74z"/>
			<path class="st0" d="M17.37,49.58c0.67-1.09,1.31-2.11,2.28-3.51c2.43-3.5-2.73-7.62-3.47-8.18c-0.15-1.28-1.55-13.15-2.14-14.37
				c-0.21-0.44-0.78-0.76-1.38-0.76c-0.75,0-1.34,0.47-1.58,1.25c-0.29,0.96,0.07,8.96,0.32,11.66c-0.49-0.42-1.33-0.98-2.3-0.98
				c-1.02,0-1.92,0.62-2.67,1.84c-0.84,0.1-2.22,0.68-2.24,2.3c-0.46,0.17-1.7,0.79-2.14,2.53c-0.6,2.39,0.89,3.99,1.33,4.4
				c-0.18,0.67-0.84,3.54,0.49,5.44c2.55,3.62,3.57,16.53,3.58,16.66c0,0.07,0.04,0.13,0.1,0.17c0.04,0.02,0.08,0.04,0.12,0.04
				c0.03,0,0.05,0,0.08-0.01l12.39-4.57c0.06-0.02,0.11-0.07,0.13-0.13c0.02-0.06,0.02-0.13-0.01-0.18
				c-2.16-3.91-5.09-10.15-4.34-11.3C16.48,51.01,16.93,50.29,17.37,49.58z M19.75,63.15L7.87,67.53c-0.17-2-1.21-13.14-3.64-16.59
				c-1.36-1.93-0.4-5.16-0.39-5.19c0.03-0.09,0-0.18-0.07-0.24c-0.08-0.06-1.9-1.6-1.29-4.04c0.46-1.84,1.92-2.25,1.99-2.27
				c0.1-0.03,0.17-0.12,0.16-0.22c-0.08-1.84,1.86-2.01,1.94-2.01c0.07,0,0.14-0.04,0.18-0.11c0.67-1.14,1.46-1.72,2.34-1.72
				c1.3,0,2.41,1.25,2.42,1.27c0.06,0.07,0.17,0.1,0.26,0.06c0.09-0.04,0.14-0.13,0.13-0.23c-0.25-1.79-0.67-11.19-0.4-12.09
				c0.26-0.85,0.89-0.94,1.15-0.94c0.43,0,0.84,0.21,0.98,0.51c0.46,0.96,1.59,9.79,2.11,14.33c0.01,0.06,0.04,0.12,0.09,0.15
				c0.06,0.04,5.76,4.29,3.44,7.63c-0.98,1.41-1.62,2.44-2.29,3.53c-0.44,0.71-0.88,1.43-1.44,2.27
				C14.47,53.27,18.81,61.43,19.75,63.15z"/>
		</g>
		<g>
			<path class="st0" d="M8.61,51.93c-0.03-0.12-0.15-0.19-0.27-0.16c-0.12,0.03-0.19,0.15-0.16,0.27l1.64,6.03
				c0.03,0.1,0.12,0.16,0.21,0.16c0.02,0,0.04,0,0.06-0.01c0.12-0.03,0.19-0.15,0.15-0.27L8.61,51.93z"/>
		</g>
		<g>
			<path class="st0" d="M12.11,37.83C11,37.27,9.46,38.3,9.4,38.34c-0.1,0.07-0.13,0.21-0.06,0.31c0.07,0.1,0.21,0.13,0.31,0.06
				c0.01-0.01,1.39-0.93,2.27-0.48c0.49,0.25,0.75,0.9,0.78,1.92c0.04,1.4-0.62,2.36-1.8,2.63c-1.32,0.31-3.15-0.38-3.91-2.05
				c-0.77-1.71-0.21-3.92-0.21-3.94c0.03-0.12-0.04-0.24-0.16-0.27c-0.12-0.03-0.24,0.04-0.27,0.16c-0.03,0.1-0.61,2.38,0.23,4.23
				c0.72,1.59,2.3,2.38,3.68,2.38c0.25,0,0.5-0.03,0.74-0.08c1.39-0.32,2.19-1.47,2.14-3.08C13.1,38.94,12.76,38.16,12.11,37.83z"/>
		</g>
		<g>
			<path class="st0" d="M10.61,42.82c-0.12,0-0.22,0.11-0.21,0.23c0.03,1.02-0.86,1.33-1.24,1.42c-1.33,0.31-3.18-0.41-3.96-2.14
				c-0.78-1.71-0.57-3.29-0.56-3.3c0.02-0.12-0.07-0.23-0.19-0.25c-0.12-0.02-0.23,0.07-0.25,0.19c-0.01,0.07-0.24,1.71,0.6,3.55
				c0.75,1.65,2.36,2.47,3.75,2.47c0.25,0,0.49-0.03,0.72-0.08c1.01-0.23,1.61-0.93,1.58-1.86C10.84,42.92,10.74,42.83,10.61,42.82z
				"/>
		</g>
		<g>
			<path class="st0" d="M5.62,45.59c-1.1,0.81-1.77,0.04-1.84-0.06c-0.08-0.1-0.21-0.11-0.31-0.04c-0.1,0.07-0.11,0.21-0.04,0.31
				c0.01,0.01,0.47,0.59,1.25,0.59c0.35,0,0.75-0.12,1.21-0.45c0.1-0.07,0.12-0.21,0.05-0.31C5.86,45.54,5.72,45.52,5.62,45.59z"/>
		</g>
		<g>
			<path class="st2" d="M7.79,47.58l7.32-5.17C15.11,42.42,9.54,43.04,7.79,47.58z"/>
			<path class="st0" d="M15.08,42.19c-0.06,0.01-5.72,0.7-7.5,5.31c-0.04,0.11,0.01,0.24,0.13,0.29c0.03,0.01,0.05,0.01,0.08,0.01
				c0.09,0,0.17-0.05,0.21-0.14c1.68-4.35,7.09-5.02,7.14-5.02c0.12-0.01,0.21-0.12,0.2-0.25C15.31,42.27,15.21,42.18,15.08,42.19z"
				/>
		</g>
		<g>
			<path class="st2" d="M22.26,67.5L17.91,52.4L4.34,59.69c0,0,0.16,25.58,11.61,34c7.24,5.33,16.58-0.13,14.74-17.63L22.26,67.5z"
				/>
			<path class="st0" d="M30.66,75.83c-0.12,0.01-0.21,0.12-0.2,0.24c0.95,9-1.1,15.88-5.48,18.39c-2.72,1.56-5.96,1.21-8.91-0.96
				C5.27,85.56,4.6,61.82,4.56,59.82l13.21-7.09l4.28,14.83c0.03,0.12,0.16,0.19,0.27,0.15c0.12-0.03,0.19-0.16,0.15-0.27
				l-4.35-15.09c-0.02-0.06-0.07-0.12-0.13-0.14c-0.06-0.03-0.13-0.02-0.19,0.01L4.23,59.49c-0.07,0.04-0.12,0.11-0.12,0.2
				c0,0.26,0.3,25.79,11.7,34.18c1.81,1.33,3.74,2.01,5.6,2.01c1.32,0,2.6-0.34,3.8-1.02c4.54-2.6,6.67-9.64,5.7-18.82
				C30.9,75.91,30.78,75.82,30.66,75.83z"/>
		</g>
	</g>
	<g>
		<path class="st2" d="M35.7,43.6c0.43,1.21,5.71,5.58,6.37,5.34c1.07-2.7,3.57-4.76,3.57-4.76c-3.91-0.57-6.88-2.33-6.88-2.33
			L35.7,43.6z"/>
		<path class="st0" d="M45.68,43.96c-3.82-0.56-6.77-2.28-6.79-2.3c-0.07-0.04-0.15-0.04-0.22,0l-3.07,1.75
			c-0.09,0.05-0.14,0.16-0.1,0.27c0.43,1.23,5.49,5.49,6.52,5.49c0.05,0,0.1-0.01,0.14-0.02c0.06-0.02,0.11-0.07,0.13-0.13
			c1.03-2.62,3.48-4.65,3.51-4.67c0.07-0.06,0.1-0.15,0.07-0.23C45.83,44.03,45.76,43.97,45.68,43.96z M41.92,48.71
			c-0.92-0.24-5.21-3.73-5.94-5.02l2.78-1.59c0.56,0.31,3.11,1.66,6.37,2.22C44.42,44.99,42.79,46.64,41.92,48.71z"/>
	</g>
	<g>
		<path class="st2" d="M50.23,41.69c0,0-1.5,1.91-3.19,2.38c0,0,3.79,2.25,5.23,3.96c0,0,0.85-2.98,0.15-5.68
			C52.42,42.36,51.67,41.69,50.23,41.69z"/>
		<path class="st0" d="M52.57,42.19c-0.03-0.03-0.83-0.72-2.34-0.72c-0.07,0-0.13,0.03-0.17,0.09c-0.02,0.02-1.47,1.86-3.08,2.31
			c-0.08,0.02-0.15,0.1-0.16,0.18c-0.01,0.09,0.03,0.18,0.11,0.22c0.04,0.02,3.77,2.25,5.17,3.92c0.04,0.05,0.11,0.08,0.17,0.08
			c0.02,0,0.03,0,0.05-0.01c0.08-0.02,0.15-0.08,0.17-0.16c0.04-0.12,0.85-3.07,0.15-5.8C52.62,42.26,52.6,42.22,52.57,42.19z
			 M52.15,47.58c-1.29-1.34-3.65-2.87-4.6-3.45c1.36-0.57,2.49-1.87,2.78-2.22c1.07,0.03,1.71,0.44,1.89,0.57
			C52.72,44.51,52.34,46.7,52.15,47.58z"/>
	</g>
	<g>
		<path class="st2" d="M40.53,66.96c-0.57,0.04-0.99,0.54-0.95,1.1c0.04,0.57,0.54,0.99,1.1,0.95c0.57-0.04,0.99-0.54,0.95-1.11
			C41.59,67.34,41.1,66.92,40.53,66.96z"/>
		<path class="st4" d="M40.51,66.74c-0.33,0.02-0.64,0.18-0.85,0.43c-0.22,0.25-0.33,0.58-0.3,0.91c0.05,0.65,0.6,1.16,1.25,1.16
			c0.03,0,0.06,0,0.09,0c0.69-0.05,1.21-0.65,1.16-1.34C41.81,67.21,41.18,66.69,40.51,66.74z M40.67,68.79l-0.06,0
			c-0.42,0-0.77-0.33-0.81-0.75c-0.02-0.21,0.05-0.42,0.19-0.59c0.14-0.16,0.34-0.26,0.55-0.28l0.06,0c0.42,0,0.77,0.33,0.81,0.75
			C41.45,68.37,41.11,68.76,40.67,68.79z"/>
	</g>
	<g>
		<path class="st2" d="M43.25,82.15c-0.57,0.04-0.99,0.54-0.95,1.1c0.04,0.57,0.54,0.99,1.11,0.95c0.57-0.04,0.99-0.54,0.95-1.11
			C44.31,82.53,43.82,82.1,43.25,82.15z"/>
		<path class="st4" d="M43.23,81.93c-0.33,0.02-0.64,0.18-0.86,0.43c-0.22,0.25-0.32,0.58-0.3,0.91c0.05,0.65,0.6,1.16,1.25,1.16
			c0.03,0,0.06,0,0.1,0c0.33-0.03,0.64-0.18,0.86-0.43c0.22-0.25,0.32-0.58,0.3-0.91C44.53,82.4,43.92,81.88,43.23,81.93z
			 M43.94,83.7c-0.14,0.16-0.34,0.26-0.55,0.28l-0.06,0c-0.42,0-0.77-0.33-0.8-0.75c-0.02-0.22,0.05-0.42,0.19-0.59
			c0.14-0.16,0.34-0.26,0.55-0.28l0.06,0c0.42,0,0.77,0.33,0.81,0.75C44.15,83.33,44.08,83.54,43.94,83.7z"/>
	</g>
	<g>
		<path class="st2" d="M45.18,97.43c-0.57,0.04-0.99,0.54-0.95,1.11c0.04,0.57,0.54,0.99,1.11,0.95c0.57-0.04,0.99-0.54,0.95-1.11
			C46.24,97.81,45.74,97.39,45.18,97.43z"/>
		<path class="st4" d="M45.16,97.21c-0.33,0.03-0.64,0.18-0.86,0.43c-0.22,0.25-0.32,0.58-0.3,0.91c0.05,0.65,0.6,1.16,1.25,1.16
			c0.03,0,0.06,0,0.1,0c0.69-0.05,1.21-0.65,1.15-1.34C46.45,97.68,45.83,97.16,45.16,97.21z M45.31,99.26l-0.06,0
			c-0.42,0-0.77-0.33-0.81-0.75c-0.02-0.22,0.05-0.42,0.19-0.59c0.14-0.16,0.34-0.26,0.55-0.28l0.06,0c0.42,0,0.77,0.33,0.81,0.75
			C46.09,98.84,45.76,99.23,45.31,99.26z"/>
	</g>
	<g>
		<g>
			<path class="st2" d="M94.56,26.82c-0.92-0.38-2.1-1.18-3.6-1.66c-1.51-0.48-2.08,0.28-3.34,0.48c-1.27,0.21-1.79,1.17-1.35,1.64
				c0.44,0.47,1.89,0.44,1.89,0.44s-1.85,0.79-2.88,1.34c-1.03,0.55-1.64,1.34-1.75,1.54c-0.1,0.21-0.34,1.2-0.34,1.2
				s-2.45,3.64-1.36,4.61c1.17,1.04,2.26-1.68,2.26-1.68c0.75,0.11,1.44-0.75,1.44-0.75c0.87,2.06-0.09,2.53-3.65,5.45
				c-3.56,2.93-0.47,3.24-0.79,5.62c-0.32,2.37-0.95,7.83-0.95,7.83c4.43,7.12,10.4,5.43,10.4,5.43s-3.48-11.26-0.46-15.93
				c3.02-4.67,6.97-4.04,6.11-8.12C95.34,30.2,95.48,27.2,94.56,26.82z"/>
			<path class="st0" d="M95.76,30.15c-0.26-2.03-0.42-3.26-1.12-3.54c-0.33-0.14-0.71-0.34-1.12-0.55c-0.72-0.38-1.54-0.81-2.5-1.12
				c-0.35-0.11-0.68-0.17-0.99-0.17c-0.54,0-0.95,0.16-1.39,0.32c-0.33,0.12-0.66,0.25-1.07,0.32c-0.8,0.13-1.44,0.58-1.63,1.14
				c-0.11,0.32-0.06,0.64,0.15,0.87c0.24,0.26,0.69,0.39,1.13,0.45c-0.62,0.28-1.47,0.66-2.06,0.98c-1.04,0.56-1.7,1.36-1.84,1.64
				c-0.1,0.2-0.29,0.97-0.35,1.21c-0.35,0.52-2.48,3.83-1.3,4.87c0.22,0.19,0.46,0.29,0.7,0.29c0.93,0,1.63-1.41,1.85-1.91
				c0.5,0,0.95-0.33,1.21-0.57c0.51,1.45-0.15,1.99-2.71,4.06c-0.31,0.25-0.64,0.52-1,0.82c-2.42,1.99-1.9,2.93-1.35,3.91
				c0.29,0.52,0.59,1.06,0.49,1.84c-0.31,2.35-0.94,7.78-0.95,7.83c-0.01,0.05,0.01,0.1,0.03,0.14c3.09,4.97,6.96,5.71,8.98,5.71
				c1.01,0,1.64-0.18,1.67-0.18c0.06-0.02,0.11-0.05,0.13-0.11c0.03-0.05,0.03-0.11,0.02-0.17c-0.04-0.11-3.41-11.22-0.48-15.75
				c1.25-1.94,2.69-2.96,3.84-3.78c1.64-1.17,2.83-2.01,2.3-4.5C96.09,32.69,95.9,31.28,95.76,30.15z M93.85,38.36
				c-1.18,0.84-2.66,1.89-3.96,3.9c-2.84,4.39-0.13,14.21,0.36,15.89c-0.26,0.05-0.72,0.12-1.33,0.12c-1.93,0-5.59-0.71-8.56-5.43
				c0.08-0.67,0.65-5.56,0.94-7.75c0.12-0.93-0.23-1.56-0.54-2.12c-0.52-0.93-0.89-1.6,1.25-3.36c0.36-0.29,0.69-0.57,1-0.82
				c2.74-2.22,3.56-2.89,2.71-4.89c-0.03-0.07-0.1-0.12-0.17-0.13c-0.07-0.01-0.15,0.02-0.2,0.08c-0.16,0.2-0.7,0.74-1.23,0.67
				c-0.1-0.02-0.2,0.04-0.24,0.14c-0.18,0.46-0.86,1.78-1.5,1.78c-0.13,0-0.27-0.06-0.41-0.18c-0.69-0.61,0.49-2.98,1.39-4.32
				c0.02-0.02,0.03-0.05,0.03-0.07c0.1-0.4,0.26-1.03,0.33-1.15c0.06-0.12,0.62-0.89,1.65-1.44c1.01-0.54,2.84-1.32,2.86-1.33
				c0.1-0.04,0.13-0.15,0.11-0.25c-0.02-0.1-0.14-0.18-0.24-0.18c-0.66,0-1.44-0.12-1.68-0.37c-0.13-0.14-0.09-0.33-0.06-0.42
				c0.11-0.31,0.51-0.72,1.29-0.85c0.45-0.07,0.81-0.21,1.15-0.34c0.42-0.16,0.78-0.29,1.23-0.29c0.27,0,0.55,0.05,0.86,0.15
				c0.93,0.3,1.73,0.71,2.43,1.08c0.41,0.22,0.8,0.42,1.16,0.57c0.45,0.18,0.62,1.51,0.84,3.18c0.15,1.14,0.33,2.55,0.66,4.11
				C96.44,36.52,95.46,37.22,93.85,38.36z"/>
		</g>
		<g>
			<path class="st0" d="M92.8,28.88l0.04-0.21l-0.2-0.06c-0.01,0-1.06-0.3-2.37-1.48l-0.09-0.08l-0.11,0.03
				c-0.01,0-1.51,0.35-2.14,0.46c-0.12,0.02-0.2,0.14-0.18,0.26c0.02,0.12,0.13,0.2,0.26,0.18c0.54-0.09,1.69-0.35,2.05-0.44
				c1.03,0.91,1.89,1.3,2.27,1.44c-0.2,1.17,0.19,1.83,0.21,1.85c0.04,0.07,0.11,0.11,0.19,0.11c0.04,0,0.08-0.01,0.12-0.03
				c0.1-0.06,0.14-0.2,0.08-0.3C92.92,30.6,92.57,29.99,92.8,28.88z"/>
		</g>
		<g>
			<path class="st0" d="M88.11,32.19c-0.64-0.66-1.94-1.67-2.76-1.61c-0.7,0.06-2.13,0.94-2.29,1.04c-0.1,0.07-0.13,0.2-0.07,0.31
				c0.06,0.1,0.2,0.13,0.31,0.07c0.41-0.26,1.58-0.93,2.08-0.97c0.54-0.05,1.68,0.73,2.41,1.48c0.77,0.8,1.48,2,1.49,2.01
				c0.04,0.07,0.12,0.11,0.19,0.11c0.04,0,0.08-0.01,0.11-0.03c0.11-0.06,0.14-0.2,0.08-0.3C89.63,34.23,88.92,33.03,88.11,32.19z"
				/>
		</g>
		<g>
			<path class="st0" d="M89.05,27.37c-0.11-0.05-0.24-0.01-0.3,0.1c-0.05,0.11-0.01,0.24,0.1,0.3c2.25,1.12,4.33,4.04,4.36,4.07
				c0.04,0.06,0.11,0.09,0.18,0.09c0.04,0,0.09-0.01,0.13-0.04c0.1-0.07,0.12-0.21,0.05-0.31C93.48,31.46,91.4,28.54,89.05,27.37z"
				/>
		</g>
		<g>
			<path class="st0" d="M88.07,29.27c-1.78-0.62-4.66,1.85-4.78,1.96c-0.09,0.08-0.1,0.22-0.02,0.31c0.08,0.09,0.22,0.1,0.31,0.02
				c0.03-0.02,2.81-2.41,4.34-1.87c1.6,0.56,3.74,2.92,3.77,2.94c0.04,0.05,0.1,0.07,0.16,0.07c0.05,0,0.11-0.02,0.15-0.06
				c0.09-0.08,0.1-0.22,0.02-0.31C91.93,32.23,89.79,29.87,88.07,29.27z"/>
		</g>
	</g>
	<g>
		<path class="st2" d="M91.56,50.71c0,0-7.45-1.63-12.35-4.91c0,0-7.28,30.45,0.77,39.59c9.9,11.25,14.78-2.58,14.24-10.3
			C93.67,67.23,91.56,50.71,91.56,50.71z"/>
		<path class="st0" d="M91.78,50.68c-0.01-0.09-0.08-0.17-0.17-0.19c-0.07-0.02-7.47-1.67-12.28-4.87c-0.06-0.04-0.14-0.05-0.2-0.02
			c-0.07,0.03-0.12,0.08-0.13,0.16c-0.3,1.25-7.21,30.67,0.82,39.79c2.52,2.86,4.9,4.31,7.07,4.32h0c1.42,0,2.72-0.62,3.86-1.84
			c2.78-2.98,3.98-8.88,3.7-12.93C93.9,67.29,91.81,50.84,91.78,50.68z M90.42,87.71c-1.05,1.13-2.25,1.7-3.54,1.7h0
			c-2.04,0-4.3-1.4-6.73-4.17c-7.45-8.46-1.52-35.86-0.79-39.08c4.49,2.89,10.94,4.48,12.01,4.73c0.21,1.69,2.12,16.85,2.63,24.22
			C94.27,79.06,93.11,84.82,90.42,87.71z"/>
	</g>
	<g>
		<path class="st2" d="M20.46,37.25c-1.19-0.98-3.7-0.48-5.06,0.95c-1.36,1.42-4.26,1-2.97,3.46c1.29,2.46,5.76-0.39,5.76-0.39
			l0.65,5.44c0,0,1.75-1.75,2.78-4.34C22.12,41.13,21.65,38.22,20.46,37.25z"/>
		<path class="st0" d="M20.6,37.08c-1.26-1.03-3.91-0.55-5.36,0.96c-0.44,0.47-1.07,0.72-1.67,0.97c-0.71,0.29-1.39,0.57-1.61,1.17
			c-0.15,0.42-0.06,0.93,0.28,1.58c0.28,0.53,0.71,0.88,1.29,1.03c1.88,0.5,4.67-1.26,4.79-1.34c0.1-0.07,0.13-0.2,0.07-0.31
			c-0.07-0.1-0.2-0.13-0.31-0.07c-0.03,0.02-2.74,1.73-4.44,1.28c-0.46-0.12-0.79-0.39-1.01-0.81c-0.28-0.53-0.36-0.93-0.25-1.22
			c0.15-0.42,0.71-0.65,1.36-0.91c0.62-0.25,1.32-0.54,1.83-1.07c1.28-1.34,3.68-1.81,4.76-0.93c1.08,0.89,1.58,3.66,1.1,4.86
			c-1,2.51-2.72,4.25-2.73,4.26c-0.09,0.09-0.09,0.23,0,0.31c0.04,0.04,0.1,0.07,0.16,0.07c0.06,0,0.11-0.02,0.16-0.07
			c0.07-0.07,1.79-1.81,2.83-4.41C22.38,41.09,21.83,38.08,20.6,37.08z"/>
	</g>
</g>
<rect x="74.28" y="20.55" transform="matrix(0.9687 -0.2481 0.2481 0.9687 -4.8595 19.6324)" class="st1" width="2.4" height="17.11"/>
</svg>
