<?xml version="1.0" encoding="utf-8"?>
<!-- Generator: Adobe Illustrator 27.3.1, SVG Export Plug-In . SVG Version: 6.00 Build 0)  -->
<svg version="1.1" id="Capa_1" xmlns="http://www.w3.org/2000/svg" xmlns:xlink="http://www.w3.org/1999/xlink" x="0px" y="0px"
	 viewBox="0 0 500 550" style="enable-background:new 0 0 500 550;" xml:space="preserve">
<style type="text/css">
	.st0{fill:#FFFFFF;}
	.st1{fill:#FAB903;}
	.st2{fill:#34BE81;}
	.st3{fill:#3B9D81;}
	.st4{fill:#315480;}
	.st5{fill:#16162B;}
	.st6{fill:#FFAA21;}
	.st7{fill:#F0AE20;}
	.st8{fill:#231D24;}
	.st9{fill:#5B45C7;}
</style>
<g>
	<g>
		<g>
			<g>
				<g>
					<ellipse class="st0" cx="419.3" cy="68.48" rx="60.21" ry="58.9"/>
					<path d="M419.3,10.56c32.65,0,59.21,25.98,59.21,57.92s-26.56,57.92-59.21,57.92c-32.65,0-59.21-25.98-59.21-57.92
						S386.65,10.56,419.3,10.56L419.3,10.56z M419.3,8.59c-33.81,0-61.22,26.81-61.22,59.89s27.41,59.89,61.22,59.89
						s61.22-26.81,61.22-59.89S453.1,8.59,419.3,8.59L419.3,8.59z"/>
				</g>
				<g>
					<path class="st1" d="M452.32,67.99c0,17.84-14.78,32.31-33.02,32.31c-18.24,0-33.03-14.46-33.03-32.31
						c0-17.84,14.79-32.31,33.03-32.31C437.54,35.68,452.32,50.15,452.32,67.99z"/>
					<polygon class="st1" points="425.84,32.33 412.75,32.33 419.3,19.53 419.3,19.53 					"/>
					<polygon class="st1" points="425.84,32.33 412.75,32.33 419.3,19.53 419.3,19.53 					"/>
					<polygon class="st1" points="412.75,103.65 425.84,103.65 419.3,116.45 419.3,116.45 					"/>
					<polygon class="st1" points="455.74,74.39 455.74,61.59 468.83,67.99 468.83,67.99 					"/>
					<polygon class="st1" points="382.85,61.59 382.85,74.39 369.76,67.99 369.76,67.99 					"/>
					<polygon class="st1" points="449.7,47.31 440.44,38.25 454.33,33.72 454.33,33.72 					"/>
					<polygon class="st1" points="388.9,88.68 398.15,97.73 384.27,102.26 384.27,102.26 					"/>
					<polygon class="st1" points="440.44,97.73 449.7,88.68 454.33,102.26 454.33,102.26 					"/>
					<polygon class="st1" points="398.15,38.25 388.9,47.31 384.27,33.72 384.27,33.72 					"/>
				</g>
			</g>
			<g>
				<g>
					<ellipse class="st0" cx="398.15" cy="287.75" rx="60.21" ry="58.9"/>
					<path d="M398.15,229.83c32.65,0,59.21,25.98,59.21,57.92c0,31.94-26.56,57.92-59.21,57.92c-32.65,0-59.21-25.98-59.21-57.92
						C338.94,255.81,365.5,229.83,398.15,229.83L398.15,229.83z M398.15,227.86c-33.81,0-61.22,26.81-61.22,59.89
						s27.41,59.89,61.22,59.89s61.22-26.81,61.22-59.89S431.96,227.86,398.15,227.86L398.15,227.86z"/>
				</g>
				<g>
					<path class="st2" d="M398.15,330.2c-14.88,0-26.99-14.15-26.99-31.55c0-16.17,23.62-48.49,26.99-53.02
						c3.38,4.54,26.99,36.85,26.99,53.02C425.14,316.05,413.03,330.2,398.15,330.2z"/>
					<path d="M398.15,246.47c4.5,6.1,26.49,36.7,26.49,52.18c0,17.12-11.88,31.05-26.49,31.05c-14.61,0-26.49-13.93-26.49-31.05
						C371.66,283.16,393.65,252.56,398.15,246.47 M398.15,244.79c0,0-27.49,36.15-27.49,53.86s12.31,32.05,27.49,32.05
						s27.49-14.35,27.49-32.05S398.15,244.79,398.15,244.79L398.15,244.79z"/>
				</g>
			</g>
			<g>
				<g>
					<ellipse class="st0" cx="224.08" cy="91.36" rx="60.21" ry="58.9"/>
					<path d="M224.08,33.44c32.65,0,59.21,25.98,59.21,57.92c0,31.94-26.56,57.92-59.21,57.92c-32.65,0-59.21-25.98-59.21-57.92
						C164.87,59.43,191.43,33.44,224.08,33.44L224.08,33.44z M224.08,31.48c-33.81,0-61.22,26.81-61.22,59.89
						s27.41,59.89,61.22,59.89s61.22-26.81,61.22-59.89S257.89,31.48,224.08,31.48L224.08,31.48z"/>
				</g>
				<g>
					<g>
						<path class="st3" d="M184.4,86.06l-1.09-0.99c0.14-0.14,14-14.28,42.82-7.97c27.72,6.07,34.07-8.28,34.33-8.89l1.38,0.55
							c-0.07,0.16-7.03,16.13-36.03,9.77C197.85,72.37,184.54,85.92,184.4,86.06z"/>
					</g>
					<g>
						<path class="st3" d="M184.41,101.2l-1.09-0.99c0.14-0.15,14.02-14.28,42.82-7.97c27.72,6.07,34.07-8.28,34.33-8.89l1.38,0.55
							c-0.07,0.16-7.03,16.13-36.03,9.77C197.81,87.53,184.54,101.07,184.41,101.2z"/>
					</g>
					<g>
						<path class="st3" d="M184.4,116.27l-1.09-0.99c0.14-0.15,14-14.28,42.82-7.97c27.72,6.08,34.07-8.28,34.33-8.89l1.38,0.55
							c-0.07,0.16-7.03,16.13-36.03,9.77C197.85,102.58,184.54,116.13,184.4,116.27z"/>
					</g>
				</g>
			</g>
			<g>
				<polygon class="st1" points="314.02,181.67 342.74,141.81 332.67,174.45 348.14,170.26 322.44,207.31 330.06,176.4 				"/>
				<g>
					<g>
						<path class="st3" d="M305.33,130.52l-9.29-10.13l-1.5,27.03l27.64,1.47l-8.95-9.75c9.79-4.89,21.09-5.62,31.54-1.88l5.41,1.93
							l3.95-10.57l-5.4-1.93C334.28,121.51,318.56,122.93,305.33,130.52z"/>
					</g>
					<g>
						<path class="st3" d="M293.95,160.34l1.98-5.29l-10.81-3.87l-1.98,5.29c-4.68,12.52-3.97,26.43,1.81,38.46l-11.16,8.09
							l27.37,3.97l4.07-26.77l-10.83,7.86C290.8,179.25,290.59,169.33,293.95,160.34z"/>
					</g>
					<g>
						<path class="st3" d="M348.3,208.58c-9.62,4.52-20.62,5.11-30.75,1.49l-5.4-1.93l-3.95,10.57l5.4,1.94
							c5.73,2.05,11.68,3.06,17.6,3.06c8.55,0,17.04-2.14,24.71-6.3l8.91,10.31l2.32-26.98l-27.58-2.27L348.3,208.58z"/>
					</g>
					<g>
						<path class="st3" d="M359.51,138.97l-2.82,26.93l10.48-8.36c4.33,9.25,4.82,19.79,1.21,29.43l-1.98,5.29l10.81,3.87l1.98-5.29
							c5-13.36,3.89-28.04-2.89-40.57l10.74-8.56L359.51,138.97z"/>
					</g>
				</g>
			</g>
		</g>
		<g>
			<g>
				<g>
					<g>
						<path class="st0" d="M251.99,370.36c2.94-11.07,1.73-24.65,0.75-35.61c-0.68-7.58-1.26-14.13-0.32-17.79
							c1.19-4.64,5.95-20.44,17.36-28.63c0.86-0.61,1.94-1.52,3.11-2.51c2.53-2.12,6.35-5.32,8.06-5.32c0.23,0,0.33,0.06,0.44,0.25
							c2.46,4.59-4.21,12.41-9.89,15.78c-6.32,3.76-7.33,14.5-7.37,14.95l-0.36,4.13l2.22-3.53c0.03-0.04,2.74-4.28,8.73-7.29
							c5.37-2.69,7.89-3.65,9.64-3.65c1.13,0,2.02,0.41,3.39,1.58c1.31,1.11,1.88,2.25,2.6,3.69c0.86,1.71,1.93,3.85,4.64,6.39
							c3.26,3.07,4.01,5.7,4.66,8.02c0.27,0.96,0.53,1.87,0.92,2.73c0.43,0.96,2.23,7.64,1.63,11.56c-0.61,3.96-7.3,7.66-10.41,8.01
							c-0.25,0.03-1.01,0.12-1.41,0.76c-0.44,0.71-0.14,1.49,0.25,2.47c0.46,1.18,1.16,2.97,1.05,5.54
							c-0.18,4.14-1.59,7.14-3.56,11.31c-2.24,4.75-5,10.62-7.1,20.7L251.99,370.36z"/>
						<path d="M280.65,281.52c1.6,3.96-4.53,11.11-9.67,14.17c-6.75,4.02-7.81,15.23-7.85,15.71l-0.73,8.33l4.45-7.13
							c0.03-0.04,2.56-4.03,8.33-6.92c4.35-2.19,7.41-3.54,9.19-3.54c0.88,0,1.54,0.33,2.73,1.34c1.15,0.98,1.67,1.99,2.36,3.38
							c0.9,1.78,2.01,4,4.85,6.66c3.07,2.88,3.74,5.27,4.39,7.58c0.27,0.94,0.54,1.92,0.97,2.87c0.41,0.93,2.12,7.34,1.55,11.02
							c-0.51,3.34-6.71,6.86-9.54,7.18c-1.23,0.14-1.85,0.75-2.14,1.23c-0.69,1.12-0.25,2.24,0.17,3.33
							c0.46,1.18,1.09,2.78,0.99,5.14c-0.17,3.94-1.55,6.88-3.47,10.94c-2.17,4.6-4.83,10.24-6.91,19.69l-27.15-12.68
							c2.73-11.08,1.54-24.37,0.59-35.15c-0.67-7.49-1.24-13.97-0.34-17.47c1.17-4.56,5.84-20.07,16.98-28.07
							c0.9-0.65,2.01-1.58,3.18-2.56C275.39,285.02,279.08,281.93,280.65,281.52L280.65,281.52z M280.95,279.51
							c-2.88,0-8.75,5.85-11.76,8.02c-9.68,6.95-15.33,19.76-17.74,29.18c-2.42,9.43,4.68,35.59-0.65,54.17l30.97,14.46
							c3.91-19.93,10.53-24.02,10.93-33.41c0.23-5.43-2.88-7.59-0.79-7.83c3.37-0.38,10.59-4.28,11.29-8.84
							c0.65-4.18-1.24-11.08-1.7-12.1c-1.34-2.98-1.03-6.58-5.81-11.07c-4.77-4.49-4.1-7.41-7.28-10.11
							c-1.37-1.17-2.49-1.82-4.05-1.82c-2.07,0-4.9,1.14-10.1,3.76c-6.35,3.18-9.13,7.65-9.13,7.65s0.93-10.65,6.89-14.2
							c5.47-3.25,13.17-11.64,10.26-17.08C281.99,279.75,281.54,279.51,280.95,279.51L280.95,279.51z"/>
					</g>
				</g>
				<g>
					<path d="M293.07,309.27c-0.49,0.16-0.75,0.67-0.6,1.16c0.1,0.32,2.38,7.74-9.35,13.63c-3.79,1.9-6.56,2.22-7.78,0.89
						c-1.43-1.55-0.89-5.51,1.19-8.65c0.61-0.93,2.83-3.9,5.43-3.08c0.49,0.15,1.02-0.11,1.19-0.59c0.16-0.48-0.12-1-0.6-1.16
						c-2.64-0.83-5.47,0.61-7.59,3.84c-2.24,3.38-3.34,8.35-1,10.88c0.7,0.75,1.81,1.41,3.6,1.41c1.57,0,3.66-0.51,6.43-1.9
						c13.23-6.64,10.41-15.47,10.28-15.84C294.09,309.37,293.56,309.1,293.07,309.27z"/>
				</g>
				<g>
					<path d="M300.3,319.73c-0.49,0.16-0.75,0.67-0.6,1.16c0.1,0.31,2.37,7.74-9.36,13.63c-4.63,2.32-7.93,2.86-9.53,1.56
						c-2.16-1.76-1.23-6.76-0.69-8.54c0.15-0.49-0.13-1-0.63-1.15c-0.49-0.14-1.02,0.13-1.17,0.62c-0.09,0.31-2.27,7.59,1.28,10.49
						c0.93,0.75,2.1,1.13,3.54,1.13c2.1,0,4.77-0.82,8.06-2.47c13.23-6.64,10.41-15.47,10.28-15.84
						C301.32,319.83,300.79,319.57,300.3,319.73z"/>
				</g>
			</g>
			<g>
				<g>
					<path d="M213.55,422.83c0,0-11.63-48.94-47.82-83.51l-30.37,122.68c0,0,28.19,15.93,62.04,25.83
						c24.96,7.3,57.83,14.42,79.48-36.84c8.02-18.98,20.37-60.23,20.37-60.23c-7.37-0.3-50.18-20.26-50.18-20.26L213.55,422.83z"/>
				</g>
				<g>
					<g>
						<path class="st0" d="M305.28,411.92c-2.18-0.04-6.84-0.22-10.17-0.92l-4.03-18.16l-3.08,17.71
							c-6.63-1.14-45.1-8.45-60.35-27.04l22.98-27.16c4.03,2.02,24.1,11.75,46.18,16.37L305.28,411.92z"/>
						<path d="M250.88,357.59c5.3,2.61,24.23,11.5,45.07,15.96l8.08,37.36c-2.2-0.08-5.47-0.27-8.08-0.74l-2.79-12.57l-2.2-9.93
							l-1.74,10.02l-2.04,11.72c-8.62-1.56-43.5-8.79-58.23-25.89L250.88,357.59L250.88,357.59z M250.37,355.11l-24.02,28.38
							c16.67,21.3,62.47,28.18,62.47,28.18l2.38-13.67l3.06,13.8c4.43,1.08,11.59,1.1,12.22,1.1h0.05l-8.87-41.03
							C272.65,366.79,250.37,355.11,250.37,355.11L250.37,355.11z"/>
					</g>
				</g>
				<g>
					<path class="st4" d="M291.23,388.21c-1.48-0.13-2.8,0.94-2.93,2.39c-0.14,1.45,0.95,2.73,2.43,2.87
						c1.48,0.14,2.8-0.93,2.94-2.38C293.81,389.63,292.72,388.34,291.23,388.21z"/>
					<path class="st5" d="M291.32,387.3c-2-0.2-3.77,1.26-3.95,3.21c-0.18,1.95,1.29,3.69,3.28,3.87c0.11,0.01,0.23,0.02,0.34,0.02
						c1.89,0,3.45-1.39,3.62-3.23c0.09-0.95-0.2-1.87-0.82-2.6C293.17,387.83,292.29,387.38,291.32,387.3z M290.99,392.56l-0.16,0
						c-0.96-0.09-1.68-0.93-1.59-1.87c0.08-0.89,0.82-1.56,1.9-1.56h0.02c0.46,0.04,0.89,0.26,1.19,0.61c0.3,0.35,0.44,0.8,0.4,1.26
						C292.66,391.89,291.9,392.56,290.99,392.56z"/>
				</g>
			</g>
			<g>
				<g>
					<g>
						<polygon class="st0" points="282.82,284.97 284.85,283.78 302.38,280.46 290.83,294.29 289.03,295.21 						"/>
						<g>
							<path d="M299.83,281.96l-9.53,11.42l-0.91,0.49l-5.2-8.56l0.88-0.51L299.83,281.96L299.83,281.96z M304.91,278.98
								l-20.57,3.96l-2.9,1.69l7.22,11.89l2.95-1.6L304.91,278.98L304.91,278.98z"/>
						</g>
					</g>
				</g>
				<g>
					<path class="st6" d="M291.52,294.91l0.08-0.05l0,0C291.57,294.88,291.54,294.9,291.52,294.91z"/>
				</g>
				<g>
					<g>
						<path class="st7" d="M244.83,306.47l38.09-22.13c-0.02,0.42,0.07,0.86,0.31,1.25c0.35,0.58,0.97,0.97,1.65,1.06
							c-0.24,0.61-0.21,1.33,0.16,1.93c0.36,0.6,0.97,0.98,1.65,1.06c-0.25,0.61-0.21,1.32,0.16,1.93c0.36,0.59,0.97,0.98,1.65,1.06
							c-0.24,0.61-0.2,1.32,0.16,1.93c0.23,0.38,0.57,0.68,0.97,0.86l-38.09,22.13L244.83,306.47z"/>
						<path d="M282.5,285.16c0.07,0.23,0.16,0.47,0.3,0.69c0.33,0.55,0.86,0.96,1.46,1.17c-0.11,0.61,0,1.25,0.35,1.82
							c0.33,0.55,0.86,0.96,1.46,1.17c-0.11,0.61,0,1.25,0.35,1.82c0.33,0.55,0.86,0.96,1.46,1.17c-0.1,0.61,0,1.25,0.35,1.82
							c0.13,0.22,0.29,0.41,0.47,0.58l-36.99,21.49l-6.21-10.24L282.5,285.16L282.5,285.16z M284.21,283.03l-40.06,23.27l7.24,11.93
							l40.06-23.27l-0.01-0.01c-0.26,0.13-0.55,0.2-0.82,0.2c-0.6,0-1.18-0.3-1.51-0.83c-0.48-0.79-0.23-1.81,0.55-2.31l-0.03-0.05
							c-0.26,0.14-0.55,0.2-0.82,0.2c-0.6,0-1.18-0.3-1.51-0.84c-0.48-0.79-0.23-1.81,0.55-2.31l-0.03-0.05
							c-0.26,0.14-0.55,0.2-0.83,0.2c-0.6,0-1.18-0.3-1.5-0.84c-0.48-0.8-0.23-1.81,0.55-2.31l-0.03-0.04
							c-0.26,0.13-0.55,0.2-0.82,0.2c-0.6,0-1.18-0.3-1.51-0.84C283.18,284.55,283.43,283.54,284.21,283.03L284.21,283.03
							L284.21,283.03z"/>
					</g>
				</g>
				<g>
					<path class="st6" d="M284.28,282.98c0.02-0.02,0.05-0.03,0.08-0.04l0,0L284.28,282.98z"/>
				</g>
				<g>
					<g>
						<path class="st7" d="M241.62,322.38c-2.1,0-4.08-1.1-5.16-2.87l-0.61-1.01c-1.68-2.78-0.75-6.38,2.09-8.02l2.64-1.54
							l6.73,11.08l-2.65,1.54C243.74,322.09,242.69,322.38,241.62,322.38L241.62,322.38z"/>
						<path d="M240.41,309.61l6.22,10.23l-2.21,1.29c-0.85,0.49-1.81,0.75-2.8,0.75c-1.92,0-3.73-1.01-4.72-2.63l-0.62-1.01
							c-0.75-1.23-0.96-2.67-0.6-4.06c0.36-1.39,1.25-2.55,2.51-3.28L240.41,309.61L240.41,309.61z M240.76,308.27l-3.07,1.79
							c-3.08,1.79-4.1,5.68-2.27,8.7l0.61,1.01c1.21,2,3.37,3.11,5.58,3.11c1.13,0,2.27-0.29,3.31-0.89l3.08-1.79L240.76,308.27
							L240.76,308.27z"/>
					</g>
					<path class="st8" d="M237.6,309.9c-3.16,1.84-4.2,5.84-2.33,8.93l0.62,1.01c0.51,0.84,1.19,1.55,2.02,2.09l0,0
						c2.12,1.39,4.91,1.46,7.11,0.19l3.23-1.87l-7.42-12.22L237.6,309.9z M247.76,320.13l-2.93,1.7c-2.08,1.21-4.72,1.14-6.73-0.18
						h0c-0.79-0.51-1.43-1.18-1.92-1.98l-0.61-1.01c-1.78-2.93-0.79-6.72,2.2-8.46l2.92-1.69L247.76,320.13z"/>
				</g>
				<g>
					<g>
						<polygon class="st0" points="242.07,308.65 243.78,307.66 249.99,317.89 248.28,318.88 						"/>
						<polygon points="244.13,306.31 240.69,308.31 247.93,320.23 251.37,318.23 244.13,306.31 						"/>
					</g>
				</g>
			</g>
			<g>
				<g>
					<path class="st0" d="M264.87,324.67c0.31-2.4,2.25-17.25,3.09-20.35c0.55-1.99-0.46-4.96-1.44-7.84
						c-0.56-1.64-1.39-4.11-1.14-4.67c1.48,0.09,5.2,1.55,7.76,4.47c1.94,2.21,2.71,4.65,2.3,7.24c-1.26,7.89,1.23,13.92,3.63,19.76
						c3.18,7.71,6.2,15.02,0.59,26.34L264.87,324.67z"/>
					<path d="M266.5,293.08c1.55,0.46,4.04,1.76,5.87,3.85c1.74,1.99,2.43,4.16,2.07,6.45c-1.3,8.16,1.24,14.32,3.69,20.28
						c2.93,7.1,5.71,13.84,1.41,23.83l-13.64-23.02c0.68-5.23,2.32-17.28,3.03-19.89c0.62-2.28-0.44-5.39-1.46-8.4
						C267.15,295.24,266.73,293.99,266.5,293.08L266.5,293.08z M265.49,290.92c-0.32,0-0.57,0.05-0.74,0.16
						c-1.84,1.13,3.18,9.53,2.24,12.99c-0.94,3.46-3.16,20.81-3.16,20.81l15.88,26.81c11.87-21.64-6.22-29.65-3.28-48.01
						C277.68,295.78,268.57,290.92,265.49,290.92L265.49,290.92z"/>
				</g>
			</g>
			<g>
				<g>
					<path class="st3" d="M168.67,296.41c-13.72-1.95-32.19-2.35-45.71-0.19c-25.54,4.07-56.57,17.83-70.49,39.02
						c-38.43,58.47-33.41,144.33-35.54,209.53h242.05c-1.8-74.72-1.94-128.47-25.99-188.86C223.41,331.9,202.7,301.25,168.67,296.41
						z"/>
					<path d="M260.01,545.75H15.89l0.03-1.01c0.31-9.49,0.47-19.27,0.63-29.63c0.97-61.03,2.07-130.2,35.06-180.39
						c14.25-21.69,46.02-35.45,71.18-39.46c12.58-2.01,31.07-1.93,46.02,0.19l0,0c39.38,5.59,58.65,43.9,65.1,60.11
						c22.99,57.72,24.18,108.53,25.82,178.84L260.01,545.75z M17.96,543.78h239.98l-0.22-9.35c-1.64-70.11-2.83-120.77-25.69-178.17
						c-6.33-15.89-25.19-53.43-63.52-58.88c-14.76-2.1-33-2.17-45.4-0.19c-24.72,3.94-55.89,17.4-69.81,38.58
						c-32.67,49.72-33.77,118.59-34.74,179.36C18.4,525.13,18.25,534.6,17.96,543.78z"/>
				</g>
			</g>
			<g>
				<g>
					<path class="st0" d="M165.68,391.39c-9.48-19.85-36.46-85.77-40.08-94.64c4.77-1.4,10.74-2.1,17.78-2.1
						c10.85,0,21.03,1.71,23.6,2.17C170.49,311.89,166.71,375.31,165.68,391.39z"/>
					<path d="M143.39,295.63c9.99,0,19.43,1.46,22.76,2.04c3.02,14.85,0.03,69.46-1.22,89.74c-10.26-22.36-33.34-78.68-37.97-90.01
						C131.44,296.23,136.96,295.63,143.39,295.63L143.39,295.63z M143.39,293.66c-6.57,0-13.43,0.61-19.12,2.47
						c0,0,34.17,83.81,42.16,99.04c0,0,5.75-83.01,1.37-99.2C167.81,295.97,156.14,293.66,143.39,293.66L143.39,293.66z"/>
				</g>
			</g>
			<g>
				<g>
					<path class="st0" d="M146.93,300.81c-7.12,0-14.41-1.78-21.69-5.3c-0.22-3.5-1.3-22.75,0.15-40.76
						c0.21-2.59-0.92-8.69-2.12-15.16c-1.26-6.81-2.68-14.52-2.14-16.51c5.11-18.85,21-28.82,45.96-28.82l2.24,0.01
						c12.43,0,23.49,3.8,29.6,10.17c4.44,4.63,6.45,10.64,5.98,17.84c-0.15,2.24-0.18,5.08-0.21,8.32
						c-0.14,12.8-0.34,32.14-8.35,44.42c-3.74,5.75-11.42,11.55-20.12,11.55l0,0c-3.45,0-6.81-0.93-9.99-2.76l-1.85-1.06l0.34,2.07
						c0.05,0.31,1.2,7.25,1.96,10.72C164.75,296.76,157.56,300.81,146.93,300.81z"/>
					<path d="M167.08,195.24l1.37,0l0.88,0c12.15,0,22.94,3.69,28.86,9.86c4.24,4.43,6.16,10.18,5.71,17.11
						c-0.15,2.28-0.18,5.11-0.22,8.38c-0.13,12.69-0.34,31.86-8.19,43.9c-3.48,5.34-10.99,11.09-19.27,11.09
						c-3.27,0-6.46-0.88-9.49-2.62l-3.69-2.12l0.68,4.13c0.05,0.3,1.07,6.45,1.83,10.09c-2.46,1.45-9.13,4.76-18.63,4.76
						c-6.79,0-13.76-1.67-20.73-4.95c-0.27-4.65-1.2-22.91,0.18-40.05c0.22-2.71-0.87-8.6-2.13-15.41
						c-1.12-6.03-2.64-14.3-2.16-16.08C127.07,204.96,142.63,195.24,167.08,195.24L167.08,195.24z M167.08,193.28
						c-10.1,0-39.24,1.18-46.93,29.55c-1.12,4.11,4.66,26.54,4.23,31.84c-1.62,20.12-0.11,41.47-0.11,41.47
						c8.57,4.24,16.24,5.66,22.66,5.66c13,0,20.88-5.82,20.88-5.82c-0.74-3.15-2.1-11.31-2.1-11.31c3.55,2.04,7.1,2.9,10.51,2.9
						c9.12,0,17.15-6.13,20.97-12c10.19-15.63,7.98-42,8.72-53.21c1.47-22.42-20.6-29.06-36.58-29.06
						C168.75,193.29,168,193.28,167.08,193.28L167.08,193.28z"/>
				</g>
			</g>
			<g>
				<path d="M175.18,171.82c-49.59-16.36-55.82,20.5-55.82,20.5c-32.35,28.45,4.72,75.61,4.72,75.61c2.09-4,5.28-12.18,4.92-15.26
					c-0.33-2.71-13.52-24.7,2.61-30.07c4.6-1.53,9.58-0.96,13.27,3.15c2.54-10.18,2.82-18.67,2.82-18.67
					c27.17,19.15,79.43,4.63,79.43,4.63C223.6,150.85,175.18,171.82,175.18,171.82z"/>
			</g>
			<g>
				<g>
					<path d="M164.11,218.93h-0.35c-6.99,0-12.68,6.38-12.94,14.52c-0.13,3.95,1.06,7.72,3.35,10.6c2.33,2.93,5.52,4.61,8.97,4.72
						l0.35,0c6.99,0,12.68-6.38,12.94-14.52c0.13-3.95-1.06-7.71-3.35-10.6C170.75,220.71,167.56,219.04,164.11,218.93z
						 M163.49,246.93l-0.29-0.01c-2.89-0.09-5.57-1.51-7.55-4c-2.03-2.54-3.07-5.89-2.95-9.42c0.22-7.03,5.18-12.74,11.06-12.74
						l0.29,0c2.88,0.09,5.56,1.51,7.54,4.01c2.03,2.54,3.07,5.88,2.96,9.41C174.33,241.21,169.37,246.93,163.49,246.93z"/>
				</g>
				<g>
					<path d="M199.37,220.02l-0.35,0c-6.99,0-12.68,6.38-12.94,14.52c-0.13,3.95,1.06,7.72,3.35,10.6c2.33,2.93,5.51,4.61,8.97,4.72
						l0.35,0c6.99,0,12.68-6.38,12.94-14.52C211.96,227.12,206.43,220.25,199.37,220.02z M198.75,248.03l-0.29-0.01
						c-2.89-0.09-5.57-1.51-7.55-4.01c-2.03-2.54-3.07-5.88-2.96-9.41c0.23-7.03,5.19-12.74,11.07-12.74l0.29,0
						c6.02,0.18,10.74,6.21,10.51,13.42C209.59,242.31,204.63,248.03,198.75,248.03z"/>
				</g>
				<g>
					<path d="M174.87,229.85c-0.4,0.32-0.46,0.89-0.15,1.29c0.33,0.4,0.92,0.46,1.33,0.15c6.02-4.72,10.73,0.08,10.92,0.28
						c0.19,0.2,0.44,0.29,0.69,0.29c0.22,0,0.46-0.08,0.64-0.25c0.38-0.34,0.4-0.92,0.06-1.29
						C188.29,230.27,182.29,224.05,174.87,229.85z"/>
				</g>
			</g>
			<g>
				<path d="M189.12,264.04c-0.05,0.05-5.59,4.84-19.3-0.68c-0.48-0.19-1.03,0.03-1.23,0.5c-0.19,0.47,0.03,1.01,0.51,1.2
					c5.23,2.11,9.38,2.8,12.59,2.8c5.87,0,8.53-2.31,8.69-2.46c0.38-0.35,0.41-0.93,0.05-1.3
					C190.1,263.72,189.5,263.7,189.12,264.04z"/>
			</g>
			<g>
				<path d="M168.94,227.22c-0.27-0.09-6.82-2.16-11.34,1.77c-0.38,0.34-0.42,0.92-0.08,1.29c0.19,0.2,0.45,0.31,0.71,0.31
					c0.22,0,0.44-0.08,0.62-0.23c3.7-3.22,9.44-1.42,9.49-1.4c0.49,0.17,1.02-0.1,1.19-0.58
					C169.7,227.9,169.43,227.38,168.94,227.22z"/>
			</g>
			<g>
				<path d="M191.55,227.22c-0.49,0.16-0.75,0.68-0.59,1.16c0.16,0.48,0.69,0.75,1.19,0.58c0.05-0.02,5.79-1.82,9.49,1.4
					c0.17,0.15,0.4,0.23,0.62,0.23c0.26,0,0.52-0.1,0.7-0.31c0.35-0.38,0.31-0.96-0.07-1.29
					C198.37,225.06,191.83,227.13,191.55,227.22z"/>
			</g>
			<g>
				<path d="M195.17,233.87c-1.15,0-2.08,1.19-2.08,2.66c0,1.47,0.93,2.65,2.08,2.65c1.14,0,2.07-1.19,2.07-2.65
					C197.24,235.06,196.31,233.87,195.17,233.87z"/>
			</g>
			<g>
				<path d="M162.52,233.87c-1.14,0-2.07,1.19-2.07,2.66c0,1.47,0.93,2.65,2.07,2.65c1.15,0,2.07-1.19,2.07-2.65
					C164.59,235.06,163.66,233.87,162.52,233.87z"/>
			</g>
			<g>
				<path d="M183.92,245.04c-1.87-0.44-4,0.5-6.34,2.8c-0.37,0.36-0.37,0.94,0,1.3c0.18,0.18,0.42,0.27,0.66,0.27
					c0.24,0,0.49-0.09,0.67-0.27c1.81-1.78,3.4-2.58,4.56-2.31c1.3,0.3,1.87,1.87,1.89,1.92c0.16,0.48,0.68,0.75,1.19,0.59
					c0.49-0.16,0.76-0.68,0.6-1.16C187.11,248.07,186.25,245.58,183.92,245.04z"/>
			</g>
			<g>
				<path d="M163.82,281.26c-0.22-0.09-22.24-9.6-22.24-22.17c0-0.46-0.36-0.83-0.8-0.83c-0.44,0-0.8,0.37-0.8,0.83
					c0,13.68,22.29,23.31,23.23,23.71c0.1,0.05,0.2,0.07,0.31,0.07c0.32,0,0.62-0.2,0.74-0.51
					C164.43,281.92,164.23,281.44,163.82,281.26z"/>
			</g>
			<g>
				<g>
					<path class="st9" d="M164.62,445.55c-2.74,0-4.96,2.17-4.96,4.85c0,2.68,2.22,4.86,4.96,4.86c2.74,0,4.96-2.17,4.96-4.86
						C169.59,447.72,167.36,445.55,164.62,445.55z"/>
				</g>
				<g>
					<path class="st9" d="M164.62,502.19c-2.74,0-4.96,2.17-4.96,4.85c0,2.68,2.22,4.85,4.96,4.85c2.74,0,4.96-2.17,4.96-4.85
						C169.59,504.36,167.36,502.19,164.62,502.19z"/>
				</g>
			</g>
			<g>
				<g>
					<g>
						<path class="st0" d="M138.56,455.04c-1.98-3.6-4.26-5-5.65-5.55c24.08-56.54,29.37-94.36,30.25-102.06
							c7.98,4.09,9.23,6.92,9.24,8.28c0.02,1.68-1.83,2.64-1.85,2.65l-0.37,0.19L138.56,455.04z"/>
						<path d="M163.98,348.98c6.79,3.71,7.41,6.05,7.41,6.73c0.02,1.06-1.3,1.76-1.3,1.76h0l-0.75,0.37l-0.26,0.78l-30.82,94.07
							c-1.41-1.96-2.87-3.07-4.06-3.7C156.77,395.78,162.67,359.23,163.98,348.98L163.98,348.98z M162.3,345.9
							c0,0-3.15,39.77-30.76,104.23c0,0,4.24,0.35,7.19,7.61l32.28-98.51C171.01,359.23,180.29,354.63,162.3,345.9L162.3,345.9z"/>
					</g>
				</g>
				<g>
					<g>
						<path class="st0" d="M173.17,358.58c0.16-0.35,0.25-0.72,0.27-1.12c0.13-2.57-2.95-5.96-5.82-8.55
							c3.13,0.64,7.17,0.94,12.37,0.94h0c5.14,0,10.7-0.28,16.6-0.58c5.88-0.3,11.96-0.6,17.54-0.6c4.47,0,8.16,0.2,11.26,0.6
							c24.86,3.22,34.31,15.06,34.41,15.18l1.96,2.52l-0.15-3.16c-0.13-2.56,0.78-4.85,2.69-6.81c5.05-5.19,17.34-8.28,32.87-8.28
							c5.71,0,11.28,0.45,15.67,1.26c4.66,0.87,10.1,1.31,16.18,1.31c6.61,0,12.24-0.53,14.51-0.78c0.38,3.83,2.62,7.89,3.88,9.92
							l-88.76,13.44L173.17,358.58z"/>
						<path d="M214.14,349.65c4.43,0,8.07,0.19,11.13,0.59c24.37,3.17,33.64,14.68,33.73,14.79l3.93,5.09l-0.31-6.37
							c-0.11-2.31,0.68-4.3,2.42-6.08c4.87-4.99,16.88-7.97,32.15-7.97c5.65,0,11.15,0.45,15.48,1.25
							c4.72,0.88,10.23,1.32,16.37,1.32c5.92,0,10.96-0.41,13.65-0.68c0.52,3.02,1.97,6.03,3.14,8.09l-87.14,13.2l-84.26-15.07
							c0.01-0.1,0.02-0.2,0.03-0.3c0.11-2.22-1.67-4.81-3.86-7.14c2.64,0.32,5.75,0.46,9.41,0.46c5.16,0,10.74-0.28,16.66-0.58
							C202.51,349.95,208.58,349.65,214.14,349.65L214.14,349.65z M162.3,345.9c0,0,14.29,10.22,8.94,13.33l87.41,15.63l90.46-13.7
							c0,0-4.61-6.47-4.61-11.76c0,0-6.83,0.9-15.46,0.9c-5.05,0-10.72-0.31-15.99-1.29c-4.3-0.8-9.92-1.29-15.86-1.29
							c-17.18,0-37.17,4.04-36.57,16.12c0,0-9.43-12.23-35.07-15.56c-3.43-0.45-7.3-0.61-11.39-0.61c-11.05,0-23.76,1.18-34.15,1.18
							C172.24,348.87,165.78,348.21,162.3,345.9L162.3,345.9z"/>
					</g>
				</g>
				<g>
					<g>
						<polygon class="st7" points="135.21,462.01 166.28,356.44 253.4,364.98 224.83,472.41 						"/>
						<path d="M167.02,357.5l85.12,8.34l-28.06,105.49l-87.57-10.16L167.02,357.5L167.02,357.5z M165.55,355.38l-0.46,1.58
							l-30.51,103.66l-0.66,2.22l2.35,0.27l87.57,10.16l1.74,0.2l0.44-1.66l28.05-105.49l0.59-2.22l-2.34-0.23l-85.12-8.34
							L165.55,355.38L165.55,355.38z"/>
					</g>
				</g>
				<g>
					<g>
						<polygon class="st7" points="263.73,364.93 355.39,356.39 324.29,462.06 234.59,472.48 						"/>
						<path d="M354.02,357.5l-30.51,103.66l-87.57,10.16l28.59-105.49L354.02,357.5L354.02,357.5z M356.77,355.27l-2.94,0.28
							l-89.49,8.34l-1.4,0.13l-0.36,1.33l-28.59,105.49l-0.76,2.8l2.94-0.34l87.57-10.16l1.33-0.15l0.37-1.26l30.51-103.66
							L356.77,355.27L356.77,355.27z"/>
					</g>
				</g>
				<g>
					<g>
						<polygon class="st0" points="275.95,392.59 331.02,387.46 325.89,404.46 270.92,408.75 						"/>
						<path d="M329.64,388.57l-4.52,14.96l-52.81,4.12l4.41-14.15L329.64,388.57L329.64,388.57z M332.41,386.34l-57.22,5.33
							l-5.66,18.17l57.13-4.46L332.41,386.34L332.41,386.34z"/>
					</g>
				</g>
				<g>
					<path d="M264.52,365.84l-28.59,105.49h-11.86l28.06-105.49C252.14,365.84,255.18,372.04,264.52,365.84z"/>
				</g>
			</g>
			<g>
				<g>
					<g>
						<path class="st0" d="M125.79,455.44c4.56,0.47,23.89,2.37,38.26,2.37c12.94,0,15.89-1.51,16.99-2.65
							c6.28-6.5,9.34-11,13.21-16.68l0.69-1.01c3.49-5.11,13.09-13.66,18.25-18.25l2.01-1.8c0.57-0.51,0.94-0.59,1.12-0.59
							c0.39,0,0.68,0.48,0.82,0.77c0.99,2.11,0.54,7.41-3.57,12.09c-7.16,8.16-3.1,14.43-2.92,14.69l0.32,0.48l0.59-0.04
							c0.42-0.03,42.64-2.92,56.38-2.92c2.6,0,3.49,0.11,3.78,0.17c1.36,0.29,2.51,1.29,2.67,2.33c0.17,1.07-0.69,2.21-2.43,3.19
							c-3.21,1.82-12.25,4.11-18.6,4.69l-5.52,0.51l5.35,1.42c0.02,0.01,0.88,0.27,1.16,1.21c0.3,1,0.15,3.43-4.23,8.42l-0.29,0.33
							l0.05,0.43c0.03,0.27,0.71,6.56-5.22,9.38l-0.91,0.43l0.45,0.89c0.08,0.18,2.08,4.56-5.8,8.4c-1.33,0.65-2.59,1.29-3.8,1.9
							c-5.71,2.9-10.23,5.19-15.53,5.19l0,0c-1.01,0-2.04-0.08-3.12-0.25c-1.23-0.19-2.9-0.29-5.12-0.29
							c-17.6,0-78.85,7.86-90.64,10.76L125.79,455.44z"/>
						<path d="M216.18,417.91c0.7,1.19,0.82,6.36-3.38,11.15c-7.65,8.71-3.19,15.58-3,15.87l0.64,0.96l1.18-0.08
							c0.42-0.03,42.6-2.92,56.31-2.92c2.67,0,3.41,0.11,3.57,0.15c0.94,0.2,1.79,0.88,1.89,1.52c0.1,0.62-0.62,1.44-1.94,2.19
							c-3.05,1.74-12.07,4-18.19,4.56l-8.92,0.86l8.51,2.98c0.1,0.03,0.42,0.18,0.53,0.58c0.14,0.52,0.26,2.58-4.04,7.49l-0.57,0.66
							l0.09,0.85c0.03,0.24,0.6,5.88-4.66,8.38l-1.72,0.87l0.78,1.74c0.17,0.38,1.48,3.81-5.32,7.13c-1.33,0.65-2.6,1.29-3.81,1.91
							c-5.59,2.84-10.01,5.08-15.06,5.08c-0.96,0-1.96-0.08-2.96-0.24c-1.28-0.2-3.01-0.3-5.28-0.3c-15.64,0-73.81,7.09-89.48,10.56
							l5.31-43.33c5.91,0.6,23.83,2.28,37.38,2.28c13.18,0,16.39-1.58,17.72-2.95c6.34-6.57,9.42-11.09,13.32-16.82l0.69-1.01
							c3.42-5.01,12.96-13.5,18.09-18.07l2.01-1.8C216,418.04,216.1,417.96,216.18,417.91L216.18,417.91z M216.31,415.85
							c-0.53,0-1.14,0.26-1.79,0.85c-4.23,3.82-16.34,14.24-20.42,20.22c-4.29,6.3-7.21,10.75-13.79,17.56
							c-1.69,1.75-8.23,2.34-16.26,2.34c-16.45,0-39.14-2.47-39.14-2.47l-5.88,47.98c0.91-1.05,69.42-11.09,91.81-11.09
							c2.08,0,3.77,0.09,4.96,0.28c1.13,0.18,2.23,0.27,3.28,0.27c6.69,0,12.04-3.41,19.77-7.19c8.96-4.38,6.25-9.72,6.25-9.72
							c6.68-3.17,5.77-10.38,5.77-10.38c8.47-9.66,2.58-11.23,2.58-11.23c6.53-0.6,15.69-2.93,19.02-4.82
							c5.2-2.96,2.54-6.67-0.54-7.33c-0.63-0.13-2.03-0.19-4-0.19c-13.94,0-56.45,2.93-56.45,2.93s-3.91-5.82,2.84-13.51
							C220.04,423.84,219.25,415.85,216.31,415.85L216.31,415.85z"/>
					</g>
				</g>
				<g>
					<path d="M251.27,462.54c-0.06,0.04-6.19,4.34-21.1,0.19c-0.49-0.14-1.02,0.14-1.16,0.63c-0.14,0.49,0.15,0.99,0.64,1.13
						c5.06,1.41,9.17,1.89,12.44,1.89c7.03,0,10.14-2.25,10.32-2.39c0.41-0.31,0.49-0.88,0.17-1.28
						C252.27,462.31,251.68,462.24,251.27,462.54z"/>
				</g>
				<g>
					<path d="M253.65,452.34c-0.05,0.01-5.47,1.01-21.89,0.56c-0.48-0.04-0.95,0.39-0.97,0.89c-0.02,0.51,0.39,0.93,0.91,0.95
						c3.03,0.08,5.69,0.11,8,0.11c10.48,0,14.12-0.68,14.31-0.71c0.51-0.1,0.84-0.58,0.73-1.08
						C254.65,452.56,254.15,452.24,253.65,452.34z"/>
				</g>
				<g>
					<path d="M246.5,472.98c-0.08,0.04-7.37,3.72-21.43,3.05c-0.56,0.03-0.97,0.37-0.98,0.88c-0.02,0.51,0.38,0.94,0.9,0.96
						c1.18,0.05,2.31,0.08,3.39,0.08c12.4,0,18.71-3.19,19-3.34c0.46-0.24,0.63-0.79,0.38-1.24
						C247.52,472.92,246.96,472.75,246.5,472.98z"/>
				</g>
			</g>
			<g>
				<g>
					<path class="st3" d="M101.86,443.82c0,0,14.81-48.88,8.53-99.46l-75.11,43.4c0,0-4.44,31.55-1.04,65.95
						c2.51,25.37,8.17,57.84,64.86,58.12c20.98,0.11,64.7-4.26,64.7-4.26c-2.49-6.79,0.26-53.1,0.26-53.1L101.86,443.82z"/>
				</g>
				<g>
					<g>
						<path class="st0" d="M146.79,522.81c-0.79-2-2.37-6.28-2.97-9.57l15.67-10.5l-17.92,3.89c-1.42-6.43-9.01-44.05,2.83-64.88
							l34.38,10.58c-0.4,4.41-2.04,26.27,1.92,48.01L146.79,522.81z"/>
						<path d="M144.89,442.93l32.82,10.1c-0.47,5.79-1.75,26.3,1.89,46.86l-32.32,21.41c-0.76-2.02-1.81-5.05-2.35-7.61l10.84-7.27
							l8.56-5.74l-10.13,2.2l-11.86,2.57C140.56,497.06,134.24,462.72,144.89,442.93L144.89,442.93z M143.92,440.57
							c-13.87,23.14-3.12,67.23-3.12,67.23l13.84-3l-11.91,7.99c0.68,4.61,3.59,11.53,3.59,11.53l35.49-23.51
							c-4.6-24.57-1.96-49.17-1.96-49.17L143.92,440.57L143.92,440.57z"/>
					</g>
				</g>
				<g>
					<g>
						<path class="st7" d="M161.36,505.54c-1.64,0-3.07-1.03-3.55-2.57c-0.29-0.93-0.19-1.91,0.28-2.76
							c0.47-0.85,1.24-1.48,2.19-1.76c0.35-0.1,0.71-0.16,1.08-0.16c1.64,0,3.06,1.03,3.54,2.57c0.59,1.91-0.51,3.94-2.47,4.53
							C162.09,505.49,161.72,505.54,161.36,505.54L161.36,505.54z"/>
						<path d="M161.36,499.28c1.16,0,2.22,0.73,2.58,1.87c0.44,1.39-0.37,2.87-1.79,3.3c-0.26,0.08-0.52,0.11-0.78,0.11
							c-1.16,0-2.23-0.73-2.59-1.87c-0.43-1.39,0.37-2.87,1.79-3.29C160.84,499.32,161.1,499.28,161.36,499.28L161.36,499.28z
							 M161.36,497.31c-0.47,0-0.93,0.07-1.38,0.2c-1.2,0.36-2.19,1.15-2.78,2.24c-0.59,1.09-0.72,2.33-0.35,3.51
							c0.61,1.96,2.42,3.27,4.51,3.27c0.46,0,0.91-0.07,1.36-0.19c2.49-0.75,3.9-3.33,3.15-5.75
							C165.25,498.62,163.44,497.31,161.36,497.31L161.36,497.31z"/>
					</g>
				</g>
			</g>
			<g>
				<g>
					<path d="M137.91,226.32c-3.02-1.17-6.01-0.48-8.22,1.88c-4.26,4.56-1.63,10.58,0.36,13.12c0.18,0.24,0.46,0.37,0.74,0.37
						c0.2,0,0.4-0.06,0.57-0.19c0.41-0.31,0.49-0.89,0.18-1.29c-0.05-0.06-4.74-6.2-0.46-10.77c2.27-2.43,4.82-1.92,6.13-1.41
						c2.72,1.06,4.72,3.83,4.67,6.44c-0.01,0.51,0.4,0.92,0.92,0.93h0.02c0.51,0,0.93-0.4,0.93-0.9
						C143.83,231.1,141.37,227.67,137.91,226.32z"/>
				</g>
				<g>
					<path d="M138.41,227.03c-2.06,0.74-3.38,1.89-3.96,3.45c-0.93,2.5,0.54,5.02,0.6,5.12c0.17,0.29,0.49,0.46,0.81,0.46
						c0.16,0,0.32-0.04,0.47-0.13c0.45-0.25,0.6-0.81,0.35-1.25c-0.02-0.02-1.09-1.9-0.46-3.58c0.38-1.02,1.33-1.81,2.83-2.34
						c0.49-0.17,0.74-0.7,0.56-1.18C139.44,227.09,138.89,226.84,138.41,227.03z"/>
				</g>
			</g>
			<g>
				<path d="M129.08,449.48l-28.99-4.97l0.96-1.28c14.84-19.68,8.58-96.48,8.52-97.25l2-0.16c0.26,3.12,6.13,75.31-8.01,97.29
					l25.87,4.43L129.08,449.48z"/>
			</g>
			<polygon class="st0" points="260.48,325.39 271.29,323.49 279.46,347.03 277.99,349.62 256.02,325.58 			"/>
		</g>
	</g>
	<g>
		<rect x="22.01" y="538.95" class="st5" width="463.88" height="4.53"/>
	</g>
</g>
<rect x="16" y="539.75" width="471" height="6.5"/>
</svg>
