<?xml version="1.0" encoding="utf-8"?>
<!-- Generator: Adobe Illustrator 27.7.0, SVG Export Plug-In . SVG Version: 6.00 Build 0)  -->
<svg version="1.1" id="Capa_1" xmlns="http://www.w3.org/2000/svg" xmlns:xlink="http://www.w3.org/1999/xlink" x="0px" y="0px"
	 viewBox="0 0 120 160" style="enable-background:new 0 0 120 160;" xml:space="preserve">
<style type="text/css">
	.st0{fill:#212129;}
	.st1{fill:#FFFFFF;}
	.st2{fill:#16162B;}
	.st3{fill:#84BC26;}
	.st4{fill:#3B9D81;}
	.st5{fill:#00272E;}
	.st6{fill:#FAB903;}
</style>
<g>
	<g>
		<g>
			<g>
				<g>
					<path d="M75.6,121.3c-1-8.7-7-10-10.7-12.3c-3-1.8-8.6-3.3-13.4,3.5c-2.6,3.6-7.4,5.9-7.4,9.4s-8.8,1.7-8.8,1.7
						c5.7,9.3,16.1,14.1,23.5,14.1s2,1.7,11.2,1.7s13-16.9,13-16.9C78.4,125.8,76.2,126.6,75.6,121.3z"/>
					<path class="st0" d="M82.9,122.3c-2.2,1.6-3.9,2.6-5,2.6c-0.8,0-1.7-0.4-2-3.6c-0.8-7.3-5.2-9.5-8.7-11.3
						c-0.8-0.4-1.5-0.8-2.2-1.2c-1.2-0.7-3-1.6-5.3-1.6c-3.2,0-6,1.7-8.5,5.1c-1,1.3-2.2,2.5-3.5,3.6c-2,1.8-4,3.6-4,5.9
						c0,0.7-0.4,1.2-1.2,1.5c-0.7,0.3-1.6,0.4-2.8,0.4c-2.2,0-4.5-0.5-4.5-0.5c-0.1,0-0.2,0-0.2,0.1c-0.1,0.1-0.1,0.2,0,0.3
						c5.7,9.3,16.3,14.2,23.8,14.2c3.4,0,4,0.4,4.7,0.8c0.8,0.5,1.6,1,6.5,1c9.3,0,13.2-16.3,13.3-17.1c0-0.1,0-0.2-0.1-0.3
						C83.1,122.2,83,122.2,82.9,122.3z M69.9,139.1c-4.8,0-5.5-0.5-6.3-0.9c-0.7-0.4-1.3-0.8-4.9-0.8c-7.2,0-17.3-4.6-23-13.5
						c0.8,0.1,2.5,0.4,4.1,0.4c1.3,0,2.3-0.2,3-0.4c1-0.4,1.5-1.1,1.5-1.9c0-2.1,1.8-3.8,3.8-5.5c1.2-1.1,2.5-2.3,3.5-3.7
						c2.3-3.3,5-4.9,8.1-4.9c2.1,0,3.9,0.8,5,1.5c0.7,0.4,1.4,0.8,2.2,1.2c3.6,1.8,7.6,3.9,8.4,10.9c0.3,2.8,1.1,4.1,2.5,4.1
						c1.2,0,2.7-0.9,4.8-2.3C81.8,126.2,77.9,139.1,69.9,139.1z"/>
				</g>
				<g>
					<path class="st1" d="M31.2,111.8C25,104.7,19,96.6,19,96.6l-5.9,2.5c0,0,5.2,9,9.6,17.4c4.4,8.5,4.3,5.8,8.6,12.8
						c4.3,7.1,11.6,22.3,11.6,22.3l10.9-9.4c0,0-8.4-11.1-13.6-17.5C35.2,118.2,37.4,118.8,31.2,111.8z"/>
					<path class="st0" d="M54.1,142.1c-0.1-0.1-4.1-5.4-8.3-10.8c-0.3-0.4-0.7-0.9-1-1.3c-0.2-0.2-0.3-0.5-0.5-0.7
						c-1.3-1.7-2.6-3.3-3.7-4.7c-2.3-2.9-3.1-4.3-3.9-5.8c-1-1.7-1.8-3.3-5.3-7.2c-6.1-6.9-12.1-15.1-12.2-15.1
						c-0.1-0.1-0.2-0.1-0.3-0.1L13,98.8c-0.1,0-0.1,0.1-0.1,0.2s0,0.1,0,0.2c0.1,0.1,5.2,9.1,9.6,17.4c2.5,4.7,3.5,6,4.8,7.4
						c0.9,1.1,2,2.3,3.8,5.4c3.6,5.9,9.5,17.8,11.2,21.3c0.1,0.2,0.2,0.4,0.3,0.5l0,0c0.1,0.3,0.2,0.4,0.2,0.4l0.1,0.1
						c0,0,0,0,0.1,0l0,0c0,0,0.1,0,0.2-0.1L54.1,142.1C54.2,142.3,54.2,142.1,54.1,142.1z M43.1,151.2c-0.1-0.1-0.2-0.3-0.3-0.6
						c-0.1-0.2-0.2-0.3-0.3-0.5s-0.2-0.3-0.3-0.5c-2.1-4.3-7.4-14.8-10.7-20.3c-1.9-3.1-3-4.4-3.9-5.5c-1.2-1.4-2.2-2.6-4.7-7.3
						c-4-7.6-8.6-15.7-9.5-17.2l5.4-2.3c0.9,1.2,6.4,8.6,12.1,15c3.4,3.8,4.3,5.4,5.2,7.1c0.8,1.4,1.6,2.9,3.9,5.8
						c1.2,1.4,2.5,3.2,3.8,4.9c0.1,0.1,0.1,0.2,0.2,0.3c0.1,0.1,0.2,0.2,0.2,0.3c4.1,5.2,8.3,10.8,9.2,11.9L43.1,151.2z"/>
				</g>
				<g>
					<path class="st2" d="M30.6,116.7c-0.1,0-0.2,0.2-0.2,0.3c0,0,0.3,2.1-0.2,3.3c-0.1,0.1,0,0.3,0.1,0.3h0.1
						c0.1,0,0.2-0.1,0.2-0.1c0.7-1.3,0.3-3.5,0.3-3.6C30.9,116.8,30.8,116.7,30.6,116.7z"/>
				</g>
				<g>
					<path class="st1" d="M88.5,111.5c-6.2,7-3.9,7.4-9,13.8c-5.1,6.5-13.7,16.6-13.7,16.6l11,7.7c0,0,7.3-13.5,11.5-20.6
						c4.3-7.1,4.2-4.3,8.6-12.8s9.6-17.4,9.6-17.4l-5.9-2.5C100.7,96.3,94.7,104.4,88.5,111.5z"/>
					<path class="st0" d="M106.7,98.5l-5.9-2.5c-0.1,0-0.2,0-0.3,0.1c-0.1,0.1-6.1,8.2-12.2,15.1c-3.4,3.8-4.2,5.7-5.1,7.6
						c-0.8,1.6-1.5,3.3-3.9,6.2c-1,1.3-2.1,2.7-3.3,4.1c-0.1,0.1-0.1,0.1-0.2,0.2c-0.4,0.4-0.7,0.9-1.1,1.4
						c-4.4,5.4-9,10.8-9.1,10.9c0,0.1-0.1,0.1-0.1,0.2c0,0.1,0.1,0.1,0.1,0.2l11,7.7l0.1,0.1c0,0,0,0,0.1,0s0.1-0.1,0.2-0.1
						c0,0,0.1-0.2,0.3-0.5c0.1-0.1,0.2-0.3,0.2-0.5c0.1-0.1,0.2-0.3,0.2-0.4c2-3.7,7.3-13.5,10.7-19.1c1.9-3.1,2.9-4.3,3.8-5.4
						c1.2-1.4,2.3-2.7,4.8-7.4c4.4-8.4,9.6-17.3,9.6-17.4s0.1-0.1,0-0.2C106.8,98.6,106.7,98.6,106.7,98.5z M92,123.4
						c-0.9,1.1-2,2.3-3.9,5.5c-3.2,5.3-8.1,14.2-10.3,18.4c-0.1,0.1-0.2,0.3-0.2,0.4c-0.1,0.2-0.2,0.3-0.2,0.5
						c-0.3,0.5-0.5,0.9-0.6,1.1l-10.6-7.4c0.9-1.1,5.4-6.4,9.5-11.4c0.1-0.1,0.1-0.2,0.2-0.3s0.1-0.2,0.2-0.3
						c1.3-1.6,2.5-3.1,3.6-4.4c2.4-3,3.2-4.7,3.9-6.3c0.9-1.9,1.7-3.7,5.1-7.5c5.7-6.4,11.2-13.9,12.1-15l5.4,2.3
						c-0.9,1.5-5.5,9.6-9.5,17.2C94.2,120.8,93.2,122,92,123.4z"/>
				</g>
				<g>
					<path class="st1" d="M60.1,109.7c-6.5,0-10.2,5.6-10.2,12.5c0,6.9,5.3,10.6,10.2,10.6s10.2-3.7,10.2-10.6
						C70.3,115.3,66.6,109.7,60.1,109.7z"/>
					<path class="st2" d="M60.1,109.4c-6.3,0-10.5,5.1-10.5,12.8c0,7,5.4,10.8,10.5,10.8s10.5-3.8,10.5-10.8
						C70.5,114.6,66.3,109.4,60.1,109.4z M60.1,132.6c-4.8,0-10-3.6-10-10.3c0-7.3,4-12.3,10-12.3s10,4.9,10,12.3
						C70,128.9,64.9,132.6,60.1,132.6z"/>
				</g>
				<g>
					<path class="st2" d="M66.2,127.4c-1,0.1-2-0.2-3-0.6s-2-0.7-3.1-0.7s-2,0.4-3,0.8s-1.8,0.7-2.7,0.7c-0.1,0-0.2,0.1-0.3,0.2
						c0,0.1,0.1,0.2,0.2,0.3c0.1,0,0.2,0,0.2,0c0.9,0,1.8-0.3,2.7-0.7c0.9-0.3,1.8-0.7,2.8-0.7s2,0.4,3,0.7c1.1,0.4,2.1,0.8,3.2,0.7
						c0.1,0,0.2-0.1,0.2-0.3C66.4,127.5,66.3,127.4,66.2,127.4z"/>
				</g>
				<g>
					<path class="st2" d="M60.3,120c-1.6,0-3,0.8-3,0.8c0,2.2,1.2,3.9,2.8,3.9c1.5,0,2.8-1.8,2.8-3.9c0-0.1,0-0.2,0-0.3
						C62.9,120.6,61.7,120,60.3,120z"/>
					<path class="st2" d="M63.1,120.6c0-0.1-0.1-0.2-0.1-0.2s-1.3-0.6-2.7-0.6c-1.3,0-3.2,0.7-3.2,1.1c0,2.3,1.4,4.2,3,4.2
						c1.7,0,3-1.9,3-4.2C63.1,120.8,63.1,120.7,63.1,120.6L63.1,120.6z M60.1,124.5c-1.4,0-2.5-1.6-2.5-3.6c0.3-0.2,1.5-0.7,2.7-0.7
						c1.1,0,2,0.3,2.3,0.5v0.1C62.6,122.9,61.5,124.5,60.1,124.5z"/>
				</g>
				<g>
					<path class="st1" d="M60.3,120c-1.6,0-3,0.8-3,0.8c0,0.2,0,0.5,0,0.7c0.8-0.5,1.8-0.3,3-0.3c1,0,1.8-0.2,2.6,0.1
						c0-0.2,0-0.3,0-0.5c0-0.1,0-0.2,0-0.3C62.9,120.6,61.7,120,60.3,120z"/>
					<path class="st2" d="M63,120.4c0,0-1.3-0.6-2.7-0.6c-1.3,0-3.2,0.7-3.2,1.1c0,0.2,0,0.5,0,0.7c0,0.1,0.1,0.2,0.1,0.2h0.1h0.1
						c0.6-0.3,1.3-0.3,2.2-0.3c0.5,0,1,0,1.5,0c0.2,0,0.5,0,0.7,0c0.4,0,0.7,0.1,0.9,0.2c0.1,0,0.2,0,0.2,0s0.1-0.1,0.1-0.2
						c0-0.2,0-0.3,0-0.5c0-0.1,0-0.2,0-0.3C63.1,120.5,63,120.4,63,120.4z M62.6,121c-0.4-0.1-0.9-0.1-1.5-0.1c-0.5,0-1,0-1.4,0
						c-0.8,0-1.5,0-2.1,0.2c0-0.1,0-0.2,0-0.2c0.3-0.2,1.5-0.7,2.7-0.7c1.1,0,2,0.3,2.3,0.5v0.1C62.6,120.9,62.6,120.9,62.6,121z"/>
				</g>
				<g>
					<path class="st3" d="M77.6,147.5v0.7c0,0.2,0,0.4,0,0.5c0,4.2-0.3,3.8-0.3,5.6H42.9c0-1.3-0.2-1.4-0.3-3l0,0c0-0.2,0-0.4,0-0.6
						l0,0c0-0.2,0-0.4,0-0.6c0-0.7,0-1.5,0-2.6c0-3.2,1.4-14.8,1.7-17.5c0-0.1,0-0.3,0-0.4c0-0.1,0-0.2,0-0.2
						c0.2,0.1,0.3,0.3,0.5,0.5c5,4.7,7.5,7.5,10.5,8.4c1,0.3,3.2,0.9,4.8,1.3c1.6-0.4,3.8-1,4.8-1.3c3.1-0.9,5.6-3.9,11-8.9l0,0
						c0,0.1,0,0.2,0,0.4c0,0.1,0,0.2,0.1,0.3C76.2,133.1,77.6,144.3,77.6,147.5z"/>
					<path class="st0" d="M77.8,147.2c-0.1-3.6-1.4-14.9-1.7-17.3c0-0.1,0-0.2,0-0.3s0-0.1,0-0.1c0-0.1,0-0.1-0.1-0.1l-0.1-0.1
						c-0.1,0-0.2,0-0.3,0.1c-1.2,1.1-2.2,2.1-3.1,3c-3.4,3.2-5.4,5.2-7.8,5.9c-1,0.3-3.1,0.8-4.7,1.3c-1.6-0.4-3.7-1-4.7-1.3
						c-2.4-0.7-4.4-2.7-7.8-5.9c-0.9-0.9-2-1.9-3.1-3c-0.1-0.1-0.1-0.1-0.2-0.1l0,0c-0.1,0-0.1,0.1-0.1,0.2l0,0c0,0,0,0.1,0,0.3
						c-0.3,2.1-1.7,14.4-1.8,17.7c0,0.8,0,1.5,0,2c0,0.2,0,0.4,0,0.6l0,0c0,0.2,0,0.4,0,0.6c0,1.1,0.1,1.7,0.2,2.1
						c0.1,0.4,0.1,0.8,0.1,1.4h0.5c0-0.7-0.1-1.1-0.1-1.5c0-0.3-0.1-0.6-0.1-1c0-0.2,0-0.4,0-0.6c0-0.2,0-0.4,0-0.6
						c0-0.7,0-1.7,0-3.1c0-3.1,1.3-14.1,1.7-17.2c0-0.1,0-0.2,0-0.3l0.1,0.1l0,0c0.4,0.4,0.8,0.7,1.2,1.1c0.5,0.5,1,0.9,1.4,1.3
						c3.4,3.3,5.5,5.2,7.9,6c1,0.3,3.2,0.9,4.8,1.3h0.1c1.7-0.4,3.8-1,4.8-1.3c2.5-0.8,4.5-2.7,7.9-6c0.6-0.6,1.2-1.1,1.8-1.7
						c0.3-0.3,0.6-0.6,0.9-0.9v0.1c0,0.1,0,0.2,0,0.3c0.4,3.2,1.7,14,1.7,17v1.1c0,0.2,0,0.4,0,0.5c0,2.2-0.1,3-0.2,3.6
						c-0.1,0.4-0.1,0.8-0.1,1.5h0.5c0-0.7,0.1-1,0.1-1.4c0.1-0.7,0.2-1.6,0.2-4.6L77.8,147.2C77.8,147.4,77.8,147.3,77.8,147.2z"/>
				</g>
				<path class="st1" d="M65.2,130.7H55c0,0,1.2,4.7-0.4,7.4c0,0,3.1,1.8,5.4,1.8h0.1c2.3,0,5.4-1.8,5.4-1.8
					C63.9,135.4,65.2,130.7,65.2,130.7z"/>
				<g>
					<path class="st2" d="M65.3,131.3c0-0.1-0.1-0.3-0.2-0.3s-0.3,0.1-0.3,0.2c-0.3,1.3-0.8,4.6,0.4,6.8c-0.7,0.4-3.2,1.7-5.1,1.7
						H60c-1.9,0-4.4-1.3-5.1-1.7c1.1-2.1,0.8-5,0.5-6.6c0-0.1-0.2-0.2-0.3-0.2s-0.2,0.1-0.2,0.3c0.2,1.3,0.7,4.5-0.5,6.5
						c0,0.1,0,0.1,0,0.2c0,0.1,0.1,0.1,0.1,0.1c0.1,0.1,3.2,1.8,5.5,1.9h0.1c2.4,0,5.4-1.8,5.5-1.9c0.1,0,0.1-0.1,0.1-0.1
						c0-0.1,0-0.1,0-0.2C64.5,135.9,65,132.6,65.3,131.3z"/>
				</g>
				<g>
					<path class="st1" d="M69.9,120.7l-0.7,4.8c0,0,0,1.8,1.7,1S72.7,119.5,69.9,120.7z"/>
					<path class="st2" d="M69.8,120.4c-0.1,0.1-0.2,0.2-0.1,0.3c0.1,0.1,0.2,0.2,0.3,0.1c0.7-0.3,1.2-0.1,1.5,0.7
						c0.7,1.5,0.2,4.2-0.7,4.7c-0.4,0.2-0.7,0.2-0.9,0.1c-0.3-0.2-0.4-0.7-0.4-0.9c0-0.1-0.1-0.2-0.2-0.2l0,0
						c-0.1,0-0.2,0.1-0.2,0.2c0,0,0,0.9,0.6,1.3c0.2,0.1,0.3,0.2,0.6,0.2c0.3,0,0.6-0.1,0.9-0.2c1.3-0.6,1.7-3.7,1-5.3
						C71.5,120.4,70.7,120,69.8,120.4z"/>
				</g>
				<g>
					<path class="st1" d="M49.2,126.5c1.7,0.8,1.7-1,1.7-1l-0.7-4.8C47.5,119.5,47.6,125.7,49.2,126.5z"/>
					<path class="st2" d="M50.9,125.2L50.9,125.2c-0.1,0-0.2,0.1-0.2,0.2c0,0.2-0.1,0.7-0.4,0.9c-0.2,0.1-0.5,0.1-1-0.1
						c-1-0.5-1.4-3.2-0.7-4.7c0.3-0.8,0.8-1,1.5-0.7c0.1,0.1,0.3,0,0.3-0.1s0-0.3-0.1-0.3c-1-0.4-1.7,0-2.2,0.9
						c-0.7,1.6-0.3,4.7,1,5.3c0.3,0.2,0.6,0.2,0.9,0.2c0.2,0,0.4-0.1,0.6-0.2c0.6-0.4,0.6-1.3,0.6-1.3
						C51.2,125.3,51,125.2,50.9,125.2z"/>
				</g>
				<g>
					<g>
						<path class="st2" d="M67.6,116.2c-0.6-0.2-1.4-0.9-2.2-1.5c-0.3-0.2-0.6-0.4-0.8-0.6c-0.3-0.2-0.5-0.2-0.8-0.1
							c-0.4,0.2-0.5,0.7-0.5,0.8c0,0.1,0.1,0.3,0.2,0.3c0.1,0,0.2-0.1,0.3-0.2c0-0.1,0.1-0.4,0.2-0.4c0.1,0,0.2,0,0.3,0.1
							c0.2,0.2,0.5,0.4,0.8,0.6c0.8,0.6,1.7,1.3,2.3,1.5h0.1c0.1,0,0.2-0.1,0.2-0.2C67.8,116.3,67.7,116.2,67.6,116.2z"/>
					</g>
					<g>
						<path class="st2" d="M64.4,116.8c-0.1,0.1-0.1,0.2-0.1,0.3c0.1,0.1,0.2,0.1,0.3,0.1c0.1-0.1,0.5-0.1,0.9,0.4
							c0.1,0.1,0.1,0.1,0.2,0.1s0.1,0,0.2-0.1s0.1-0.2,0-0.3C65.2,116.2,64.4,116.8,64.4,116.8z"/>
					</g>
				</g>
				<g>
					<g>
						<path class="st2" d="M56.8,113.9c-0.2-0.1-0.5-0.1-0.8,0.1c-0.2,0.2-0.5,0.4-0.8,0.6c-0.7,0.6-1.6,1.2-2.2,1.5
							c-0.1,0.1-0.2,0.2-0.2,0.3c0,0.1,0.1,0.2,0.2,0.2h0.1c0.6-0.2,1.5-0.9,2.3-1.5c0.3-0.2,0.6-0.4,0.8-0.6
							c0.1-0.1,0.2-0.1,0.3-0.1s0.2,0.3,0.2,0.4s0.1,0.2,0.3,0.2c0.1,0,0.2-0.1,0.2-0.3C57.2,114.7,57.2,114.1,56.8,113.9z"/>
					</g>
					<g>
						<path class="st2" d="M54.7,117.3c-0.1,0.1-0.1,0.3,0,0.3c0,0,0.1,0.1,0.2,0.1c0.1,0,0.2,0,0.2-0.1c0.4-0.5,0.8-0.5,0.9-0.4
							c0.1,0.1,0.3,0.1,0.3-0.1s0.1-0.3,0-0.3C56.2,116.8,55.5,116.2,54.7,117.3z"/>
					</g>
				</g>
				<g>
					<path class="st2" d="M60.1,117.1c-0.8,0-1.2,0.8-1.2,0.9c-0.1,0.1,0,0.3,0.1,0.3h0.1c0.1,0,0.2-0.1,0.2-0.1s0.3-0.6,0.8-0.6
						s0.7,0.6,0.7,0.6c0.1,0.1,0.2,0.2,0.3,0.1s0.2-0.2,0.1-0.3C61.3,117.9,60.9,117.1,60.1,117.1z"/>
				</g>
				<path d="M64.7,107.2c-5.3-2-11,0.3-14.3,5.1c-3.3,4.7,0.8,10.3,0.8,10.3s-0.4-2.2,0.9-4.3c0,0-1.5-0.8-0.2-3.9
					c0,0,0,2.4,1.3,3.3c0,0,0.3-5,3.9-4.8c0,0-0.3-1.8,2.4-2.2c0,0,0.8-2.4,2.2-0.5s0.3,2.4,1.8,3.4c0,0,2.1-0.5,3.2,1.3
					c0,0,0.8-1.5-0.2-2.8c0,0,2.4,2.2,1.6,4.4c0,0,2,1.9,2,5c0,0,1.5-2.1,1.2-5.4C70.9,112.7,70.1,109.2,64.7,107.2z"/>
				<g>
					<path class="st2" d="M89.6,117c0-0.1-0.1-0.3-0.2-0.3s-0.3,0.1-0.3,0.2s-0.4,2.3,0.3,3.6c0,0.1,0.1,0.1,0.2,0.1h0.1
						c0.1-0.1,0.2-0.2,0.1-0.3C89.3,119.1,89.6,117,89.6,117z"/>
				</g>
				<g>
					<g>
						<polygon class="st4" points="3.4,98.7 116.7,98.7 116.7,96.7 3.4,96.6 						"/>
						<path class="st5" d="M3.2,98.9H117v-2.5H3.2V98.9z M3.6,96.9h112.8v1.6H3.6V96.9z"/>
					</g>
					<g>
						<polygon class="st1" points="9.1,69.2 3.4,96.7 116.7,96.7 110.9,69.2 						"/>
						<path class="st5" d="M8.9,69L3.1,96.9H117L111.1,69H8.9z M3.7,96.4l5.7-26.9h101.4l5.7,26.9H3.7z"/>
					</g>
					<g>
						<g>
							<polygon class="st5" points="37.6,80.5 51.2,80.5 51.6,70.7 38.5,70.7 							"/>
							<path class="st5" d="M37.3,80.8h14.1l0.4-10.3H38.3L37.3,80.8z M51.4,70.9L51,80.3H37.9l0.9-9.4H51.4z"/>
						</g>
						<g>
							<polygon class="st5" points="36.3,94.8 50.6,94.8 51.1,82.4 37.4,82.4 							"/>
							<path class="st5" d="M36,95h14.8l0.5-12.8H37.2L36,95z M50.8,82.7l-0.5,11.9H36.6l1.1-11.9H50.8z"/>
						</g>
						<g>
							<polygon class="st5" points="53,70.7 52.7,80.5 65.9,80.5 65.5,70.7 							"/>
							<path class="st5" d="M52.8,70.4l-0.4,10.3h13.7l-0.4-10.3H52.8z M52.9,80.3l0.3-9.4h12l0.3,9.4H52.9z"/>
						</g>
						<g>
							<polygon class="st5" points="52.6,82.4 52.1,94.8 66.4,94.8 66,82.4 							"/>
							<path class="st5" d="M52.4,82.2L51.9,95h14.8l-0.5-12.8H52.4z M52.4,94.6l0.5-11.9h12.9l0.4,11.9H52.4z"/>
						</g>
						<g>
							<polygon class="st5" points="67,70.7 67.4,80.5 81,80.5 80.1,70.7 							"/>
							<path class="st5" d="M66.8,70.4l0.4,10.3h14.1l-0.9-10.3H66.8z M67.6,80.3l-0.4-9.4h12.6l0.9,9.4H67.6z"/>
						</g>
						<g>
							<polygon class="st5" points="67.5,82.4 68,94.8 82.3,94.8 81.2,82.4 							"/>
							<path class="st5" d="M67.3,82.2L67.8,95h14.8l-1.2-12.8H67.3z M68.2,94.6l-0.5-11.9h13.2L82,94.6H68.2z"/>
						</g>
						<g>
							<polygon class="st5" points="8.7,80.5 20.1,80.5 21.6,70.7 10.7,70.7 							"/>
							<path class="st5" d="M8.5,80.8h11.9L22,70.5H10.6L8.5,80.8z M21.4,70.9L20,80.3H9l1.9-9.4H21.4z"/>
						</g>
						<g>
							<polygon class="st5" points="5.8,94.8 17.9,94.8 19.8,82.4 8.4,82.4 							"/>
							<path class="st5" d="M5.6,95h12.6l2-12.8h-12L5.6,95z M19.6,82.7l-1.8,11.9H6.1l2.4-11.9H19.6z"/>
						</g>
						<g>
							<polygon class="st5" points="96.9,70.7 98.5,80.5 111.3,80.5 109.3,70.7 							"/>
							<path class="st5" d="M96.7,70.4l1.6,10.3h13.4l-2.1-10.3H96.7z M98.7,80.3l-1.4-9.4h11.9l1.9,9.4H98.7z"/>
						</g>
						<g>
							<polygon class="st5" points="98.8,82.4 100.7,94.8 114.2,94.8 111.7,82.4 							"/>
							<path class="st5" d="M98.5,82.2l1.9,12.6V95h14.1l-2.6-12.8H98.5z M100.8,94.6L99,82.7h12.5l2.4,11.9H100.8z"/>
						</g>
						<g>
							<polygon class="st5" points="21.8,80.5 35.9,80.5 36.9,70.7 23.3,70.7 							"/>
							<path class="st5" d="M21.5,80.8h14.6l1-10.3h-14L21.5,80.8z M36.6,70.9l-0.9,9.4H22.1l1.4-9.4H36.6z"/>
						</g>
						<g>
							<polygon class="st5" points="19.7,94.8 34.5,94.8 35.7,82.4 21.5,82.4 							"/>
							<path class="st5" d="M19.4,95h15.3L36,82.2H21.3L19.4,95z M35.5,82.7l-1.2,11.9H20l1.8-11.9H35.5z"/>
						</g>
						<g>
							<polygon class="st5" points="81.7,70.7 82.7,80.5 96.8,80.5 95.3,70.7 							"/>
							<path class="st5" d="M81.5,70.4l1,10.3h14.6l-1.5-10.3H81.5z M82.9,80.3L82,70.9h13.1l1.4,9.4H82.9z"/>
						</g>
						<g>
							<polygon class="st5" points="82.9,82.4 84.1,94.8 98.9,94.8 97.1,82.4 							"/>
							<path class="st5" d="M82.6,82.2L83.9,95h15.3l-1.9-12.8H82.6z M84.3,94.6l-1.2-11.9h13.7l1.8,11.9H84.3z"/>
						</g>
					</g>
				</g>
			</g>
			<polygon class="st3" points="47.4,40.1 67.5,11.6 60.4,35 71.3,32 53.3,58.5 58.6,36.4 			"/>
			<polygon class="st3" points="75.7,46.5 90.5,34.3 83.4,45.7 89.6,45.6 76.2,57.2 82.2,46.2 			"/>
			<polygon class="st3" points="27.8,51.6 28.2,32.3 32.2,45.2 36.2,40.5 36.1,58.2 31.8,46.4 			"/>
		</g>
		<circle class="st4" cx="26.4" cy="61.6" r="1.3"/>
		<path class="st4" d="M41.5,24.8c0,0.7-0.6,1.3-1.3,1.3S39,25.5,39,24.8s0.6-1.3,1.3-1.3S41.5,24.1,41.5,24.8z"/>
		<path class="st4" d="M96.5,58.2c0,0.7-0.6,1.3-1.3,1.3S94,58.9,94,58.2s0.6-1.3,1.3-1.3C95.9,56.9,96.5,57.4,96.5,58.2z"/>
		<path class="st4" d="M98.5,17.6c0,0.7-0.6,1.3-1.3,1.3s-1.3-0.6-1.3-1.3c0-0.7,0.6-1.3,1.3-1.3C97.9,16.3,98.5,16.9,98.5,17.6z"/>
		<path class="st6" d="M11.8,44.3c0,0.5-0.4,0.9-0.9,0.9S10,44.8,10,44.3s0.4-0.9,0.9-0.9C11.4,43.4,11.8,43.8,11.8,44.3z"/>
		<path class="st6" d="M16.1,21.3c0,0.5-0.4,0.9-0.9,0.9s-0.9-0.4-0.9-0.9s0.4-0.9,0.9-0.9C15.7,20.4,16.1,20.8,16.1,21.3z"/>
		<path class="st6" d="M81,24.8c0,0.5-0.4,0.9-0.9,0.9s-0.9-0.4-0.9-0.9s0.4-0.9,0.9-0.9S81,24.3,81,24.8z"/>
		<path class="st6" d="M75.8,5.6c0,0.5-0.4,0.9-0.9,0.9S74,6.1,74,5.6s0.4-0.9,0.9-0.9S75.8,5.1,75.8,5.6z"/>
		<path class="st6" d="M31.9,7.4c0,0.5-0.4,0.9-0.9,0.9s-0.9-0.4-0.9-0.9s0.4-0.9,0.9-0.9S31.9,6.9,31.9,7.4z"/>
		<path class="st6" d="M53.8,11.6c0,0.5-0.4,0.9-0.9,0.9S52,12.1,52,11.6s0.4-0.9,0.9-0.9C53.4,10.7,53.8,11.1,53.8,11.6z"/>
		<path class="st6" d="M101.2,36.9c0,0.5-0.4,0.9-0.9,0.9s-0.9-0.4-0.9-0.9s0.4-0.9,0.9-0.9C100.8,36,101.2,36.4,101.2,36.9z"/>
		<path class="st6" d="M48.3,48.2c0,0.5-0.4,0.9-0.9,0.9s-0.9-0.4-0.9-0.9s0.4-0.9,0.9-0.9S48.3,47.8,48.3,48.2z"/>
	</g>
	<g>
		<rect x="2" y="154.2" class="st1" width="115.4" height="1.1"/>
	</g>
</g>
</svg>
